<svg width="140" height="131" viewBox="0 0 140 131" fill="none" xmlns="http://www.w3.org/2000/svg">
<g id="g10">
<g id="g12">
<g id="Clip path group">
<mask id="mask0_4_475" style="mask-type:luminance" maskUnits="userSpaceOnUse" x="-1" y="-1" width="141" height="132">
<g id="clipPath18">
<path id="path16" d="M-0.00012207 -0.000226498H140V131H-0.00012207V-0.000226498Z" fill="white"/>
</g>
</mask>
<g mask="url(#mask0_4_475)">
<g id="g14">
<g id="g24">
<path id="path26" d="M78.2235 49.4534L77.3798 51.2859L82.3075 53.2739L83.1512 51.4418L78.2235 49.4534Z" fill="#2F3034"/>
</g>
<g id="g28">
<path id="path30" d="M74.7471 55.6813L74.7595 55.693C75.2553 55.8785 75.8253 55.6465 76.0235 55.171L79.7538 46.203C79.952 45.7391 79.7041 45.2055 79.1959 45.0197L79.1838 45.008C78.688 44.8225 78.1178 45.0545 77.9195 45.53L74.1896 54.498C74.0034 54.9735 74.2513 55.5075 74.7471 55.6813Z" fill="#2F3034"/>
</g>
<g id="g32">
<path id="path34" d="M46.1212 70.752L52.5156 69.8122L46.7532 48.4891C45.4768 43.953 38.8838 44.9854 39.33 46.5169L46.1212 70.752Z" fill="#EB5C46"/>
</g>
<g id="g36">
<path id="path38" d="M139.499 75.1379L138.496 78.2238C137.963 79.8598 136.351 80.9851 134.518 80.9851H15.1148L14.9166 80.9154L14.2349 80.6951L7.5926 78.2354C5.1884 77.5047 3.7634 75.7528 2.99487 73.5716C2.92074 73.3745 2.83386 73.1773 2.75939 72.9686C2.68526 72.7828 2.62319 72.5973 2.56113 72.4118C2.53631 72.3072 2.51149 72.1911 2.49942 72.0753L2.01603 67.655L1.94155 67.0401L1.86708 66.3674L1.85501 66.2397L1.48298 62.9451L1.42127 62.3995L0.838578 57.1443L0.776866 56.5991L0.689975 55.7871C0.47931 53.2925 3.44102 51.8656 9.86061 50.8564C10.5419 50.7519 11.2608 50.6477 12.0169 50.5548C12.4382 50.4967 12.8844 50.4386 13.3426 50.3922C14.0243 50.3112 14.7431 50.2299 15.4993 50.1486C15.933 50.1021 16.3664 50.0676 16.825 50.0212C17.519 49.9515 18.2379 49.8934 18.9813 49.8353C19.415 49.7892 19.8612 49.766 20.3197 49.7195C21.0262 49.6614 21.7451 49.615 22.4884 49.5569C22.9222 49.5221 23.3683 49.4875 23.8145 49.4527C24.5209 49.4062 25.2398 49.3482 25.9832 49.2901C26.4169 49.2553 26.8631 49.232 27.3216 49.1975C28.0281 49.151 28.7467 49.093 29.4904 49.0581C30.4323 48.9884 31.3987 48.9307 32.3903 48.8726C34.0757 46.7146 36.455 45.2296 40.1356 45.0092L40.7925 47.9096C41.2138 49.7195 42.9239 51.0187 44.9068 51.0187L82.8158 50.9029L82.4561 40.1367C83.0881 40.1251 83.6336 40.1831 84.1663 40.4383C85.7154 41.1694 86.9794 43.5707 89.0492 50.9029C122.621 52.7241 138.929 56.1581 139.561 72.4347C139.561 73.2815 139.549 74.1865 139.499 75.1379Z" fill="#5567EA"/>
</g>
<g id="g40">
<g id="g54">
<g id="Clip path group_2">
<mask id="mask1_4_475" style="mask-type:luminance" maskUnits="userSpaceOnUse" x="2" y="50" width="26" height="9">
<g id="clipPath46">
<path id="path44" d="M2.29377 50.6819H27.6802V58.9536H2.29377V50.6819Z" fill="white"/>
</g>
</mask>
<g mask="url(#mask1_4_475)">
<g id="g52" opacity="0.300003">
<g id="g50">
<path id="path48" d="M27.4202 50.6934L24.8177 50.8789C24.8177 50.8789 20.8644 51.1806 20.4555 51.2038C20.4555 51.2038 17.4193 51.4706 16.9979 51.5054C16.5394 51.5519 16.0932 51.5984 15.6595 51.6448C14.9285 51.7142 14.2221 51.7955 13.528 51.8884C13.0943 51.9349 12.6605 51.9926 12.2268 52.0507C11.5451 52.132 10.8883 52.2249 10.2812 52.3175L10.145 52.3407C2.12695 53.6054 2.26314 55.1714 2.30038 55.6473L2.67206 58.9535C3.92398 53.9996 16.3039 52.5033 27.6805 50.6818C27.5812 50.6934 27.4946 50.6934 27.4202 50.6934Z" fill="white"/>
</g>
</g>
</g>
</g>
</g>
</g>
<g id="g56">
<g id="g70">
<g id="Clip path group_3">
<mask id="mask2_4_475" style="mask-type:luminance" maskUnits="userSpaceOnUse" x="101" y="53" width="36" height="14">
<g id="clipPath62">
<path id="path60" d="M101.788 53.2575H136.636V66.4133H101.788V53.2575Z" fill="white"/>
</g>
</mask>
<g mask="url(#mask2_4_475)">
<g id="g68" opacity="0.300003">
<g id="g66">
<path id="path64" d="M101.788 53.2575C117.725 55.4035 129.486 59.7076 136.636 66.4133C133.042 58.1649 121.889 54.9745 101.788 53.2575Z" fill="white"/>
</g>
</g>
</g>
</g>
</g>
</g>
<g id="g72">
<g id="g86">
<g id="Clip path group_4">
<mask id="mask3_4_475" style="mask-type:luminance" maskUnits="userSpaceOnUse" x="2" y="72" width="138" height="9">
<g id="clipPath78">
<path id="path76" d="M2.56016 72.4104H139.545V80.9838H2.56016V72.4104Z" fill="white"/>
</g>
</mask>
<g mask="url(#mask3_4_475)">
<g id="g84" opacity="0.149994">
<g id="g82">
<path id="path80" d="M139.498 75.1369L138.495 78.2228C137.962 79.8588 136.351 80.9841 134.516 80.9841H15.1137L14.9154 80.9144L14.2338 80.6941L7.59147 78.2344C5.18727 77.5037 3.76227 75.7518 2.99374 73.5706C2.91961 73.3735 2.83273 73.1764 2.75826 72.9676C2.68413 72.7818 2.62206 72.5963 2.56 72.4105H139.523C139.56 73.2806 139.548 74.1855 139.498 75.1369Z" fill="#2F3034"/>
</g>
</g>
</g>
</g>
</g>
</g>
<g id="g88">
<path id="path90" d="M127.429 57.8513C129.573 57.9559 135.434 61.6218 136.872 66.587C137.107 67.3993 135.781 68.2694 134.889 68.2114C134.678 68.1997 134.827 68.1997 132.819 68.1533C131.072 68.1068 129.61 66.9351 129.238 65.3342C128.804 63.4546 128.408 62.1438 126.784 60.1716C125.347 58.443 126.66 57.8165 127.429 57.8513Z" fill="#5567EA"/>
</g>
<g id="g92">
<g id="g106">
<g id="Clip path group_5">
<mask id="mask4_4_475" style="mask-type:luminance" maskUnits="userSpaceOnUse" x="127" y="59" width="8" height="9">
<g id="clipPath98">
<path id="path96" d="M127.528 59.3237H134.592V67.0386H127.528V59.3237Z" fill="white"/>
</g>
</mask>
<g mask="url(#mask4_4_475)">
<g id="g104" opacity="0.5">
<g id="g102">
<path id="path100" d="M127.528 59.3237C129.188 61.3075 129.622 62.688 130.093 64.5676C130.44 65.983 131.754 66.9921 133.29 67.0153L134.431 67.0386H134.592C134.332 63.5581 131.977 59.8457 127.528 59.3237Z" fill="white"/>
</g>
</g>
</g>
</g>
</g>
</g>
<g id="g108">
<path id="path110" d="M82.3191 75.3458C82.2818 76.7728 81.0551 77.8865 79.5432 77.8865H64.8456C57.1993 77.8865 49.6026 72.9558 48.6855 65.8791L46.8267 50.9947L82.7901 50.8901L82.3191 75.3458Z" fill="#FFC93A"/>
</g>
<g id="g112">
<path id="path114" d="M91.6755 77.1445V80.9846H121.48V77.1445C121.48 70.1603 116.002 64.3715 108.852 63.3388C108.12 63.2462 107.352 63.1765 106.584 63.1765C98.3427 63.1882 91.6755 69.4296 91.6755 77.1445Z" fill="#2F3034"/>
</g>
<g id="g116">
<path id="path118" d="M17.0477 77.1445V80.9846H46.8517V77.1445C46.8517 70.1603 41.3745 64.3715 34.2239 63.3388C33.4926 63.2462 32.7244 63.1765 31.9559 63.1765C23.7148 63.1882 17.0477 69.4296 17.0477 77.1445Z" fill="#2F3034"/>
</g>
<g id="g120">
<path id="path122" d="M51.7095 55.1704C51.7095 55.9244 52.3788 56.5393 53.1842 56.5393L58.7239 56.5045C59.5293 56.5045 60.1861 55.8783 60.1861 55.124C60.1861 54.37 59.5169 53.7551 58.7115 53.7551L53.1718 53.7899C52.3539 53.7899 51.6971 54.4048 51.7095 55.1704Z" fill="#5567EA"/>
</g>
<g id="g124">
<path id="path126" d="M132.076 75.1377H139.487L138.483 78.2235C137.95 79.8596 136.339 80.9849 134.505 80.9849H127.453L128.593 77.5393C129.077 76.1123 130.489 75.1377 132.076 75.1377Z" fill="#C4C4D8"/>
</g>
<g id="g128">
<path id="path130" d="M135.979 78.757L136.277 77.3648H133.488C133.116 77.3648 132.794 77.7013 132.695 78.1885L132.571 78.757H135.979Z" fill="white"/>
</g>
<g id="g132">
<path id="path134" d="M14.9159 80.9143L14.2343 80.694L7.59196 78.2343C5.18776 77.5035 3.76276 75.7517 2.99423 73.5708C2.91976 73.3733 2.83322 73.1762 2.75874 72.9675H9.09144C15.2135 72.9791 14.9159 80.9143 14.9159 80.9143Z" fill="#C4C4D8"/>
</g>
<g id="g136">
<path id="path138" d="M0.776245 56.6104L0.838307 57.1673L1.42065 62.4112L1.48271 62.968L1.85439 66.2626L1.86681 66.3904L1.94128 67.0634L2.01541 67.678H2.52362C3.34146 67.678 4.08516 67.3418 4.59303 66.7617C5.10125 66.1817 5.32433 65.4158 5.16331 64.685L4.55614 58.6407C4.29583 57.4689 3.19285 56.6104 1.91645 56.6104H0.776245Z" fill="white"/>
</g>
<g id="g140">
<path id="path142" d="M0.838176 57.1551C-0.33927 57.3058 0.441671 67.0509 1.95356 67.0509H2.58556C3.9116 67.0509 4.89045 65.9256 4.64255 64.7077L3.97367 58.7327C3.77507 57.8049 2.92 57.1435 1.91632 57.1435H0.838176V57.1551Z" fill="#EB5C46"/>
</g>
<g id="g144">
<path id="path146" d="M29.8121 51.8642C29.8245 52.3978 29.4156 52.8505 28.8453 52.9082C28.2505 52.9779 27.7178 52.5721 27.6434 52.0149L27.2965 49.2074C28.0026 49.161 28.7215 49.1032 29.4652 49.0684L29.7997 51.7945C29.7997 51.8178 29.7997 51.841 29.8121 51.8642Z" fill="#2F3034"/>
</g>
<g id="g148">
<path id="path150" d="M26.329 52.224C26.3414 52.7576 25.9325 53.2102 25.3622 53.268C24.7675 53.3377 24.2348 52.9318 24.1603 52.3746L23.801 49.463C24.5072 49.4165 25.226 49.3584 25.9697 49.3004L26.329 52.1543C26.3166 52.1775 26.3166 52.2007 26.329 52.224Z" fill="#2F3034"/>
</g>
<g id="g152">
<path id="path154" d="M22.8342 52.503V52.5727C22.8466 53.1063 22.4377 53.5587 21.8798 53.6167C21.2851 53.6864 20.7524 53.2802 20.6779 52.7234L20.3062 49.7188C21.0123 49.6607 21.7312 49.6143 22.4749 49.5562L22.8342 52.503Z" fill="#2F3034"/>
</g>
<g id="g156">
<path id="path158" d="M19.3528 52.8617V52.9314C19.3652 53.465 18.9563 53.9173 18.3984 53.9754C17.8037 54.0451 17.271 53.6389 17.1965 53.082L16.8124 50.031C17.5064 49.9613 18.225 49.9032 18.9687 49.8455L19.3528 52.8617Z" fill="#2F3034"/>
</g>
<g id="g160">
<path id="path162" d="M15.8692 53.2209V53.2906C15.8816 53.8242 15.4727 54.2765 14.9149 54.3346C14.3201 54.4043 13.775 53.9981 13.7129 53.4413L13.3412 50.4019C14.0229 50.3206 14.7414 50.2393 15.4975 50.1583L15.8692 53.2209Z" fill="#2F3034"/>
</g>
<g id="g164">
<path id="path166" d="M12.375 53.5803V53.65C12.3875 54.1836 11.9785 54.6359 11.4207 54.694C10.8259 54.7637 10.2808 54.3575 10.2187 53.8007L9.85948 50.8771C10.5287 50.7729 11.2597 50.6683 12.0158 50.5754L12.375 53.5803Z" fill="#2F3034"/>
</g>
<g id="g168">
<path id="path170" d="M111.864 78.3621C111.864 81.0882 109.51 83.3043 106.585 83.3043C103.673 83.3043 101.306 81.0882 101.306 78.3621C101.306 75.6243 103.673 73.4198 106.585 73.4198C109.497 73.4198 111.864 75.6243 111.864 78.3621Z" fill="#C4C4D8"/>
</g>
<g id="g172">
<path id="path174" d="M93.324 78.3624C93.324 85.2187 99.2602 90.7643 106.572 90.7643C113.896 90.7643 119.819 85.2071 119.819 78.3624C119.819 71.506 113.883 65.9605 106.572 65.9605C99.2602 65.9489 93.324 71.506 93.324 78.3624ZM97.5745 78.3624C97.5745 73.7102 101.602 69.9397 106.572 69.9397C111.541 69.9397 115.569 73.7102 115.569 78.3624C115.569 83.0146 111.541 86.7851 106.572 86.7851C101.602 86.7851 97.5745 83.0146 97.5745 78.3624Z" fill="#2F3034"/>
</g>
<g id="g176">
<path id="path178" d="M106.572 69.638C101.429 69.638 97.2528 73.5359 97.2528 78.3507C97.2528 83.1652 101.417 87.0631 106.572 87.0631C111.715 87.0631 115.891 83.1652 115.891 78.3507C115.891 73.5475 111.727 69.638 106.572 69.638ZM109.422 82.3764C108.877 82.7126 108.27 82.9565 107.613 83.0839C107.279 83.1536 106.931 83.1884 106.572 83.1884C106.213 83.1884 105.866 83.1536 105.531 83.0839C104.874 82.9565 104.267 82.7126 103.734 82.3764C103.152 82.005 102.644 81.5408 102.259 80.9839C101.913 80.4852 101.652 79.9167 101.528 79.3018C101.466 78.9885 101.429 78.6753 101.429 78.3623C101.429 78.0142 101.479 77.6777 101.541 77.3528C101.677 76.7495 101.937 76.1927 102.284 75.6939C102.668 75.1487 103.177 74.6844 103.771 74.325C104.304 74.0002 104.899 73.7682 105.531 73.6404C105.866 73.5707 106.213 73.5475 106.572 73.5475C106.931 73.5475 107.279 73.5824 107.613 73.6404C108.245 73.7682 108.84 74.0002 109.373 74.325C109.955 74.6844 110.463 75.1487 110.847 75.6939C111.195 76.1811 111.455 76.7495 111.591 77.3528C111.666 77.6777 111.715 78.0142 111.715 78.3623C111.715 78.6869 111.678 79.0001 111.616 79.3018C111.479 79.9051 111.232 80.4736 110.872 80.9839C110.501 81.5292 110.005 82.005 109.422 82.3764ZM109.98 73.7682C109.286 73.3156 108.493 73.0023 107.625 72.8632V70.4965C109.175 70.6704 110.587 71.2388 111.765 72.0973L109.98 73.7682ZM105.531 72.8516C104.676 72.9907 103.871 73.3039 103.177 73.7566L101.392 72.0973C102.569 71.2388 103.982 70.6704 105.531 70.4965V72.8516ZM101.702 75.1371C101.219 75.7868 100.871 76.5408 100.71 77.3528H98.1824C98.3806 75.9027 99.0002 74.5686 99.9173 73.4665L101.702 75.1371ZM100.698 79.3018C100.847 80.1255 101.181 80.8797 101.677 81.5408L99.8925 83.2117C98.9754 82.1093 98.3558 80.7636 98.17 79.3018H100.698ZM103.139 82.9332C103.846 83.3972 104.651 83.722 105.531 83.8727V86.2395C103.957 86.0656 102.532 85.4739 101.355 84.6038L103.139 82.9332ZM107.625 83.8611C108.505 83.7104 109.323 83.3972 110.017 82.9216L111.802 84.5922C110.612 85.4623 109.187 86.0423 107.613 86.2278V83.8611H107.625ZM111.492 81.5408C111.975 80.8797 112.322 80.1255 112.471 79.3018H114.999C114.813 80.7636 114.194 82.0976 113.276 83.2117L111.492 81.5408ZM112.459 77.3528C112.298 76.5408 111.95 75.7868 111.467 75.1371L113.252 73.4665C114.169 74.5686 114.788 75.9027 114.987 77.3528H112.459Z" fill="#C4C4D8"/>
</g>
<g id="g180">
<path id="path182" d="M37.0861 78.3621C37.0861 81.0882 34.7315 83.3043 31.8067 83.3043C28.8947 83.3043 26.5277 81.0882 26.5277 78.3621C26.5277 75.6243 28.8947 73.4198 31.8067 73.4198C34.7315 73.4198 37.0861 75.6243 37.0861 78.3621Z" fill="#C4C4D8"/>
</g>
<g id="g184">
<path id="path186" d="M18.5464 78.3624C18.5464 85.2187 24.4825 90.7643 31.7941 90.7643C39.1181 90.7643 45.0418 85.2071 45.0418 78.3624C45.0418 71.506 39.1056 65.9605 31.7941 65.9605C24.4825 65.9489 18.5464 71.506 18.5464 78.3624ZM22.8093 78.3624C22.8093 73.7102 26.8371 69.9397 31.8065 69.9397C36.7759 69.9397 40.8034 73.7102 40.8034 78.3624C40.8034 83.0146 36.7759 86.7851 31.8065 86.7851C26.8371 86.7851 22.8093 83.0146 22.8093 78.3624Z" fill="#2F3034"/>
</g>
<g id="g188">
<path id="path190" d="M31.806 69.638C26.6632 69.638 22.4868 73.5359 22.4868 78.3507C22.4868 83.1652 26.6508 87.0631 31.806 87.0631C36.9488 87.0631 41.1252 83.1652 41.1252 78.3507C41.1128 73.5475 36.9488 69.638 31.806 69.638ZM34.6564 82.3764C34.1109 82.7126 33.5037 82.9565 32.8469 83.0839C32.5125 83.1536 32.1653 83.1884 31.806 83.1884C31.4467 83.1884 31.0995 83.1536 30.7651 83.0839C30.1083 82.9565 29.5011 82.7126 28.9681 82.3764C28.3857 82.005 27.8775 81.5408 27.4934 80.9839C27.1462 80.4852 26.8862 79.9167 26.7621 79.3018C26.7004 78.9885 26.6632 78.6753 26.6632 78.3623C26.6632 78.0142 26.7125 77.6777 26.7745 77.3528C26.9111 76.7495 27.171 76.1927 27.5182 75.6939C27.9023 75.1487 28.4106 74.6844 29.0053 74.325C29.538 74.0002 30.1331 73.7682 30.7651 73.6404C31.0995 73.5707 31.4467 73.5475 31.806 73.5475C32.1653 73.5475 32.5125 73.5824 32.8469 73.6404C33.4789 73.7682 34.0737 74.0002 34.6067 74.325C35.1891 74.6844 35.6973 75.1487 36.0814 75.6939C36.4286 76.1811 36.6885 76.7495 36.8251 77.3528C36.8992 77.6777 36.9488 78.0142 36.9488 78.3623C36.9488 78.6869 36.9116 79.0001 36.8499 79.3018C36.7134 79.9051 36.4655 80.4736 36.1062 80.9839C35.7345 81.5292 35.2387 82.005 34.6564 82.3764ZM35.2015 73.7682C34.5074 73.3156 33.7144 73.0023 32.8469 72.8632V70.4965C34.396 70.6704 35.8086 71.2388 36.9861 72.0973L35.2015 73.7682ZM30.7651 72.8516C29.91 72.9907 29.1043 73.3039 28.4106 73.7566L26.6259 72.0857C27.803 71.2272 29.216 70.6588 30.7651 70.4849V72.8516ZM26.9235 75.1371C26.4401 75.7868 26.0929 76.5408 25.9319 77.3528H23.4039C23.6022 75.9027 24.2217 74.5686 25.1389 73.4665L26.9235 75.1371ZM25.9195 79.3018C26.0684 80.1255 26.4029 80.8797 26.8987 81.5408L25.114 83.2117C24.1969 82.1093 23.5773 80.7636 23.3915 79.3018H25.9195ZM28.3609 82.9332C29.0674 83.3972 29.8728 83.722 30.7527 83.8727V86.2395C29.1787 86.0656 27.7537 85.4739 26.5763 84.6038L28.3609 82.9332ZM32.8469 83.8611C33.7268 83.7104 34.5447 83.3972 35.2387 82.9216L37.0233 84.5922C35.8335 85.4623 34.4085 86.0423 32.8345 86.2278V83.8611H32.8469ZM36.7134 81.5408C37.1968 80.8797 37.5436 80.1255 37.6926 79.3018H40.2205C40.0347 80.7636 39.4151 82.0976 38.498 83.2117L36.7134 81.5408ZM37.6801 77.3528C37.5191 76.5408 37.1719 75.7868 36.6885 75.1371L38.4732 73.4665C39.3903 74.5686 40.0099 75.9027 40.2081 77.3528H37.6801Z" fill="#C4C4D8"/>
</g>
<g id="g192">
<path id="path194" d="M89.0115 50.8789H84.5006L84.1289 40.4147C85.6653 41.1454 86.9421 43.5586 89.0115 50.8789Z" fill="#5567EA"/>
</g>
<g id="g196">
<path id="path198" d="M131.753 65.996C131.914 66.1121 132.075 66.228 132.274 66.286C132.472 66.3441 132.695 66.3325 132.856 66.228C133.154 66.0541 133.203 65.6595 133.154 65.3346C133.067 64.6503 132.72 63.989 132.187 63.5134C131.976 63.3276 131.741 63.1653 131.468 63.1072C131.196 63.0492 130.873 63.1072 130.687 63.3044C130.452 63.5483 130.477 63.9309 130.563 64.2558C130.762 64.9288 131.183 65.5437 131.753 65.996Z" fill="white"/>
</g>
<g id="g200">
<path id="path202" d="M130.663 62.8169C130.836 62.7588 130.935 62.5733 130.923 62.3991C130.911 62.2252 130.836 62.063 130.725 61.9236C130.613 61.7613 130.477 61.6103 130.316 61.4829C130.204 61.39 130.043 61.297 129.907 61.3667C129.832 61.4016 129.783 61.4713 129.77 61.5522C129.758 61.6335 129.758 61.7032 129.77 61.7845C129.808 61.9933 129.87 62.1904 129.956 62.3878C130.018 62.5153 130.093 62.643 130.217 62.7356C130.353 62.8285 130.526 62.875 130.663 62.8169Z" fill="white"/>
</g>
<g id="g204">
<g id="g218">
<g id="Clip path group_6">
<mask id="mask5_4_475" style="mask-type:luminance" maskUnits="userSpaceOnUse" x="1" y="59" width="3" height="8">
<g id="clipPath210">
<path id="path208" d="M1.32222 59.6131H3.79186V66.2488H1.32222V59.6131Z" fill="white"/>
</g>
</mask>
<g mask="url(#mask5_4_475)">
<g id="g216" opacity="0.5">
<g id="g214">
<path id="path212" d="M2.95701 59.6154C2.80841 59.6386 2.72152 59.7776 2.65946 59.917C1.96575 61.3556 1.5196 62.8987 1.34582 64.4647C1.28411 65.068 1.30893 65.7871 1.85404 66.112C2.23813 66.344 2.78358 66.263 3.14285 65.9962C3.50212 65.7294 3.70072 65.3 3.76243 64.8709C3.8245 64.4415 3.77485 64.0008 3.73761 63.5714C3.61383 62.4228 3.47764 61.2859 3.35352 60.1374C3.3411 59.8938 3.21733 59.5805 2.95701 59.6154Z" fill="white"/>
</g>
</g>
</g>
</g>
</g>
</g>
</g>
</g>
</g>
</g>
</g>
</svg>
