<svg width="140" height="131" viewBox="0 0 140 131" fill="none" xmlns="http://www.w3.org/2000/svg">
<g id="i" clip-path="url(#clip0_4_1234)">
<path id="&#60;Path&#62;" d="M137.704 53.3435H3.06513C1.55488 53.3435 0.34668 54.5517 0.34668 55.9864C0.34668 75.3176 16.1288 91.0997 35.4599 91.0997H105.309C124.565 91.0997 140.347 75.3176 140.347 55.9864C140.347 54.5517 139.138 53.3435 137.704 53.3435Z" fill="#5567EA"/>
<path id="&#60;Path&#62;_2" d="M3.06513 53.3435C1.55488 53.3435 0.34668 54.5517 0.34668 55.9864C0.34668 75.3176 16.1288 91.0997 35.4599 91.0997H105.309C12.3532 91.7038 3.06513 53.3435 3.06513 53.3435Z" fill="#5567EA"/>
<path id="&#60;Path&#62;_3" d="M23.6801 53.3435C22.2453 53.3435 4.27339 54.5517 4.49993 55.9864C7.06735 78.5646 29.0414 91.0997 56.0749 91.0997H125.924C32.9681 91.7038 23.6801 53.3435 23.6801 53.3435Z" fill="#3749CC"/>
<path id="&#60;Path&#62;_4" d="M140.347 55.9864C140.347 56.7416 140.321 57.4715 140.271 58.1763H0.422197C0.371855 57.4715 0.34668 56.7416 0.34668 55.9864C0.34668 54.5517 1.55488 53.3435 3.06513 53.3435H137.704C139.138 53.3435 140.347 54.5517 140.347 55.9864Z" fill="#FFC93A"/>
<path id="&#60;Path&#62;_5" d="M79.7858 67.9929L78.8796 81.132L86.3554 109.827C86.6574 110.959 87.4125 111.866 88.4697 112.394C89.6024 112.923 90.7351 112.998 91.8678 112.47L101.382 108.392C102.389 107.989 103.119 107.259 103.572 106.202C103.975 105.145 103.95 104.088 103.497 103.031L92.3964 77.6585L82.9573 67.0112L79.7858 67.9929Z" fill="#7FBACC"/>
<path id="&#60;Path&#62;_6" d="M79.7858 67.993L78.8796 81.1321L86.3554 109.827C86.6574 110.96 87.4125 111.866 88.4697 112.394C89.6024 112.923 90.7351 112.998 91.8678 112.47L97.0781 110.28L80.843 67.6909L79.7858 67.993Z" fill="#FFC93A"/>
<path id="&#60;Path&#62;_7" d="M64.0036 20.4202C63.7015 19.514 64.2301 18.6079 65.0608 18.3058C65.9669 18.0038 66.8731 18.4568 67.1751 19.363L88.2431 82.9444C88.5451 83.8506 88.0921 84.7567 87.1859 85.0588C86.3553 85.3608 85.3736 84.9078 85.0716 84.0016L64.0036 20.4202Z" fill="#706F6F"/>
<path id="&#60;Path&#62;_8" d="M88.1676 67.5398L95.5678 79.5463L119.354 101.294C120.336 102.2 121.469 102.653 122.677 102.653C123.885 102.578 124.867 102.049 125.471 101.067L130.53 93.0631C131.084 92.1569 131.21 91.1501 130.908 90.0426C130.555 88.9351 129.876 88.0289 128.869 87.3241L104.252 70.1073L90.0554 65.199L88.1676 67.5398Z" fill="#7FBACC"/>
<path id="&#60;Path&#62;_9" d="M88.1676 67.5398L95.5678 79.5463L119.354 101.294C120.336 102.2 121.469 102.653 122.677 102.653C123.885 102.578 124.867 102.049 125.471 101.067L128.265 96.6877L88.7717 66.7092L88.1676 67.5398Z" fill="#FFC93A"/>
<path id="&#60;Path&#62;_10" d="M45.9561 32.9552C45.201 32.2756 44.9745 31.2184 45.503 30.6143C46.0316 29.9347 47.0888 29.9347 47.8439 30.5388L104.176 76.7524C104.931 77.3565 105.158 78.4137 104.629 79.0933C104.101 79.7729 103.119 79.7729 102.288 79.1688L45.9561 32.9552Z" fill="#706F6F"/>
</g>
<defs>
<clipPath id="clip0_4_1234">
<rect width="140" height="131" fill="white"/>
</clipPath>
</defs>
</svg>
