<svg width="16" height="16" viewBox="0 0 16 16" fill="none" xmlns="http://www.w3.org/2000/svg">
<g id="party-popper" opacity="0.5" clip-path="url(#clip0_2158_63934)">
<path id="Vector" d="M3.86146 7.53345L1.32812 14.6668L8.46146 12.1401" stroke="#333333" stroke-width="1.5" stroke-linecap="round" stroke-linejoin="round"/>
<path id="Vector_2" d="M2.66406 2.00004H2.67073" stroke="#333333" stroke-width="1.5" stroke-linecap="round" stroke-linejoin="round"/>
<path id="Vector_3" d="M14.6641 5.33337H14.6707" stroke="#333333" stroke-width="1.5" stroke-linecap="round" stroke-linejoin="round"/>
<path id="Vector_4" d="M10 1.33337H10.0067" stroke="#333333" stroke-width="1.5" stroke-linecap="round" stroke-linejoin="round"/>
<path id="Vector_5" d="M14.6641 13.3334H14.6707" stroke="#333333" stroke-width="1.5" stroke-linecap="round" stroke-linejoin="round"/>
<path id="Vector_6" d="M14.6615 1.33337L13.1681 1.83337C12.743 1.97497 12.3803 2.2598 12.142 2.63919C11.9037 3.01858 11.8045 3.46897 11.8615 3.91337C11.9281 4.48671 11.4815 5.00004 10.8948 5.00004H10.6415C10.0681 5.00004 9.57479 5.40004 9.46813 5.96004L9.32812 6.66671" stroke="#333333" stroke-width="1.5" stroke-linecap="round" stroke-linejoin="round"/>
<path id="Vector_7" d="M14.6615 8.66678L14.1148 8.44678C13.5415 8.22012 12.9015 8.58012 12.7948 9.18678C12.7215 9.65345 12.3148 10.0001 11.8415 10.0001H11.3281" stroke="#333333" stroke-width="1.5" stroke-linecap="round" stroke-linejoin="round"/>
<path id="Vector_8" d="M7.33333 1.33337L7.55333 1.88004C7.78 2.45337 7.42 3.09337 6.81333 3.20004C6.34667 3.26671 6 3.68004 6 4.15337V4.66671" stroke="#333333" stroke-width="1.5" stroke-linecap="round" stroke-linejoin="round"/>
<path id="Vector_9" d="M7.32846 8.66672C8.61513 9.95339 9.21513 11.4467 8.6618 12.0001C8.10846 12.5534 6.61513 11.9534 5.32846 10.6667C4.0418 9.38005 3.4418 7.88672 3.99513 7.33339C4.54846 6.78005 6.0418 7.38005 7.32846 8.66672Z" stroke="#333333" stroke-width="1.5" stroke-linecap="round" stroke-linejoin="round"/>
</g>
<defs>
<clipPath id="clip0_2158_63934">
<rect width="16" height="16" fill="white"/>
</clipPath>
</defs>
</svg>
