<svg width="16" height="16" viewBox="0 0 16 16" fill="none" xmlns="http://www.w3.org/2000/svg">
<g id="Frame" opacity="0.5" clip-path="url(#clip0_2158_63955)">
<path id="Vector" d="M4.78225 7.1373L8.00202 8.00004L11.2218 8.86277L14.4415 9.7255C15.2209 6.81687 13.9512 3.84197 11.5173 2.33338C10.9752 1.99737 10.3753 1.73411 9.72745 1.56052C8.98139 1.36061 8.23092 1.29552 7.50199 1.35032C4.75622 1.55673 2.31553 3.4642 1.5625 6.27457L4.78225 7.1373Z" stroke="#333333" stroke-width="1.5" stroke-linecap="round" stroke-linejoin="round"/>
<path id="Vector_2" d="M9.72311 1.56047C9.72311 1.56047 7.84288 2.78212 6.76754 4.21944C5.69224 5.65677 5.42188 7.3098 5.42188 7.3098" stroke="#333333" stroke-width="1.5" stroke-linecap="round" stroke-linejoin="round"/>
<path id="Vector_3" d="M9.72656 1.56042C9.72656 1.56042 10.7441 3.55852 10.9567 5.34096C11.1692 7.12336 10.5769 8.69012 10.5769 8.69012" stroke="#333333" stroke-width="1.5" stroke-linecap="round" stroke-linejoin="round"/>
<path id="Vector_4" d="M1.5625 6.27457L4.78225 7.13731L8.00202 8.00004L11.2218 8.86277L14.4415 9.72551" stroke="#333333" stroke-width="1.5" stroke-linecap="round" stroke-linejoin="round"/>
<path id="Vector_5" d="M1.33594 14.6666H14.6693" stroke="#333333" stroke-width="1.5" stroke-linecap="round" stroke-linejoin="round"/>
<path id="Vector_6" d="M7.9974 8L6.16406 14.6666" stroke="#333333" stroke-width="1.5" stroke-linecap="round" stroke-linejoin="round"/>
<path id="Vector_7" d="M7.5 1.35032C8.22893 1.29552 8.9794 1.36061 9.72547 1.56052C10.3733 1.73411 10.9732 1.99737 11.5153 2.33338" stroke="#333333" stroke-width="1.5" stroke-linecap="round" stroke-linejoin="round"/>
</g>
<defs>
<clipPath id="clip0_2158_63955">
<rect width="16" height="16" fill="white"/>
</clipPath>
</defs>
</svg>
