<svg width="16" height="16" viewBox="0 0 16 16" fill="none" xmlns="http://www.w3.org/2000/svg">
<g id="banknote" opacity="0.5">
<path id="Vector" d="M13.3281 4H2.66146C1.92508 4 1.32812 4.59695 1.32812 5.33333V10.6667C1.32812 11.403 1.92508 12 2.66146 12H13.3281C14.0645 12 14.6615 11.403 14.6615 10.6667V5.33333C14.6615 4.59695 14.0645 4 13.3281 4Z" stroke="#333333" stroke-width="1.5" stroke-linecap="round" stroke-linejoin="round"/>
<path id="Vector_2" d="M7.9974 9.33329C8.73378 9.33329 9.33073 8.73634 9.33073 7.99996C9.33073 7.26358 8.73378 6.66663 7.9974 6.66663C7.26102 6.66663 6.66406 7.26358 6.66406 7.99996C6.66406 8.73634 7.26102 9.33329 7.9974 9.33329Z" stroke="#333333" stroke-width="1.5" stroke-linecap="round" stroke-linejoin="round"/>
<path id="Vector_3" d="M4 8H4.00667M12 8H12.0067" stroke="#333333" stroke-width="1.5" stroke-linecap="round" stroke-linejoin="round"/>
</g>
</svg>
