<svg width="16" height="16" viewBox="0 0 16 16" fill="none" xmlns="http://www.w3.org/2000/svg">
<g id="users" opacity="0.5">
<path id="Vector" d="M10.6615 14V12.6667C10.6615 11.9594 10.3805 11.2811 9.88041 10.781C9.38031 10.281 8.70204 10 7.99479 10H3.99479C3.28755 10 2.60927 10.281 2.10917 10.781C1.60908 11.2811 1.32813 11.9594 1.32812 12.6667V14" stroke="#333333" stroke-width="1.5" stroke-linecap="round" stroke-linejoin="round"/>
<path id="Vector_2" d="M5.99479 7.33333C7.46755 7.33333 8.66146 6.13943 8.66146 4.66667C8.66146 3.19391 7.46755 2 5.99479 2C4.52203 2 3.32812 3.19391 3.32812 4.66667C3.32812 6.13943 4.52203 7.33333 5.99479 7.33333Z" stroke="#333333" stroke-width="1.5" stroke-linecap="round" stroke-linejoin="round"/>
<path id="Vector_3" d="M14.6641 14V12.6667C14.6636 12.0758 14.467 11.5019 14.105 11.0349C13.743 10.5679 13.2361 10.2344 12.6641 10.0867" stroke="#333333" stroke-width="1.5" stroke-linecap="round" stroke-linejoin="round"/>
<path id="Vector_4" d="M10.6641 2.08667C11.2377 2.23354 11.7461 2.56714 12.1092 3.03488C12.4722 3.50262 12.6693 4.07789 12.6693 4.67C12.6693 5.26212 12.4722 5.83739 12.1092 6.30513C11.7461 6.77287 11.2377 7.10647 10.6641 7.25334" stroke="#333333" stroke-width="1.5" stroke-linecap="round" stroke-linejoin="round"/>
</g>
</svg>
