<svg width="109" height="48" viewBox="0 0 109 48" fill="none" xmlns="http://www.w3.org/2000/svg">
<g id="Group">
<path id="Vector" d="M36.0038 37.4938L17.3035 32.4553L18.0236 32.5748L17.3035 32.4553C17.0362 33.0077 16.1231 32.4926 16.0192 32.724L15.8262 32.9032L16.0415 33.0823C16.086 33.1495 16.1528 33.2092 16.2493 33.2466C21.4459 35.1649 36.9614 38.7851 37.1173 38.8225L39.3444 39.345L36.5531 37.6879L36.0038 37.4938Z" fill="white"/>
<path id="Vector_2" d="M37.08 28.5367L36.5306 27.3798L17.5408 28.3352L18.2238 28.2979L16.7168 29.4847L36.9983 28.5367H37.08Z" fill="white"/>
<path id="Vector_3" d="M51.0587 4.82223C50.5762 4.44155 49.5591 4.63562 47.718 5.00138C47.5399 5.0387 47.3468 5.07602 47.1613 5.11334C45.387 5.45671 43.2638 4.94166 43.0114 4.8297C42.8035 4.7252 41.8533 4.53112 41.2223 4.75505C40.866 4.88195 40.7026 5.09842 40.6358 5.25517C40.517 5.51642 40.5245 5.78514 40.6655 6.03147C40.8734 6.40469 41.3485 6.65848 41.8756 6.81523C41.7048 7.01677 41.5935 7.27802 41.5935 7.59899C41.5935 7.7856 41.6603 8.05432 41.9944 8.29318C42.2913 8.50219 42.759 8.63654 43.2341 8.70372C43.3826 9.04709 43.635 9.64424 43.7018 9.80846L43.8206 10.0996L44.1324 10.1294C44.2437 10.1444 44.3625 10.1444 44.4961 10.1444C44.7189 10.1444 44.897 10.1294 44.897 10.1294L45.439 10.0846L45.3944 9.78606H45.6617L45.3647 9.59199L45.3573 9.53974C45.3499 9.47256 45.2831 9.03962 45.1494 8.60669C45.1865 8.59176 45.2237 8.58429 45.2682 8.56937H45.2756C45.8918 8.36783 46.9014 8.03939 47.4508 7.53928C48.5792 7.59153 50.3906 7.55421 50.9028 6.78537C51.17 6.41215 51.8308 5.43431 51.0587 4.82223Z" fill="white"/>
<path id="Vector_4" d="M36.5231 4.82223C36.0332 4.44155 35.0236 4.63562 33.1825 5.00138C33.0043 5.0387 32.8113 5.07602 32.6183 5.11334C30.844 5.45671 28.7208 4.94166 28.4684 4.8297C28.2606 4.7252 27.3178 4.53112 26.6793 4.75505C26.323 4.88195 26.1597 5.09842 26.0929 5.25517C25.9741 5.51642 25.9815 5.78514 26.1225 6.03147C26.3304 6.40469 26.8055 6.65848 27.3326 6.81523C27.1619 7.01677 27.0579 7.27802 27.0579 7.59899C27.0579 7.7856 27.1247 8.05432 27.4514 8.29318C27.7558 8.50219 28.216 8.63654 28.6911 8.70372C28.8396 9.04709 29.092 9.64424 29.1588 9.80846L29.2776 10.0996L29.5894 10.1294C29.6933 10.1444 29.8195 10.1444 29.9532 10.1444C30.1759 10.1444 30.3466 10.1294 30.3466 10.1294L30.8886 10.0846L30.844 9.78606H31.1113L30.8217 9.59199L30.8143 9.53974C30.7995 9.47256 30.7401 9.03962 30.6065 8.60669C30.6436 8.59176 30.6807 8.58429 30.7252 8.56937H30.7327C31.3563 8.36783 32.3585 8.03939 32.9078 7.53928C34.0436 7.59153 35.8476 7.55421 36.3598 6.78537C36.6271 6.41215 37.2878 5.43431 36.5231 4.82223Z" fill="white"/>
<path id="Vector_5" d="M66.5288 5.03866C66.0388 4.65798 65.0292 4.85205 63.1881 5.21781C63.01 5.25513 62.817 5.29245 62.6239 5.32978C60.8497 5.67314 58.7265 5.15809 58.4815 5.04613C58.2662 4.94163 57.3234 4.74755 56.6924 4.97148C56.3361 5.09838 56.1727 5.31485 56.1059 5.4716C55.9872 5.73285 56.002 6.00904 56.1356 6.2479C56.3435 6.61365 56.8186 6.87491 57.3531 7.03166C57.1824 7.2332 57.071 7.48699 57.071 7.81542C57.071 8.00203 57.1378 8.27075 57.4645 8.50961C57.7614 8.71861 58.2291 8.85298 58.7042 8.92016C58.8527 9.26352 59.1051 9.86067 59.1719 10.0249L59.2907 10.316L59.5951 10.3459C59.7064 10.3533 59.8252 10.3608 59.9588 10.3608C60.1815 10.3608 60.3597 10.3459 60.3597 10.3459L60.9016 10.3011V10.2936C60.8794 10.2787 60.8571 10.2637 60.8571 10.2339C60.8423 10.1667 60.8348 10.0995 60.8274 10.0398C60.7754 10.0547 60.716 10.0398 60.7012 9.9801C60.6864 10.0324 60.627 10.0771 60.5676 10.0398C60.4191 9.95024 60.3226 9.83081 60.2484 9.67406C60.1964 9.72631 60.0999 9.71885 60.085 9.63674H60.0702C60.0479 9.63674 60.0182 9.62181 60.0034 9.60688H59.9959C59.944 9.61434 59.8697 9.58449 59.8772 9.51731C59.8846 9.42027 59.9069 9.36802 59.9663 9.28591C59.9811 9.26352 60.0034 9.24859 60.0256 9.24113C60.0553 9.21127 60.085 9.18141 60.1518 9.15902C60.2112 9.13662 60.2706 9.19634 60.2706 9.24859C60.2706 9.26352 60.2706 9.27845 60.2706 9.29338C60.2706 9.29338 60.278 9.29337 60.278 9.30084C60.2855 9.27845 60.2929 9.24859 60.2929 9.2262C60.3077 9.14409 60.3968 9.13662 60.4488 9.18141C60.4859 9.14409 60.5527 9.14409 60.5824 9.18141C60.6047 9.17394 60.627 9.18141 60.6492 9.18887V9.17395C60.6492 9.12916 60.6641 9.10677 60.6938 9.09184C60.6715 9.00226 60.6492 8.92015 60.6195 8.82312C60.6567 8.80819 60.6938 8.80072 60.7383 8.7858H60.7457C61.3693 8.58426 62.3715 8.25582 62.9283 7.75571C64.0567 7.80796 65.8681 7.77064 66.3803 7.0018C66.6327 6.62858 67.3009 5.65075 66.5288 5.03866Z" fill="white"/>
<path id="Vector_6" d="M93.1889 15.9592C90.4793 15.9592 88.3784 16.6534 87.0941 17.2356C87.0644 17.2506 87.0273 17.2655 86.9901 17.2804C87.0124 17.37 87.0273 17.4596 87.0421 17.5491C87.057 17.6014 87.0644 17.6536 87.0718 17.7059C87.0941 17.7507 87.1163 17.7955 87.1312 17.8477C87.1609 17.8552 87.1832 17.8701 87.198 17.9149C87.2351 18.0642 87.2722 18.2135 87.3094 18.3628C87.3465 18.4971 87.3762 18.6315 87.4059 18.7733C87.4281 18.8927 87.25 18.945 87.2203 18.8256C87.2054 18.7733 87.198 18.7285 87.1832 18.6763C87.1906 18.7658 87.198 18.8629 87.198 18.9525C87.2054 19.0122 87.146 19.0495 87.0941 19.042C87.0941 19.0644 87.0941 19.0868 87.0941 19.1092C87.0941 19.1988 86.9604 19.2361 86.9159 19.1615C86.9159 19.1839 86.9159 19.2137 86.9085 19.2361C86.9011 19.3107 86.8342 19.3406 86.7823 19.3257V19.4003C86.7823 19.4675 86.7303 19.4974 86.6858 19.4899C86.6858 19.6019 86.6784 19.7213 86.6635 19.8407C86.6784 19.8855 86.6858 19.9228 86.7006 19.9676C86.708 19.9825 86.708 19.99 86.708 19.9975C87.688 19.3779 89.9448 18.2135 93.2038 18.2135C99.551 18.2135 106.656 23.9835 106.656 31.7091C106.656 39.3377 100.679 45.3242 93.0627 45.3242C85.8766 45.3242 80.0267 39.181 80.0267 31.6345C80.0267 27.8276 81.6822 24.9837 83.0704 23.2743C84.2359 21.8263 85.4163 20.9156 85.9063 20.5722C85.8395 20.3483 85.7949 20.1318 85.8024 19.893C85.7133 20.0199 85.6093 20.1468 85.5871 20.1766C85.6242 20.1841 85.743 20.2811 85.7652 20.2737C85.5722 21.1619 85.5722 20.5424 85.5796 20.1841C85.5796 20.0721 85.5871 19.9825 85.5796 19.9751C85.5351 19.9825 85.4237 19.7661 85.4089 19.7138C85.3866 19.6317 85.3198 19.46 85.305 19.3779C85.1862 19.1092 84.9115 18.8405 84.9264 18.5419C84.7259 18.6688 83.0333 19.8034 81.3778 21.8412C79.752 23.8491 77.8145 27.1708 77.8145 31.627C77.8145 32.9632 77.9778 34.2918 78.2896 35.5832C78.9132 38.1061 80.1455 40.4574 81.8455 42.4056C83.553 44.3538 85.6984 45.8392 88.0443 46.7051C89.6478 47.2873 91.3256 47.5859 93.0256 47.5859C94.0798 47.5859 95.1191 47.4889 96.1436 47.2873C100.442 46.4364 104.213 43.8463 106.507 40.1663L106.522 40.1439C106.544 40.0991 106.574 40.0543 106.604 40.0095L106.633 39.9648C108.096 37.509 108.875 34.6501 108.875 31.7166C108.875 22.6921 100.598 15.9592 93.1889 15.9592Z" fill="white"/>
<path id="Vector_7" d="M94.473 30.8058C94.2874 30.567 93.9533 30.2684 93.404 30.2236C93.2035 30.2087 93.0328 30.2311 92.8843 30.2684C92.2236 29.619 91.1026 28.2754 90.7388 27.626C90.4864 27.1707 89.3432 24.5357 87.6729 20.5497C87.7545 20.4826 87.8362 20.4005 87.8956 20.3034C88.1851 20.1541 88.3113 19.9526 88.3633 19.8033C88.4375 19.5868 88.4004 19.348 88.2668 19.1464C88.1777 18.9822 87.7323 17.8402 87.517 17.2803C87.0047 15.9741 86.9973 15.9591 86.9231 15.8696C86.8637 15.7949 86.7969 15.7427 86.7449 15.7053C86.7152 15.3321 86.4925 15.1978 86.344 15.1455C86.0545 15.0485 85.8169 15.0485 85.6239 15.138C85.4532 14.735 85.134 13.9363 84.7925 13.0928C83.0776 8.86795 82.8029 8.22601 82.6693 8.06926C82.5579 7.94236 82.4392 7.86025 82.3352 7.80054C82.2833 7.56168 82.1571 7.18846 81.875 7.06903C81.8527 7.06156 81.8378 7.0541 81.823 7.04663C81.7339 6.86002 81.5557 6.4868 81.437 6.20315C81.6968 6.00161 82.016 5.69557 82.0977 5.43432C82.1496 5.26264 82.1274 5.09096 82.0383 4.94167C82.0234 4.92674 82.0012 4.89688 81.9863 4.86703C82.2016 4.44902 82.4614 3.82201 82.3798 3.30697L82.3724 3.29204C82.3501 2.70235 82.0902 1.68719 80.9322 1.03032C79.581 0.261489 77.7697 0.948212 77.3465 1.12736C75.8989 1.03779 73.9687 2.4411 73.8722 2.50827L73.5678 2.73221L73.6866 3.0905C73.8277 3.50104 74.043 3.89665 74.1989 4.16537C73.8722 4.30719 73.5381 4.47141 73.2263 4.62817L73.2115 4.63563C73.1595 4.65802 73.115 4.68788 73.0853 4.69535C72.6844 4.88942 72.5211 5.29996 72.5285 5.62093L72.5359 5.7105L72.5731 5.80008C72.9962 6.80777 73.1001 6.94213 73.3154 7.02424C73.3897 7.0541 73.4565 7.06903 73.5307 7.06903C73.6792 7.06903 73.798 7.01677 74.1023 6.89734C74.3102 6.80777 74.622 6.68088 75.1194 6.4868C76.1661 6.07626 76.5744 5.606 76.7081 5.23278C76.8788 5.15814 77.1461 5.06857 77.4282 5.06857C77.7325 5.06857 77.8959 5.12828 77.9552 5.15814L77.9627 5.1656C77.9701 5.1656 77.9775 5.17307 77.9849 5.17307L78.319 5.45671L78.3932 5.38954C78.7793 5.59854 79.1133 5.80754 79.2321 5.91951L80.0933 7.85279C79.8557 8.19615 79.7889 8.59176 79.9448 8.95006C79.9893 9.06202 80.0487 9.1516 80.1155 9.2337C76.8788 9.06202 69.9525 8.70373 68.3416 8.64402C66.2035 8.56937 59.6261 8.48726 59.5222 8.48726H59.5074C59.0619 8.48726 58.6907 8.61416 58.4606 8.84555C58.2899 9.01724 58.1934 9.24863 58.1934 9.49496C58.1934 10.107 58.6982 10.4952 59.0322 10.5624C59.1065 10.5773 59.2698 10.6146 60.4056 10.4504C60.71 10.4131 63.6795 10.5848 65.4612 10.6818H65.476C66.8197 10.7564 67.9852 10.8236 68.2673 10.8236C68.8612 10.8236 78.319 11.2566 81.4221 11.3611C81.9344 12.6375 82.5876 14.2572 83.0776 15.4739L83.2038 15.3321L83.33 15.1903L83.4562 15.041L83.5824 14.8992L83.6344 14.8395L83.7754 15.1828L83.716 15.2202L83.5676 15.3172L83.4191 15.4142L83.2706 15.5113L83.1221 15.6083C83.4711 16.4816 83.7235 17.1161 83.7606 17.2057C83.8051 17.3102 83.82 17.4371 83.8422 17.5789C83.8794 17.7804 83.9091 18.0193 84.0204 18.2731C84.1689 18.6165 86.8563 24.5357 87.5318 25.9017C87.5541 25.9465 89.2912 29.4473 91.2511 31.2313C88.1331 31.9852 79.581 34.0529 77.7697 34.4933L77.5024 34.5604L77.391 34.7396C77.2723 34.9262 77.1015 35.2845 77.1906 35.6129C77.2426 35.7846 77.3465 35.9264 77.5024 36.0085C77.5544 36.0384 77.6212 36.0608 77.7325 36.0608C77.9924 36.0608 78.7199 35.9339 85.3492 34.2768C88.3187 33.5378 91.2808 32.7839 92.2681 32.5301C92.4611 32.7615 92.7729 32.9108 93.2035 32.978C94.0053 33.1049 94.614 32.6272 94.7773 31.7538C94.8293 31.5 94.7031 31.1044 94.473 30.8058ZM78.3784 2.82178C78.5566 2.79192 78.9055 2.74714 79.4994 2.74714C80.0784 2.74714 80.2863 3.18007 80.3531 3.43386L80.3828 3.56822C80.3828 3.57568 80.3828 3.57568 80.3828 3.58315C80.3828 3.59061 80.3828 3.59808 80.3828 3.59808L80.4199 3.92651C80.4273 4.13551 80.4051 4.33705 80.3531 4.44156C80.2566 4.37438 80.123 4.2848 79.9893 4.19523L80.0265 4.17284L79.3212 3.7623L79.2618 3.72497C79.2321 3.71004 79.195 3.69511 79.1653 3.67272C79.1653 3.67272 79.1579 3.66526 79.1505 3.66526C78.7347 3.46372 78.3116 3.35922 77.9181 3.32936C78.1631 3.13528 78.2967 2.9636 78.3784 2.82178ZM81.0064 9.95029C81.0955 9.95029 81.1549 9.95775 81.192 9.95775C81.2291 9.95775 81.2439 9.95775 81.2439 9.95775V10.0025V10.0921V10.1742V10.331C81.2439 10.331 81.2143 10.331 81.1549 10.331C81.1103 10.331 81.0435 10.331 80.9693 10.3235C80.8431 10.316 80.6797 10.3086 80.4719 10.3086C79.4251 10.2787 77.3985 10.219 74.9783 10.1444C68.4232 9.94282 62.5956 9.65171 61.7642 9.62185C60.4799 9.57707 60.0493 9.60692 60.0047 9.47256C59.9899 9.42778 59.9528 9.39792 59.9157 9.37553C59.834 9.33074 59.7301 9.32328 59.7301 9.32328C60.4279 9.33821 61.7939 9.36806 63.5458 9.41285C67.035 9.50242 68.4232 9.62932 72.7141 9.74128C75.4906 9.81593 77.9552 9.87564 79.5142 9.92043C80.071 9.93536 80.5164 9.94282 80.8134 9.95775C80.895 9.95029 80.9544 9.95029 81.0064 9.95029Z" fill="white"/>
<path id="Vector_8" d="M71.7852 10.1145L66.4995 31.7687C66.4995 31.7687 66.2842 32.4779 66.8707 32.866C67.9323 33.5527 68.3554 32.7167 68.3554 32.7167L73.797 10.5997C73.5001 10.1444 71.7852 10.1145 71.7852 10.1145Z" fill="white"/>
<path id="Vector_9" d="M54.185 31.9405L30.8746 9.44275C30.3252 9.48754 29.4863 10.9804 29.4863 10.9804L51.9282 32.672C51.9282 32.672 52.8339 33.4408 53.5317 33.4408C54.9348 33.4408 54.185 31.9405 54.185 31.9405Z" fill="white"/>
<path id="Vector_10" d="M56.1353 19.8556L56.8851 20.7513C57.7982 17.4521 58.5802 13.9132 58.5802 13.9132L58.7633 13.1526C58.7633 13.1526 57.8279 17.0639 56.8851 20.7513L57.3305 21.2888L59.9733 10.3534C59.6689 9.89807 58.2881 9.09192 58.2881 9.09192L55.6973 19.6242C55.8606 19.6466 56.0239 19.7212 56.1353 19.8556Z" fill="white"/>
<path id="Vector_11" d="M56.5369 22.8639L56.1434 22.3937C55.4975 24.8196 55.437 25.0337 54.9482 27.1709C55.3283 25.5362 55.4307 25.0211 56.1434 22.3937L55.2674 21.3412L52.7062 31.769C52.7062 31.769 52.2237 32.7169 52.8102 33.0976C53.8717 33.7844 54.5621 32.7169 54.5621 32.7169L56.8932 23.0804C56.7596 23.0431 56.6334 22.9759 56.5369 22.8639Z" fill="white"/>
<path id="Vector_12" d="M41.7415 22.6547C41.1253 24.9389 40.7746 26.3565 40.6205 27.1707C40.5314 27.223 41.0659 25.1628 41.7415 22.6547C41.6524 22.5278 41.5707 22.401 41.4742 22.2741C41.3183 22.0501 41.1327 21.7665 40.9026 21.5649L38.3711 31.7763C38.3711 31.7763 38.8759 31.3881 39.4624 31.7688C40.524 32.4555 40.227 32.7168 40.227 32.7168L42.7065 22.9011C42.5358 22.6622 41.9122 22.8936 41.7415 22.6547Z" fill="white"/>
<path id="Vector_13" d="M84.1685 16.9668L83.9829 16.7504L83.7305 16.8922C83.7082 16.9071 81.7112 18.0119 79.7514 20.3631C79.499 20.6617 79.2688 20.9678 79.0387 21.2738C77.4203 23.3414 76.136 25.6629 75.8613 29.7832C75.8094 30.3431 75.7871 30.9029 75.7871 31.4702C75.7871 34.2843 76.329 36.2549 76.7819 37.4044C77.2867 38.6957 77.8064 39.3078 77.8138 39.3153L77.8732 39.3675L77.8954 39.3825C77.9177 39.3974 78.1107 39.5093 78.3557 39.5093C78.519 39.5093 78.6749 39.4571 78.8011 39.3601L78.8457 39.3227C79.254 39.0167 79.2169 38.7405 78.9719 38.1807L78.9496 38.1359C77.6876 35.3218 77.4203 32.8959 77.4203 31.3507C77.4203 27.6335 79.254 21.9978 84.4209 18.3552L84.5693 18.2433V18.0641C84.5842 17.452 84.1833 16.9818 84.1685 16.9668Z" fill="white"/>
<path id="Vector_14" d="M83.2707 13.6897L68.0521 30.3503L66.9163 30.2457L67.6141 31.8133C67.7106 31.9103 65.4983 31.6117 65.7879 31.9402C67.6735 34.0825 68.9058 32.709 68.9058 32.709L84.3397 16.2724L84.4956 16.1231L84.117 16.1977L83.2707 13.6897Z" fill="white"/>
<path id="Vector_15" d="M25.18 17.5938C24.9053 17.967 24.6455 18.3551 24.3337 18.691C24.2149 18.9 24.0887 19.1016 23.918 19.2658C27.6744 21.7216 30.1687 26.0509 30.1687 30.97C30.1687 31.2387 30.1613 31.5074 30.1465 31.7761C30.8146 31.7911 31.4901 31.8582 32.1508 31.9777C32.1954 31.9851 32.2177 32.0299 32.2177 32.0747H32.2251C32.2696 32.0299 32.3439 32.0299 32.381 32.0822C32.3958 32.0971 32.3958 32.1195 32.4033 32.1344C32.4107 32.1493 32.4181 32.1568 32.4255 32.1717C32.4404 32.1717 32.4478 32.1792 32.4552 32.1867C32.4849 31.7836 32.4998 31.373 32.4998 30.955C32.4998 25.3567 29.5748 20.4078 25.18 17.5938Z" fill="white"/>
<path id="Vector_16" d="M32.2698 32.5898C32.2252 32.642 32.1436 32.6271 32.1139 32.5674C31.5423 32.7167 30.9558 32.6271 30.399 32.4554C30.3842 32.4554 30.3767 32.4554 30.3619 32.4554C30.3471 32.4853 30.3174 32.5151 30.2728 32.5151H30.0872C29.3374 39.4272 23.636 44.8314 16.7394 44.8314C10.0135 44.8314 4.43092 39.7033 3.46584 33.0376C3.43615 33.0078 3.42873 32.9555 3.451 32.9182C3.36191 32.2763 3.31737 31.6268 3.31737 30.9625C3.31737 23.319 9.34541 17.1011 16.7468 17.1011C19.115 17.1011 21.3347 17.7356 23.2648 18.8478C23.5247 18.482 23.8216 18.1611 24.1483 17.8774C24.3116 17.6684 24.4898 17.4669 24.6902 17.2877C22.3517 15.9068 19.6421 15.123 16.7468 15.123C8.05369 15.123 0.986328 22.2292 0.986328 30.97C0.986328 39.7108 8.05369 46.8169 16.7468 46.8169C24.9129 46.8169 31.6462 40.5468 32.4331 32.5375C32.4183 32.545 32.4183 32.5524 32.4034 32.5674C32.3514 32.5898 32.3143 32.5898 32.2698 32.5898Z" fill="white"/>
<path id="Vector_17" d="M33.5094 25.1106C33.1679 23.9014 32.6928 22.737 32.1137 21.6546C31.5198 20.535 30.7997 19.5049 29.9831 18.5644C28.439 16.8028 26.5608 15.4293 24.4005 14.4739C22.0694 13.4438 19.4415 12.9213 16.5982 12.9213C13.8217 12.9213 11.2309 13.4811 8.89239 14.5933C7.02161 15.4816 5.32159 16.7206 3.822 18.2732C1.2831 20.9082 0.199237 23.6028 0.191813 23.6327L0.125 23.8044L0.228933 23.9537C0.332864 24.1179 0.496186 24.1776 0.652083 24.2373C0.778286 24.2821 0.897065 24.3343 1.02327 24.4314C1.23113 24.5956 1.42415 24.5956 1.55035 24.5732C1.90669 24.4986 2.10713 24.1552 2.32984 23.7447C2.35953 23.6924 2.4115 23.6103 2.46346 23.5058C2.79011 22.9161 3.71065 21.259 4.31939 20.5797C5.45521 21.5725 10.726 26.5065 15.5217 31.0225L15.8261 31.3136L16.4423 30.4776L5.09145 19.7363C5.49976 19.2884 6.44999 18.2956 7.89761 17.3103C9.69415 16.0862 12.6191 14.6306 16.368 14.6306C24.2966 14.6306 32.8264 20.2065 32.8264 32.4332V32.7617L34.029 32.8662L34.0736 32.5303C34.3854 30.0521 34.1923 27.4843 33.5094 25.1106Z" fill="white"/>
<path id="Vector_18" d="M37.6291 31.9925C37.5623 31.985 30.7845 31.5073 29.0251 31.4476C27.6591 31.4028 21.5494 30.7161 18.9882 30.425C18.7432 29.4023 17.8301 28.6484 16.7463 28.6484C15.4768 28.6484 14.4375 29.6935 14.4375 30.9699C14.4375 32.2537 15.4768 33.2913 16.7463 33.2913C17.6 33.2913 18.3424 32.8285 18.7432 32.1343C22.3957 32.5001 35.2313 33.769 37.2357 33.769C37.2951 33.769 37.3545 33.769 37.399 33.7616L37.6588 33.7466L37.6366 32.0298V31.9925H37.6291Z" fill="white"/>
<path id="Vector_19" d="M30.1151 10.1294H30.0039C30.0261 10.1593 30.1076 10.2563 30.2558 10.5026L30.1151 10.1294Z" fill="white"/>
<path id="Vector_20" d="M37.3164 28.4098C37.94 30.1863 38.3112 31.3956 38.3112 31.3956C38.3112 31.3956 38.1479 31.0447 37.5762 30.0296L38.2221 31.6568L38.5339 31.5822L37.3164 28.4098Z" fill="white"/>
<path id="Vector_21" d="M29.998 10.1144L30.0065 10.1312H30.0149L29.998 10.1144Z" fill="white"/>
<path id="Vector_22" d="M30.4352 9.53955L29.2623 9.95009L28.4902 10.8458L37.3096 33.1122L38.5568 31.261L30.4352 9.53955Z" fill="white"/>
<path id="Vector_23" d="M40.0186 27.387C40.0335 27.2601 40.0483 27.1556 40.0557 27.0959C40.3527 27.1332 40.761 27.178 40.8872 27.1482C41.199 27.0586 41.199 26.7525 41.2064 26.1405C41.2064 26.0434 41.2064 25.9464 41.2138 25.8568C41.2213 25.6926 41.1544 25.5284 41.0357 25.4089C40.8352 25.2149 40.5086 25.1477 40.271 25.1253C40.1819 24.9461 40.026 24.7969 39.8701 24.7222C39.6697 24.6326 39.4618 24.6625 39.3134 24.7969C39.254 24.864 39.202 24.9312 39.15 24.9909C39.1426 25.0059 39.1278 25.0208 39.1203 25.0357C38.8457 25.0656 38.2221 25.1776 38.133 25.5209C38.1033 25.6254 37.9919 26.4316 38.0588 26.648C38.1627 26.9839 38.519 26.9317 38.6898 26.9093C38.6972 26.9093 38.7046 26.9093 38.712 26.9093C38.7046 26.9914 38.6898 27.081 38.6823 27.1855C38.6452 27.1855 38.6081 27.1855 38.5784 27.1855C37.0491 27.1855 35.6461 27.7677 34.5919 28.7231L34.2133 28.8052L34.488 28.8202C33.3373 29.91 32.6172 31.4626 32.6172 33.1794C32.6172 36.1502 34.7775 38.6209 37.5911 39.0987C37.45 38.9792 37.3684 38.8001 37.4277 38.5687C37.5539 38.091 37.5168 37.5909 37.5094 37.1057C37.5094 37.0907 37.5094 37.0683 37.5094 37.0534C37.1976 36.9638 36.9378 36.8817 36.7819 36.822C36.8116 36.3742 36.9452 35.6203 37.0863 35.4859C37.4277 35.15 37.8954 35.1351 38.2369 35.1724L38.623 35.2246C39.4247 35.456 39.6252 35.9188 39.7439 36.3368C39.8182 36.5981 39.4396 37.143 39.2243 37.3595C39.0981 37.352 38.8531 37.3296 38.5636 37.2774C38.571 37.6431 38.571 38.0089 38.5339 38.3672L39.15 38.4194C38.957 38.4343 38.7714 38.4493 38.571 38.4493C38.5561 38.4493 38.5339 38.4493 38.519 38.4493C38.5042 38.5911 38.4745 38.7254 38.4374 38.8598C38.3928 39.0166 38.3112 39.1136 38.1998 39.1733C38.3186 39.1808 38.4448 39.1882 38.571 39.1882C41.8597 39.1882 44.5396 36.4936 44.5396 33.1869C44.5322 30.4026 42.6021 28.0364 40.0186 27.387ZM41.7261 29.589L42.268 31.2163C42.3571 31.4924 42.5649 32.1194 42.7134 32.9629C42.4981 33.1869 42.1121 33.3735 41.7409 33.4183C41.4662 33.4556 41.2435 33.4033 41.1247 33.2914C40.7164 32.8957 40.8204 32.1344 40.8204 32.1269L41.2064 29.6935L41.7261 29.589ZM38.9125 29.9921V29.9772L38.9199 29.9324L39.009 29.1561L39.0238 29.0292L39.0535 28.8202L39.0684 28.6933L39.0981 28.4544L39.1129 28.3275L39.1278 28.1932L39.1352 28.1185L39.1426 28.0663L39.15 27.9916V27.9842L39.1649 27.8498L39.1797 27.7229L39.1946 27.596L39.2169 27.3795L39.2317 27.2527L39.3134 26.551H39.5509L39.4618 27.2825L39.447 27.4094L39.4173 27.6184L39.4024 27.7453L39.3876 27.8722L39.3728 28.0066L39.3579 28.0887L39.3505 28.1409L39.3356 28.223L39.3208 28.3574V28.4694L39.3059 28.5962L39.2911 28.7231L39.2762 28.85L39.2465 29.0665L39.2317 29.1934L39.1723 29.701L39.1426 29.9174L39.1278 30.007H38.9199L38.9125 29.9921ZM35.0225 34.9858C34.9185 34.7618 34.8146 34.4931 34.7404 34.1871C34.8443 34.2617 34.9557 34.3364 35.0744 34.4036C35.0522 34.62 35.0373 34.8141 35.0225 34.9858ZM37.1308 38.2627C36.7076 38.1432 36.2993 37.9715 35.9282 37.7476L35.9356 37.7028C36.0692 37.7924 36.2548 37.8969 36.522 38.0163C36.6928 38.0984 36.9081 38.188 37.1308 38.2627ZM36.2474 34.5454C36.2548 34.4633 36.2622 34.3886 36.2622 34.3289C36.4998 34.1945 36.7967 33.993 37.0194 33.7392C37.0788 33.8587 37.1456 33.9706 37.2199 34.0677C36.8635 34.1348 36.4998 34.2692 36.2474 34.5454ZM36.8784 32.6345L36.5963 32.7763C36.3365 32.9107 35.698 33.1271 35.3862 32.9853C35.3194 32.9555 35.2378 32.8957 35.1932 32.6867C35.0002 31.8209 35.0447 31.1939 35.3343 30.7759C35.6089 30.3728 36.1509 30.119 36.9304 30.0219L37.4797 29.9622L37.205 28.9919L37.6727 29.0143C37.94 29.0292 38.1701 29.0441 38.3854 29.0665C38.3557 29.2158 38.3334 29.3427 38.3186 29.4472L37.3906 29.0292L37.4426 29.1113L37.4055 29.0964L37.7024 29.5517L37.9697 29.9921C38.0216 30.0817 38.2369 30.425 38.5561 30.6116L38.9125 30.7833L39.3356 31.1267L39.4841 30.8281C39.588 30.6415 40.3378 30.1041 40.8278 29.8428L39.937 31.8507C39.9295 31.8657 39.9221 31.8881 39.9147 31.9104C39.6029 31.5074 39.1129 31.2461 38.5636 31.2461C37.7395 31.261 37.0417 31.8507 36.8784 32.6345ZM38.5636 33.8587C38.0884 33.8587 37.7024 33.4705 37.7024 32.9928C37.7024 32.5151 38.0884 32.1269 38.5636 32.1269C39.0387 32.1269 39.4247 32.5151 39.4247 32.9928C39.4247 33.4705 39.0387 33.8587 38.5636 33.8587ZM40.3156 34.8066C40.1077 34.6126 39.8701 34.4633 39.6252 34.3513C39.8182 34.1945 39.9815 34.0079 40.0929 33.7915C40.1003 33.7989 40.1003 33.8064 40.1077 33.8139C40.271 34.0602 40.4789 34.2543 40.7164 34.3886C40.568 34.5304 40.4269 34.6872 40.3156 34.8066ZM40.9763 37.0161C41.2064 36.2995 40.7536 35.3068 40.7536 35.3068C40.7536 35.3068 40.9763 35.038 41.2658 34.7171C42.2012 34.8813 42.9584 34.426 43.1291 34.3737C42.3125 36.6354 41.2806 37.0161 40.9763 37.0161Z" fill="white"/>
<path id="Vector_24" d="M39.626 39.0616C39.5444 38.8302 39.3217 38.6734 39.2548 38.6287L39.1212 38.5466L38.9727 38.5913C38.9208 38.6063 38.802 38.6511 38.7055 38.7481C38.6758 38.7481 38.6387 38.7406 38.6016 38.7406C38.6684 38.1659 38.9133 36.1057 39.1509 34.1052L39.1806 33.8514L38.7797 34.0231L38.5793 33.9112H38.5719L38.2229 33.9559L37.926 33.6499L37.8889 33.9037C37.8889 33.9037 37.8889 33.9037 37.8889 33.9112L37.6587 33.9485L37.8592 34.0754C37.7404 34.8069 37.2579 37.6658 37.0871 38.6511H36.8718C36.7753 38.5764 36.6714 38.5391 36.5675 38.5391H36.56C36.4413 38.5391 36.3373 38.5913 36.2631 38.6809C36.0923 38.8825 35.9216 40.0618 35.9364 40.4574C35.9439 40.6739 36.0255 40.8531 36.174 40.9874C36.419 41.2039 36.7827 41.2337 37.0352 41.2188C37.2282 41.3158 37.4732 41.3681 37.7181 41.3681C38.0522 41.3681 38.3788 41.2785 38.6758 41.1068C39.0767 41.1068 39.6557 41.0695 39.6557 40.5918C39.6557 40.5694 39.6557 40.5022 39.6631 40.4127C39.6706 39.3826 39.6631 39.1736 39.626 39.0616ZM38.3343 34.0754L38.4382 34.0007L38.6313 34.0754C38.6313 34.0754 38.119 38.0838 38.0002 38.9422C37.874 38.875 37.6068 38.9422 37.6068 38.9422L38.3343 34.0754Z" fill="white"/>
<path id="Vector_25" d="M45.6851 10.2486C45.6999 10.1964 45.7222 10.1367 45.7222 10.077C45.7222 9.53206 45.2842 9.09912 44.7497 9.09912C44.282 9.09912 43.9034 9.43502 43.8069 9.88288H43.7994L41.3125 19.9076C41.6911 20.0942 42.2182 20.6316 42.5003 20.9451C43.4283 17.5862 44.2676 13.8305 44.2676 13.8305L44.4305 13.1523C44.4305 13.1523 43.4654 17.198 42.5003 20.9451C42.671 21.1691 42.8418 21.4079 42.9977 21.6468L45.8113 10.3606C45.789 10.3158 45.737 10.286 45.6851 10.2486Z" fill="white"/>
<path id="Vector_26" d="M31.0893 10.0098C31.0893 9.46494 30.6513 9.02454 30.1168 9.02454C29.9461 9.02454 29.7828 9.06932 29.6417 9.15143C29.4635 9.15143 29.174 9.18875 28.9216 9.40522C28.6543 9.64408 28.5133 10.0098 28.5059 10.495C27.4517 12.1297 16.0118 29.1113 15.9301 29.2307L15.7148 29.5367L15.7371 29.5517L15.7297 29.5666L15.8633 29.6338L16.0266 29.7383C16.0638 29.7681 16.1528 29.8204 16.7467 29.9846L16.9843 30.0368L17.1402 29.8204C21.1267 24.2146 30.4063 11.1743 30.4583 11.0996C30.488 11.0549 30.5251 10.9727 30.5697 10.8757C30.8815 10.704 31.0893 10.3831 31.0893 10.0098ZM25.0167 17.4668L23.8438 19.1761L23.5023 19.6762L16.8804 29.3352L16.628 29.3128L25.477 16.2725V16.2799C25.477 16.2874 25.477 16.2949 25.477 16.2949C25.5438 16.586 25.0167 17.4668 25.0167 17.4668Z" fill="white"/>
<path id="Vector_27" d="M68.1782 31.4851L45.4097 9.44275C44.8604 9.48754 44.0215 10.9804 44.0215 10.9804L66.4633 32.672C66.4633 32.672 66.9756 33.2169 67.6734 33.2169C69.0839 33.2169 68.1782 31.4851 68.1782 31.4851Z" fill="white"/>
</g>
</svg>
