<svg width="145" height="63" viewBox="0 0 145 63" fill="none" xmlns="http://www.w3.org/2000/svg">
<g id="Group">
<path id="Vector" d="M47.8371 49.093L22.9034 42.375L23.8635 42.5342L22.9034 42.375C22.547 43.1115 21.3295 42.4248 21.191 42.7333L20.9336 42.9722L21.2206 43.211C21.28 43.3006 21.3691 43.3802 21.4978 43.43C28.4266 45.9878 49.114 50.8148 49.3219 50.8645L52.2913 51.5612L48.5696 49.3517L47.8371 49.093Z" fill="white"/>
<path id="Vector_2" d="M49.2721 37.151L48.5396 35.6084L23.2198 36.8823L24.1304 36.8326L22.1211 38.415L49.1632 37.151H49.2721Z" fill="white"/>
<path id="Vector_3" d="M67.9123 5.53104C67.2689 5.02346 65.9128 5.28223 63.458 5.76991C63.2205 5.81967 62.9631 5.86943 62.7157 5.91919C60.35 6.37701 57.5191 5.69029 57.1825 5.541C56.9054 5.40166 55.6384 5.14289 54.797 5.44147C54.3219 5.61066 54.1042 5.89929 54.0151 6.10829C53.8567 6.45663 53.8666 6.81492 54.0547 7.14335C54.3318 7.64098 54.9653 7.97937 55.6681 8.18837C55.4404 8.45709 55.292 8.80543 55.292 9.23339C55.292 9.4822 55.381 9.8405 55.8265 10.159C56.2224 10.4376 56.846 10.6168 57.4795 10.7064C57.6774 11.1642 58.014 11.9604 58.1031 12.1793L58.2614 12.5675L58.6772 12.6073C58.8256 12.6272 58.984 12.6272 59.1622 12.6272C59.4591 12.6272 59.6967 12.6073 59.6967 12.6073L60.4193 12.5476L60.3599 12.1495H60.7162L60.3203 11.8907L60.3104 11.821C60.3005 11.7315 60.2114 11.1542 60.0332 10.577C60.0827 10.5571 60.1322 10.5471 60.1916 10.5272H60.2015C61.0231 10.2585 62.3692 9.82059 63.1017 9.15377C64.6062 9.22344 67.0214 9.17367 67.7044 8.14856C68.0607 7.65094 68.9417 6.34715 67.9123 5.53104Z" fill="white"/>
<path id="Vector_4" d="M48.5296 5.53104C47.8763 5.02346 46.5301 5.28223 44.0754 5.76991C43.8378 5.81967 43.5804 5.86943 43.3231 5.91919C40.9574 6.37701 38.1265 5.69029 37.79 5.541C37.5128 5.40166 36.2557 5.14289 35.4045 5.44147C34.9293 5.61066 34.7116 5.89929 34.6225 6.10829C34.4641 6.45663 34.474 6.81492 34.6621 7.14335C34.9392 7.64098 35.5727 7.97937 36.2755 8.18837C36.0479 8.45709 35.9093 8.80543 35.9093 9.23339C35.9093 9.4822 35.9984 9.8405 36.4339 10.159C36.8397 10.4376 37.4534 10.6168 38.0869 10.7064C38.2849 11.1642 38.6214 11.9604 38.7105 12.1793L38.8689 12.5675L39.2846 12.6073C39.4232 12.6272 39.5914 12.6272 39.7696 12.6272C40.0666 12.6272 40.2942 12.6073 40.2942 12.6073L41.0168 12.5476L40.9574 12.1495H41.3137L40.9277 11.8907L40.9178 11.821C40.898 11.7315 40.8188 11.1542 40.6407 10.577C40.6901 10.5571 40.7396 10.5471 40.799 10.5272H40.8089C41.6404 10.2585 42.9766 9.82059 43.7091 9.15377C45.2236 9.22344 47.6288 9.17367 48.3118 8.14856C48.6682 7.65094 49.5491 6.34715 48.5296 5.53104Z" fill="white"/>
<path id="Vector_5" d="M88.5397 5.82011C87.8864 5.31253 86.5403 5.57129 84.0855 6.05897C83.8479 6.10873 83.5906 6.15849 83.3332 6.20825C80.9675 6.66607 78.1366 5.97935 77.81 5.83006C77.5229 5.69072 76.2659 5.43196 75.4245 5.73053C74.9494 5.89973 74.7316 6.18835 74.6425 6.39735C74.4842 6.74569 74.504 7.11394 74.6821 7.43242C74.9593 7.92009 75.5928 8.26843 76.3055 8.47743C76.0778 8.74615 75.9293 9.08454 75.9293 9.52245C75.9293 9.77127 76.0184 10.1296 76.4539 10.448C76.8499 10.7267 77.4735 10.9059 78.1069 10.9954C78.3049 11.4532 78.6414 12.2494 78.7305 12.4684L78.8889 12.8566L79.2947 12.8964C79.4432 12.9063 79.6016 12.9163 79.7798 12.9163C80.0767 12.9163 80.3143 12.8964 80.3143 12.8964L81.0368 12.8366V12.8267C81.0071 12.8068 80.9774 12.7869 80.9774 12.7471C80.9576 12.6575 80.9477 12.5679 80.9378 12.4883C80.8686 12.5082 80.7894 12.4883 80.7696 12.4087C80.7498 12.4784 80.6706 12.5381 80.5914 12.4883C80.3934 12.3689 80.2648 12.2096 80.1658 12.0006C80.0965 12.0703 79.9678 12.0604 79.948 11.9509H79.9282C79.8985 11.9509 79.8589 11.931 79.8391 11.9111H79.8292C79.76 11.921 79.661 11.8812 79.6709 11.7916C79.6808 11.6622 79.7105 11.5926 79.7896 11.4831C79.8094 11.4532 79.8391 11.4333 79.8688 11.4234C79.9084 11.3836 79.948 11.3438 80.0371 11.3139C80.1163 11.2841 80.1955 11.3637 80.1955 11.4333C80.1955 11.4532 80.1955 11.4732 80.1955 11.4931C80.1955 11.4931 80.2054 11.4931 80.2054 11.503C80.2153 11.4731 80.2252 11.4333 80.2252 11.4035C80.245 11.294 80.3637 11.2841 80.433 11.3438C80.4825 11.294 80.5716 11.294 80.6112 11.3438C80.6409 11.3338 80.6706 11.3438 80.7003 11.3537V11.3338C80.7003 11.2741 80.7201 11.2442 80.7597 11.2243C80.73 11.1049 80.7003 10.9954 80.6607 10.866C80.7102 10.8461 80.7597 10.8362 80.8191 10.8163H80.829C81.6604 10.5476 82.9967 10.1097 83.7391 9.44283C85.2436 9.5125 87.6588 9.46274 88.3418 8.43763C88.6783 7.94 89.5691 6.63621 88.5397 5.82011Z" fill="white"/>
<path id="Vector_6" d="M124.085 20.3809C120.472 20.3809 117.671 21.3064 115.959 22.0827C115.919 22.1026 115.87 22.1226 115.82 22.1425C115.85 22.2619 115.87 22.3813 115.889 22.5007C115.909 22.5704 115.919 22.6401 115.929 22.7098C115.959 22.7695 115.988 22.8292 116.008 22.8989C116.048 22.9088 116.078 22.9287 116.097 22.9884C116.147 23.1875 116.196 23.3865 116.246 23.5856C116.295 23.7647 116.335 23.9439 116.375 24.133C116.404 24.2922 116.167 24.3619 116.127 24.2026C116.107 24.133 116.097 24.0732 116.078 24.0036C116.087 24.123 116.097 24.2524 116.097 24.3718C116.107 24.4514 116.028 24.5012 115.959 24.4913C115.959 24.5211 115.959 24.551 115.959 24.5808C115.959 24.7003 115.781 24.75 115.721 24.6505C115.721 24.6804 115.721 24.7202 115.711 24.75C115.701 24.8495 115.612 24.8894 115.543 24.8695V24.969C115.543 25.0586 115.474 25.0984 115.414 25.0884C115.414 25.2377 115.404 25.3969 115.385 25.5562C115.404 25.6159 115.414 25.6657 115.434 25.7254C115.444 25.7453 115.444 25.7552 115.444 25.7652C116.751 24.9391 119.76 23.3865 124.105 23.3865C132.568 23.3865 142.041 31.0798 142.041 41.3807C142.041 51.5522 134.073 59.5342 123.917 59.5342C114.335 59.5342 106.536 51.3432 106.536 41.2812C106.536 36.2054 108.743 32.4135 110.594 30.1344C112.148 28.2036 113.722 26.9893 114.375 26.5315C114.286 26.233 114.227 25.9443 114.236 25.6258C114.118 25.795 113.979 25.9642 113.949 26.004C113.999 26.014 114.157 26.1434 114.187 26.1334C113.93 27.3178 113.93 26.4917 113.94 26.014C113.94 25.8647 113.949 25.7453 113.94 25.7353C113.88 25.7453 113.732 25.4567 113.712 25.387C113.682 25.2775 113.593 25.0486 113.573 24.9391C113.415 24.5808 113.049 24.2225 113.068 23.8244C112.801 23.9936 110.544 25.5064 108.337 28.2235C106.169 30.9007 103.586 35.3296 103.586 41.2712C103.586 43.0528 103.804 44.8243 104.219 46.5461C105.051 49.9101 106.694 53.0451 108.961 55.6427C111.237 58.2403 114.098 60.2209 117.226 61.3754C119.364 62.1517 121.601 62.5498 123.868 62.5498C125.273 62.5498 126.659 62.4204 128.025 62.1517C133.756 61.0171 138.784 57.5636 141.843 52.657L141.863 52.6271C141.892 52.5674 141.932 52.5077 141.971 52.4479L142.011 52.3882C143.961 49.1138 145 45.302 145 41.3907C145 29.358 133.964 20.3809 124.085 20.3809Z" fill="white"/>
<path id="Vector_7" d="M125.797 40.1762C125.549 39.8577 125.104 39.4596 124.371 39.3999C124.104 39.38 123.876 39.4098 123.678 39.4596C122.798 38.5937 121.303 36.8023 120.818 35.9364C120.481 35.3293 118.957 31.816 116.73 26.5014C116.839 26.4118 116.948 26.3023 117.027 26.1729C117.413 25.9739 117.581 25.7052 117.65 25.5061C117.749 25.2175 117.7 24.899 117.522 24.6303C117.403 24.4114 116.809 22.8886 116.522 22.1422C115.839 20.4005 115.829 20.3806 115.73 20.2611C115.651 20.1616 115.562 20.0919 115.493 20.0422C115.453 19.5446 115.156 19.3654 114.958 19.2957C114.572 19.1664 114.255 19.1664 113.998 19.2858C113.77 18.7484 113.345 17.6834 112.889 16.5588C110.603 10.9257 110.237 10.0697 110.058 9.86073C109.91 9.69154 109.752 9.58206 109.613 9.50244C109.544 9.18396 109.375 8.68634 108.999 8.5271C108.97 8.51714 108.95 8.50719 108.93 8.49724C108.811 8.24842 108.574 7.75079 108.415 7.3726C108.762 7.10388 109.187 6.69583 109.296 6.34749C109.366 6.11858 109.336 5.88967 109.217 5.69062C109.197 5.67071 109.168 5.63091 109.148 5.59109C109.435 5.03375 109.781 4.19774 109.672 3.51101L109.663 3.49111C109.633 2.70486 109.286 1.35131 107.742 0.475489C105.941 -0.549623 103.526 0.366008 102.961 0.604869C101.031 0.485439 98.4577 2.35652 98.329 2.44609L97.9232 2.74467L98.0815 3.22239C98.2696 3.76978 98.5567 4.29726 98.7645 4.65555C98.329 4.84465 97.8836 5.06361 97.4678 5.27261L97.4481 5.28256C97.3788 5.31242 97.3194 5.35223 97.2798 5.36219C96.7453 5.62095 96.5275 6.16834 96.5374 6.5963L96.5473 6.71573L96.5968 6.83516C97.161 8.17876 97.2996 8.3579 97.5866 8.46738C97.6856 8.50719 97.7747 8.5271 97.8737 8.5271C98.0716 8.5271 98.23 8.45743 98.6358 8.29818C98.913 8.17875 99.3287 8.00956 99.9919 7.75079C101.388 7.2034 101.932 6.57639 102.11 6.07877C102.338 5.97924 102.694 5.85981 103.07 5.85981C103.476 5.85981 103.694 5.93943 103.773 5.97924L103.783 5.98919C103.793 5.98919 103.803 5.99915 103.813 5.99915L104.258 6.37734L104.357 6.28777C104.872 6.56644 105.317 6.84511 105.476 6.9944L106.624 9.57211C106.307 10.0299 106.218 10.5574 106.426 11.0351C106.485 11.1844 106.564 11.3039 106.653 11.4133C102.338 11.1844 93.1027 10.7067 90.9548 10.6271C88.1041 10.5276 79.3342 10.4181 79.1956 10.4181H79.1758C78.5819 10.4181 78.087 10.5873 77.7802 10.8958C77.5525 11.1247 77.4238 11.4332 77.4238 11.7617C77.4238 12.5778 78.0969 13.0953 78.5423 13.1849C78.6413 13.2048 78.8591 13.2546 80.3735 13.0356C80.7793 12.9858 84.7387 13.2147 87.1142 13.3441H87.134C88.9256 13.4436 90.4797 13.5332 90.8558 13.5332C91.6477 13.5332 104.258 14.1105 108.396 14.2498C109.079 15.9517 109.95 18.1114 110.603 19.7337L110.771 19.5446L110.939 19.3555L111.108 19.1564L111.276 18.9673L111.345 18.8877L111.533 19.3455L111.454 19.3953L111.256 19.5247L111.058 19.654L110.86 19.7834L110.662 19.9128C111.127 21.0772 111.464 21.9232 111.514 22.0426C111.573 22.182 111.593 22.3512 111.622 22.5403C111.672 22.809 111.711 23.1275 111.86 23.4659C112.058 23.9237 115.641 31.816 116.542 33.6374C116.572 33.6971 118.888 38.3648 121.501 40.7435C117.344 41.7487 105.941 44.5055 103.526 45.0927L103.169 45.1823L103.021 45.4212C102.862 45.67 102.635 46.1477 102.754 46.5856C102.823 46.8145 102.961 47.0036 103.169 47.1131C103.239 47.1529 103.328 47.1828 103.476 47.1828C103.823 47.1828 104.793 47.0136 113.632 44.8041C117.591 43.8188 121.54 42.8136 122.857 42.4752C123.114 42.7837 123.53 42.9828 124.104 43.0724C125.173 43.2416 125.985 42.6046 126.203 41.4402C126.272 41.1018 126.104 40.5743 125.797 40.1762ZM104.337 2.8641C104.575 2.82429 105.04 2.76457 105.832 2.76457C106.604 2.76457 106.881 3.34182 106.97 3.6802L107.01 3.85935C107.01 3.8693 107.01 3.8693 107.01 3.87926C107.01 3.88921 107.01 3.89916 107.01 3.89916L107.059 4.33707C107.069 4.61574 107.039 4.88446 106.97 5.0238C106.842 4.93423 106.663 4.8148 106.485 4.69536L106.535 4.66551L105.594 4.11812L105.515 4.06835C105.476 4.04845 105.426 4.02854 105.386 3.99869C105.386 3.99869 105.377 3.98873 105.367 3.98873C104.812 3.72002 104.248 3.58068 103.724 3.54087C104.05 3.2821 104.228 3.05319 104.337 2.8641ZM107.841 12.3688C107.96 12.3688 108.039 12.3787 108.089 12.3787C108.138 12.3787 108.158 12.3787 108.158 12.3787V12.4384V12.5579V12.6674V12.8764C108.158 12.8764 108.118 12.8764 108.039 12.8764C107.98 12.8764 107.891 12.8764 107.792 12.8664C107.623 12.8564 107.406 12.8465 107.129 12.8465C105.733 12.8067 103.031 12.7271 99.8038 12.6275C91.0637 12.3588 83.2935 11.9707 82.1849 11.9309C80.4725 11.8711 79.8984 11.911 79.839 11.7318C79.8192 11.6721 79.7697 11.6323 79.7202 11.6024C79.6113 11.5427 79.4728 11.5328 79.4728 11.5328C80.4032 11.5527 82.2245 11.5925 84.5605 11.6522C89.2127 11.7716 91.0637 11.9408 96.7849 12.0901C100.487 12.1896 103.773 12.2693 105.852 12.329C106.594 12.3489 107.188 12.3588 107.584 12.3787C107.693 12.3688 107.772 12.3688 107.841 12.3688Z" fill="white"/>
<path id="Vector_8" d="M95.5482 12.5876L88.5007 41.46C88.5007 41.46 88.2136 42.4055 88.9956 42.923C90.411 43.8386 90.9752 42.7239 90.9752 42.7239L98.2307 13.2346C97.8347 12.6275 95.5482 12.5876 95.5482 12.5876Z" fill="white"/>
<path id="Vector_9" d="M72.08 41.6894L40.9994 11.6924C40.2669 11.7521 39.1484 13.7426 39.1484 13.7426L69.0709 42.6647C69.0709 42.6647 70.2785 43.6898 71.209 43.6898C73.0797 43.6898 72.08 41.6894 72.08 41.6894Z" fill="white"/>
<path id="Vector_10" d="M74.6817 25.5762L75.6814 26.7705C76.8989 22.3715 77.9416 17.6529 77.9416 17.6529L78.1857 16.6388C78.1857 16.6388 76.9385 21.8539 75.6814 26.7705L76.2753 27.4871L79.7991 12.9066C79.3932 12.2995 77.5522 11.2246 77.5522 11.2246L74.0977 25.2676C74.3154 25.2975 74.5332 25.397 74.6817 25.5762Z" fill="white"/>
<path id="Vector_11" d="M75.2158 29.587L74.6912 28.96C73.8301 32.1945 73.7494 32.4801 73.0976 35.3296C73.6044 33.15 73.741 32.4632 74.6912 28.96L73.5232 27.5566L70.1083 41.4603C70.1083 41.4603 69.4649 42.7243 70.2469 43.2319C71.6623 44.1475 72.5829 42.7243 72.5829 42.7243L75.6909 29.8756C75.5128 29.8258 75.3445 29.7362 75.2158 29.587Z" fill="white"/>
<path id="Vector_12" d="M55.4899 29.3085C54.6684 32.354 54.2008 34.2442 53.9953 35.3298C53.8765 35.3995 54.5892 32.6526 55.4899 29.3085C55.3711 29.1393 55.2623 28.9702 55.1336 28.801C54.9257 28.5024 54.6782 28.1242 54.3714 27.8555L50.9961 41.4705C50.9961 41.4705 51.6692 40.953 52.4511 41.4606C53.8666 42.3762 53.4707 42.7246 53.4707 42.7246L56.7767 29.637C56.549 29.3185 55.7176 29.627 55.4899 29.3085Z" fill="white"/>
<path id="Vector_13" d="M112.058 21.7242L111.811 21.4355L111.474 21.6246C111.444 21.6446 108.782 23.1175 106.168 26.2526C105.832 26.6507 105.525 27.0587 105.218 27.4668C103.06 30.2236 101.348 33.3189 100.982 38.8127C100.913 39.5591 100.883 40.3056 100.883 41.062C100.883 44.8141 101.605 47.4415 102.209 48.9742C102.882 50.696 103.575 51.5121 103.585 51.5221L103.664 51.5917L103.694 51.6117C103.724 51.6316 103.981 51.7808 104.308 51.7808C104.525 51.7808 104.733 51.7112 104.902 51.5818L104.961 51.532C105.505 51.124 105.456 50.7557 105.129 50.0093L105.099 49.9496C103.417 46.1975 103.06 42.9629 103.06 40.9027C103.06 35.9464 105.505 28.4322 112.395 23.5753L112.592 23.4261V23.1872C112.612 22.3711 112.078 21.7441 112.058 21.7242Z" fill="white"/>
<path id="Vector_14" d="M110.861 17.3547L90.5695 39.5688L89.055 39.4295L89.9855 41.5195C90.1141 41.6489 87.1645 41.2508 87.5505 41.6887C90.0647 44.5451 91.7078 42.7138 91.7078 42.7138L112.286 20.7983L112.494 20.5993L111.989 20.6988L110.861 17.3547Z" fill="white"/>
<path id="Vector_15" d="M33.4054 22.5596C33.0391 23.0572 32.6927 23.5747 32.277 24.0226C32.1186 24.3013 31.9503 24.57 31.7227 24.7889C36.7312 28.0633 40.057 33.8358 40.057 40.3945C40.057 40.7528 40.0471 41.1111 40.0273 41.4694C40.9182 41.4893 41.8189 41.5789 42.6998 41.7381C42.7592 41.7481 42.7889 41.8078 42.7889 41.8675H42.7988C42.8582 41.8078 42.9572 41.8078 43.0067 41.8775C43.0265 41.8974 43.0265 41.9272 43.0364 41.9471C43.0463 41.967 43.0562 41.977 43.0661 41.9969C43.0859 41.9969 43.0958 42.0068 43.1057 42.0168C43.1453 41.4794 43.1651 40.932 43.1651 40.3746C43.1651 32.9102 39.2651 26.3117 33.4054 22.5596Z" fill="white"/>
<path id="Vector_16" d="M42.8598 42.5548C42.8004 42.6245 42.6915 42.6046 42.6519 42.525C41.8898 42.724 41.1078 42.6046 40.3654 42.3757C40.3456 42.3757 40.3357 42.3757 40.3159 42.3757C40.2961 42.4155 40.2565 42.4553 40.1971 42.4553H39.9497C38.95 51.6713 31.3481 58.877 22.1526 58.877C13.1847 58.877 5.74124 52.0396 4.45446 43.152C4.41487 43.1122 4.40497 43.0425 4.43467 42.9927C4.31589 42.1368 4.2565 41.2709 4.2565 40.3852C4.2565 30.1938 12.2939 21.9033 22.1625 21.9033C25.32 21.9033 28.2796 22.7493 30.8532 24.2322C31.1996 23.7445 31.5955 23.3166 32.0311 22.9384C32.2488 22.6597 32.4864 22.391 32.7536 22.1521C29.6357 20.3109 26.0228 19.2659 22.1625 19.2659C10.5716 19.2659 1.14844 28.7407 1.14844 40.3951C1.14844 52.0495 10.5716 61.5244 22.1625 61.5244C33.0506 61.5244 42.0283 53.1642 43.0775 42.4851C43.0578 42.4951 43.0578 42.5051 43.038 42.525C42.9687 42.5548 42.9192 42.5548 42.8598 42.5548Z" fill="white"/>
<path id="Vector_17" d="M44.5126 32.5826C44.0572 30.9703 43.4238 29.4177 42.6517 27.9746C41.8598 26.4817 40.8997 25.1082 39.8109 23.8542C37.752 21.5054 35.2478 19.6741 32.3674 18.4002C29.2593 17.0268 25.7553 16.3301 21.9643 16.3301C18.2623 16.3301 14.8078 17.0765 11.6899 18.5594C9.1955 19.7438 6.9288 21.3959 4.92934 23.466C1.54413 26.9793 0.0989829 30.5722 0.0890847 30.612L0 30.8409L0.138577 31.0399C0.277153 31.2589 0.494915 31.3385 0.702779 31.4181C0.87105 31.4779 1.02942 31.5475 1.19769 31.6769C1.47484 31.8959 1.7322 31.8959 1.90047 31.866C2.37559 31.7665 2.64284 31.3087 2.93979 30.7613C2.97938 30.6916 3.04867 30.5821 3.11796 30.4428C3.55348 29.6565 4.78087 27.4471 5.59253 26.5414C7.10696 27.8651 14.1347 34.4437 20.529 40.465L20.9349 40.8531L21.7564 39.7385L6.62195 25.4168C7.16635 24.8196 8.43333 23.4959 10.3635 22.1822C12.7589 20.55 16.6588 18.6092 21.6574 18.6092C32.2288 18.6092 43.6019 26.0438 43.6019 42.346V42.7839L45.2054 42.9233L45.2648 42.4754C45.6806 39.1712 45.4232 35.7475 44.5126 32.5826Z" fill="white"/>
<path id="Vector_18" d="M50.0062 41.7585C49.9171 41.7486 40.88 41.1116 38.5341 41.032C36.7128 40.9723 28.5665 40.0567 25.1516 39.6685C24.825 38.305 23.6075 37.2998 22.1624 37.2998C20.4697 37.2998 19.084 38.6932 19.084 40.395C19.084 42.1069 20.4697 43.4903 22.1624 43.4903C23.3007 43.4903 24.2905 42.8732 24.825 41.9476C29.6949 42.4353 46.8091 44.1272 49.4816 44.1272C49.5608 44.1272 49.64 44.1272 49.6994 44.1173L50.0458 44.0974L50.0161 41.8083V41.7585H50.0062Z" fill="white"/>
<path id="Vector_19" d="M39.988 12.6077H39.8398C39.8695 12.6475 39.9782 12.7769 40.1758 13.1053L39.988 12.6077Z" fill="white"/>
<path id="Vector_20" d="M49.5898 36.9814C50.4213 39.3502 50.9162 40.9625 50.9162 40.9625C50.9162 40.9625 50.6984 40.4947 49.9363 39.1411L50.7974 41.3108L51.2132 41.2113L49.5898 36.9814Z" fill="white"/>
<path id="Vector_21" d="M39.832 12.5879L39.8432 12.6103H39.8544L39.832 12.5879Z" fill="white"/>
<path id="Vector_22" d="M40.4137 11.8213L38.8497 12.3687L37.8203 13.563L49.5795 43.2514L51.2424 40.7832L40.4137 11.8213Z" fill="white"/>
<path id="Vector_23" d="M53.1928 35.6174C53.2126 35.4482 53.2324 35.3089 53.2423 35.2293C53.6382 35.279 54.1826 35.3387 54.3509 35.2989C54.7666 35.1795 54.7666 34.7714 54.7765 33.9553C54.7765 33.826 54.7765 33.6966 54.7864 33.5771C54.7963 33.3582 54.7072 33.1392 54.5489 32.98C54.2816 32.7212 53.8461 32.6317 53.5293 32.6018C53.4106 32.3629 53.2027 32.1639 52.9948 32.0644C52.7276 31.9449 52.4504 31.9847 52.2525 32.1639C52.1733 32.2535 52.104 32.343 52.0347 32.4226C52.0248 32.4426 52.005 32.4625 51.9951 32.4824C51.6289 32.5222 50.7974 32.6715 50.6786 33.1293C50.639 33.2686 50.4906 34.3435 50.5797 34.6321C50.7182 35.08 51.1934 35.0103 51.421 34.9805C51.4309 34.9805 51.4408 34.9805 51.4507 34.9805C51.4408 35.0899 51.421 35.2094 51.4111 35.3487C51.3616 35.3487 51.3121 35.3487 51.2725 35.3487C49.2335 35.3487 47.3627 36.125 45.9572 37.3989L45.4524 37.5084L45.8186 37.5283C44.2843 38.9814 43.3242 41.0515 43.3242 43.3406C43.3242 47.3017 46.2046 50.596 49.9561 51.233C49.768 51.0737 49.6591 50.8349 49.7383 50.5263C49.9066 49.8894 49.8571 49.2225 49.8472 48.5756C49.8472 48.5557 49.8472 48.5259 49.8472 48.506C49.4315 48.3865 49.085 48.2771 48.8772 48.1974C48.9167 47.6003 49.0949 46.5951 49.283 46.4159C49.7383 45.9681 50.3619 45.9482 50.8172 45.9979L51.3319 46.0676C52.4009 46.3761 52.6682 46.9932 52.8266 47.5505C52.9255 47.8989 52.4207 48.6254 52.1337 48.914C51.9654 48.9041 51.6388 48.8742 51.2527 48.8045C51.2626 49.2922 51.2626 49.7799 51.2131 50.2576L52.0347 50.3273C51.7773 50.3472 51.5299 50.3671 51.2626 50.3671C51.2428 50.3671 51.2131 50.3671 51.1933 50.3671C51.1736 50.5562 51.134 50.7353 51.0845 50.9145C51.0251 51.1235 50.9162 51.2529 50.7677 51.3325C50.9261 51.3424 51.0944 51.3524 51.2626 51.3524C55.6476 51.3524 59.2209 47.7595 59.2209 43.3505C59.211 39.6382 56.6374 36.4833 53.1928 35.6174ZM55.4694 38.5534L56.192 40.7231C56.3108 41.0913 56.5879 41.9273 56.7859 43.052C56.4988 43.3505 55.9841 43.5994 55.4892 43.6591C55.123 43.7088 54.826 43.6392 54.6676 43.4899C54.1232 42.9624 54.2618 41.9472 54.2618 41.9373L54.7765 38.6928L55.4694 38.5534ZM51.718 39.0909V39.0709L51.7279 39.0112L51.8466 37.9762L51.8664 37.807L51.906 37.5283L51.9258 37.3591L51.9654 37.0406L51.9852 36.8714L52.005 36.6923L52.0149 36.5928L52.0248 36.5231L52.0347 36.4236V36.4136L52.0545 36.2345L52.0743 36.0653L52.0941 35.8961L52.1238 35.6075L52.1436 35.4383L52.2525 34.5027H52.5692L52.4504 35.4781L52.4306 35.6473L52.391 35.9259L52.3712 36.0951L52.3514 36.2643L52.3317 36.4435L52.3119 36.553L52.302 36.6226L52.2822 36.7321L52.2624 36.9112V37.0605L52.2426 37.2297L52.2228 37.3989L52.203 37.5681L52.1634 37.8567L52.1436 38.0259L52.0644 38.7027L52.0248 38.9913L52.005 39.1108H51.7279L51.718 39.0909ZM46.5313 45.7491C46.3927 45.4505 46.2541 45.0922 46.1551 44.6842C46.2937 44.7837 46.4422 44.8832 46.6005 44.9728C46.5709 45.2614 46.5511 45.5202 46.5313 45.7491ZM49.3424 50.1183C48.7782 49.959 48.2338 49.7301 47.7389 49.4315L47.7488 49.3718C47.9269 49.4913 48.1744 49.6306 48.5307 49.7898C48.7584 49.8993 49.0454 50.0187 49.3424 50.1183ZM48.1645 45.1619C48.1744 45.0524 48.1843 44.9529 48.1843 44.8733C48.501 44.6941 48.897 44.4254 49.1939 44.087C49.2731 44.2463 49.3622 44.3956 49.4611 44.5249C48.986 44.6145 48.501 44.7937 48.1645 45.1619ZM49.0058 42.6141L48.6297 42.8031C48.2833 42.9823 47.432 43.2709 47.0163 43.0818C46.9272 43.042 46.8183 42.9624 46.7589 42.6837C46.5016 41.5292 46.561 40.6932 46.947 40.1359C47.3132 39.5984 48.0358 39.26 49.0751 39.1307L49.8076 39.051L49.4414 37.7572L50.0649 37.7871C50.4213 37.807 50.7281 37.8269 51.0152 37.8567C50.9756 38.0558 50.9459 38.225 50.9261 38.3643L49.6888 37.807L49.7581 37.9165L49.7086 37.8965L50.1045 38.5037L50.4609 39.0909C50.5302 39.2103 50.8172 39.6681 51.2428 39.9169L51.718 40.1458L52.2822 40.6036L52.4801 40.2055C52.6187 39.9567 53.6184 39.2401 54.2717 38.8918L53.0839 41.569C53.074 41.5889 53.0641 41.6188 53.0542 41.6487C52.6385 41.1112 51.9852 40.7629 51.2527 40.7629C50.154 40.7828 49.2236 41.569 49.0058 42.6141ZM51.2527 44.2463C50.6192 44.2463 50.1045 43.7287 50.1045 43.0918C50.1045 42.4548 50.6192 41.9373 51.2527 41.9373C51.8862 41.9373 52.4009 42.4548 52.4009 43.0918C52.4009 43.7287 51.8862 44.2463 51.2527 44.2463ZM53.5887 45.5102C53.3116 45.2515 52.9948 45.0524 52.6682 44.9031C52.9255 44.6941 53.1433 44.4453 53.2918 44.1567C53.3017 44.1666 53.3017 44.1766 53.3116 44.1866C53.5293 44.515 53.8065 44.7738 54.1232 44.9529C53.9253 45.142 53.7372 45.351 53.5887 45.5102ZM54.4697 48.4562C54.7765 47.5007 54.1727 46.1771 54.1727 46.1771C54.1727 46.1771 54.4697 45.8188 54.8557 45.3908C56.1029 45.6098 57.1125 45.0027 57.3402 44.933C56.2514 47.9486 54.8755 48.4562 54.4697 48.4562Z" fill="white"/>
<path id="Vector_24" d="M52.6687 51.1843C52.5598 50.8758 52.2629 50.6668 52.1738 50.6071L51.9956 50.4976L51.7976 50.5573C51.7284 50.5772 51.57 50.6369 51.4413 50.7663C51.4017 50.7663 51.3522 50.7564 51.3027 50.7564C51.3918 49.99 51.7185 47.2431 52.0352 44.5759L52.0748 44.2375L51.5403 44.4664L51.273 44.3171H51.2631L50.7979 44.3768L50.402 43.9688L50.3525 44.3071C50.3525 44.3071 50.3525 44.3071 50.3525 44.3171L50.0457 44.3668L50.3129 44.536C50.1545 45.5114 49.5111 49.3232 49.2835 50.637H48.9964C48.8678 50.5374 48.7292 50.4877 48.5906 50.4877H48.5807C48.4223 50.4877 48.2838 50.5573 48.1848 50.6768C47.9571 50.9455 47.7295 52.518 47.7493 53.0455C47.7591 53.3341 47.868 53.5729 48.066 53.7521C48.3926 54.0407 48.8777 54.0805 49.2142 54.0606C49.4715 54.19 49.7982 54.2597 50.1248 54.2597C50.5703 54.2597 51.0058 54.1402 51.4017 53.9113C51.9362 53.9113 52.7083 53.8616 52.7083 53.2246C52.7083 53.1948 52.7083 53.1052 52.7182 52.9858C52.7281 51.6123 52.7182 51.3336 52.6687 51.1843ZM50.9464 44.536L51.085 44.4365L51.3423 44.536C51.3423 44.536 50.6593 49.8806 50.501 51.0251C50.3327 50.9355 49.9764 51.0251 49.9764 51.0251L50.9464 44.536Z" fill="white"/>
<path id="Vector_25" d="M60.7441 12.7671C60.7639 12.6974 60.7936 12.6178 60.7936 12.5382C60.7936 11.8116 60.2096 11.2344 59.497 11.2344C58.8734 11.2344 58.3686 11.6822 58.2399 12.2794H58.23L54.9141 25.6457C55.4189 25.8945 56.1217 26.6111 56.4978 27.0291C57.7351 22.5504 58.8542 17.5429 58.8542 17.5429L59.0713 16.6386C59.0713 16.6386 57.7846 22.0329 56.4978 27.0291C56.7254 27.3276 56.9531 27.6461 57.161 27.9646L60.9124 12.9164C60.8827 12.8566 60.8134 12.8168 60.7441 12.7671Z" fill="white"/>
<path id="Vector_26" d="M41.2845 12.4485C41.2845 11.722 40.7005 11.1348 39.9878 11.1348C39.7602 11.1348 39.5424 11.1945 39.3543 11.304C39.1168 11.304 38.7307 11.3537 38.3942 11.6423C38.0379 11.9608 37.8498 12.4485 37.8399 13.0954C36.4343 15.275 21.1811 37.9171 21.0722 38.0763L20.7852 38.4844L20.8148 38.5043L20.805 38.5242L20.9831 38.6137L21.2009 38.7531C21.2504 38.7929 21.3692 38.8625 22.161 39.0815L22.4778 39.1512L22.6856 38.8625C28.001 31.3882 40.3738 14.0011 40.4431 13.9016C40.4827 13.8419 40.5322 13.7324 40.5916 13.603C41.0073 13.3741 41.2845 12.9461 41.2845 12.4485ZM33.1877 22.3911L31.6238 24.6702L31.1684 25.337L22.3392 38.2156L22.0026 38.1858L33.8014 20.7987V20.8086C33.8014 20.8186 33.8014 20.8285 33.8014 20.8285C33.8905 21.2167 33.1877 22.3911 33.1877 22.3911Z" fill="white"/>
<path id="Vector_27" d="M90.7363 41.0822L60.3783 11.6924C59.6458 11.7521 58.5273 13.7426 58.5273 13.7426L88.4498 42.6647C88.4498 42.6647 89.1328 43.3912 90.0633 43.3912C91.9439 43.3912 90.7363 41.0822 90.7363 41.0822Z" fill="white"/>
</g>
</svg>
