<svg width="145" height="105" viewBox="0 0 145 105" fill="none" xmlns="http://www.w3.org/2000/svg">
<g id="Group 3">
<g id="Group">
<path id="Vector" d="M47.8382 91.5438L22.9044 84.8258L23.8645 84.985L22.9044 84.8258C22.5481 85.5623 21.3306 84.8756 21.192 85.1841L20.9346 85.423L21.2217 85.6618C21.2811 85.7514 21.3702 85.831 21.4988 85.8808C28.4276 88.4386 49.115 93.2656 49.3229 93.3153L52.2924 94.012L48.5706 91.8025L47.8382 91.5438Z" fill="#333333"/>
<path id="Vector_2" d="M49.2733 79.601L48.5408 78.0583L23.221 79.3323L24.1317 79.2825L22.1223 80.865L49.1644 79.601H49.2733Z" fill="#333333"/>
<path id="Vector_3" d="M67.9121 47.9817C67.2687 47.4741 65.9126 47.7329 63.4579 48.2206C63.2203 48.2704 62.9629 48.3201 62.7155 48.3699C60.3498 48.8277 57.5189 48.141 57.1823 47.9917C56.9052 47.8523 55.6382 47.5936 54.7969 47.8922C54.3217 48.0613 54.104 48.35 54.0149 48.559C53.8565 48.9073 53.8664 49.2656 54.0545 49.594C54.3316 50.0917 54.9651 50.4301 55.6679 50.6391C55.4403 50.9078 55.2918 51.2561 55.2918 51.6841C55.2918 51.9329 55.3809 52.2912 55.8263 52.6097C56.2222 52.8883 56.8458 53.0675 57.4793 53.157C57.6773 53.6149 58.0138 54.4111 58.1029 54.63L58.2613 55.0182L58.677 55.058C58.8255 55.0779 58.9838 55.0779 59.162 55.0779C59.459 55.0779 59.6965 55.058 59.6965 55.058L60.4191 54.9983L60.3597 54.6002H60.716L60.3201 54.3414L60.3102 54.2717C60.3003 54.1822 60.2112 53.6049 60.0331 53.0277C60.0825 53.0078 60.132 52.9978 60.1914 52.9779H60.2013C61.0229 52.7092 62.369 52.2713 63.1015 51.6045C64.6061 51.6741 67.0212 51.6244 67.7042 50.5992C68.0606 50.1016 68.9415 48.7978 67.9121 47.9817Z" fill="#333333"/>
<path id="Vector_4" d="M48.5308 47.9817C47.8775 47.4741 46.5313 47.7329 44.0766 48.2206C43.839 48.2704 43.5817 48.3201 43.3243 48.3699C40.9586 48.8277 38.1277 48.141 37.7912 47.9917C37.514 47.8523 36.2569 47.5936 35.4057 47.8922C34.9306 48.0613 34.7128 48.35 34.6237 48.559C34.4653 48.9073 34.4752 49.2656 34.6633 49.594C34.9405 50.0917 35.574 50.4301 36.2767 50.6391C36.0491 50.9078 35.9105 51.2561 35.9105 51.6841C35.9105 51.9329 35.9996 52.2912 36.4351 52.6097C36.8409 52.8883 37.4546 53.0675 38.0881 53.157C38.2861 53.6149 38.6226 54.4111 38.7117 54.63L38.8701 55.0182L39.2858 55.058C39.4244 55.0779 39.5927 55.0779 39.7708 55.0779C40.0678 55.0779 40.2954 55.058 40.2954 55.058L41.018 54.9983L40.9586 54.6002H41.315L40.9289 54.3414L40.919 54.2717C40.8992 54.1822 40.82 53.6049 40.6419 53.0277C40.6914 53.0078 40.7409 52.9978 40.8002 52.9779H40.8101C41.6416 52.7092 42.9779 52.2713 43.7103 51.6045C45.2248 51.6741 47.6301 51.6244 48.313 50.5992C48.6694 50.1016 49.5503 48.7978 48.5308 47.9817Z" fill="#333333"/>
<path id="Vector_5" d="M88.5406 48.2703C87.8874 47.7627 86.5412 48.0215 84.0864 48.5092C83.8489 48.5589 83.5915 48.6087 83.3341 48.6585C80.9685 49.1163 78.1375 48.4295 77.8109 48.2803C77.5239 48.1409 76.2668 47.8822 75.4254 48.1807C74.9503 48.3499 74.7325 48.6385 74.6435 48.8475C74.4851 49.1959 74.5049 49.5641 74.6831 49.8826C74.9602 50.3703 75.5937 50.7186 76.3064 50.9276C76.0787 51.1963 75.9302 51.5347 75.9302 51.9726C75.9302 52.2215 76.0193 52.5798 76.4548 52.8982C76.8508 53.1769 77.4744 53.3561 78.1079 53.4456C78.3058 53.9034 78.6424 54.6996 78.7314 54.9186L78.8898 55.3067L79.2956 55.3466C79.4441 55.3565 79.6025 55.3665 79.7807 55.3665C80.0776 55.3665 80.3152 55.3466 80.3152 55.3466L81.0377 55.2868V55.2769C81.0081 55.257 80.9784 55.2371 80.9784 55.1973C80.9586 55.1077 80.9487 55.0181 80.9388 54.9385C80.8695 54.9584 80.7903 54.9385 80.7705 54.8589C80.7507 54.9286 80.6715 54.9883 80.5923 54.9385C80.3944 54.8191 80.2657 54.6598 80.1667 54.4508C80.0974 54.5205 79.9687 54.5105 79.9489 54.4011H79.9291C79.8994 54.4011 79.8599 54.3812 79.8401 54.3613H79.8302C79.7609 54.3712 79.6619 54.3314 79.6718 54.2418C79.6817 54.1124 79.7114 54.0428 79.7906 53.9333C79.8104 53.9034 79.8401 53.8835 79.8697 53.8736C79.9093 53.8338 79.9489 53.794 80.038 53.7641C80.1172 53.7342 80.1964 53.8139 80.1964 53.8835C80.1964 53.9034 80.1964 53.9233 80.1964 53.9433C80.1964 53.9433 80.2063 53.9433 80.2063 53.9532C80.2162 53.9233 80.2261 53.8835 80.2261 53.8537C80.2459 53.7442 80.3647 53.7342 80.4339 53.794C80.4834 53.7442 80.5725 53.7442 80.6121 53.794C80.6418 53.784 80.6715 53.794 80.7012 53.8039V53.784C80.7012 53.7243 80.721 53.6944 80.7606 53.6745C80.7309 53.5551 80.7012 53.4456 80.6616 53.3162C80.7111 53.2963 80.7606 53.2864 80.82 53.2665H80.8299C81.6613 52.9978 82.9976 52.5598 83.74 51.893C85.2445 51.9627 87.6597 51.9129 88.3427 50.8878C88.6792 50.3902 89.5701 49.0864 88.5406 48.2703Z" fill="#333333"/>
<path id="Vector_6" d="M124.085 62.8311C120.472 62.8311 117.671 63.7566 115.959 64.5329C115.919 64.5528 115.869 64.5727 115.82 64.5927C115.85 64.7121 115.869 64.8315 115.889 64.9509C115.909 65.0206 115.919 65.0903 115.929 65.1599C115.959 65.2197 115.988 65.2794 116.008 65.349C116.048 65.359 116.077 65.3789 116.097 65.4386C116.147 65.6377 116.196 65.8367 116.246 66.0358C116.295 66.2149 116.335 66.3941 116.374 66.5832C116.404 66.7424 116.166 66.8121 116.127 66.6528C116.107 66.5832 116.097 66.5234 116.077 66.4538C116.087 66.5732 116.097 66.7026 116.097 66.822C116.107 66.9016 116.028 66.9514 115.959 66.9415C115.959 66.9713 115.959 67.0012 115.959 67.031C115.959 67.1505 115.78 67.2002 115.721 67.1007C115.721 67.1306 115.721 67.1704 115.711 67.2002C115.701 67.2997 115.612 67.3396 115.543 67.3196V67.4192C115.543 67.5087 115.474 67.5486 115.414 67.5386C115.414 67.6879 115.404 67.8471 115.384 68.0064C115.404 68.0661 115.414 68.1159 115.434 68.1756C115.444 68.1955 115.444 68.2054 115.444 68.2154C116.75 67.3893 119.759 65.8367 124.105 65.8367C132.568 65.8367 142.041 73.53 142.041 83.8309C142.041 94.0024 134.072 101.984 123.917 101.984C114.335 101.984 106.535 93.7934 106.535 83.7314C106.535 78.6556 108.743 74.8637 110.594 72.5845C112.148 70.6538 113.722 69.4395 114.375 68.9817C114.286 68.6831 114.226 68.3945 114.236 68.076C114.117 68.2452 113.979 68.4144 113.949 68.4542C113.999 68.4642 114.157 68.5936 114.187 68.5836C113.929 69.768 113.929 68.9419 113.939 68.4642C113.939 68.3149 113.949 68.1955 113.939 68.1855C113.88 68.1955 113.731 67.9068 113.712 67.8372C113.682 67.7277 113.593 67.4988 113.573 67.3893C113.415 67.031 113.048 66.6727 113.068 66.2746C112.801 66.4438 110.544 67.9566 108.337 70.6737C106.169 73.3509 103.586 77.7798 103.586 83.7214C103.586 85.5029 103.803 87.2745 104.219 88.9963C105.051 92.3602 106.694 95.4953 108.96 98.0929C111.237 100.691 114.098 102.671 117.226 103.826C119.364 104.602 121.601 105 123.867 105C125.273 105 126.659 104.871 128.025 104.602C133.756 103.467 138.784 100.014 141.843 95.1071L141.862 95.0773C141.892 95.0176 141.932 94.9579 141.971 94.8981L142.011 94.8384C143.961 91.564 145 87.7522 145 83.8409C145 71.8082 133.964 62.8311 124.085 62.8311Z" fill="#333333"/>
<path id="Vector_7" d="M125.797 82.6265C125.55 82.308 125.104 81.9099 124.372 81.8502C124.104 81.8303 123.877 81.8602 123.679 81.9099C122.798 81.044 121.303 79.2526 120.818 78.3867C120.482 77.7796 118.957 74.2664 116.73 68.9517C116.839 68.8621 116.948 68.7526 117.027 68.6233C117.413 68.4242 117.582 68.1555 117.651 67.9564C117.75 67.6678 117.7 67.3493 117.522 67.0806C117.403 66.8617 116.809 65.3389 116.522 64.5925C115.839 62.8508 115.83 62.8309 115.731 62.7115C115.651 62.6119 115.562 62.5423 115.493 62.4925C115.453 61.9949 115.156 61.8157 114.958 61.7461C114.572 61.6167 114.256 61.6167 113.998 61.7361C113.771 61.1987 113.345 60.1338 112.89 59.0091C110.603 53.376 110.237 52.5201 110.059 52.3111C109.91 52.1419 109.752 52.0324 109.613 51.9528C109.544 51.6343 109.376 51.1367 109 50.9774C108.97 50.9675 108.95 50.9575 108.93 50.9476C108.812 50.6987 108.574 50.2011 108.416 49.8229C108.762 49.5542 109.188 49.1461 109.297 48.7978C109.366 48.5689 109.336 48.34 109.217 48.1409C109.198 48.121 109.168 48.0812 109.148 48.0414C109.435 47.4841 109.782 46.6481 109.673 45.9613L109.663 45.9414C109.633 45.1552 109.287 43.8016 107.743 42.9258C105.941 41.9007 103.526 42.8163 102.962 43.0552C101.032 42.9358 98.458 44.8068 98.3294 44.8964L97.9235 45.195L98.0819 45.6727C98.27 46.2201 98.557 46.7476 98.7649 47.1059C98.3294 47.295 97.8839 47.5139 97.4682 47.7229L97.4484 47.7329C97.3791 47.7627 97.3197 47.8026 97.2801 47.8125C96.7456 48.0713 96.5279 48.6187 96.5378 49.0466L96.5477 49.166L96.5972 49.2855C97.1614 50.6291 97.2999 50.8082 97.587 50.9177C97.686 50.9575 97.7751 50.9774 97.874 50.9774C98.072 50.9774 98.2304 50.9077 98.6362 50.7485C98.9134 50.6291 99.3291 50.4599 99.9923 50.2011C101.388 49.6537 101.932 49.0267 102.111 48.5291C102.338 48.4296 102.695 48.3101 103.071 48.3101C103.476 48.3101 103.694 48.3898 103.773 48.4296L103.783 48.4395C103.793 48.4395 103.803 48.4495 103.813 48.4495L104.258 48.8277L104.357 48.7381C104.872 49.0168 105.318 49.2954 105.476 49.4447L106.624 52.0224C106.307 52.4802 106.218 53.0077 106.426 53.4855C106.486 53.6347 106.565 53.7542 106.654 53.8636C102.338 53.6347 93.1031 53.157 90.9551 53.0774C88.1044 52.9779 79.3346 52.8684 79.196 52.8684H79.1762C78.5823 52.8684 78.0874 53.0376 77.7805 53.3461C77.5529 53.575 77.4242 53.8836 77.4242 54.212C77.4242 55.0281 78.0973 55.5456 78.5427 55.6352C78.6417 55.6551 78.8594 55.7049 80.3739 55.4859C80.7797 55.4362 84.739 55.6651 87.1146 55.7944H87.1344C88.926 55.894 90.48 55.9835 90.8562 55.9835C91.648 55.9835 104.258 56.5608 108.396 56.7001C109.079 58.402 109.95 60.5617 110.603 62.184L110.772 61.9949L110.94 61.8058L111.108 61.6067L111.276 61.4176L111.346 61.338L111.534 61.7958L111.454 61.8456L111.257 61.975L111.059 62.1044L110.861 62.2337L110.663 62.3631C111.128 63.5276 111.464 64.3735 111.514 64.493C111.573 64.6323 111.593 64.8015 111.623 64.9906C111.672 65.2593 111.712 65.5778 111.86 65.9162C112.058 66.374 115.641 74.2664 116.542 76.0877C116.572 76.1474 118.888 80.8151 121.501 83.1938C117.344 84.199 105.941 86.9559 103.526 87.5431L103.17 87.6326L103.021 87.8715C102.863 88.1203 102.635 88.598 102.754 89.0359C102.823 89.2648 102.962 89.4539 103.17 89.5634C103.239 89.6032 103.328 89.6331 103.476 89.6331C103.823 89.6331 104.793 89.4639 113.632 87.2544C117.591 86.2691 121.541 85.2639 122.857 84.9255C123.115 85.2341 123.53 85.4331 124.104 85.5227C125.174 85.6919 125.985 85.0549 126.203 83.8905C126.272 83.5521 126.104 83.0246 125.797 82.6265ZM104.338 45.3144C104.575 45.2746 105.04 45.2149 105.832 45.2149C106.604 45.2149 106.881 45.7921 106.971 46.1305L107.01 46.3097C107.01 46.3196 107.01 46.3196 107.01 46.3296C107.01 46.3395 107.01 46.3495 107.01 46.3495L107.06 46.7874C107.07 47.0661 107.04 47.3348 106.971 47.4741C106.842 47.3845 106.664 47.2651 106.486 47.1457L106.535 47.1158L105.595 46.5684L105.516 46.5187C105.476 46.4988 105.426 46.4789 105.387 46.449C105.387 46.449 105.377 46.4391 105.367 46.4391C104.813 46.1703 104.249 46.031 103.724 45.9912C104.051 45.7324 104.229 45.5035 104.338 45.3144ZM107.842 54.8191C107.96 54.8191 108.04 54.829 108.089 54.829C108.139 54.829 108.158 54.829 108.158 54.829V54.8888V55.0082V55.1177V55.3267C108.158 55.3267 108.119 55.3267 108.04 55.3267C107.98 55.3267 107.891 55.3267 107.792 55.3167C107.624 55.3068 107.406 55.2968 107.129 55.2968C105.733 55.257 103.031 55.1774 99.8042 55.0779C91.064 54.8091 83.2939 54.421 82.1853 54.3812C80.4729 54.3215 79.8988 54.3613 79.8394 54.1821C79.8196 54.1224 79.7701 54.0826 79.7206 54.0527C79.6117 53.993 79.4731 53.9831 79.4731 53.9831C80.4036 54.003 82.2249 54.0428 84.5609 54.1025C89.213 54.2219 91.064 54.3911 96.7852 54.5404C100.487 54.6399 103.773 54.7196 105.852 54.7793C106.594 54.7992 107.188 54.8091 107.584 54.829C107.693 54.8191 107.772 54.8191 107.842 54.8191Z" fill="#333333"/>
<path id="Vector_8" d="M95.548 55.038L88.5004 83.9103C88.5004 83.9103 88.2134 84.8558 88.9953 85.3733C90.4108 86.2889 90.975 85.1743 90.975 85.1743L98.2304 55.6849C97.8345 55.0778 95.548 55.038 95.548 55.038Z" fill="#333333"/>
<path id="Vector_9" d="M72.0797 84.1394L40.9991 54.1425C40.2666 54.2022 39.1481 56.1927 39.1481 56.1927L69.0706 85.1148C69.0706 85.1148 70.2782 86.1399 71.2087 86.1399C73.0794 86.1399 72.0797 84.1394 72.0797 84.1394Z" fill="#333333"/>
<path id="Vector_10" d="M74.6823 68.0262L75.6821 69.2206C76.8995 64.8215 77.9422 60.103 77.9422 60.103L78.1863 59.0889C78.1863 59.0889 76.9391 64.304 75.6821 69.2206L76.276 69.9371L79.7997 55.3567C79.3939 54.7496 77.5528 53.6747 77.5528 53.6747L74.0983 67.7177C74.3161 67.7476 74.5339 67.8471 74.6823 68.0262Z" fill="#333333"/>
<path id="Vector_11" d="M75.2167 72.0373L74.6921 71.4103C73.8309 74.6448 73.7502 74.9304 73.0984 77.7799C73.6052 75.6003 73.7418 74.9136 74.6921 71.4103L73.5241 70.007L70.1092 83.9107C70.1092 83.9107 69.4658 85.1746 70.2477 85.6822C71.6632 86.5978 72.5837 85.1746 72.5837 85.1746L75.6918 72.3259C75.5136 72.2761 75.3453 72.1866 75.2167 72.0373Z" fill="#333333"/>
<path id="Vector_12" d="M55.4898 71.7584C54.6682 74.8038 54.2007 76.694 53.9951 77.7797C53.8764 77.8493 54.589 75.1024 55.4898 71.7584C55.371 71.5892 55.2621 71.42 55.1335 71.2508C54.9256 70.9522 54.6781 70.574 54.3713 70.3053L50.996 83.9204C50.996 83.9204 51.6691 83.4028 52.451 83.9104C53.8665 84.8261 53.4705 85.1744 53.4705 85.1744L56.7766 72.0868C56.5489 71.7683 55.7175 72.0768 55.4898 71.7584Z" fill="#333333"/>
<path id="Vector_13" d="M112.059 64.1745L111.811 63.8859L111.475 64.075C111.445 64.0949 108.782 65.5678 106.169 68.7029C105.833 69.101 105.526 69.5091 105.219 69.9171C103.061 72.674 101.349 75.7692 100.982 81.263C100.913 82.0094 100.883 82.7559 100.883 83.5123C100.883 87.2644 101.606 89.8919 102.21 91.4246C102.883 93.1463 103.576 93.9624 103.586 93.9724L103.665 94.0421L103.695 94.062C103.724 94.0819 103.982 94.2312 104.308 94.2312C104.526 94.2312 104.734 94.1615 104.902 94.0321L104.962 93.9824C105.506 93.5743 105.456 93.2061 105.13 92.4596L105.1 92.3999C103.417 88.6478 103.061 85.4132 103.061 83.353C103.061 78.3967 105.506 70.8825 112.395 66.0257L112.593 65.8764V65.6375C112.613 64.8214 112.078 64.1944 112.059 64.1745Z" fill="#333333"/>
<path id="Vector_14" d="M110.861 59.8049L90.5695 82.019L89.0551 81.8797L89.9855 83.9697C90.1142 84.0991 87.1645 83.701 87.5506 84.1389C90.0647 86.9953 91.7078 85.164 91.7078 85.164L112.286 63.2485L112.494 63.0495L111.989 63.149L110.861 59.8049Z" fill="#333333"/>
<path id="Vector_15" d="M33.4068 65.0104C33.0405 65.508 32.6941 66.0255 32.2784 66.4734C32.12 66.7521 31.9517 67.0208 31.7241 67.2397C36.7326 70.5141 40.0584 76.2866 40.0584 82.8453C40.0584 83.2036 40.0485 83.5619 40.0287 83.9202C40.9196 83.9401 41.8203 84.0297 42.7013 84.1889C42.7606 84.1989 42.7903 84.2586 42.7903 84.3183H42.8002C42.8596 84.2586 42.9586 84.2586 43.0081 84.3283C43.0279 84.3482 43.0279 84.378 43.0378 84.3979C43.0477 84.4178 43.0576 84.4278 43.0675 84.4477C43.0873 84.4477 43.0972 84.4576 43.1071 84.4676C43.1467 83.9302 43.1665 83.3828 43.1665 82.8254C43.1665 75.361 39.2666 68.7625 33.4068 65.0104Z" fill="#333333"/>
<path id="Vector_16" d="M42.8595 85.005C42.8002 85.0747 42.6913 85.0548 42.6517 84.9752C41.8895 85.1742 41.1075 85.0548 40.3652 84.8259C40.3454 84.8259 40.3355 84.8259 40.3157 84.8259C40.2959 84.8657 40.2563 84.9055 40.1969 84.9055H39.9494C38.9497 94.1215 31.3478 101.327 22.1523 101.327C13.1845 101.327 5.74099 94.4898 4.45422 85.6022C4.41463 85.5624 4.40473 85.4927 4.43442 85.4429C4.31564 84.587 4.25625 83.7211 4.25625 82.8354C4.25625 72.644 12.2937 64.3535 22.1622 64.3535C25.3198 64.3535 28.2794 65.1995 30.8529 66.6824C31.1994 66.1947 31.5953 65.7668 32.0308 65.3886C32.2486 65.1099 32.4861 64.8412 32.7534 64.6023C29.6354 62.7611 26.0226 61.7161 22.1622 61.7161C10.5714 61.7161 1.14819 71.1909 1.14819 82.8453C1.14819 94.4997 10.5714 103.975 22.1622 103.975C33.0503 103.975 42.0281 95.6144 43.0773 84.9353C43.0575 84.9453 43.0575 84.9553 43.0377 84.9752C42.9684 85.005 42.9189 85.005 42.8595 85.005Z" fill="#333333"/>
<path id="Vector_17" d="M44.5126 75.033C44.0572 73.4207 43.4238 71.8681 42.6517 70.425C41.8598 68.9321 40.8997 67.5587 39.8109 66.3046C37.752 63.9558 35.2478 62.1246 32.3674 60.8506C29.2593 59.4772 25.7553 58.7805 21.9643 58.7805C18.2623 58.7805 14.8078 59.527 11.6899 61.0099C9.1955 62.1942 6.9288 63.8464 4.92934 65.9165C1.54413 69.4297 0.0989829 73.0226 0.0890847 73.0624L0 73.2913L0.138577 73.4904C0.277153 73.7093 0.494915 73.789 0.702779 73.8686C0.87105 73.9283 1.02942 73.998 1.19769 74.1273C1.47484 74.3463 1.7322 74.3463 1.90047 74.3164C2.37559 74.2169 2.64284 73.7591 2.93979 73.2117C2.97938 73.142 3.04867 73.0326 3.11796 72.8932C3.55348 72.107 4.78087 69.8975 5.59253 68.9918C7.10696 70.3155 14.1347 76.8941 20.529 82.9154L20.9349 83.3036L21.7564 82.1889L6.62195 67.8672C7.16635 67.27 8.43333 65.9463 10.3635 64.6326C12.7589 63.0004 16.6588 61.0597 21.6574 61.0597C32.2288 61.0597 43.6019 68.4942 43.6019 84.7965V85.2344L45.2054 85.3737L45.2648 84.9259C45.6806 81.6216 45.4232 78.1979 44.5126 75.033Z" fill="#333333"/>
<path id="Vector_18" d="M50.006 84.2087C49.9169 84.1988 40.8798 83.5618 38.5339 83.4822C36.7126 83.4225 28.5663 82.5069 25.1514 82.1187C24.8247 80.7552 23.6073 79.75 22.1621 79.75C20.4695 79.75 19.0837 81.1434 19.0837 82.8452C19.0837 84.5571 20.4695 85.9405 22.1621 85.9405C23.3004 85.9405 24.2902 85.3234 24.8247 84.3978C29.6947 84.8855 46.8088 86.5774 49.4814 86.5774C49.5605 86.5774 49.6397 86.5774 49.6991 86.5675L50.0456 86.5476L50.0159 84.2585V84.2087H50.006Z" fill="#333333"/>
<path id="Vector_19" d="M39.989 55.0579H39.8408C39.8704 55.0977 39.9791 55.2271 40.1767 55.5555L39.989 55.0579Z" fill="#333333"/>
<path id="Vector_20" d="M49.5907 79.4318C50.4222 81.8005 50.9171 83.4128 50.9171 83.4128C50.9171 83.4128 50.6993 82.945 49.9371 81.5915L50.7983 83.7611L51.214 83.6616L49.5907 79.4318Z" fill="#333333"/>
<path id="Vector_21" d="M39.8307 55.038L39.8419 55.0604H39.8531L39.8307 55.038Z" fill="#333333"/>
<path id="Vector_22" d="M40.4145 54.2715L38.8506 54.8189L37.8212 56.0132L49.5803 85.7016L51.2432 83.2334L40.4145 54.2715Z" fill="#333333"/>
<path id="Vector_23" d="M53.1933 78.0681C53.2131 77.8989 53.2329 77.7596 53.2428 77.68C53.6387 77.7297 54.1831 77.7894 54.3514 77.7496C54.7671 77.6302 54.7671 77.2221 54.777 76.406C54.777 76.2766 54.777 76.1473 54.7869 76.0278C54.7968 75.8089 54.7077 75.5899 54.5494 75.4307C54.2821 75.1719 53.8466 75.0823 53.5298 75.0525C53.4111 74.8136 53.2032 74.6146 52.9953 74.515C52.7281 74.3956 52.4509 74.4354 52.253 74.6146C52.1738 74.7041 52.1045 74.7937 52.0352 74.8733C52.0253 74.8932 52.0055 74.9131 51.9956 74.9331C51.6294 74.9729 50.7979 75.1222 50.6791 75.58C50.6395 75.7193 50.4911 76.7942 50.5801 77.0828C50.7187 77.5307 51.1938 77.461 51.4215 77.4311C51.4314 77.4311 51.4413 77.4311 51.4512 77.4311C51.4413 77.5406 51.4215 77.66 51.4116 77.7994C51.3621 77.7994 51.3126 77.7994 51.273 77.7994C49.234 77.7994 47.3632 78.5757 45.9576 79.8496L45.4528 79.9591L45.8191 79.979C44.2848 81.4321 43.3247 83.5022 43.3247 85.7913C43.3247 89.7524 46.2051 93.0467 49.9566 93.6836C49.7685 93.5244 49.6596 93.2855 49.7388 92.977C49.9071 92.34 49.8576 91.6732 49.8477 91.0263C49.8477 91.0064 49.8477 90.9765 49.8477 90.9566C49.4319 90.8372 49.0855 90.7277 48.8776 90.6481C48.9172 90.051 49.0954 89.0458 49.2835 88.8666C49.7388 88.4187 50.3624 88.3988 50.8177 88.4486L51.3324 88.5183C52.4014 88.8268 52.6687 89.4439 52.8271 90.0012C52.926 90.3495 52.4212 91.0761 52.1342 91.3647C51.9659 91.3547 51.6393 91.3249 51.2532 91.2552C51.2631 91.7429 51.2631 92.2306 51.2136 92.7083L52.0352 92.778C51.7778 92.7979 51.5304 92.8178 51.2631 92.8178C51.2433 92.8178 51.2136 92.8178 51.1938 92.8178C51.174 93.0069 51.1344 93.186 51.085 93.3652C51.0256 93.5742 50.9167 93.7035 50.7682 93.7832C50.9266 93.7931 51.0949 93.8031 51.2631 93.8031C55.6481 93.8031 59.2213 90.2102 59.2213 85.8012C59.2114 82.0889 56.6379 78.934 53.1933 78.0681ZM55.4699 81.0041L56.1925 83.1738C56.3113 83.542 56.5884 84.378 56.7864 85.5026C56.4993 85.8012 55.9846 86.05 55.4897 86.1098C55.1235 86.1595 54.8265 86.0898 54.6681 85.9406C54.1237 85.4131 54.2623 84.3979 54.2623 84.388L54.777 81.1434L55.4699 81.0041ZM51.7184 81.5415V81.5216L51.7283 81.4619L51.8471 80.4269L51.8669 80.2577L51.9065 79.979L51.9263 79.8098L51.9659 79.4913L51.9857 79.3221L52.0055 79.143L52.0154 79.0434L52.0253 78.9738L52.0352 78.8743V78.8643L52.055 78.6852L52.0748 78.516L52.0946 78.3468L52.1243 78.0581L52.1441 77.889L52.253 76.9534H52.5697L52.4509 77.9288L52.4311 78.098L52.3915 78.3766L52.3717 78.5458L52.3519 78.715L52.3321 78.8942L52.3123 79.0036L52.3024 79.0733L52.2826 79.1828L52.2629 79.3619V79.5112L52.2431 79.6804L52.2233 79.8496L52.2035 80.0188L52.1639 80.3074L52.1441 80.4766L52.0649 81.1534L52.0253 81.442L52.0055 81.5614H51.7283L51.7184 81.5415ZM46.5317 88.1998C46.3932 87.9012 46.2546 87.5429 46.1556 87.1349C46.2942 87.2344 46.4427 87.3339 46.601 87.4235C46.5713 87.7121 46.5515 87.9709 46.5317 88.1998ZM49.3429 92.569C48.7787 92.4097 48.2343 92.1808 47.7393 91.8822L47.7492 91.8225C47.9274 91.9419 48.1749 92.0813 48.5312 92.2405C48.7589 92.35 49.0459 92.4694 49.3429 92.569ZM48.165 87.6126C48.1749 87.5031 48.1848 87.4036 48.1848 87.324C48.5015 87.1448 48.8974 86.8761 49.1944 86.5377C49.2736 86.697 49.3627 86.8462 49.4616 86.9756C48.9865 87.0652 48.5015 87.2443 48.165 87.6126ZM49.0063 85.0647L48.6302 85.2538C48.2837 85.433 47.4325 85.7216 47.0168 85.5325C46.9277 85.4927 46.8188 85.4131 46.7594 85.1344C46.5021 83.9799 46.5614 83.1439 46.9475 82.5866C47.3137 82.0491 48.0363 81.7107 49.0756 81.5813L49.8081 81.5017L49.4418 80.2079L50.0654 80.2378C50.4218 80.2577 50.7286 80.2776 51.0157 80.3074C50.9761 80.5065 50.9464 80.6757 50.9266 80.815L49.6893 80.2577L49.7586 80.3671L49.7091 80.3472L50.105 80.9543L50.4614 81.5415C50.5307 81.661 50.8177 82.1188 51.2433 82.3676L51.7184 82.5965L52.2826 83.0543L52.4806 82.6562C52.6192 82.4074 53.6189 81.6908 54.2722 81.3425L53.0844 84.0197C53.0745 84.0396 53.0646 84.0695 53.0547 84.0993C52.639 83.5619 51.9857 83.2136 51.2532 83.2136C50.1545 83.2335 49.2241 84.0197 49.0063 85.0647ZM51.2532 86.697C50.6197 86.697 50.105 86.1794 50.105 85.5425C50.105 84.9055 50.6197 84.388 51.2532 84.388C51.8867 84.388 52.4014 84.9055 52.4014 85.5425C52.4014 86.1794 51.8867 86.697 51.2532 86.697ZM53.5892 87.9609C53.3121 87.7022 52.9953 87.5031 52.6687 87.3538C52.926 87.1448 53.1438 86.896 53.2923 86.6074C53.3022 86.6173 53.3022 86.6273 53.3121 86.6372C53.5298 86.9657 53.807 87.2244 54.1237 87.4036C53.9258 87.5927 53.7377 87.8017 53.5892 87.9609ZM54.4702 90.9069C54.777 89.9514 54.1732 88.6278 54.1732 88.6278C54.1732 88.6278 54.4702 88.2695 54.8562 87.8415C56.1034 88.0605 57.113 87.4534 57.3407 87.3837C56.2519 90.3993 54.876 90.9069 54.4702 90.9069Z" fill="#333333"/>
<path id="Vector_24" d="M52.6688 93.6342C52.5599 93.3256 52.2629 93.1166 52.1738 93.0569L51.9957 92.9474L51.7977 93.0072C51.7284 93.0271 51.57 93.0868 51.4414 93.2162C51.4018 93.2162 51.3523 93.2062 51.3028 93.2062C51.3919 92.4399 51.7185 89.693 52.0353 87.0257L52.0749 86.6873L51.5403 86.9162L51.2731 86.7669H51.2632L50.798 86.8266L50.4021 86.4186L50.3526 86.757C50.3526 86.757 50.3526 86.757 50.3526 86.7669L50.0457 86.8167L50.313 86.9859C50.1546 87.9612 49.5112 91.773 49.2835 93.0868H48.9965C48.8678 92.9873 48.7292 92.9375 48.5907 92.9375H48.5808C48.4224 92.9375 48.2838 93.0072 48.1848 93.1266C47.9572 93.3953 47.7295 94.9678 47.7493 95.4953C47.7592 95.7839 47.8681 96.0228 48.0661 96.2019C48.3927 96.4905 48.8777 96.5304 49.2143 96.5105C49.4716 96.6398 49.7982 96.7095 50.1249 96.7095C50.5703 96.7095 51.0058 96.5901 51.4018 96.3612C51.9363 96.3612 52.7083 96.3114 52.7083 95.6744C52.7083 95.6446 52.7083 95.555 52.7182 95.4356C52.7281 94.0621 52.7182 93.7835 52.6688 93.6342ZM50.9465 86.9859L51.085 86.8863L51.3424 86.9859C51.3424 86.9859 50.6594 92.3304 50.501 93.4749C50.3328 93.3854 49.9764 93.4749 49.9764 93.4749L50.9465 86.9859Z" fill="#333333"/>
<path id="Vector_25" d="M60.7456 55.2169C60.7653 55.1472 60.795 55.0676 60.795 54.988C60.795 54.2615 60.211 53.6842 59.4984 53.6842C58.8748 53.6842 58.37 54.1321 58.2413 54.7292H58.2314L54.9155 68.0955C55.4203 68.3443 56.1231 69.0609 56.4992 69.4789C57.7365 65.0002 58.8556 59.9928 58.8556 59.9928L59.0727 59.0884C59.0727 59.0884 57.786 64.4827 56.4992 69.4789C56.7269 69.7775 56.9545 70.0959 57.1624 70.4144L60.9138 55.3662C60.8841 55.3065 60.8148 55.2667 60.7456 55.2169Z" fill="#333333"/>
<path id="Vector_26" d="M41.2858 54.8986C41.2858 54.172 40.7018 53.5848 39.9892 53.5848C39.7615 53.5848 39.5437 53.6446 39.3557 53.754C39.1181 53.754 38.7321 53.8038 38.3955 54.0924C38.0392 54.4109 37.8511 54.8986 37.8412 55.5455C36.4357 57.7251 21.1824 80.3671 21.0735 80.5264L20.7865 80.9344L20.8162 80.9543L20.8063 80.9742L20.9845 81.0638L21.2022 81.2031C21.2517 81.243 21.3705 81.3126 22.1624 81.5316L22.4791 81.6012L22.687 81.3126C28.0023 73.8383 40.3752 56.4512 40.4445 56.3516C40.4841 56.2919 40.5336 56.1825 40.593 56.0531C41.0087 55.8242 41.2858 55.3962 41.2858 54.8986ZM33.189 64.8412L31.6251 67.1203L31.1698 67.7871L22.3405 80.6657L22.004 80.6358L33.8027 63.2488V63.2587C33.8027 63.2687 33.8027 63.2786 33.8027 63.2786C33.8918 63.6668 33.189 64.8412 33.189 64.8412Z" fill="#333333"/>
<path id="Vector_27" d="M90.7376 83.5323L60.3796 54.1425C59.6471 54.2022 58.5286 56.1927 58.5286 56.1927L88.4511 85.1148C88.4511 85.1148 89.1341 85.8413 90.0645 85.8413C91.9452 85.8413 90.7376 83.5323 90.7376 83.5323Z" fill="#333333"/>
</g>
<g id="Group 2">
<path id="Vector_28" d="M88.7617 8.06336C89.3278 7.47274 89.9436 7.70045 90.4814 7.96374C90.9556 8.19145 91.3519 8.56148 91.7482 8.90305C91.8261 8.96709 91.7978 9.27308 91.7129 9.33001C90.7787 10.0131 87.3038 15.4426 86.9358 17.058C86.8721 17.3284 86.9641 17.6344 86.9782 17.919C87.233 17.7838 87.5727 17.7055 87.7496 17.4991C88.7475 16.325 89.7666 15.158 90.7574 13.9696C92.0243 12.3329 93.7582 10.0914 94.5296 8.1701C94.6499 7.87835 94.848 7.77161 95.1382 7.84277C95.9804 8.04913 96.7589 8.3907 97.3251 9.00979C97.6435 9.36559 97.6081 9.73562 97.318 10.1128C96.2989 11.4719 94.5933 13.3576 93.652 14.7595C93.2698 15.3288 92.923 15.9265 92.6329 16.5598C93.1637 15.9336 93.7015 15.3003 94.2677 14.7097C95.7822 13.1086 98.0965 11.1802 99.9578 9.97044C101.232 9.20192 102.598 9.58618 103.553 10.6393C103.935 11.0592 103.85 11.1588 103.411 11.5146C102.711 12.0625 101.288 13.2082 100.743 13.9056C99.8021 15.1438 98.9316 16.4175 98.0752 17.7055C97.9903 17.8265 97.9408 17.9617 97.9408 18.1609C98.0611 18.0542 98.1956 17.9617 98.3159 17.8478C100.071 16.2183 102.583 14.1546 104.459 12.6745C104.983 12.276 105.584 11.9771 106.164 11.6569C106.915 11.2371 107.665 11.2727 108.401 11.7779C108.995 12.1835 109.54 12.6176 109.661 13.3078C107.629 13.8771 104.239 18.3958 103.348 19.6268C103.05 20.0538 102.874 20.559 102.704 21.0429C102.576 21.3987 102.782 21.598 103.128 21.4201C103.631 21.1639 104.147 20.8792 104.586 20.5163C106.363 19.022 108.719 16.5954 110.588 15.2149C111.6 14.4677 112.789 13.9625 114.063 13.9412C115.754 13.9412 117.905 15.0655 118.075 16.9512C118.075 16.9797 118.104 17.001 118.132 17.0508C118.557 16.9156 118.96 16.937 119.392 17.2501C120.014 17.7126 120.567 18.2107 120.786 18.9081C120.821 19.022 120.736 19.2426 120.637 19.271C119.378 19.6268 114.615 23.9818 113.928 25.2342C113.815 25.4477 113.822 25.7181 113.772 25.96C114.056 25.9387 114.381 26.0027 114.6 25.8818C115.867 25.1986 117.141 24.5297 118.387 23.8039C119.356 23.135 120.291 22.3949 121.246 21.7474C122.81 20.68 125.202 19.7478 124.636 20.0182C125.075 19.8047 125.556 19.8972 125.945 20.3242C126.363 20.7867 126.794 21.2635 127.12 21.7759C127.389 22.2099 127.24 22.274 126.83 22.4448C126.073 22.7436 125.337 23.1065 124.657 23.5335C123.136 24.5511 120.708 26.1522 119.505 27.5398C119.3 27.796 119.116 28.0806 118.967 28.3724C118.797 28.7139 118.974 28.9416 119.37 28.8847C119.71 28.8349 120.057 28.7424 120.354 28.593C121.876 27.8529 124.551 26.6574 126.073 25.9102C126.901 25.4762 127.63 24.8855 128.436 24.4159C128.995 24.1099 129.632 23.9106 130.248 23.7114C130.609 23.5904 130.963 23.7327 131.303 24.053C131.833 24.5582 132.293 25.099 132.527 25.7537C132.647 26.1024 132.654 26.2874 132.201 26.3585C131.522 26.4724 130.892 26.7713 130.291 27.0844C128.613 28.0237 126.051 29.5607 124.707 30.9483C124.537 31.1405 124.367 31.3397 124.254 31.5674C124.176 31.724 124.204 31.9304 124.183 32.1154C124.367 32.1581 124.572 32.2577 124.721 32.2221C125.329 32.0656 125.945 31.9232 126.518 31.6955C127.92 31.1334 129.328 30.5783 130.744 30.0589C131.034 29.9592 131.345 29.8952 131.649 29.824C131.685 29.8738 131.72 29.9094 131.763 29.9592C131.678 30.0731 131.621 30.2154 131.508 30.2866C130.567 30.8914 129.632 31.4963 128.67 32.0656C127.346 32.7416 126.058 33.2753 124.636 33.5457C124.346 33.6026 124.02 33.6311 123.702 33.6026C122.407 33.5314 121.487 32.2648 121.579 31.0266C121.635 30.5712 121.826 30.1442 121.982 29.7031C122.046 29.518 122.166 29.3544 122.194 29.1053C122.024 29.1836 121.855 29.2761 121.678 29.333C120.786 29.6604 119.894 30.0304 118.967 30.2581C117.7 30.6068 116.533 29.518 116.363 28.3297C116.306 27.6679 116.504 27.0773 116.752 26.4866C116.787 26.4012 116.816 26.3158 116.879 26.1593C116.264 26.4582 115.733 26.7499 115.181 26.999C114.792 27.1769 114.381 27.305 113.971 27.4331C112.449 27.9312 111.019 26.7001 111.175 25.1417C111.281 24.423 111.557 23.7256 111.763 22.9998C111.543 23.1421 111.295 23.3271 111.026 23.4766C110.241 23.932 109.441 24.4016 108.634 24.793C107.113 25.5544 105.266 24.3376 105.591 22.5871C105.676 22.0534 105.832 21.5268 105.952 20.9931C105.322 21.4272 104.699 21.9039 104.048 22.3238C103.652 22.58 103.192 22.7934 102.774 22.9713C101.642 23.441 100.425 22.5942 100.177 21.4699C100.149 20.1392 100.347 19.3635 100.92 18.2107C101.345 17.3355 101.954 16.4816 102.506 15.649L102.682 15.3715C102.654 15.3501 102.626 15.3217 102.598 15.2932C101.649 16.1258 100.729 16.9583 99.8233 17.8336C98.8113 18.8725 97.8346 19.9399 96.865 21.0216C96.2706 21.6833 95.9945 21.6691 95.4213 21.1212C94.841 20.5661 94.5791 19.4418 94.8834 18.6733C95.4142 17.0295 96.1998 15.464 97.1198 14.0194C97.2543 13.806 97.3817 13.5925 97.5091 13.379L97.4241 13.3007C97.0703 13.5854 96.6881 13.8487 96.3767 14.176C94.8127 15.8411 93.3123 17.5632 91.8544 19.3208C91.635 19.5841 91.4368 19.8545 91.2316 20.1249C90.9697 20.4523 90.6867 20.5092 90.347 20.3384C89.3278 19.8545 89.0448 18.7231 89.2571 17.6842C89.1155 17.8194 89.0235 17.9119 88.9315 18.0044C88.4574 18.4313 88.0186 18.901 87.5302 19.2924C86.3413 20.4309 84.6498 19.4489 84.4234 18.0755C84.303 17.3212 84.3738 16.4744 84.3597 15.6846C84.119 16.0119 83.8501 16.4389 83.5387 16.8018C82.9725 17.4778 82.3427 18.1823 81.7623 18.8014C80.7645 19.8617 79.1862 19.1287 78.7545 17.983C78.429 17.1149 78.4573 15.8909 78.6413 15.0014C79.0518 13.0445 80.2266 10.3832 81.3872 8.7038C82.0596 7.72891 82.9584 6.86788 84.0412 6.40534C85.768 5.66528 87.7567 6.42669 88.7617 8.06336ZM81.1254 16.3392C81.1042 16.4887 81.0617 16.6452 81.0759 16.7876C81.0971 16.9939 81.1679 17.1932 81.2245 17.3995C81.4085 17.2999 81.635 17.2501 81.7623 17.1007C82.2224 16.567 82.6894 16.0261 83.0928 15.4426C84.3101 13.6992 86.0016 11.3865 87.3108 9.70004C87.7284 9.17345 87.7142 8.41916 87.233 7.94239C86.9287 7.64352 86.4545 7.69333 85.8529 8.09894C85.7256 8.18433 85.584 8.26973 85.492 8.38358C84.8338 9.14499 84.112 9.94198 83.5882 10.7959C82.6328 12.3401 81.5429 14.5318 81.1254 16.3392ZM108.415 22.459C108.337 22.6653 108.231 22.8717 108.174 23.0852C108.068 23.4552 108.231 23.6189 108.599 23.4766C109.017 23.3129 109.441 23.1208 109.809 22.8717C111.77 21.5126 114.31 19.2497 116.349 18.0115C116.83 17.7269 116.978 16.9868 116.667 16.4389C116.462 16.0831 115.938 15.8981 115.336 16.1258C114.537 16.4246 113.737 16.7804 113.036 17.2501C111.409 18.3317 109.37 20.7369 108.415 22.459Z" fill="#333333"/>
<path id="Vector_29" d="M61.4437 10.4542C61.2101 10.6748 61.0686 10.8954 60.9624 11.1373C60.6652 11.8347 60.4033 12.5463 60.1273 13.2436C59.5258 14.7238 58.9525 16.2252 58.3722 17.7054C58.259 17.9971 57.9334 18.4098 57.7494 18.3814C57.3885 18.3316 57.4168 17.8121 57.4026 17.4563C57.3602 15.6346 57.5866 13.82 57.9829 12.0339C58.3085 10.5538 58.6977 9.23022 59.4408 7.89242C59.271 7.74299 59.1224 7.51527 58.9242 7.44411C58.3863 7.2591 57.8273 7.13101 57.2682 7.02427C56.7798 6.93888 56.3977 7.18794 56.2278 7.66471C55.8598 8.72499 55.5201 9.7995 55.2228 10.874C55.053 11.5145 55.053 12.2261 54.8619 12.8523C54.416 14.3608 53.956 15.8765 53.496 17.3851C53.3049 18.0185 53.0218 18.6162 52.76 19.1997C52.7104 19.3207 52.5194 19.4559 52.4132 19.4274C52.307 19.399 52.1938 19.1997 52.1584 19.0574C52.0806 18.6945 52.031 18.3173 52.0027 17.9402C51.8541 15.8481 52.123 13.7489 52.4981 11.6852C52.6468 10.8456 52.9015 9.95605 53.2412 9.18041C53.4252 8.74634 53.3686 8.51151 53.0431 8.40477C52.484 8.21976 51.8895 8.09878 51.3021 8.00628C50.7501 7.92088 50.3821 8.24822 50.2193 8.78903C49.9716 9.60026 49.7097 10.4471 49.5823 11.2796C49.4266 12.3114 49.3771 13.4287 49.1931 14.4391C48.9171 15.9406 48.4712 17.5203 48.1032 19.0574C47.9758 19.5769 47.7706 20.075 47.5441 20.5446C47.3884 20.872 47.1478 20.8293 47.0204 20.4592C46.9142 20.1533 46.8364 19.8188 46.801 19.4986C46.5533 17.5061 46.6453 15.5136 46.8505 13.4856C46.9709 12.283 47.1195 11.0448 47.6927 9.95605C47.5087 9.81373 47.3318 9.60026 47.1266 9.55756C46.5462 9.43659 45.9517 9.36543 45.3643 9.33696C44.9397 9.32273 44.5929 9.57179 44.3877 9.97029C44.0904 10.5538 43.7578 11.1444 43.595 11.7849C43.0147 13.9908 42.5476 16.2395 42.1159 18.481C41.9885 19.1357 41.8753 19.7903 41.762 20.445C41.6488 20.2956 41.6063 20.1533 41.5993 20.018C41.387 17.8904 41.387 15.7556 41.6063 13.635C41.663 13.0657 41.7267 12.4466 41.9531 11.9485C42.1867 11.4291 41.9744 11.2867 41.6559 11.1231C40.4315 10.4898 39.0586 11.3223 38.5136 12.5463C38.4782 12.6317 38.4358 12.7242 38.4075 12.8096C37.6148 15.0155 37.2327 17.3424 36.9425 19.6978C36.8434 20.4806 36.7868 21.2705 36.7231 22.0461C36.6028 21.4484 36.5462 20.8577 36.532 20.2671C36.4895 18.3316 36.4825 16.3818 36.4895 14.4391C36.4966 13.7987 36.3268 13.4998 35.8314 13.3504C35.067 13.1084 34.2956 13.2294 33.5525 13.4927C33.2624 13.5994 33.1633 13.8343 33.2836 14.1758C33.3614 14.3964 33.4393 14.6313 33.4605 14.8661C33.7294 17.2357 34.0904 19.648 33.779 22.039C33.6021 23.4053 33.4322 24.7644 33.2482 26.1236C33.1916 26.5647 32.9934 26.9632 32.8731 27.376C32.682 26.7498 32.5617 26.1449 32.4839 25.5329C32.1654 23.0566 31.8894 20.5731 31.6841 18.0896C31.6275 17.3638 31.6912 16.5953 31.854 15.8908C31.9531 15.4425 31.854 15.3073 31.5497 15.1934C30.8915 14.9301 30.2404 15.0226 29.5893 15.229C29.2213 15.35 28.9736 15.5919 28.9311 16.0118C28.8674 16.6593 28.825 17.314 28.8462 17.9686C28.8745 18.7585 29.0727 19.5484 29.0373 20.324C28.9453 22.5086 28.8391 24.7075 28.7471 26.8921C28.733 27.3546 28.6339 27.8243 28.5065 28.2512C28.4003 28.6213 28.1526 28.6284 27.9615 28.2797C27.7846 27.9524 27.636 27.5823 27.5228 27.2265C26.8858 25.0846 26.5744 22.8644 26.4683 20.6229C26.4329 19.8188 26.5603 19.0076 26.5886 18.2035C26.5956 18.0754 26.44 17.8619 26.3267 17.8121C25.5482 17.4848 24.7556 17.62 24.0762 18.0825C23.5525 18.4383 23.6869 19.1855 23.6374 19.7903C23.6303 19.833 23.6303 19.8828 23.6374 19.9327C23.694 22.4304 24.062 24.9637 24.798 27.2763C25.1731 28.4505 25.619 29.3827 26.44 30.2152C27.2751 31.0549 29.2142 30.8841 29.4831 29.3756C29.6105 28.6426 29.745 27.7958 29.8582 26.9775C29.9148 26.5719 29.9078 26.152 29.929 25.7322C30.2687 27.0273 30.5589 28.3366 30.9127 29.6317C31.033 30.0729 30.941 30.3362 30.6721 30.5853C30.0635 31.1474 29.1151 32.1721 28.9028 33.7163H28.8957C28.8179 34.6129 28.7542 35.8938 29.9856 36.3848C30.6438 36.6267 31.5001 36.5698 32.1229 36.1998C32.8236 35.7871 33.227 35.0399 33.2694 33.5882C33.2907 32.8268 33.4039 31.0834 33.3048 30.2152C33.2624 29.8239 33.2553 29.4823 33.4534 29.1336C33.6799 28.7351 33.871 28.2868 33.9984 27.8172C34.2532 26.9063 34.4655 25.9741 34.699 25.049C34.7132 25.0704 34.7556 25.1131 34.7698 25.1629C35.0529 26.0524 35.8243 26.643 36.7443 26.7213C37.3459 26.7711 37.5228 26.6003 37.5794 25.903C37.5936 25.7108 37.5936 25.5116 37.6077 25.3123C37.7847 22.8858 37.997 20.4592 38.2801 18.0469C38.3367 17.5275 38.4995 17.0222 38.6198 16.5099C38.6552 16.517 38.6905 16.5241 38.7259 16.5383C38.7472 16.8087 38.7684 17.0863 38.7896 17.3496C38.9241 19.2139 39.1647 20.8222 39.653 22.6225C39.922 23.6401 40.7854 24.5509 41.8682 24.6007C42.2291 24.615 42.4202 24.43 42.4627 24.0315C42.5122 23.6258 42.5476 23.2202 42.5972 22.8146C42.8944 20.4023 43.2412 17.9971 43.6446 15.6061C43.6729 15.4567 43.7295 15.3073 43.772 15.165C43.8498 15.8125 43.8569 16.4245 43.8923 17.0436C43.9277 17.6769 43.9631 18.3173 44.0692 18.9151C44.2674 20.0536 44.5221 21.0285 45.0883 21.9607C45.7111 22.9783 47.6644 23.4195 48.2943 21.9465C48.3509 21.8113 48.4571 21.669 48.5066 21.5195C48.818 20.5873 49.1294 19.6551 49.4549 18.7229C49.6177 19.1855 49.7593 19.6765 49.9645 20.1319C50.3467 20.9858 50.9128 21.5266 51.7338 21.6476C52.5547 21.7615 53.1138 21.2989 53.4748 20.5162C53.8711 19.6267 54.2037 18.6945 54.5647 17.7907C54.6213 17.6484 54.6637 17.499 54.7487 17.2357C54.9044 17.8477 55.0035 18.3458 55.1521 18.7941C55.4422 19.6338 56.0367 20.4379 56.9709 20.5731C57.8839 20.7083 58.4359 20.0963 58.8747 19.2922C60.283 16.6949 61.104 13.7702 61.5286 10.8527C61.5286 10.7317 61.4649 10.5894 61.4437 10.4542ZM31.0684 34.9403C30.7712 35.6305 30.1201 35.7444 30.1201 34.862C30.1201 34.7908 30.6084 32.656 31.2595 32.1864C31.2737 32.1721 31.3091 32.1793 31.3727 32.1721C31.4577 32.8482 31.3232 34.3496 31.0684 34.9403Z" fill="#333333"/>
<path id="Vector_30" d="M27.3034 33.937C27.5157 33.7236 27.7209 33.5101 27.8908 33.261C28.1526 32.8697 28.188 32.5139 27.7917 32.1652C27.5015 31.909 25.8171 31.5461 24.4654 30.5498C22.6112 29.1836 21.217 27.5113 19.6883 25.7964C19.5892 25.6825 19.5397 25.4263 19.5609 25.2556C19.6883 24.2807 19.8369 23.2915 20.0209 22.3309C20.4526 20.1534 20.9693 18.0115 21.861 16.0048C22.0804 15.5209 22.4201 15.0512 22.7881 14.6741C23.05 14.4037 23.057 14.2116 22.8377 14.0621C22.4272 13.7846 22.0025 13.5071 21.5355 13.3861C20.856 13.2011 20.3606 13.4786 19.9714 14.1546C19.6742 14.667 19.4052 15.2149 19.2071 15.7628C18.2729 18.4456 17.827 21.2564 17.5439 24.0957C17.4661 24.9211 17.4095 25.7537 17.3599 26.5791C17.1759 25.7964 17.0698 25.0136 16.9494 24.238C16.7088 22.6796 16.4894 21.1354 15.994 19.6624C15.3288 17.6842 13.1844 17.798 11.9883 19.2426C11.1178 20.2815 10.4455 21.5126 10.0067 22.8005C9.40516 24.5653 9.13623 26.6503 9.74487 28.4293C10.1837 29.7244 11.9176 30.7847 13.2198 30.2652C13.3401 30.2154 13.4392 30.0588 13.6161 29.8809C12.8022 29.6888 12.4625 29.0982 12.2077 28.3937C11.6557 26.8709 11.5637 25.1275 11.8397 23.5335C12.0237 22.4661 12.3139 21.3631 12.8871 20.4238C13.0995 20.0751 13.2622 20.0751 13.3825 20.4309C13.4958 20.7511 13.6019 21.0785 13.6586 21.4272C14.246 24.7646 14.8121 28.1518 15.5198 31.4322C15.8525 32.9906 16.2842 34.5561 16.7159 36.1003C16.9353 36.8688 17.4661 37.1819 18.1455 37.2246C18.4923 37.246 18.8461 37.2175 19.1858 37.1535C19.7662 37.0467 19.8157 36.9186 19.6105 36.3351C19.1858 35.1183 19.1009 33.8018 19.0938 32.521C19.0867 31.4038 19.1151 30.2794 19.1434 29.1622C19.292 29.2974 19.3628 29.3615 19.4335 29.4326C20.0917 30.1442 23.142 33.4389 24.7202 34.1149C25.4704 34.4423 26.631 34.6131 27.2467 33.9797C27.275 33.9513 27.2892 33.9442 27.3034 33.937Z" fill="#333333"/>
<path id="Vector_31" d="M46.6877 6.64723C46.6735 6.14911 46.6523 5.64388 46.4895 5.18846C46.2489 4.52667 45.7393 4.27761 44.9609 4.34877C44.3734 4.4057 43.7719 4.49109 43.2128 4.65476C40.4952 5.4304 37.9474 6.68281 35.4774 8.08466C34.7626 8.49027 31.6062 10.7674 31.6133 10.9382C31.6204 11.3794 32.9367 11.8348 33.602 11.664C34.154 11.2868 35.5765 10.4614 35.6968 10.3974C36.5673 9.94193 37.452 9.49362 38.3437 9.09513C40.3607 8.1914 42.406 7.38729 44.5433 6.96745C45.067 6.86071 45.6403 6.87494 46.164 6.96034C46.532 7.02438 46.6948 6.91764 46.6877 6.64723Z" fill="#333333"/>
<path id="Vector_32" d="M110.68 10.4757C110.963 10.0701 111.246 9.65021 111.38 9.18056C111.578 8.50454 111.317 7.99931 110.644 7.5937C110.142 7.28771 109.604 7.00307 109.059 6.79671C106.412 5.80759 103.624 5.29524 100.807 4.95367C99.993 4.85405 96.1147 4.80423 96.0086 4.94655C95.7538 5.30235 96.5464 6.45514 97.1834 6.71132C97.8486 6.73266 99.4764 6.91768 99.6108 6.93903C100.58 7.08846 101.557 7.25925 102.52 7.46561C104.671 7.94238 106.794 8.51166 108.762 9.44385C109.243 9.67156 109.696 10.0274 110.071 10.4045C110.34 10.6891 110.531 10.6963 110.68 10.4757Z" fill="#333333"/>
<path id="Vector_33" d="M130.97 21.484C131.748 22.0675 133.843 22.9214 135.414 22.5016C135.62 22.4518 135.669 22.1956 135.485 22.0889C134.211 21.3346 133.518 21.1424 132.201 19.9683C131.748 19.5627 131.38 18.9578 131.203 18.5949C131.069 18.3103 130.913 18.2462 130.715 18.3672C130.361 18.5878 130.007 18.8226 129.76 19.1286C129.399 19.5769 129.47 20.011 129.901 20.4807C130.22 20.8436 130.574 21.1923 130.97 21.484Z" fill="#333333"/>
<path id="Vector_34" d="M77.8061 21.3061C78.0892 21.2136 78.3652 21.114 78.6342 20.9717C79.0447 20.744 79.2357 20.438 79.0376 19.947C78.889 19.5841 77.5514 18.4953 76.7941 17.001C75.7538 14.9444 75.2584 12.8168 74.6639 10.5895C74.6285 10.4472 74.6993 10.191 74.7913 10.0487C75.3433 9.23743 75.9165 8.4191 76.5181 7.64345C77.8769 5.89292 79.3065 4.22067 80.9909 2.83305C81.4014 2.4986 81.918 2.23531 82.4205 2.06453C82.7743 1.94356 82.8663 1.77277 82.7389 1.54506C82.4983 1.11099 82.2435 0.669797 81.8826 0.349578C81.3589 -0.120077 80.7927 -0.105845 80.1416 0.32823C79.6462 0.655565 79.1579 1.01848 78.7403 1.42409C76.7092 3.39522 75.046 5.70079 73.5245 8.11311C73.0786 8.81048 72.661 9.52919 72.2435 10.2408C72.4275 9.45803 72.6893 8.71085 72.93 7.96367C73.4183 6.46932 73.9066 4.9892 74.1331 3.44503C74.4303 1.38139 72.4629 0.506129 70.7431 1.25331C69.5046 1.78701 68.351 2.57688 67.3815 3.53042C66.058 4.83264 64.8832 6.56894 64.6214 8.43333C64.4374 9.79248 65.506 11.5217 66.9002 11.6498C67.0276 11.664 67.1833 11.5644 67.431 11.4861C66.787 10.9453 66.7516 10.2693 66.8365 9.52207C67.0276 7.90675 67.7282 6.31277 68.6907 5.01054C69.3348 4.14239 70.092 3.29559 71.0191 2.71208C71.3659 2.4986 71.5075 2.56976 71.4579 2.93979C71.4155 3.27424 71.3659 3.61581 71.2668 3.95026C70.2831 7.19515 69.2781 10.4685 68.443 13.7276C68.0467 15.2718 67.7282 16.8586 67.4168 18.4384C67.2611 19.2283 67.6009 19.7406 68.1883 20.0893C68.4855 20.2601 68.8181 20.4024 69.1508 20.502C69.7169 20.6657 69.8231 20.5803 69.9009 19.9683C70.0637 18.6875 70.5874 17.4777 71.1536 16.3249C71.649 15.3216 72.1727 14.3325 72.7035 13.3434C72.7743 13.5355 72.8167 13.6209 72.845 13.7134C73.1069 14.6456 74.3596 18.9721 75.4565 20.2885C75.9802 20.9148 76.9357 21.605 77.7778 21.3132C77.7778 21.299 77.792 21.299 77.8061 21.3061Z" fill="#333333"/>
</g>
</g>
</svg>
