<svg width="95" height="28" viewBox="0 0 95 28" fill="none" xmlns="http://www.w3.org/2000/svg">
<g id="Group 2">
<path id="Vector" d="M59.696 6.04752C60.1207 5.60455 60.5824 5.77534 60.9858 5.9728C61.3415 6.14359 61.6387 6.42111 61.9359 6.67729C61.9943 6.72532 61.9731 6.95481 61.9094 6.9975C61.2088 7.50986 58.6026 11.582 58.3266 12.7935C58.2788 12.9963 58.3478 13.2258 58.3584 13.4392C58.5495 13.3378 58.8043 13.2791 58.937 13.1244C59.6854 12.2438 60.4497 11.3685 61.1928 10.4772C62.143 9.24971 63.4434 7.56856 64.0219 6.12758C64.1122 5.90876 64.2608 5.82871 64.4784 5.88208C65.1101 6.03685 65.6939 6.29302 66.1186 6.75734C66.3574 7.02419 66.3309 7.30171 66.1132 7.58457C65.3489 8.60394 64.0697 10.0182 63.3638 11.0696C63.0771 11.4966 62.8171 11.9449 62.5994 12.4199C62.9975 11.9502 63.4009 11.4752 63.8256 11.0323C64.9614 9.83144 66.6971 8.38512 68.0931 7.47783C69.0485 6.90144 70.0729 7.18964 70.7895 7.97951C71.0761 8.29439 71.0124 8.36911 70.6833 8.63596C70.1579 9.04691 69.091 9.90616 68.6823 10.4292C67.9763 11.3578 67.3234 12.3131 66.6812 13.2791C66.6175 13.3699 66.5803 13.4713 66.5803 13.6207C66.6706 13.5406 66.7714 13.4713 66.8617 13.3859C68.178 12.1637 70.0623 10.616 71.4689 9.50589C71.8617 9.20702 72.3129 8.98286 72.7481 8.7427C73.3107 8.42782 73.8734 8.4545 74.4254 8.83343C74.8712 9.13763 75.2799 9.46319 75.3702 9.98088C73.8468 10.4078 71.3043 13.7968 70.6356 14.7201C70.4126 15.0403 70.2799 15.4193 70.1525 15.7822C70.057 16.049 70.2109 16.1985 70.471 16.065C70.8479 15.8729 71.2353 15.6594 71.5644 15.3872C72.8967 14.2665 74.6642 12.4466 76.0655 11.4112C76.8245 10.8508 77.7163 10.4719 78.6717 10.4559C79.9403 10.4559 81.5539 11.2991 81.6812 12.7134C81.6812 12.7348 81.7025 12.7508 81.7237 12.7881C82.0422 12.6867 82.3447 12.7027 82.6685 12.9376C83.1356 13.2845 83.5496 13.6581 83.7142 14.1811C83.7407 14.2665 83.677 14.4319 83.6027 14.4533C82.6579 14.7201 79.0857 17.9864 78.5708 18.9257C78.4859 19.0858 78.4912 19.2886 78.4541 19.47C78.6664 19.454 78.9105 19.5021 79.0751 19.4113C80.0252 18.899 80.9806 18.3973 81.9148 17.8529C82.642 17.3513 83.3426 16.7962 84.0592 16.3105C85.2322 15.51 87.0263 14.8108 86.6017 15.0137C86.9307 14.8535 87.2917 14.9229 87.5836 15.2431C87.8968 15.59 88.2206 15.9476 88.4647 16.3319C88.6664 16.6574 88.555 16.7055 88.2471 16.8336C87.6792 17.0577 87.1271 17.3299 86.6176 17.6501C85.4764 18.4133 83.6558 19.6141 82.7534 20.6548C82.5995 20.847 82.4615 21.0605 82.35 21.2793C82.2227 21.5354 82.3554 21.7062 82.6526 21.6635C82.9074 21.6262 83.1675 21.5568 83.3904 21.4447C84.5316 20.8897 86.538 19.9931 87.6792 19.4327C88.3002 19.1071 88.8469 18.6642 89.452 18.3119C89.8713 18.0824 90.349 17.933 90.8108 17.7835C91.0815 17.6928 91.3469 17.7996 91.6017 18.0397C91.9998 18.4187 92.3448 18.8243 92.5199 19.3153C92.6102 19.5768 92.6155 19.7155 92.2758 19.7689C91.7662 19.8543 91.2938 20.0785 90.8427 20.3133C89.5847 21.0178 87.6632 22.1706 86.6547 23.2113C86.5273 23.3554 86.4 23.5048 86.315 23.6756C86.2566 23.793 86.2779 23.9478 86.262 24.0865C86.4 24.1185 86.5539 24.1933 86.6653 24.1666C87.1218 24.0492 87.5836 23.9424 88.0135 23.7716C89.0645 23.35 90.1208 22.9337 91.1824 22.5441C91.4 22.4694 91.6335 22.4214 91.8618 22.368C91.8883 22.4054 91.9148 22.4321 91.9467 22.4694C91.883 22.5548 91.8405 22.6616 91.7556 22.7149C91.0497 23.1686 90.349 23.6222 89.6271 24.0492C88.6346 24.5562 87.6685 24.9565 86.6017 25.1593C86.384 25.202 86.1399 25.2233 85.901 25.202C84.9297 25.1486 84.2397 24.1986 84.3087 23.27C84.3511 22.9284 84.4944 22.6082 84.6112 22.2773C84.659 22.1385 84.7492 22.0158 84.7704 21.829C84.643 21.8877 84.5157 21.9571 84.383 21.9998C83.7142 22.2453 83.0454 22.5228 82.35 22.6936C81.3999 22.9551 80.5241 22.1385 80.3967 21.2473C80.3543 20.7509 80.5029 20.3079 80.6887 19.865C80.7152 19.8009 80.7365 19.7369 80.7842 19.6195C80.3224 19.8436 79.9243 20.0624 79.5103 20.2492C79.2184 20.3827 78.9105 20.4787 78.6027 20.5748C77.4615 20.9484 76.3893 20.0251 76.5061 18.8563C76.5857 18.3172 76.7927 17.7942 76.9466 17.2499C76.7821 17.3566 76.5963 17.4954 76.3946 17.6074C75.8054 17.949 75.2056 18.3012 74.6005 18.5948C73.4593 19.1658 72.074 18.2532 72.3182 16.9403C72.3818 16.54 72.4986 16.1451 72.5889 15.7448C72.1165 16.0704 71.6494 16.428 71.161 16.7428C70.8638 16.935 70.5188 17.0951 70.2056 17.2285C69.3564 17.5807 68.4434 16.9456 68.2576 16.1024C68.2364 15.1044 68.385 14.5227 68.815 13.6581C69.1334 13.0016 69.5899 12.3612 70.0039 11.7367L70.1366 11.5286C70.1154 11.5126 70.0942 11.4912 70.0729 11.4699C69.3617 12.0943 68.6716 12.7188 67.9922 13.3752C67.2332 14.1544 66.5007 14.9549 65.7735 15.7662C65.3277 16.2625 65.1207 16.2518 64.6907 15.8409C64.2555 15.4246 64.0591 14.5814 64.2873 14.005C64.6854 12.7721 65.2746 11.598 65.9646 10.5146C66.0655 10.3545 66.161 10.1944 66.2566 10.0342L66.1929 9.97554C65.9275 10.189 65.6408 10.3865 65.4073 10.632C64.2343 11.8808 63.109 13.1724 62.0156 14.4906C61.851 14.6881 61.7024 14.8909 61.5485 15.0937C61.3521 15.3392 61.1398 15.3819 60.885 15.2538C60.1207 14.8909 59.9083 14.0423 60.0676 13.2631C59.9614 13.3645 59.8924 13.4339 59.8234 13.5033C59.4678 13.8235 59.1387 14.1757 58.7725 14.4693C57.8807 15.3232 56.6121 14.5867 56.4423 13.5567C56.3521 12.9909 56.4051 12.3558 56.3945 11.7634C56.2141 12.0089 56.0124 12.3292 55.7788 12.6013C55.3542 13.1084 54.8818 13.6367 54.4465 14.101C53.6981 14.8962 52.5145 14.3465 52.1907 13.4873C51.9465 12.8362 51.9678 11.9182 52.1058 11.2511C52.4136 9.78341 53.2947 7.78738 54.1652 6.52785C54.6695 5.79668 55.3436 5.15091 56.1557 4.804C57.4508 4.24896 58.9423 4.82002 59.696 6.04752ZM53.9688 12.2544C53.9529 12.3665 53.9211 12.4839 53.9317 12.5907C53.9476 12.7454 54.0007 12.8949 54.0431 13.0496C54.1811 12.9749 54.351 12.9376 54.4465 12.8255C54.7915 12.4252 55.1419 12.0196 55.4444 11.582C56.3574 10.2744 57.626 8.53989 58.6079 7.27503C58.9211 6.88009 58.9105 6.31437 58.5495 5.95679C58.3213 5.73264 57.9657 5.77 57.5145 6.07421C57.4189 6.13825 57.3128 6.20229 57.2438 6.28769C56.7502 6.85874 56.2087 7.45649 55.816 8.09692C55.0994 9.25505 54.282 10.8988 53.9688 12.2544ZM74.436 16.8442C74.3776 16.999 74.298 17.1538 74.2555 17.3139C74.1759 17.5914 74.298 17.7142 74.574 17.6074C74.8872 17.4847 75.2056 17.3406 75.4817 17.1538C76.9519 16.1344 78.8575 14.4373 80.3861 13.5086C80.7471 13.2951 80.8585 12.7401 80.625 12.3292C80.4711 12.0623 80.0783 11.9235 79.6271 12.0943C79.0273 12.3185 78.4275 12.5853 77.902 12.9376C76.6812 13.7488 75.1526 15.5527 74.436 16.8442Z" fill="white"/>
<path id="Vector_2" d="M39.2063 7.8406C39.0312 8.00605 38.925 8.17149 38.8454 8.35295C38.6224 8.87597 38.4261 9.40967 38.2191 9.9327C37.7679 11.0428 37.3379 12.1689 36.9027 13.279C36.8178 13.4978 36.5736 13.8073 36.4356 13.786C36.1649 13.7486 36.1861 13.359 36.1755 13.0922C36.1437 11.7259 36.3135 10.365 36.6108 9.02541C36.8549 7.91532 37.1469 6.92264 37.7042 5.91928C37.5768 5.80721 37.4653 5.63642 37.3167 5.58305C36.9133 5.44429 36.494 5.34823 36.0747 5.26817C35.7084 5.20413 35.4218 5.39092 35.2944 5.7485C35.0184 6.54371 34.7636 7.3496 34.5407 8.15548C34.4133 8.63581 34.4133 9.16951 34.27 9.63916C33.9356 10.7706 33.5906 11.9074 33.2456 13.0388C33.1023 13.5138 32.8899 13.9621 32.6936 14.3998C32.6564 14.4905 32.5131 14.5919 32.4335 14.5705C32.3538 14.5492 32.2689 14.3998 32.2424 14.293C32.184 14.0208 32.1468 13.738 32.1256 13.4551C32.0141 11.886 32.2158 10.3116 32.4972 8.7639C32.6086 8.13413 32.7997 7.46701 33.0545 6.88528C33.1925 6.55972 33.15 6.3836 32.9059 6.30355C32.4865 6.16479 32.0407 6.07406 31.6001 6.00468C31.1861 5.94063 30.9101 6.18613 30.788 6.59174C30.6022 7.20016 30.4059 7.83526 30.3103 8.45969C30.1935 9.23355 30.1564 10.0715 30.0184 10.8293C29.8114 11.9554 29.477 13.1402 29.201 14.293C29.1054 14.6826 28.9515 15.0562 28.7816 15.4084C28.6649 15.6539 28.4844 15.6219 28.3889 15.3444C28.3092 15.1149 28.2509 14.8641 28.2243 14.6239C28.0385 13.1295 28.1075 11.6352 28.2615 10.1142C28.3517 9.2122 28.4632 8.28357 28.8931 7.46701C28.7551 7.36027 28.6224 7.20016 28.4685 7.16814C28.0332 7.07741 27.5874 7.02404 27.1468 7.00269C26.8283 6.99202 26.5683 7.17881 26.4143 7.47768C26.1914 7.91532 25.9419 8.35829 25.8198 8.83861C25.3846 10.4931 25.0343 12.1796 24.7105 13.8607C24.615 14.3517 24.53 14.8427 24.4451 15.3337C24.3602 15.2216 24.3283 15.1149 24.323 15.0135C24.1638 13.4177 24.1638 11.8167 24.3283 10.2262C24.3708 9.79927 24.4186 9.33495 24.5884 8.96137C24.7636 8.57177 24.6043 8.46503 24.3655 8.34228C23.4472 7.86728 22.4175 8.49171 22.0088 9.40967C21.9823 9.47372 21.9504 9.5431 21.9292 9.60714C21.3347 11.2616 21.0481 13.0068 20.8304 14.7733C20.7561 15.3604 20.7137 15.9528 20.6659 16.5345C20.5757 16.0862 20.5332 15.6433 20.5226 15.2003C20.4907 13.7486 20.4854 12.2863 20.4907 10.8293C20.496 10.349 20.3687 10.1248 19.9971 10.0128C19.4239 9.83129 18.8453 9.92202 18.288 10.1195C18.0703 10.1995 17.996 10.3757 18.0863 10.6318C18.1447 10.7973 18.203 10.9734 18.219 11.1495C18.4207 12.9267 18.6914 14.736 18.4578 16.5292C18.3251 17.5539 18.1977 18.5733 18.0597 19.5926C18.0173 19.9235 17.8687 20.2224 17.7784 20.5319C17.6351 20.0623 17.5449 19.6086 17.4865 19.1497C17.2476 17.2924 17.0406 15.4298 16.8867 13.5672C16.8442 13.0228 16.892 12.4464 17.0141 11.9181C17.0884 11.5818 17.0141 11.4804 16.7858 11.395C16.2922 11.1976 15.8039 11.2669 15.3156 11.4217C15.0396 11.5124 14.8538 11.6939 14.8219 12.0088C14.7742 12.4944 14.7423 12.9855 14.7582 13.4765C14.7795 14.0689 14.9281 14.6613 14.9015 15.243C14.8325 16.8814 14.7529 18.5306 14.6839 20.169C14.6733 20.5159 14.599 20.8682 14.5035 21.1884C14.4238 21.4659 14.2381 21.4713 14.0947 21.2097C13.9621 20.9642 13.8506 20.6867 13.7657 20.4199C13.288 18.8134 13.0544 17.1483 12.9748 15.4671C12.9482 14.8641 13.0438 14.2557 13.065 13.6526C13.0703 13.5565 12.9536 13.3964 12.8686 13.359C12.2848 13.1135 11.6903 13.2149 11.1807 13.5618C10.7879 13.8287 10.8888 14.3891 10.8516 14.8427C10.8463 14.8747 10.8463 14.9121 10.8516 14.9495C10.8941 16.8227 11.1701 18.7227 11.7221 20.4572C12.0034 21.3378 12.3378 22.037 12.9536 22.6614C13.5799 23.2912 15.0342 23.1631 15.2359 22.0316C15.3315 21.4819 15.4323 20.8468 15.5173 20.2331C15.5597 19.9289 15.5544 19.614 15.5703 19.2991C15.8251 20.2704 16.0427 21.2524 16.3081 22.2238C16.3984 22.5547 16.3294 22.7521 16.1277 22.9389C15.6712 23.3605 14.9599 24.1291 14.8007 25.2872H14.7954C14.737 25.9597 14.6892 26.9203 15.6128 27.2886C16.1064 27.47 16.7487 27.4273 17.2158 27.1498C17.7413 26.8403 18.0438 26.2799 18.0757 25.1911C18.0916 24.6201 18.1765 23.3125 18.1022 22.6614C18.0703 22.3679 18.065 22.1117 18.2137 21.8502C18.3835 21.5513 18.5268 21.2151 18.6224 20.8628C18.8135 20.1797 18.9727 19.4806 19.1478 18.7868C19.1585 18.8028 19.1903 18.8348 19.2009 18.8721C19.4132 19.5393 19.9918 19.9822 20.6818 20.0409C21.133 20.0783 21.2657 19.9502 21.3082 19.4272C21.3188 19.2831 21.3188 19.1337 21.3294 18.9842C21.4621 17.1643 21.6213 15.3444 21.8336 13.5352C21.8761 13.1456 21.9982 12.7666 22.0884 12.3824C22.115 12.3877 22.1415 12.393 22.168 12.4037C22.184 12.6065 22.1999 12.8147 22.2158 13.0121C22.3167 14.4104 22.4971 15.6166 22.8634 16.9668C23.0651 17.73 23.7126 18.4132 24.5247 18.4505C24.7954 18.4612 24.9387 18.3224 24.9706 18.0236C25.0077 17.7194 25.0343 17.4151 25.0714 17.1109C25.2944 15.3017 25.5545 13.4978 25.857 11.7046C25.8782 11.5925 25.9207 11.4804 25.9525 11.3737C26.0109 11.8593 26.0162 12.3183 26.0428 12.7826C26.0693 13.2576 26.0959 13.738 26.1755 14.1863C26.3241 15.0402 26.5152 15.7714 26.9398 16.4705C27.4069 17.2337 28.8719 17.5646 29.3443 16.4598C29.3867 16.3584 29.4664 16.2517 29.5035 16.1396C29.7371 15.4405 29.9706 14.7413 30.2148 14.0422C30.3369 14.3891 30.443 14.7573 30.5969 15.0989C30.8836 15.7393 31.3082 16.1449 31.9239 16.2357C32.5396 16.3211 32.9589 15.9742 33.2296 15.3871C33.5269 14.72 33.7764 14.0208 34.0471 13.343C34.0895 13.2363 34.1214 13.1242 34.1851 12.9267C34.3018 13.3857 34.3761 13.7593 34.4876 14.0955C34.7052 14.7253 35.1511 15.3284 35.8517 15.4298C36.5365 15.5312 36.9505 15.0722 37.2796 14.4691C38.3358 12.5211 38.9515 10.3276 39.27 8.13947C39.27 8.04874 39.2222 7.942 39.2063 7.8406ZM16.4249 26.2052C16.202 26.7228 15.7137 26.8082 15.7137 26.1465C15.7137 26.0931 16.0799 24.492 16.5682 24.1397C16.5788 24.1291 16.6054 24.1344 16.6531 24.1291C16.7168 24.6361 16.616 25.7622 16.4249 26.2052Z" fill="white"/>
<path id="Vector_3" d="M13.6027 25.4528C13.7619 25.2927 13.9158 25.1326 14.0432 24.9458C14.2396 24.6522 14.2661 24.3854 13.9689 24.1239C13.7513 23.9317 12.488 23.6596 11.4742 22.9124C10.0835 21.8877 9.03789 20.6335 7.89139 19.3473C7.81708 19.2619 7.77992 19.0698 7.79585 18.9417C7.89139 18.2105 8.00285 17.4687 8.14086 16.7482C8.46464 15.1151 8.85211 13.5086 9.5209 12.0036C9.68545 11.6407 9.94023 11.2884 10.2162 11.0056C10.4126 10.8028 10.4179 10.6587 10.2534 10.5466C9.94553 10.3385 9.62706 10.1303 9.27674 10.0396C8.76719 9.90082 8.39563 10.109 8.1037 10.616C7.88077 11.0002 7.67907 11.4112 7.53045 11.8221C6.82981 13.8342 6.49541 15.9423 6.2831 18.0717C6.22471 18.6908 6.18225 19.3153 6.14509 19.9343C6.00709 19.3473 5.92747 18.7602 5.83724 18.1785C5.65677 17.0097 5.49223 15.8516 5.12068 14.7468C4.62173 13.2631 3.01345 13.3485 2.11642 14.4319C1.46355 15.2111 0.959299 16.1344 0.630211 17.1004C0.179041 18.424 -0.0226579 19.9877 0.43382 21.322C0.762908 22.2933 2.06334 23.0885 3.03999 22.6989C3.13022 22.6615 3.20453 22.5441 3.33723 22.4107C2.72682 22.2666 2.47204 21.8236 2.28096 21.2953C1.86695 20.1532 1.79794 18.8456 2.00495 17.6501C2.14296 16.8496 2.36058 16.0223 2.79052 15.3179C2.94975 15.0563 3.07183 15.0563 3.16207 15.3232C3.24699 15.5634 3.32661 15.8089 3.36908 16.0704C3.80963 18.5734 4.23426 21.1138 4.76505 23.5742C5.01452 24.743 5.3383 25.9171 5.66208 27.0752C5.82662 27.6516 6.22471 27.8865 6.73427 27.9185C6.99436 27.9345 7.25975 27.9131 7.51453 27.8651C7.94977 27.785 7.98693 27.689 7.833 27.2514C7.51453 26.3387 7.45083 25.3514 7.44553 24.3907C7.44022 23.5528 7.46145 22.7096 7.48268 21.8717C7.59415 21.9731 7.64722 22.0211 7.7003 22.0745C8.19394 22.6082 10.4816 25.0792 11.6653 25.5862C12.2279 25.8317 13.0984 25.9598 13.5602 25.4848C13.5814 25.4635 13.592 25.4581 13.6027 25.4528Z" fill="white"/>
<path id="Vector_4" d="M28.1417 4.98546C28.1311 4.61187 28.1152 4.23294 27.9931 3.89137C27.8126 3.39503 27.4305 3.20824 26.8466 3.26161C26.406 3.30431 25.9549 3.36835 25.5356 3.4911C23.4973 4.07283 21.5865 5.01214 19.734 6.06353C19.198 6.36773 16.8306 8.07557 16.8359 8.20366C16.8413 8.53455 17.8285 8.87612 18.3275 8.74803C18.7415 8.46517 19.8084 7.84608 19.8986 7.79805C20.5515 7.45648 21.2149 7.12025 21.8837 6.82138C23.3965 6.14358 24.9305 5.5405 26.5334 5.22562C26.9262 5.14556 27.3562 5.15624 27.7489 5.22028C28.025 5.26832 28.147 5.18826 28.1417 4.98546Z" fill="white"/>
<path id="Vector_5" d="M76.1356 7.85669C76.3479 7.55248 76.5602 7.2376 76.6611 6.88536C76.8097 6.37835 76.6133 5.99942 76.1091 5.69521C75.7322 5.46572 75.3288 5.25224 74.9201 5.09747C72.935 4.35563 70.8437 3.97137 68.7311 3.71519C68.1207 3.64047 65.212 3.60311 65.1324 3.70985C64.9413 3.9767 65.5358 4.84129 66.0135 5.03343C66.5124 5.04944 67.7332 5.1882 67.8341 5.20421C68.5613 5.31629 69.2938 5.44437 70.0156 5.59915C71.6292 5.95672 73.2216 6.38368 74.6972 7.08283C75.0581 7.25361 75.3978 7.52046 75.6791 7.80332C75.8808 8.0168 76.0241 8.02214 76.1356 7.85669Z" fill="white"/>
<path id="Vector_6" d="M91.353 16.113C91.9368 16.5506 93.508 17.1911 94.6863 16.8762C94.8402 16.8388 94.8774 16.6467 94.7394 16.5667C93.784 16.0009 93.2638 15.8568 92.2765 14.9762C91.9368 14.672 91.6608 14.2184 91.5281 13.9462C91.4273 13.7327 91.3105 13.6847 91.1619 13.7754C90.8965 13.9409 90.6311 14.117 90.4453 14.3465C90.1746 14.6827 90.2277 15.0083 90.5515 15.3605C90.7903 15.6327 91.0557 15.8942 91.353 16.113Z" fill="white"/>
<path id="Vector_7" d="M51.4783 15.9796C51.6906 15.9102 51.8976 15.8355 52.0993 15.7288C52.4072 15.558 52.5505 15.3285 52.4019 14.9602C52.2904 14.6881 51.2872 13.8715 50.7193 12.7507C49.939 11.2083 49.5674 9.61258 49.1216 7.9421C49.095 7.83536 49.1481 7.64323 49.2171 7.53649C49.6311 6.92808 50.0611 6.31432 50.5123 5.73259C51.5314 4.41969 52.6036 3.1655 53.8668 2.12479C54.1747 1.87395 54.5622 1.67648 54.939 1.5484C55.2044 1.45767 55.2734 1.32958 55.1779 1.1588C54.9974 0.833241 54.8063 0.502348 54.5356 0.262183C54.1428 -0.0900577 53.7182 -0.0793837 53.2299 0.246172C52.8583 0.491674 52.4921 0.76386 52.1789 1.06807C50.6556 2.54641 49.4082 4.27559 48.267 6.08483C47.9326 6.60786 47.6195 7.14689 47.3063 7.68059C47.4443 7.09352 47.6407 6.53314 47.8212 5.97276C48.1874 4.85199 48.5536 3.7419 48.7235 2.58377C48.9464 1.03605 47.4708 0.379597 46.181 0.93998C45.2521 1.34025 44.387 1.93266 43.6598 2.64781C42.6672 3.62448 41.7861 4.92671 41.5897 6.325C41.4517 7.34436 42.2532 8.64125 43.2988 8.73731C43.3944 8.74799 43.5112 8.67327 43.6969 8.61456C43.2139 8.20895 43.1874 7.70194 43.2511 7.14156C43.3944 5.93006 43.9199 4.73458 44.6417 3.75791C45.1248 3.1068 45.6927 2.47169 46.388 2.03406C46.6481 1.87395 46.7543 1.92732 46.7171 2.20485C46.6853 2.45568 46.6481 2.71186 46.5738 2.9627C45.836 5.39636 45.0823 7.85137 44.456 10.2957C44.1587 11.4538 43.9199 12.644 43.6863 13.8288C43.5695 14.4212 43.8243 14.8055 44.2649 15.067C44.4878 15.1951 44.7373 15.3018 44.9868 15.3765C45.4114 15.4993 45.491 15.4352 45.5494 14.9762C45.6715 14.0156 46.0642 13.1083 46.4889 12.2437C46.8604 11.4912 47.2532 10.7494 47.6513 10.0075C47.7044 10.1516 47.7362 10.2157 47.7575 10.285C47.9539 10.9842 48.8933 14.2291 49.7161 15.2164C50.1089 15.6861 50.8254 16.2038 51.4571 15.9849C51.4571 15.9743 51.4677 15.9743 51.4783 15.9796Z" fill="white"/>
</g>
</svg>
