<svg width="56" height="56" viewBox="0 0 56 56" fill="none" xmlns="http://www.w3.org/2000/svg">
<g id="Frame">
<g id="Group">
<path id="Vector" d="M47.6052 1.98333H38.5004C38.1501 0.8365 37.0819 0 35.8219 0H20.1885C18.6447 0 17.3885 1.25615 17.3885 2.8V6.53333C17.3885 7.99867 18.5202 9.20383 19.9552 9.32283V11.0833C19.9552 12.6272 21.2114 13.8833 22.7552 13.8833H33.2552C33.5027 13.8833 33.7401 13.785 33.9152 13.61C34.0902 13.4349 34.1885 13.1975 34.1885 12.95C34.1885 12.7025 34.0902 12.4651 33.9152 12.29C33.7401 12.115 33.5027 12.0167 33.2552 12.0167H22.7552C22.2406 12.0167 21.8219 11.5979 21.8219 11.0833V9.33333H35.8219C36.0694 9.33333 36.3068 9.235 36.4818 9.05997C36.6569 8.88493 36.7552 8.64754 36.7552 8.4C36.7552 8.15246 36.6569 7.91507 36.4818 7.74003C36.3068 7.565 36.0694 7.46667 35.8219 7.46667H20.1885C19.6739 7.46667 19.2552 7.04795 19.2552 6.53333V2.8C19.2552 2.28538 19.6739 1.86667 20.1885 1.86667H35.8219C36.3365 1.86667 36.7552 2.28538 36.7552 2.8V2.91667C36.7552 3.1642 36.8535 3.4016 37.0286 3.57663C37.2036 3.75167 37.441 3.85 37.6885 3.85H47.6052C48.6344 3.85 49.4719 4.68743 49.4719 5.71667V52.2667C49.4719 53.2959 48.6344 54.1333 47.6052 54.1333H8.40521C7.37598 54.1333 6.53854 53.2959 6.53854 52.2667V5.71667C6.53854 4.68743 7.37598 3.85 8.40521 3.85H10.2719V47.6C10.2719 49.1438 11.528 50.4 13.0719 50.4H36.0552C36.3027 50.4 36.5401 50.3017 36.7152 50.1267L45.4652 41.3767C45.6402 41.2016 45.7385 40.9642 45.7385 40.7167V9.5704C45.7385 9.32286 45.6402 9.08547 45.4652 8.91043C45.2901 8.7354 45.0527 8.63707 44.8052 8.63707C44.5577 8.63707 44.3203 8.7354 44.1452 8.91043C43.9702 9.08547 43.8719 9.32286 43.8719 9.5704V39.7833H37.9219C36.378 39.7833 35.1219 41.0395 35.1219 42.5833V44.0736C35.1219 44.3212 35.2202 44.5586 35.3952 44.7336C35.5703 44.9086 35.8077 45.007 36.0552 45.007C36.3027 45.007 36.5401 44.9086 36.7152 44.7336C36.8902 44.5586 36.9885 44.3212 36.9885 44.0736V42.5833C36.9885 42.0687 37.4073 41.65 37.9219 41.65H42.552L35.6687 48.5333H13.0719C12.5573 48.5333 12.1385 48.1146 12.1385 47.6V3.85H13.2563C13.5039 3.85 13.7413 3.75167 13.9163 3.57663C14.0913 3.4016 14.1897 3.1642 14.1897 2.91667C14.1897 2.66913 14.0913 2.43173 13.9163 2.2567C13.7413 2.08167 13.5039 1.98333 13.2563 1.98333H8.40521C6.34662 1.98333 4.67188 3.65808 4.67188 5.71667V52.2667C4.67188 54.3252 6.34662 56 8.40521 56H47.6052C49.6638 56 51.3385 54.3252 51.3385 52.2667V5.71667C51.3385 3.65808 49.6638 1.98333 47.6052 1.98333Z" fill="#333333"/>
<path id="Vector_2" d="M17.65 23.7456C17.8251 23.9205 18.0625 24.0188 18.31 24.0188C18.5575 24.0188 18.7949 23.9205 18.97 23.7456L22.9366 19.7789C23.1117 19.6038 23.21 19.3664 23.21 19.1189C23.21 18.8714 23.1117 18.634 22.9366 18.4589C22.7616 18.2839 22.5242 18.1855 22.2766 18.1855C22.0291 18.1855 21.7917 18.2839 21.6167 18.4589L18.31 21.7657L17.4683 20.924C17.2933 20.7489 17.0559 20.6506 16.8084 20.6506C16.5608 20.6506 16.3234 20.7489 16.1484 20.924C15.9733 21.099 15.875 21.3364 15.875 21.584C15.875 21.8315 15.9733 22.0689 16.1484 22.2439L17.65 23.7456ZM17.65 33.0789C17.8251 33.2539 18.0625 33.3522 18.31 33.3522C18.5575 33.3522 18.7949 33.2539 18.97 33.0789L22.9366 29.1122C23.1117 28.9372 23.21 28.6998 23.21 28.4522C23.21 28.2047 23.1117 27.9673 22.9366 27.7923C22.7616 27.6172 22.5242 27.5189 22.2766 27.5189C22.0291 27.5189 21.7917 27.6172 21.6167 27.7923L18.31 31.0991L17.4683 30.2573C17.2933 30.0823 17.0559 29.9839 16.8084 29.9839C16.5608 29.9839 16.3234 30.0823 16.1484 30.2573C15.9733 30.4323 15.875 30.6697 15.875 30.9173C15.875 31.1648 15.9733 31.4022 16.1484 31.5773L17.65 33.0789ZM17.65 42.4122C17.8251 42.5872 18.0625 42.6855 18.31 42.6855C18.5575 42.6855 18.7949 42.5872 18.97 42.4122L22.9366 38.4456C23.1117 38.2705 23.21 38.0331 23.21 37.7856C23.21 37.538 23.1117 37.3006 22.9366 37.1256C22.7616 36.9506 22.5242 36.8522 22.2766 36.8522C22.0291 36.8522 21.7917 36.9506 21.6167 37.1256L18.31 40.4324L17.4683 39.5906C17.2933 39.4156 17.0559 39.3173 16.8084 39.3173C16.5608 39.3173 16.3234 39.4156 16.1484 39.5906C15.9733 39.7657 15.875 40.0031 15.875 40.2506C15.875 40.4982 15.9733 40.7356 16.1484 40.9106L17.65 42.4122ZM26.6271 22.5173H39.2084C39.4559 22.5173 39.6933 22.419 39.8683 22.2439C40.0434 22.0689 40.1417 21.8315 40.1417 21.584C40.1417 21.3364 40.0434 21.099 39.8683 20.924C39.6933 20.749 39.4559 20.6506 39.2084 20.6506H26.6271C26.3796 20.6506 26.1422 20.749 25.9672 20.924C25.7921 21.099 25.6938 21.3364 25.6938 21.584C25.6938 21.8315 25.7921 22.0689 25.9672 22.2439C26.1422 22.419 26.3796 22.5173 26.6271 22.5173ZM26.6271 31.8506H39.2084C39.4559 31.8506 39.6933 31.7523 39.8683 31.5773C40.0434 31.4022 40.1417 31.1648 40.1417 30.9173C40.1417 30.6698 40.0434 30.4324 39.8683 30.2573C39.6933 30.0823 39.4559 29.984 39.2084 29.984H26.6271C26.3796 29.984 26.1422 30.0823 25.9672 30.2573C25.7921 30.4324 25.6938 30.6698 25.6938 30.9173C25.6938 31.1648 25.7921 31.4022 25.9672 31.5773C26.1422 31.7523 26.3796 31.8506 26.6271 31.8506ZM26.6271 41.184H31.7417C31.9892 41.184 32.2266 41.0856 32.4017 40.9106C32.5767 40.7356 32.675 40.4982 32.675 40.2506C32.675 40.0031 32.5767 39.7657 32.4017 39.5907C32.2266 39.4156 31.9892 39.3173 31.7417 39.3173H26.6271C26.3796 39.3173 26.1422 39.4156 25.9672 39.5907C25.7921 39.7657 25.6938 40.0031 25.6938 40.2506C25.6938 40.4982 25.7921 40.7356 25.9672 40.9106C26.1422 41.0856 26.3796 41.184 26.6271 41.184Z" fill="#333333"/>
</g>
</g>
</svg>
