<svg width="56" height="56" viewBox="0 0 56 56" fill="none" xmlns="http://www.w3.org/2000/svg">
<g id="Frame" clip-path="url(#clip0_2219_35010)">
<g id="Group">
<path id="Vector" d="M55.1431 29.2723L51.709 24.241C51.2575 23.5789 50.651 23.0371 49.9423 22.6628C49.2337 22.2885 48.4443 22.0929 47.6428 22.0932H40.9846C40.7235 22.0932 40.473 22.1969 40.2884 22.3816C40.1037 22.5662 40 22.8167 40 23.0778C40 23.339 40.1037 23.5894 40.2884 23.7741C40.473 23.9587 40.7235 24.0624 40.9846 24.0624H42.3385V28.3701C42.3385 30.5418 44.1052 32.3086 46.2769 32.3086H49.2308C49.4919 32.3086 49.7424 32.2049 49.927 32.0202C50.1117 31.8356 50.2154 31.5851 50.2154 31.324C50.2154 31.0628 50.1117 30.8124 49.927 30.6278C49.7424 30.4431 49.4919 30.3394 49.2308 30.3394H46.2769C45.1911 30.3394 44.3077 29.4559 44.3077 28.3701V24.0624H47.6428C48.1237 24.0623 48.5974 24.1796 49.0226 24.4042C49.4478 24.6288 49.8117 24.9539 50.0826 25.3512L53.5166 30.3823C53.8522 30.8728 54.0314 31.4534 54.0308 32.0477V40.8009H52.5934C52.1231 38.0106 49.6913 35.8778 46.7692 35.8778C43.5116 35.8778 40.8615 38.528 40.8615 41.7855C40.8615 45.043 43.5116 47.6932 46.7692 47.6932C49.6912 47.6932 52.1231 45.5604 52.5934 42.7701H55.0154C55.2765 42.7701 55.527 42.6664 55.7116 42.4817C55.8963 42.2971 56 42.0467 56 41.7855V32.0477C56.0012 31.0572 55.7025 30.0897 55.1431 29.2723ZM46.7692 45.724C44.5975 45.724 42.8308 43.9572 42.8308 41.7855C42.8308 39.6138 44.5975 37.8471 46.7692 37.8471C48.9409 37.8471 50.7077 39.6138 50.7077 41.7855C50.7077 43.9572 48.9409 45.724 46.7692 45.724ZM38.2769 12.2471V36.6163C38.2769 36.8774 38.1732 37.1279 37.9885 37.3125C37.8039 37.4972 37.5534 37.6009 37.2923 37.6009C37.0312 37.6009 36.7807 37.4972 36.5961 37.3125C36.4114 37.1279 36.3077 36.8774 36.3077 36.6163V12.2471C36.3077 11.1613 35.4242 10.2778 34.3385 10.2778H10.5846C9.49883 10.2778 8.61539 11.1613 8.61539 12.2471V13.6009H12.6769C12.9381 13.6009 13.1885 13.7046 13.3732 13.8893C13.5578 14.0739 13.6615 14.3244 13.6615 14.5855C13.6615 14.8467 13.5578 15.0971 13.3732 15.2817C13.1885 15.4664 12.9381 15.5701 12.6769 15.5701H0.984615C0.723479 15.5701 0.473038 15.4664 0.288387 15.2817C0.103736 15.0971 0 14.8467 0 14.5855C0 14.3244 0.103736 14.0739 0.288387 13.8893C0.473038 13.7046 0.723479 13.6009 0.984615 13.6009H6.64615V12.2471C6.64615 10.0754 8.41292 8.30859 10.5846 8.30859H34.3385C36.5102 8.30859 38.2769 10.0754 38.2769 12.2471ZM35.2 40.8009H23.0549C22.5846 38.0106 20.1529 35.8778 17.2308 35.8778C13.9732 35.8778 11.3231 38.528 11.3231 41.7855C11.3231 45.043 13.9732 47.6932 17.2308 47.6932C20.1527 47.6932 22.5846 45.5604 23.0549 42.7701H35.2C35.4611 42.7701 35.7116 42.6664 35.8962 42.4817C36.0809 42.2971 36.1846 42.0467 36.1846 41.7855C36.1846 41.5244 36.0809 41.2739 35.8962 41.0893C35.7116 40.9046 35.4611 40.8009 35.2 40.8009ZM17.2308 45.724C15.0591 45.724 13.2923 43.9572 13.2923 41.7855C13.2923 39.6138 15.0591 37.8471 17.2308 37.8471C19.4025 37.8471 21.1692 39.6138 21.1692 41.7855C21.1692 43.9572 19.4025 45.724 17.2308 45.724ZM3.69231 20.7394C3.69231 20.4782 3.79604 20.2278 3.9807 20.0431C4.16535 19.8585 4.41579 19.7547 4.67692 19.7547H12.6769C12.9381 19.7547 13.1885 19.8585 13.3732 20.0431C13.5578 20.2278 13.6615 20.4782 13.6615 20.7394C13.6615 21.0005 13.5578 21.2509 13.3732 21.4356C13.1885 21.6202 12.9381 21.724 12.6769 21.724H4.67692C4.41579 21.724 4.16535 21.6202 3.9807 21.4356C3.79604 21.2509 3.69231 21.0005 3.69231 20.7394ZM13.1692 27.8778H9.0256C8.76446 27.8778 8.51402 27.7741 8.32937 27.5894C8.14472 27.4048 8.04099 27.1543 8.04099 26.8932C8.04099 26.6321 8.14472 26.3816 8.32937 26.197C8.51402 26.0123 8.76446 25.9086 9.0256 25.9086H13.1692C13.4304 25.9086 13.6808 26.0123 13.8655 26.197C14.0501 26.3816 14.1538 26.6321 14.1538 26.8932C14.1538 27.1543 14.0501 27.4048 13.8655 27.5894C13.6808 27.7741 13.4304 27.8778 13.1692 27.8778ZM2.21538 25.9086H3.7744C4.03554 25.9086 4.28598 26.0123 4.47063 26.197C4.65528 26.3816 4.75902 26.6321 4.75902 26.8932C4.75902 27.1543 4.65528 27.4048 4.47063 27.5894C4.28598 27.7741 4.03554 27.8778 3.7744 27.8778H2.21538C1.95425 27.8778 1.70381 27.7741 1.51916 27.5894C1.33451 27.4048 1.23077 27.1543 1.23077 26.8932C1.23077 26.6321 1.33451 26.3816 1.51916 26.197C1.70381 26.0123 1.95425 25.9086 2.21538 25.9086ZM8.61539 33.0471V41.7855C8.61539 42.0467 8.51165 42.2971 8.327 42.4817C8.14235 42.6664 7.89191 42.7701 7.63077 42.7701C7.36963 42.7701 7.11919 42.6664 6.93454 42.4817C6.74989 42.2971 6.64615 42.0467 6.64615 41.7855V34.0317H0.984615C0.723479 34.0317 0.473038 33.9279 0.288387 33.7433C0.103736 33.5586 0 33.3082 0 33.0471C0 32.7859 0.103736 32.5355 0.288387 32.3508C0.473038 32.1662 0.723479 32.0624 0.984615 32.0624H7.63077C7.89191 32.0624 8.14235 32.1662 8.327 32.3508C8.51165 32.5355 8.61539 32.7859 8.61539 33.0471ZM15.6308 32.0624C15.8919 32.0624 16.1423 32.1662 16.327 32.3508C16.5117 32.5355 16.6154 32.7859 16.6154 33.0471C16.6154 33.3082 16.5117 33.5586 16.327 33.7433C16.1423 33.9279 15.8919 34.0317 15.6308 34.0317H12.8C12.5389 34.0317 12.2884 33.9279 12.1038 33.7433C11.9191 33.5586 11.8154 33.3082 11.8154 33.0471C11.8154 32.7859 11.9191 32.5355 12.1038 32.3508C12.2884 32.1662 12.5389 32.0624 12.8 32.0624H15.6308ZM16.1231 20.7394C16.1231 20.4782 16.2268 20.2278 16.4115 20.0431C16.5961 19.8585 16.8466 19.7547 17.1077 19.7547H18.5846C18.8458 19.7547 19.0962 19.8585 19.2808 20.0431C19.4655 20.2278 19.5692 20.4782 19.5692 20.7394C19.5692 21.0005 19.4655 21.2509 19.2808 21.4356C19.0962 21.6202 18.8458 21.724 18.5846 21.724H17.1077C16.8466 21.724 16.5961 21.6202 16.4115 21.4356C16.2268 21.2509 16.1231 21.0005 16.1231 20.7394Z" fill="#333333"/>
</g>
</g>
<defs>
<clipPath id="clip0_2219_35010">
<rect width="56" height="56" fill="white"/>
</clipPath>
</defs>
</svg>
