<svg width="56" height="56" viewBox="0 0 56 56" fill="none" xmlns="http://www.w3.org/2000/svg">
<g id="Frame">
<g id="Group">
<path id="Vector" d="M50.7711 4.66667V51.3333C50.7711 53.9065 48.6776 56 46.1044 56H9.93774C7.36454 56 5.27107 53.9065 5.27107 51.3333V47.7663C5.07985 47.1653 5.52867 46.55 6.16042 46.55H42.6382C42.8858 46.55 43.1232 46.6483 43.2982 46.8234C43.4732 46.9984 43.5716 47.2358 43.5716 47.4833C43.5716 47.7309 43.4732 47.9683 43.2982 48.1433C43.1232 48.3183 42.8858 48.4167 42.6382 48.4167H7.13774V51.3333C7.13774 52.8772 8.39389 54.1333 9.93774 54.1333H46.1044C47.6483 54.1333 48.9044 52.8772 48.9044 51.3333V4.66667C48.9044 3.12282 47.6483 1.86667 46.1044 1.86667H9.93774C8.39389 1.86667 7.13774 3.12282 7.13774 4.66667V41.1833C7.13774 41.4309 7.0394 41.6683 6.86437 41.8433C6.68933 42.0183 6.45194 42.1167 6.2044 42.1167C5.95687 42.1167 5.71947 42.0183 5.54444 41.8433C5.3694 41.6683 5.27107 41.4309 5.27107 41.1833V4.66667C5.27107 2.09347 7.36454 0 9.93774 0H46.1044C48.6776 0 50.7711 2.09347 50.7711 4.66667ZM30.6789 39.3904C30.9562 39.1797 31.2275 38.9613 31.4926 38.7353C30.3257 36.8587 29.4523 33.9297 30.7127 32.1312C31.3575 31.2108 32.6949 30.4243 34.0048 30.704C35.6127 31.0463 38.7193 34.0362 34.0223 38.9257C34.4072 39.2813 34.7386 39.4418 34.9366 39.4344C35.2265 39.4218 35.7516 38.9698 36.356 37.7388C36.7544 36.9277 37.9654 37.1035 38.1144 37.9966C38.188 38.4378 38.4357 38.8235 38.794 39.0546C39.7209 39.652 40.4238 38.827 40.4614 37.9916C40.4845 37.4766 40.9232 37.0798 41.4356 37.1011C41.5581 37.1065 41.6783 37.1361 41.7893 37.1881C41.9003 37.24 42 37.3133 42.0827 37.4038C42.1654 37.4943 42.2295 37.6002 42.2712 37.7154C42.313 37.8307 42.3317 37.953 42.3262 38.0755C42.1983 40.9227 39.0444 42.1926 37.1151 40.0555C35.7858 41.724 34.1595 41.6599 32.6519 40.2024C32.3765 40.4341 32.0952 40.6589 31.8085 40.8765C31.711 40.9507 31.5997 41.0049 31.4812 41.0361C31.3626 41.0673 31.2391 41.0748 31.1177 41.0583C30.9962 41.0417 30.8792 41.0014 30.7734 40.9397C30.6675 40.8779 30.5748 40.7959 30.5006 40.6983C30.4265 40.6007 30.3722 40.4895 30.341 40.3709C30.3099 40.2524 30.3023 40.1289 30.3189 40.0074C30.3354 39.886 30.3757 39.769 30.4375 39.6631C30.4993 39.5572 30.5813 39.4646 30.6789 39.3904ZM32.8755 37.4054C34.2353 35.9135 34.8995 34.4842 34.5667 33.569C34.4801 33.3334 34.1195 32.6367 33.6161 32.5295C33.1517 32.4309 32.5193 32.8057 32.2415 33.2023C31.5549 34.1822 32.2137 36.2093 32.8755 37.4054ZM44.2521 7.40833C44.2521 7.1608 44.1538 6.9234 43.9787 6.74837C43.8037 6.57333 43.5663 6.475 43.3188 6.475H29.5521C29.3045 6.475 29.0672 6.57333 28.8921 6.74837C28.7171 6.9234 28.6188 7.1608 28.6188 7.40833V21.175C28.6188 21.4225 28.7171 21.6599 28.8921 21.835C29.0672 22.01 29.3045 22.1083 29.5521 22.1083H43.3188C43.5663 22.1083 43.8037 22.01 43.9787 21.835C44.1538 21.6599 44.2521 21.4225 44.2521 21.175V13.125C44.2521 12.8775 44.1538 12.6401 43.9787 12.465C43.8037 12.29 43.5663 12.1917 43.3188 12.1917C43.0712 12.1917 42.8338 12.29 42.6588 12.465C42.4838 12.6401 42.3854 12.8775 42.3854 13.125V20.2417H30.4854V8.34167H43.3188C43.5663 8.34167 43.8037 8.24333 43.9787 8.0683C44.1538 7.89327 44.2521 7.65587 44.2521 7.40833ZM12.7521 15.1667H19.8688C20.1163 15.1667 20.3537 15.0683 20.5287 14.8933C20.7038 14.7183 20.8021 14.4809 20.8021 14.2333C20.8021 13.9858 20.7038 13.7484 20.5287 13.5734C20.3537 13.3983 20.1163 13.3 19.8688 13.3H12.7521C12.5046 13.3 12.2672 13.3983 12.0921 13.5734C11.9171 13.7484 11.8188 13.9858 11.8188 14.2333C11.8188 14.4809 11.9171 14.7183 12.0921 14.8933C12.2672 15.0683 12.5046 15.1667 12.7521 15.1667ZM12.7521 23.8H24.5354C24.783 23.8 25.0204 23.7017 25.1954 23.5266C25.3704 23.3516 25.4688 23.1142 25.4688 22.8667C25.4688 22.6191 25.3704 22.3817 25.1954 22.2067C25.0204 22.0317 24.783 21.9333 24.5354 21.9333H12.7521C12.5046 21.9333 12.2672 22.0317 12.0921 22.2067C11.9171 22.3817 11.8188 22.6191 11.8188 22.8667C11.8188 23.1142 11.9171 23.3516 12.0921 23.5266C12.2672 23.7017 12.5046 23.8 12.7521 23.8ZM12.7521 32.4333H25.7021C25.9496 32.4333 26.187 32.335 26.3621 32.16C26.5371 31.9849 26.6354 31.7475 26.6354 31.5C26.6354 31.2525 26.5371 31.0151 26.3621 30.84C26.187 30.665 25.9496 30.5667 25.7021 30.5667H12.7521C12.5046 30.5667 12.2672 30.665 12.0921 30.84C11.9171 31.0151 11.8188 31.2525 11.8188 31.5C11.8188 31.7475 11.9171 31.9849 12.0921 32.16C12.2672 32.335 12.5046 32.4333 12.7521 32.4333ZM12.7521 41.0667H22.2021C22.4496 41.0667 22.687 40.9683 22.8621 40.7933C23.0371 40.6183 23.1354 40.3809 23.1354 40.1333C23.1354 39.8858 23.0371 39.6484 22.8621 39.4734C22.687 39.2983 22.4496 39.2 22.2021 39.2H12.7521C12.5046 39.2 12.2672 39.2983 12.0921 39.4734C11.9171 39.6484 11.8188 39.8858 11.8188 40.1333C11.8188 40.3809 11.9171 40.6183 12.0921 40.7933C12.2672 40.9683 12.5046 41.0667 12.7521 41.0667ZM34.6271 11.4333C34.3795 11.4333 34.1422 11.5317 33.9671 11.7067C33.7921 11.8817 33.6938 12.1191 33.6938 12.3667C33.6938 12.6142 33.7921 12.8516 33.9671 13.0266C34.1422 13.2017 34.3795 13.3 34.6271 13.3H38.3604C38.608 13.3 38.8454 13.2017 39.0204 13.0266C39.1954 12.8516 39.2938 12.6142 39.2938 12.3667C39.2938 12.1191 39.1954 11.8817 39.0204 11.7067C38.8454 11.5317 38.608 11.4333 38.3604 11.4333H34.6271Z" fill="#333333"/>
</g>
</g>
</svg>
