<svg width="80" height="80" viewBox="0 0 80 80" fill="none" xmlns="http://www.w3.org/2000/svg">
<g id="Frame">
<g id="Group">
<g id="Teamwork_human mind_thinking_brain_team">
<path id="Vector" d="M62.5 56.25H61.25V54.475C62.3627 53.9869 63.3096 53.1859 63.9754 52.1695C64.6412 51.1531 64.9972 49.965 65 48.75V43.75C65 42.0924 64.3415 40.5026 63.1694 39.3305C61.9973 38.1584 60.4076 37.5 58.75 37.5H56.25C54.5924 37.5 53.0027 38.1584 51.8306 39.3305C50.6585 40.5026 50 42.0924 50 43.75V48.75C50.0028 49.965 50.3588 51.1531 51.0246 52.1695C51.6904 53.1859 52.6373 53.9869 53.75 54.475V56.25H52.5C51.9181 56.2563 51.339 56.3318 50.775 56.475C50.0764 55.619 49.1952 54.9301 48.196 54.4586C47.1968 53.9871 46.1048 53.745 45 53.75H43.75V51.975C44.8627 51.4869 45.8096 50.6859 46.4754 49.6695C47.1412 48.6531 47.4972 47.465 47.5 46.25V41.25C47.5 39.5924 46.8415 38.0026 45.6694 36.8305C44.4973 35.6584 42.9076 35 41.25 35H38.75C37.0924 35 35.5027 35.6584 34.3306 36.8305C33.1585 38.0026 32.5 39.5924 32.5 41.25V46.25C32.5028 47.465 32.8588 48.6531 33.5246 49.6695C34.1904 50.6859 35.1373 51.4869 36.25 51.975V53.75H35C33.8954 53.7464 32.8039 53.9891 31.8049 54.4605C30.8059 54.9319 29.9246 55.6201 29.225 56.475C28.661 56.3318 28.0819 56.2563 27.5 56.25H26.25V54.475C27.3627 53.9869 28.3096 53.1859 28.9754 52.1695C29.6412 51.1531 29.9972 49.965 30 48.75V43.75C30 42.9292 29.8383 42.1165 29.5242 41.3582C29.2102 40.5999 28.7498 39.9109 28.1694 39.3305C27.5891 38.7502 26.9001 38.2898 26.1418 37.9757C25.3835 37.6616 24.5708 37.5 23.75 37.5H21.25C19.5924 37.5 18.0027 38.1584 16.8306 39.3305C15.6585 40.5026 15 42.0924 15 43.75V48.75C15.0028 49.965 15.3588 51.1531 16.0246 52.1695C16.6904 53.1859 17.6373 53.9869 18.75 54.475V56.25H17.5C15.5109 56.25 13.6032 57.0401 12.1967 58.4467C10.7902 59.8532 10 61.7608 10 63.75V76.25C10 76.5815 10.1317 76.8994 10.3661 77.1338C10.6005 77.3683 10.9185 77.5 11.25 77.5H33.75C34.0815 77.5 34.3995 77.3683 34.6339 77.1338C34.8683 76.8994 35 76.5815 35 76.25V75H45V76.25C45 76.5815 45.1317 76.8994 45.3661 77.1338C45.6005 77.3683 45.9185 77.5 46.25 77.5H68.75C69.0815 77.5 69.3995 77.3683 69.6339 77.1338C69.8683 76.8994 70 76.5815 70 76.25V63.75C70 61.7608 69.2098 59.8532 67.8033 58.4467C66.3968 57.0401 64.4891 56.25 62.5 56.25ZM21.25 40H23.75C24.5258 40.0005 25.2822 40.2427 25.9139 40.693C26.5457 41.1433 27.0214 41.7793 27.275 42.5125L25.6875 41.4625C25.5386 41.3628 25.3698 41.2966 25.1929 41.2686C25.0159 41.2405 24.8349 41.2512 24.6625 41.3L17.5375 43.325C17.6416 42.4122 18.0772 41.5694 18.7615 40.9565C19.4458 40.3436 20.3313 40.0032 21.25 40ZM17.5 48.75V45.9375L24.7875 43.8625L27.5 45.675V48.75C27.497 49.7436 27.101 50.6957 26.3984 51.3983C25.6958 52.1009 24.7436 52.497 23.75 52.5H21.25C20.2564 52.497 19.3042 52.1009 18.6016 51.3983C17.899 50.6957 17.503 49.7436 17.5 48.75ZM23.75 55V56.25C23.7465 56.4683 23.6908 56.6826 23.5875 56.875C23.451 57.1158 23.2385 57.3045 22.9833 57.4115C22.728 57.5185 22.4445 57.5378 22.1771 57.4663C21.9097 57.3948 21.6736 57.2366 21.5058 57.0164C21.338 56.7963 21.2481 56.5267 21.25 56.25V55H23.75ZM12.5 75V63.75C12.5 62.4239 13.0268 61.1521 13.9645 60.2144C14.9021 59.2767 16.1739 58.75 17.5 58.75H19.7375C20.1511 59.2062 20.6705 59.5539 21.25 59.7625V70H23.75V59.7625C24.3295 59.5539 24.8489 59.2062 25.2625 58.75H27.5C27.65 58.75 27.7875 58.775 27.9375 58.7875C27.654 59.5778 27.5061 60.4103 27.5 61.25V73.75C27.5 74.0815 27.6317 74.3994 27.8661 74.6338C28.1005 74.8683 28.4185 75 28.75 75H12.5ZM38.75 37.5H41.25C42.0258 37.5005 42.7822 37.7427 43.4139 38.193C44.0457 38.6433 44.5214 39.2793 44.775 40.0125L43.1875 38.9625C43.0386 38.8628 42.8698 38.7966 42.6929 38.7686C42.5159 38.7405 42.3349 38.7512 42.1625 38.8L35.0375 40.825C35.1416 39.9122 35.5772 39.0694 36.2615 38.4565C36.9458 37.8436 37.8313 37.5032 38.75 37.5ZM35 46.25V43.4375L42.2875 41.3625L45 43.175V46.25C44.997 47.2436 44.601 48.1957 43.8984 48.8983C43.1958 49.6009 42.2436 49.997 41.25 50H38.75C37.7564 49.997 36.8042 49.6009 36.1016 48.8983C35.399 48.1957 35.003 47.2436 35 46.25ZM41.25 52.5V53.75C41.2465 53.9683 41.1908 54.1826 41.0875 54.375C40.951 54.6158 40.7385 54.8045 40.4833 54.9115C40.228 55.0185 39.9445 55.0378 39.6771 54.9663C39.4097 54.8948 39.1736 54.7366 39.0058 54.5164C38.838 54.2963 38.7481 54.0267 38.75 53.75V52.5H41.25ZM50 72.5H30V61.25C29.9932 60.3002 30.2672 59.3696 30.7875 58.575C31.2343 57.8615 31.8556 57.2736 32.5926 56.8668C33.3296 56.46 34.1582 56.2477 35 56.25H37.2375C37.6511 56.7062 38.1705 57.0539 38.75 57.2625V67.5H41.25V57.2625C41.8295 57.0539 42.3489 56.7062 42.7625 56.25H45C45.8463 56.2485 46.6788 56.4637 47.4184 56.875C48.1579 57.2864 48.7799 57.8802 49.225 58.6C49.739 59.3875 50.0086 60.3095 50 61.25V72.5ZM56.25 40H58.75C59.5258 40.0005 60.2822 40.2427 60.9139 40.693C61.5457 41.1433 62.0214 41.7793 62.275 42.5125L60.6875 41.4625C60.5386 41.3628 60.3698 41.2966 60.1929 41.2686C60.0159 41.2405 59.8349 41.2512 59.6625 41.3L52.5375 43.325C52.6416 42.4122 53.0772 41.5694 53.7615 40.9565C54.4458 40.3436 55.3313 40.0032 56.25 40ZM52.5 48.75V45.9375L59.7875 43.8625L62.5 45.675V48.75C62.497 49.7436 62.101 50.6957 61.3984 51.3983C60.6958 52.1009 59.7436 52.497 58.75 52.5H56.25C55.2564 52.497 54.3042 52.1009 53.6016 51.3983C52.899 50.6957 52.503 49.7436 52.5 48.75ZM58.75 55V56.25C58.7465 56.4683 58.6908 56.6826 58.5875 56.875C58.451 57.1158 58.2385 57.3045 57.9833 57.4115C57.728 57.5185 57.4445 57.5378 57.1771 57.4663C56.9097 57.3948 56.6736 57.2366 56.5058 57.0164C56.338 56.7963 56.2481 56.5267 56.25 56.25V55H58.75ZM67.5 75H51.25C51.5815 75 51.8995 74.8683 52.1339 74.6338C52.3683 74.3994 52.5 74.0815 52.5 73.75V61.25C52.4919 60.4116 52.3484 59.58 52.075 58.7875C52.2125 58.775 52.35 58.75 52.5 58.75H54.7375C55.1511 59.2062 55.6705 59.5539 56.25 59.7625V70H58.75V59.7625C59.3295 59.5539 59.8489 59.2062 60.2625 58.75H62.5C63.8261 58.75 65.0979 59.2767 66.0355 60.2144C66.9732 61.1521 67.5 62.4239 67.5 63.75V75ZM53.75 15C53.7462 14.0096 53.5074 13.0343 53.0533 12.1542C52.5991 11.2741 51.9425 10.5143 51.1375 9.93746C51.4091 8.54794 51.2002 7.10735 50.5449 5.85228C49.8897 4.59722 48.8271 3.60229 47.5317 3.03092C46.2363 2.45954 44.7851 2.34568 43.4164 2.70805C42.0477 3.07041 40.843 3.88744 40 5.02496C39.2183 3.96947 38.1233 3.18767 36.8712 2.791C35.6191 2.39434 34.2737 2.40306 33.0269 2.81591C31.78 3.22876 30.6953 4.02468 29.9273 5.09022C29.1593 6.15575 28.7473 7.43652 28.75 8.74996C28.7476 9.1492 28.7895 9.54747 28.875 9.93746C28.0648 10.5095 27.4036 11.2674 26.9469 12.1477C26.4901 13.028 26.2511 14.005 26.2498 14.9967C26.2486 15.9885 26.4852 16.9661 26.9398 17.8475C27.3944 18.7289 28.0537 19.4885 28.8625 20.0625C28.5896 21.4525 28.7982 22.8939 29.4539 24.1496C30.1096 25.4052 31.1733 26.4002 32.4699 26.9706C33.7665 27.5411 35.2186 27.653 36.5873 27.288C37.956 26.923 39.1596 26.1028 40 24.9625C40.779 26.021 41.8728 26.8062 43.1249 27.2057C44.377 27.6051 45.7234 27.5984 46.9715 27.1866C48.2196 26.7747 49.3055 25.9787 50.074 24.9124C50.8424 23.8462 51.2541 22.5643 51.25 21.25C51.2524 20.8507 51.2105 20.4525 51.125 20.0625C51.9345 19.4891 52.5952 18.7304 53.0518 17.8498C53.5085 16.9691 53.7479 15.992 53.75 15ZM38.75 21.25C38.75 22.2445 38.3549 23.1984 37.6516 23.9016C36.9484 24.6049 35.9946 25 35 25C34.0054 25 33.0516 24.6049 32.3483 23.9016C31.6451 23.1984 31.25 22.2445 31.25 21.25C31.25 21.2 31.2625 21.1625 31.2625 21.125C31.6702 21.2049 32.0845 21.2468 32.5 21.25C33.5968 21.2478 34.6741 20.9591 35.625 20.4125L34.375 18.2375C33.8471 18.5516 33.2486 18.7277 32.6348 18.7495C32.0209 18.7714 31.4114 18.6383 30.8625 18.3625C30.2274 18.0566 29.6919 17.5771 29.318 16.9795C28.9441 16.382 28.747 15.6907 28.7497 14.9858C28.7523 14.2809 28.9545 13.5912 29.3328 12.9964C29.7111 12.4016 30.2502 11.9261 30.8875 11.625C31.4348 11.3577 32.0399 11.2303 32.6486 11.2543C33.2572 11.2783 33.8504 11.4529 34.375 11.7625L35.625 9.58746C34.3008 8.84156 32.7536 8.59331 31.2625 8.88746C31.2625 8.83746 31.25 8.79996 31.25 8.74996C31.2498 7.83487 31.5842 6.95127 32.1902 6.26562C32.7963 5.57996 33.6321 5.13957 34.5403 5.02739C35.4485 4.91521 36.3664 5.13899 37.121 5.65657C37.8757 6.17415 38.415 6.94982 38.6375 7.83746C38.7156 8.13523 38.7535 8.44213 38.75 8.74996V21.25ZM49.1125 18.375C48.5652 18.6423 47.9601 18.7696 47.3514 18.7456C46.7428 18.7216 46.1496 18.547 45.625 18.2375L44.375 20.4125C45.3259 20.9591 46.4032 21.2478 47.5 21.25C47.9155 21.2468 48.3298 21.2049 48.7375 21.125C48.7375 21.1625 48.75 21.2 48.75 21.25C48.75 22.2445 48.3549 23.1984 47.6516 23.9016C46.9484 24.6049 45.9946 25 45 25C44.0054 25 43.0516 24.6049 42.3484 23.9016C41.6451 23.1984 41.25 22.2445 41.25 21.25V8.74996C41.246 8.43305 41.2881 8.11725 41.375 7.81246C41.6076 6.93393 42.1514 6.16978 42.9051 5.66208C43.6589 5.15438 44.5714 4.93769 45.473 5.05229C46.3745 5.16689 47.2038 5.605 47.8065 6.28514C48.4093 6.96528 48.7446 7.84117 48.75 8.74996C48.75 8.79996 48.7375 8.83746 48.7375 8.88746C47.2465 8.58639 45.6969 8.83503 44.375 9.58746L45.625 11.7625C46.1529 11.4483 46.7514 11.2722 47.3652 11.2504C47.9791 11.2285 48.5886 11.3617 49.1375 11.6375C49.7726 11.9433 50.3081 12.4228 50.682 13.0204C51.0559 13.618 51.253 14.3092 51.2503 15.0141C51.2477 15.719 51.0455 16.4088 50.6672 17.0035C50.2889 17.5983 49.7498 18.0738 49.1125 18.375ZM13.75 38.75H5V16.25H23.75V13.75H3.75C3.41848 13.75 3.10054 13.8817 2.86612 14.1161C2.6317 14.3505 2.5 14.6684 2.5 15V40C2.5 40.3315 2.6317 40.6494 2.86612 40.8838C3.10054 41.1183 3.41848 41.25 3.75 41.25H13.75V38.75ZM76.25 13.75H56.25V16.25H75V38.75H66.25V41.25H76.25C76.5815 41.25 76.8995 41.1183 77.1339 40.8838C77.3683 40.6494 77.5 40.3315 77.5 40V15C77.5 14.6684 77.3683 14.3505 77.1339 14.1161C76.8995 13.8817 76.5815 13.75 76.25 13.75Z" fill="black"/>
<path id="Vector_2" d="M38.75 27.5H41.25V32.5H38.75V27.5Z" fill="black"/>
</g>
</g>
</g>
</svg>
