<svg width="80" height="81" viewBox="0 0 80 81" fill="none" xmlns="http://www.w3.org/2000/svg">
<g id="Frame">
<g id="Group">
<path id="Vector" d="M39.15 50.1625C39.3799 50.3793 39.684 50.5001 40 50.5001C40.316 50.5001 40.6201 50.3793 40.85 50.1625L51.9625 39.85C54.0999 37.8569 55.8053 35.4461 56.9728 32.767C58.1404 30.0878 58.7453 27.1974 58.75 24.275V11.75C58.7498 11.5046 58.6774 11.2647 58.5418 11.0602C58.4062 10.8557 58.2134 10.6957 57.9875 10.6L40.4875 3.09996C40.334 3.03196 40.1679 2.99683 40 2.99683C39.8321 2.99683 39.666 3.03196 39.5125 3.09996L22.0125 10.6C21.7866 10.6957 21.5938 10.8557 21.4582 11.0602C21.3226 11.2647 21.2502 11.5046 21.25 11.75V24.275C21.2547 27.1974 21.8596 30.0878 23.0272 32.767C24.1947 35.4461 25.9001 37.8569 28.0375 39.85L39.15 50.1625ZM23.75 12.575L40 5.61246L56.25 12.575V24.275C56.247 26.8529 55.7139 29.4027 54.6839 31.7659C53.6539 34.1292 52.1489 36.2554 50.2625 38.0125L40 47.55L29.7375 38.0125C27.8511 36.2554 26.3461 34.1292 25.3161 31.7659C24.2861 29.4027 23.753 26.8529 23.75 24.275V12.575ZM76.975 56.125L74.475 51.8C73.6459 50.3649 72.2818 49.317 70.6815 48.8859C69.0812 48.4548 67.3753 48.6756 65.9375 49.5L47.5 60.15V59.25C47.5 57.5924 46.8415 56.0026 45.6694 54.8305C44.4973 53.6584 42.9076 53 41.25 53H18.75C18.6144 53.0024 18.4798 53.0234 18.35 53.0625L11.05 55.5H3.75C3.41848 55.5 3.10054 55.6317 2.86612 55.8661C2.6317 56.1005 2.5 56.4184 2.5 56.75V76.75C2.5 77.0815 2.6317 77.3994 2.86612 77.6338C3.10054 77.8683 3.41848 78 3.75 78H43.75C43.9841 78.0015 44.2139 77.9365 44.4125 77.8125L76.55 57.8125C76.8262 57.6415 77.025 57.3698 77.1044 57.0548C77.1837 56.7398 77.1373 56.4063 76.975 56.125ZM10 75.5H5V58H10V75.5ZM43.3875 75.5H12.5V57.65L18.95 55.5H41.25C42.2436 55.5029 43.1958 55.899 43.8984 56.6016C44.601 57.3042 44.997 58.2563 45 59.25V63H25V65.5H46.25C46.5815 65.5 46.8995 65.3683 47.1339 65.1338C47.3683 64.8994 47.5 64.5815 47.5 64.25V63.0375L67.1875 51.675C67.6142 51.4272 68.0858 51.2665 68.575 51.2021C69.0641 51.1377 69.5612 51.171 70.0375 51.3C70.5127 51.425 70.9579 51.6444 71.3466 51.945C71.7353 52.2457 72.0595 52.6214 72.3 53.05L74.2 56.325L43.3875 75.5Z" fill="#333333"/>
<path id="Vector_2" d="M38.7509 31.75C39.0824 31.7499 39.4003 31.6181 39.6347 31.3837L48.3847 22.6337L46.6172 20.8662L38.7509 28.7325L34.6347 24.6162L32.8672 26.3837L37.8672 31.3837C38.1016 31.6181 38.4194 31.7499 38.7509 31.75Z" fill="#333333"/>
</g>
</g>
</svg>
