<svg width="80" height="80" viewBox="0 0 80 80" fill="none" xmlns="http://www.w3.org/2000/svg">
<g id="Frame">
<g id="Group">
<path id="Vector" d="M39.15 49.6625C39.3799 49.8793 39.684 50.0001 40 50.0001C40.316 50.0001 40.6201 49.8793 40.85 49.6625L51.9625 39.35C54.0999 37.3569 55.8053 34.9461 56.9728 32.267C58.1404 29.5878 58.7453 26.6974 58.75 23.775V11.25C58.7498 11.0046 58.6774 10.7647 58.5418 10.5602C58.4062 10.3557 58.2134 10.1957 57.9875 10.1L40.4875 2.59996C40.334 2.53196 40.1679 2.49683 40 2.49683C39.8321 2.49683 39.666 2.53196 39.5125 2.59996L22.0125 10.1C21.7866 10.1957 21.5938 10.3557 21.4582 10.5602C21.3226 10.7647 21.2502 11.0046 21.25 11.25V23.775C21.2547 26.6974 21.8596 29.5878 23.0272 32.267C24.1947 34.9461 25.9001 37.3569 28.0375 39.35L39.15 49.6625ZM23.75 12.075L40 5.11246L56.25 12.075V23.775C56.247 26.3529 55.7139 28.9027 54.6839 31.2659C53.6539 33.6292 52.1489 35.7554 50.2625 37.5125L40 47.05L29.7375 37.5125C27.8511 35.7554 26.3461 33.6292 25.3161 31.2659C24.2861 28.9027 23.753 26.3529 23.75 23.775V12.075ZM76.975 55.625L74.475 51.3C73.6459 49.8649 72.2818 48.817 70.6815 48.3859C69.0812 47.9548 67.3753 48.1756 65.9375 49L47.5 59.65V58.75C47.5 57.0924 46.8415 55.5026 45.6694 54.3305C44.4973 53.1584 42.9076 52.5 41.25 52.5H18.75C18.6144 52.5024 18.4798 52.5234 18.35 52.5625L11.05 55H3.75C3.41848 55 3.10054 55.1317 2.86612 55.3661C2.6317 55.6005 2.5 55.9184 2.5 56.25V76.25C2.5 76.5815 2.6317 76.8994 2.86612 77.1338C3.10054 77.3683 3.41848 77.5 3.75 77.5H43.75C43.9841 77.5015 44.2139 77.4365 44.4125 77.3125L76.55 57.3125C76.8262 57.1415 77.025 56.8698 77.1044 56.5548C77.1837 56.2398 77.1373 55.9063 76.975 55.625ZM10 75H5V57.5H10V75ZM43.3875 75H12.5V57.15L18.95 55H41.25C42.2436 55.0029 43.1958 55.399 43.8984 56.1016C44.601 56.8042 44.997 57.7563 45 58.75V62.5H25V65H46.25C46.5815 65 46.8995 64.8683 47.1339 64.6338C47.3683 64.3994 47.5 64.0815 47.5 63.75V62.5375L67.1875 51.175C67.6142 50.9272 68.0858 50.7665 68.575 50.7021C69.0641 50.6377 69.5612 50.671 70.0375 50.8C70.5127 50.925 70.9579 51.1444 71.3466 51.445C71.7353 51.7457 72.0595 52.1214 72.3 52.55L74.2 55.825L43.3875 75Z" fill="#333333"/>
<path id="Vector_2" d="M38.7509 31.2497C39.0824 31.2496 39.4003 31.1179 39.6347 30.8835L48.3847 22.1335L46.6172 20.366L38.7509 28.2322L34.6347 24.116L32.8672 25.8835L37.8672 30.8835C38.1016 31.1179 38.4194 31.2496 38.7509 31.2497Z" fill="#333333"/>
</g>
</g>
</svg>
