<svg width="57" height="56" viewBox="0 0 57 56" fill="none" xmlns="http://www.w3.org/2000/svg">
<g id="Frame" clip-path="url(#clip0_2206_40787)">
<g id="Group">
<path id="Vector" d="M35.8102 30.5613C35.8781 30.4592 35.9252 30.3448 35.9489 30.2245C35.9726 30.1043 35.9724 29.9805 35.9482 29.8604C35.9241 29.7402 35.8765 29.626 35.8082 29.5242C35.7399 29.4224 35.6522 29.3351 35.5501 29.2672C35.4481 29.1992 35.3337 29.1521 35.2134 29.1283C35.0932 29.1046 34.9694 29.1049 34.8492 29.129C34.729 29.1532 34.6148 29.2008 34.513 29.2691C34.4112 29.3374 34.3239 29.4252 34.2561 29.5272C32.3892 32.3332 28.8585 33.4302 25.7827 32.2917C25.6514 32.1905 25.4954 32.1262 25.331 32.1057C22.8173 30.9704 21.1026 28.413 21.1026 25.4674V21.6251C22.3688 21.1055 23.4197 20.1936 24.1282 19.0075C27.4704 21.2539 31.4217 22.2971 35.4526 21.9963C35.4526 25.4936 35.4241 25.3795 35.5259 25.6198C35.5974 25.7887 35.717 25.9328 35.8698 26.0342C36.0227 26.1356 36.2019 26.1898 36.3854 26.1901C38.0606 26.1901 39.413 24.83 39.4141 23.1669V15.5292C39.4166 11.4415 36.095 8.11378 32.009 8.11133H26.4983C23.6435 8.11133 21.093 9.71444 19.8511 12.2423C18.427 12.5357 17.3515 13.7987 17.3506 15.3086V18.3962C17.3503 18.9116 17.767 19.3299 18.2825 19.3301C18.7977 19.3302 19.2168 18.9127 19.2172 18.3974V15.3097C19.2175 14.612 19.7863 14.0446 20.4839 14.0446C20.6706 14.0449 20.853 13.9892 21.0077 13.8847C21.1623 13.7802 21.2821 13.6318 21.3516 13.4585C22.199 11.3437 24.2189 9.97799 26.499 9.97799H32.0085C35.0646 9.97986 37.5493 12.4695 37.5476 15.5286V23.1662C37.5473 23.4135 37.4673 23.6541 37.3194 23.8522V20.9618C37.3194 20.3987 36.8232 19.9624 36.2633 20.0365C31.9856 20.604 27.7516 19.477 24.3408 16.8631C23.8435 16.4819 23.1208 16.6901 22.9001 17.2737C22.3772 18.6567 21.2889 19.6737 19.9145 20.0641C19.7191 20.1195 19.5472 20.2372 19.4248 20.3992C19.3024 20.5612 19.2362 20.7588 19.2362 20.9618V25.4674C19.2362 29.0325 21.2435 32.1457 24.2253 33.646C24.0053 34.8751 23.1386 35.9143 21.9284 36.3316C18.0403 37.6722 18.2025 37.6019 17.8013 37.7984L17.5899 37.7256C16.6217 37.3917 15.9224 36.571 15.7231 35.5944C16.739 35.061 17.641 34.3029 18.357 33.3515C18.502 33.1534 18.5631 32.9062 18.5272 32.6634C18.4913 32.4206 18.3612 32.2018 18.1651 32.0542C17.969 31.9066 17.7226 31.8422 17.4794 31.8749C17.2361 31.9076 17.0155 32.0348 16.8654 32.229C15.5919 33.9214 13.5801 34.7642 11.5828 34.6099C8.48172 34.3715 6.0526 31.7019 6.0526 28.5325V25.3419C7.0837 24.8991 7.9468 24.1571 8.5502 23.2008C9.93236 24.1131 11.4529 24.7958 13.0531 25.2227C13.551 25.3561 14.0626 25.0601 14.1958 24.5621C14.2275 24.4437 14.2355 24.3203 14.2194 24.1987C14.2034 24.0772 14.1635 23.9601 14.1022 23.854C14.0409 23.7478 13.9592 23.6549 13.862 23.5803C13.7647 23.5057 13.6537 23.4511 13.5353 23.4194C11.8066 22.9573 10.2041 22.1665 8.77234 21.069C8.27639 20.6888 7.55282 20.8946 7.3315 21.4798C6.89902 22.6236 5.99975 23.4644 4.86435 23.7869C4.67661 23.8407 4.51064 23.9524 4.3901 24.1061V19.891C4.39045 19.3729 4.81185 18.9423 5.3407 18.9423C5.52736 18.9426 5.7098 18.8869 5.86447 18.7824C6.01913 18.6779 6.13892 18.5294 6.20835 18.3562C6.91337 16.5966 8.5936 15.4604 10.4906 15.4604H13.9711C14.2187 15.4604 14.4561 15.3621 14.6311 15.187C14.8061 15.012 14.9045 14.7746 14.9045 14.5271C14.9045 14.2795 14.8061 14.0421 14.6311 13.8671C14.4561 13.6921 14.2187 13.5937 13.9711 13.5937H10.4898C8.01645 13.5937 5.80422 14.9706 4.70802 17.1467C3.48279 17.4265 2.52309 18.532 2.52262 19.89V26.6855C2.52192 27.8097 3.2162 28.7646 4.21184 29.1489C4.42557 31.9209 6.06474 34.3303 8.40169 35.5807C8.20615 36.5633 7.50499 37.39 6.53234 37.7254L3.51814 38.7647C1.61472 39.4222 0.335938 41.2165 0.335938 43.2306V46.9577C0.335938 47.2052 0.434271 47.4426 0.609304 47.6177C0.784338 47.7927 1.02174 47.891 1.26927 47.891C1.51681 47.891 1.7542 47.7927 1.92924 47.6177C2.10427 47.4426 2.2026 47.2052 2.2026 46.9577V43.2306C2.20276 42.6358 2.38842 42.0558 2.73371 41.5715C3.07901 41.0872 3.56675 40.7227 4.129 40.5287C4.129 40.517 4.09867 40.5387 6.9619 39.5518C7.98414 41.1653 9.71384 42.2125 11.6575 42.3452C11.9023 42.3583 12.1425 42.2745 12.326 42.112C12.5096 41.9495 12.6219 41.7213 12.6386 41.4767C12.6553 41.2321 12.5751 40.9908 12.4154 40.8048C12.2556 40.6188 12.0291 40.5032 11.7848 40.4828C11.1526 40.4403 10.5383 40.2542 9.98876 39.9388C9.43918 39.6234 8.96868 39.187 8.61297 38.6626C9.36372 38.0404 9.90401 37.2015 10.16 36.2607C11.4207 36.5773 12.7284 36.568 13.9625 36.2628C14.286 37.4506 15.0599 38.4656 16.1197 39.0922C15.2903 40.0459 14.8026 41.285 14.8026 42.6084V46.9577C14.8026 47.2052 14.9009 47.4426 15.076 47.6177C15.251 47.7927 15.4884 47.891 15.7359 47.891C15.9835 47.891 16.2209 47.7927 16.3959 47.6177C16.5709 47.4426 16.6693 47.2052 16.6693 46.9577V42.6084C16.6694 41.8825 16.8958 41.1747 17.3169 40.5834C17.7381 39.9921 18.333 39.5468 19.0189 39.3093L22.5369 38.0963C24.2821 37.4945 25.5642 36.0501 25.9925 34.3123C29.6717 35.2628 33.6337 33.8327 35.8102 30.5613Z" fill="#333333"/>
<path id="Vector_2" d="M53.148 38.7643L50.1346 37.7254C49.1666 37.3916 48.4676 36.5712 48.2679 35.595C50.7512 34.2842 52.2688 31.817 52.4584 29.179C53.5043 28.8017 54.2258 27.8141 54.2265 26.6655V20.079C54.2288 16.4994 51.3348 13.5939 47.753 13.5933C42.7978 13.5925 42.8222 13.5833 42.4219 13.6216C42.1755 13.645 41.9485 13.7653 41.7908 13.9561C41.6331 14.1469 41.5577 14.3925 41.5811 14.6389C41.5925 14.761 41.6279 14.8797 41.6852 14.988C41.7426 15.0964 41.8207 15.1924 41.9153 15.2706C42.0098 15.3487 42.1188 15.4074 42.236 15.4433C42.3533 15.4792 42.4765 15.4916 42.5985 15.4798C42.8746 15.4535 42.7302 15.4592 47.7524 15.4601C50.294 15.4606 52.3615 17.5215 52.3599 20.0785V24.2263C52.2687 24.0639 52.1308 23.9326 51.9641 23.8493C51.7974 23.7661 51.6096 23.7348 51.4249 23.7594C48.5463 24.1411 45.687 23.6221 43.1558 22.2584C43.0479 22.2003 42.9296 22.1639 42.8077 22.1515C42.6858 22.1391 42.5626 22.1508 42.4451 22.186C42.3277 22.2212 42.2184 22.2791 42.1234 22.3566C42.0284 22.434 41.9495 22.5294 41.8914 22.6373C41.8333 22.7453 41.7969 22.8636 41.7845 22.9855C41.7721 23.1074 41.7838 23.2306 41.819 23.348C41.8542 23.4655 41.9121 23.5748 41.9896 23.6698C42.067 23.7648 42.1624 23.8436 42.2703 23.9018C44.8395 25.2859 47.7036 25.9055 50.6143 25.7145V28.62C50.6143 30.2883 49.9119 31.8955 48.687 33.0298C46.0822 35.4416 41.9098 35.1118 39.7628 32.1389C39.6911 32.0395 39.6005 31.9552 39.4962 31.8909C39.3918 31.8265 39.2759 31.7833 39.1549 31.7638C39.0338 31.7443 38.9102 31.7488 38.7909 31.7771C38.6716 31.8054 38.5591 31.8569 38.4598 31.9287C38.2591 32.0736 38.1242 32.2923 38.0848 32.5367C38.0454 32.781 38.1046 33.0311 38.2495 33.2317C38.9564 34.2121 39.8789 35.0172 40.9459 35.5848C40.7492 36.5655 40.0487 37.3904 39.0774 37.7254L38.8658 37.7983C38.4651 37.6019 38.6204 37.6695 34.7385 36.3313C34.222 36.1528 33.7545 35.856 33.3732 35.4646C33.1999 35.2907 32.9651 35.1921 32.7196 35.1902C32.4741 35.1882 32.2378 35.283 32.0617 35.454C31.8856 35.6251 31.784 35.8586 31.7788 36.104C31.7737 36.3495 31.8655 36.5871 32.0342 36.7653C32.2024 36.9374 32.382 37.0979 32.572 37.2455C31.3422 39.155 28.91 40.0508 26.7116 39.2999C26.5956 39.2602 26.4729 39.2438 26.3506 39.2516C26.2283 39.2593 26.1087 39.2911 25.9986 39.3451C25.8886 39.3991 25.7903 39.4743 25.7093 39.5663C25.6283 39.6583 25.5663 39.7654 25.5267 39.8814C25.4871 39.9974 25.4707 40.12 25.4784 40.2423C25.4862 40.3646 25.518 40.4842 25.572 40.5943C25.626 40.7043 25.7011 40.8026 25.7931 40.8836C25.8851 40.9646 25.9922 41.0266 26.1082 41.0662C29.205 42.1241 32.5637 40.8438 34.2228 38.1279L37.6445 39.3078C38.3313 39.5449 38.9271 39.9902 39.3489 40.5817C39.7706 41.1733 39.9974 41.8817 39.9977 42.6082V46.9576C39.9977 47.2051 40.096 47.4425 40.271 47.6175C40.4461 47.7926 40.6835 47.8909 40.931 47.8909C41.1785 47.8909 41.4159 47.7926 41.591 47.6175C41.766 47.4425 41.8643 47.2051 41.8643 46.9576V42.6082C41.8643 41.2848 41.3768 40.0458 40.5473 39.092C41.607 38.4655 42.3808 37.4507 42.7045 36.263C43.9429 36.572 45.2617 36.5732 46.5083 36.2656C46.7648 37.2045 47.3046 38.0414 48.054 38.6624C47.6983 39.1868 47.2277 39.6233 46.6782 39.9387C46.1286 40.2541 45.5144 40.4401 44.8822 40.4827C44.6352 40.4995 44.405 40.6138 44.2423 40.8003C44.0796 40.9869 43.9977 41.2304 44.0145 41.4774C44.0314 41.7243 44.1456 41.9545 44.3322 42.1172C44.5187 42.2799 44.7622 42.3619 45.0092 42.345C46.9528 42.2123 48.6826 41.1652 49.7048 39.5518L52.5378 40.5285C53.1001 40.7225 53.5878 41.087 53.9331 41.5713C54.2784 42.0556 54.4641 42.6355 54.4642 43.2303V46.9575C54.4642 47.205 54.5626 47.4424 54.7376 47.6174C54.9126 47.7924 55.15 47.8908 55.3976 47.8908C55.6451 47.8908 55.8825 47.7924 56.0575 47.6174C56.2326 47.4424 56.3309 47.205 56.3309 46.9575V43.2303C56.3309 41.216 55.0518 39.4216 53.148 38.7643Z" fill="#333333"/>
</g>
</g>
<defs>
<clipPath id="clip0_2206_40787">
<rect width="56" height="56" fill="white" transform="translate(0.335938)"/>
</clipPath>
</defs>
</svg>
