<svg width="80" height="80" viewBox="0 0 80 80" fill="none" xmlns="http://www.w3.org/2000/svg">
<g id="Frame">
<g id="Group">
<g id="customer service-call center-woman-headset-headphone">
<path id="Vector" d="M35 45H37.5C37.5 43.6739 36.9732 42.4021 36.0355 41.4645C35.0979 40.5268 33.8261 40 32.5 40C31.1739 40 29.9021 40.5268 28.9645 41.4645C28.0268 42.4021 27.5 43.6739 27.5 45H30C30 44.337 30.2634 43.7011 30.7322 43.2322C31.2011 42.7634 31.837 42.5 32.5 42.5C33.163 42.5 33.7989 42.7634 34.2678 43.2322C34.7366 43.7011 35 44.337 35 45ZM47.5 40C46.1739 40 44.9021 40.5268 43.9645 41.4645C43.0268 42.4021 42.5 43.6739 42.5 45H45C45 44.337 45.2634 43.7011 45.7322 43.2322C46.2011 42.7634 46.837 42.5 47.5 42.5C48.163 42.5 48.7989 42.7634 49.2678 43.2322C49.7366 43.7011 50 44.337 50 45H52.5C52.5 43.6739 51.9732 42.4021 51.0355 41.4645C50.0979 40.5268 48.8261 40 47.5 40ZM40 57.5C37.9675 57.5 36.25 56.355 36.25 55H33.75C33.75 57.7575 36.5538 60 40 60C43.4462 60 46.25 57.7575 46.25 55H43.75C43.75 56.355 42.0325 57.5 40 57.5Z" fill="#333333"/>
<path id="Vector_2" d="M75 38.975V28.75C74.9924 21.7904 72.2243 15.118 67.3031 10.1969C62.382 5.27567 55.7096 2.50761 48.75 2.5H31.25C24.2904 2.50761 17.618 5.27567 12.6969 10.1969C7.77567 15.118 5.00761 21.7904 5 28.75V38.975C4.27157 39.2345 3.64077 39.712 3.19344 40.3428C2.74611 40.9735 2.50398 41.7268 2.5 42.5V50C2.50297 50.9936 2.89901 51.9458 3.60163 52.6484C4.30425 53.351 5.25635 53.747 6.25 53.75V63.75C6.25463 66.7323 7.44138 69.5911 9.55016 71.6998C11.6589 73.8086 14.5177 74.9954 17.5 75H31.475C31.7345 75.7284 32.212 76.3592 32.8428 76.8066C33.4735 77.2539 34.2268 77.496 35 77.5H45C45.9946 77.5 46.9484 77.1049 47.6516 76.4016C48.3549 75.6984 48.75 74.7446 48.75 73.75C48.75 72.7554 48.3549 71.8016 47.6516 71.0984C46.9484 70.3951 45.9946 70 45 70H35C34.2268 70.004 33.4735 70.2461 32.8428 70.6934C32.212 71.1408 31.7345 71.7716 31.475 72.5H17.5C15.1802 72.4974 12.9561 71.5746 11.3157 69.9343C9.67537 68.2939 8.75265 66.0698 8.75 63.75V53.75H10.525C11.0131 54.8627 11.814 55.8096 12.8305 56.4754C13.8469 57.1412 15.0349 57.4972 16.25 57.5H21.25C22.4882 60.4584 24.5721 62.9854 27.2404 64.7643C29.9088 66.5433 33.043 67.4949 36.25 67.5H43.75C46.957 67.4949 50.0912 66.5433 52.7596 64.7643C55.4279 62.9854 57.5118 60.4584 58.75 57.5H63.75C64.9651 57.4972 66.1531 57.1412 67.1695 56.4754C68.186 55.8096 68.9869 54.8627 69.475 53.75H73.75C74.7437 53.747 75.6958 53.351 76.3984 52.6484C77.101 51.9458 77.497 50.9936 77.5 50V42.5C77.496 41.7268 77.2539 40.9735 76.8066 40.3428C76.3592 39.712 75.7284 39.2345 75 38.975ZM35 72.5H45C45.3315 72.5 45.6495 72.6317 45.8839 72.8661C46.1183 73.1005 46.25 73.4185 46.25 73.75C46.25 74.0815 46.1183 74.3995 45.8839 74.6339C45.6495 74.8683 45.3315 75 45 75H35C34.6685 75 34.3505 74.8683 34.1161 74.6339C33.8817 74.3995 33.75 74.0815 33.75 73.75C33.75 73.4185 33.8817 73.1005 34.1161 72.8661C34.3505 72.6317 34.6685 72.5 35 72.5ZM10 51.25H6.25C5.91848 51.25 5.60054 51.1183 5.36612 50.8839C5.1317 50.6495 5 50.3315 5 50V42.5C5 42.1685 5.1317 41.8505 5.36612 41.6161C5.60054 41.3817 5.91848 41.25 6.25 41.25H10V51.25ZM16.25 55C15.2564 54.997 14.3042 54.601 13.6016 53.8984C12.899 53.1958 12.503 52.2436 12.5 51.25V41.25C12.503 40.2564 12.899 39.3042 13.6016 38.6016C14.3042 37.899 15.2564 37.503 16.25 37.5H20V51.25C20.0026 52.5133 20.1536 53.7719 20.45 55H16.25ZM57.5 51.25C57.4977 54.896 56.0483 58.392 53.4702 60.9702C50.892 63.5483 47.396 64.9977 43.75 65H36.25C32.604 64.9977 29.108 63.5483 26.5298 60.9702C23.9517 58.392 22.5023 54.896 22.5 51.25V37.175L46.075 30.1L57.5 36.9625V51.25ZM57.5 34.0375L52.5 31.0375V23.75H50V29.5375L47.5 28.0375V20H45V27.825L22.5 34.575V28.75C22.5023 25.104 23.9517 21.608 26.5298 19.0298C29.108 16.4517 32.604 15.0023 36.25 15H43.75C47.396 15.0023 50.892 16.4517 53.4702 19.0298C56.0483 21.608 57.4977 25.104 57.5 28.75V34.0375ZM67.5 51.25C67.497 52.2436 67.101 53.1958 66.3984 53.8984C65.6958 54.601 64.7436 54.997 63.75 55H59.55C59.8464 53.7719 59.9974 52.5133 60 51.25V37.5H63.75C64.7436 37.503 65.6958 37.899 66.3984 38.6016C67.101 39.3042 67.497 40.2564 67.5 41.25V51.25ZM67.5 36.2875C66.4262 35.4565 65.1078 35.0038 63.75 35H60V28.75C59.996 24.4415 58.2827 20.3105 55.2361 17.2639C52.1895 14.2173 48.0585 12.504 43.75 12.5H36.25C31.9415 12.504 27.8105 14.2173 24.7639 17.2639C21.7173 20.3105 20.004 24.4415 20 28.75V35H16.25C14.8922 35.0038 13.5738 35.4565 12.5 36.2875V28.75C12.506 23.779 14.4833 19.0133 17.9983 15.4983C21.5133 11.9833 26.279 10.006 31.25 10H48.75C53.721 10.006 58.4867 11.9833 62.0017 15.4983C65.5167 19.0133 67.494 23.779 67.5 28.75V36.2875ZM48.75 7.5H31.25C25.6166 7.50794 20.2162 9.74932 16.2327 13.7327C12.2493 17.7162 10.0079 23.1166 10 28.75V38.75H7.5V28.75C7.50563 22.4528 10.0097 16.4152 14.4624 11.9624C18.9152 7.50966 24.9528 5.00563 31.25 5H48.75C55.0472 5.00563 61.0848 7.50966 65.5376 11.9624C69.9903 16.4152 72.4944 22.4528 72.5 28.75V38.75H70V28.75C69.9921 23.1166 67.7507 17.7162 63.7673 13.7327C59.7838 9.74932 54.3834 7.50794 48.75 7.5ZM75 50C75 50.3315 74.8683 50.6495 74.6339 50.8839C74.3995 51.1183 74.0815 51.25 73.75 51.25H70V41.25H73.75C74.0815 41.25 74.3995 41.3817 74.6339 41.6161C74.8683 41.8505 75 42.1685 75 42.5V50Z" fill="#333333"/>
</g>
</g>
</g>
</svg>
