<svg width="80" height="81" viewBox="0 0 80 81" fill="none" xmlns="http://www.w3.org/2000/svg">
<g id="Frame" clip-path="url(#clip0_872_7966)">
<g id="Group">
<path id="Vector" d="M67.2085 20.9819C61.7431 9.23039 50.2825 1.41446 37.3469 0.617581L36.061 0.500488L34.8857 0.52971C30.8942 0.676026 26.9821 1.68832 23.4206 3.49648C13.9516 8.23034 7.98334 17.9224 8.01839 28.5087V33.4725L0.210272 46.4864C0.0885823 46.6885 0.0227955 46.9193 0.0196496 47.1552C0.0165037 47.3911 0.0761117 47.6235 0.192369 47.8288C0.308815 48.0341 0.477615 48.2049 0.681564 48.3237C0.885513 48.4425 1.11732 48.5051 1.35335 48.5052H9.69768L8.88873 60.5225C8.27164 64.0772 10.6143 67.4713 14.1574 68.1562C14.2451 68.1736 14.3342 68.1825 14.4236 68.1827C14.4713 68.1827 14.5198 68.18 14.5661 68.1752L22.6827 67.2947V79.1671C22.6827 79.9031 23.2794 80.5005 24.0159 80.5005H56.0108C56.7471 80.5005 57.3439 79.9032 57.3439 79.1671V65.9189L67.7605 40.1797C70.049 33.9471 69.8514 27.0728 67.2085 20.9819ZM65.2691 39.2308L54.7742 65.1691C54.7016 65.3592 54.6739 65.5634 54.6933 65.7659C54.6933 65.7937 54.6775 65.818 54.6775 65.846V77.8339H25.349V65.8358C25.349 65.8082 25.334 65.7835 25.3329 65.756C25.3315 65.728 25.3444 65.6973 25.3405 65.6673C25.3247 65.5912 25.3011 65.517 25.2702 65.4457C25.2556 65.3871 25.2369 65.3297 25.2145 65.2736C25.1608 65.1598 25.0908 65.0544 25.0069 64.9607C24.9932 64.936 24.9782 64.9124 24.9624 64.8893C24.9476 64.8776 24.9318 64.8669 24.9168 64.854C24.7804 64.7198 24.6161 64.6172 24.4357 64.5534C24.2553 64.4896 24.0631 64.4661 23.8726 64.4847L14.4907 65.5C12.4214 64.978 11.1229 62.928 11.5347 60.8339L12.4549 47.2638C12.5066 46.5288 11.9525 45.8908 11.2178 45.8391H3.71243L10.4975 34.5237C10.51 34.4963 10.5203 34.468 10.5284 34.4391C10.5672 34.3584 10.597 34.2737 10.6178 34.1874C10.6441 34.1001 10.6623 34.0103 10.6708 33.92C10.6708 33.8895 10.6891 33.8626 10.6891 33.831V28.5087C10.6527 18.9276 16.0487 10.1527 24.6167 5.86221C27.8332 4.22915 31.3658 3.31394 34.9706 3.17984H36.0371C48.4157 3.5292 59.5389 10.8342 64.7766 22.0557C67.1362 27.5059 67.313 33.6547 65.2691 39.2308Z" fill="#333333"/>
<path id="Vector_2" d="M37.3468 14.2619C32.441 10.0942 25.1206 10.54 20.7578 15.2718C16.3939 20.0044 16.5426 27.3361 21.0932 31.8878L36.1744 46.9724C36.3259 47.1236 36.5114 47.2361 36.7154 47.3007C36.9194 47.3652 37.1359 47.3798 37.3468 47.3433C37.4225 47.3565 37.4992 47.3631 37.5761 47.3631C37.9295 47.3631 38.2683 47.2221 38.5188 46.9724L53.5998 31.8878C58.1505 27.3361 58.2995 20.0044 53.9356 15.2718C49.572 10.5401 42.2513 10.0942 37.3468 14.2619ZM51.7151 30.003L37.3467 44.373L22.978 30.003C19.3333 26.3589 19.3333 20.4503 22.978 16.8053C26.6225 13.1611 32.5319 13.1611 36.1758 16.8053L36.4056 17.0347C36.9257 17.5553 37.77 17.5553 38.291 17.0347L38.5198 16.8053C42.1642 13.1611 48.0728 13.1611 51.7175 16.8053C55.3616 20.4503 55.3616 26.3589 51.7175 30.003H51.7151Z" fill="#333333"/>
<path id="Vector_3" d="M29.5767 15.4072C26.3417 15.4072 23.4254 17.3553 22.1872 20.3445C20.9492 23.3335 21.6336 26.7735 23.9203 29.0605C24.4433 29.5653 25.2748 29.5586 25.7893 29.0447C26.3029 28.5299 26.3107 27.699 25.8056 27.1754C24.2807 25.6506 23.8246 23.3574 24.6499 21.3647C25.476 19.3719 27.4203 18.0728 29.5767 18.0734C30.3128 18.0734 30.9098 17.4763 30.9098 16.74C30.9098 16.0045 30.3128 15.4072 29.5767 15.4072Z" fill="#333333"/>
</g>
</g>
<defs>
<clipPath id="clip0_872_7966">
<rect width="80" height="80" fill="white" transform="translate(0 0.5)"/>
</clipPath>
</defs>
</svg>
