<svg width="61" height="62" viewBox="0 0 61 62" fill="none" xmlns="http://www.w3.org/2000/svg">
<g id="g100">
<path id="path102" d="M34.2288 33.1305C34.3768 32.9244 34.5036 32.7024 34.6072 32.4667L54.553 39.7615C53.6767 42.1589 52.4515 44.3903 50.9399 46.3924L34.2288 33.1305ZM45.181 51.9589L33.399 33.9645C33.6051 33.8155 33.7954 33.6453 33.9656 33.4571L50.6841 46.7254C49.1197 48.7296 47.2635 50.4949 45.181 51.9589ZM31.194 34.6579C31.214 34.659 31.2341 34.6601 31.2542 34.6601C31.4899 34.6601 31.7204 34.6368 31.9445 34.5935L37.5247 55.6174C35.2922 56.2559 32.9349 56.5984 30.4995 56.5984C30.2859 56.5984 30.0735 56.5952 29.8599 56.5899L31.194 34.6579ZM21.7903 55.072L30.0481 34.456C30.2817 34.5374 30.5248 34.5945 30.7764 34.6284L29.4414 56.5762C26.7659 56.4663 24.1951 55.9441 21.7903 55.072ZM28.2331 33.066C28.3727 33.2711 28.5333 33.4592 28.7109 33.6305L14.2461 50.7613C12.2028 49.0774 10.4237 47.0837 8.98293 44.8512L28.2331 33.066ZM5.65529 37.1738L27.7395 32.0237C27.8092 32.2626 27.9023 32.491 28.0164 32.7066L8.75778 44.4971C7.36457 42.2625 6.3075 39.7974 5.65529 37.1738ZM28.3758 28.7394C28.2236 28.9329 28.0915 29.1422 27.9805 29.3631L7.23983 20.3157C8.36032 17.8866 9.85078 15.6614 11.6383 13.7122L28.3758 28.7394ZM18.1583 8.57804L29.2257 27.953C29.0185 28.0915 28.8272 28.249 28.6528 28.4255L11.9237 13.4057C13.7355 11.4945 15.8369 9.86132 18.1583 8.57804ZM30.9974 27.3494C30.8948 27.3568 30.7923 27.3674 30.6919 27.3822L26.3336 5.74088C27.6898 5.51784 29.082 5.40156 30.4995 5.40156C30.6665 5.40156 30.8314 5.40368 30.9974 5.40685V27.3494ZM38.9951 6.8508L32.1622 27.453C31.9223 27.3917 31.6728 27.3547 31.417 27.3441V5.41847C34.0639 5.51149 36.6104 6.00938 38.9951 6.8508ZM34.1115 28.7141C33.9518 28.5153 33.7732 28.3325 33.5766 28.1707L46.4051 10.9575C48.3924 12.5368 50.1397 14.4056 51.5847 16.4986L34.1115 28.7141ZM34.899 31.3219L56.0794 31.9656C55.9832 34.548 55.5033 37.0332 54.6936 39.3661L34.7531 32.0734C34.8271 31.8324 34.8757 31.5808 34.899 31.3219ZM33.0459 34.1907L44.8354 52.1968C42.7339 53.6228 40.4095 54.7443 37.9275 55.499L32.3514 34.492C32.5946 34.4159 32.8271 34.3144 33.0459 34.1907ZM29.6612 34.2954L21.3971 54.9261C18.9151 53.9779 16.6171 52.6545 14.5727 51.0245L29.028 33.9043C29.2247 34.0554 29.4361 34.1865 29.6612 34.2954ZM27.6338 30.4625L5.03374 28.398C5.30858 25.6845 6.00941 23.0947 7.06753 20.6973L27.8135 29.7479C27.73 29.9762 27.6697 30.2162 27.6338 30.4625ZM29.5872 27.7416L18.5272 8.37826C20.8094 7.1658 23.2956 6.28844 25.9203 5.81276L30.2828 27.471C30.0396 27.5376 29.8071 27.6285 29.5872 27.7416ZM32.5618 27.5809L39.3894 6.9935C41.8111 7.89306 44.0616 9.14991 46.0753 10.6985L33.2373 27.9244C33.0259 27.7881 32.7996 27.6729 32.5618 27.5809ZM4.90161 30.9994C4.90161 30.2637 4.93332 29.5354 4.99463 28.8156L27.5968 30.8811C27.5957 30.9202 27.5936 30.9603 27.5936 30.9994C27.5936 31.2098 27.6126 31.4149 27.6465 31.6147L5.55699 36.7657C5.12888 34.9127 4.90161 32.9825 4.90161 30.9994ZM56.0984 30.9994C56.0984 31.1823 56.0952 31.3641 56.0921 31.5459L34.9117 30.9022C34.9043 30.6422 34.8704 30.3885 34.8123 30.1432L55.147 24.0788C55.7665 26.2807 56.0984 28.602 56.0984 30.9994ZM55.0308 23.675L34.6918 29.7415C34.603 29.4995 34.4888 29.2701 34.3546 29.0555L51.8194 16.8464C53.2073 18.9288 54.2972 21.2258 55.0308 23.675ZM30.4995 0.49995C13.6826 0.49995 0 14.1826 0 30.9994C0 47.8174 13.6826 61.5 30.4995 61.5C47.3174 61.5 61 47.8174 61 30.9994C61 14.1826 47.3174 0.49995 30.4995 0.49995Z" fill="#FFC93A"/>
</g>
</svg>
