<svg width="45" height="44" viewBox="0 0 45 44" fill="none" xmlns="http://www.w3.org/2000/svg">
<g id="g100">
<path id="path102" d="M25.0467 23.5157C25.152 23.3691 25.2422 23.2112 25.3159 23.0434L39.5065 28.2334C38.883 29.9391 38.0114 31.5267 36.936 32.9511L25.0467 23.5157ZM32.8388 36.9114L24.4563 24.1091C24.603 24.0031 24.7384 23.882 24.8594 23.7481L36.754 33.188C35.6409 34.6139 34.3203 35.8698 32.8388 36.9114ZM22.8875 24.6025C22.9018 24.6032 22.9161 24.604 22.9304 24.604C23.0981 24.604 23.2621 24.5874 23.4215 24.5566L27.3916 39.5143C25.8033 39.9685 24.1262 40.2122 22.3934 40.2122C22.2415 40.2122 22.0904 40.2099 21.9384 40.2062L22.8875 24.6025ZM16.1972 39.1262L22.0723 24.4588C22.2385 24.5167 22.4115 24.5573 22.5905 24.5814L21.6406 40.1964C19.7372 40.1182 17.9082 39.7466 16.1972 39.1262ZM20.781 23.4699C20.8803 23.6158 20.9946 23.7496 21.121 23.8715L10.8298 36.0593C9.37608 34.8613 8.11037 33.4429 7.08532 31.8546L20.781 23.4699ZM4.71784 26.3924L20.4298 22.7283C20.4795 22.8983 20.5456 23.0607 20.6269 23.2142L6.92513 31.6026C5.93392 30.0128 5.18186 28.259 4.71784 26.3924ZM20.8826 20.3917C20.7743 20.5293 20.6803 20.6782 20.6013 20.8354L5.84518 14.3985C6.64236 12.6703 7.70276 11.0872 8.97448 9.70044L20.8826 20.3917ZM13.6132 6.04769L21.4872 19.8322C21.3398 19.9307 21.2037 20.0427 21.0796 20.1683L9.17754 9.48234C10.4666 8.12262 11.9617 6.96069 13.6132 6.04769ZM22.7477 19.4027C22.6747 19.408 22.6018 19.4155 22.5303 19.426L19.4296 4.02917C20.3945 3.87049 21.3849 3.78776 22.3934 3.78776C22.5123 3.78776 22.6296 3.78926 22.7477 3.79152V19.4027ZM28.4377 4.81883L23.5764 19.4764C23.4057 19.4328 23.2282 19.4065 23.0462 19.399V3.79979C24.9294 3.86597 26.7411 4.22019 28.4377 4.81883ZM24.9632 20.3736C24.8497 20.2323 24.7226 20.1021 24.5827 19.9871L33.7096 7.74058C35.1235 8.86415 36.3667 10.1938 37.3947 11.6829L24.9632 20.3736ZM25.5235 22.229L40.5925 22.687C40.524 24.5242 40.1826 26.2923 39.6065 27.9521L25.4197 22.7637C25.4724 22.5922 25.507 22.4132 25.5235 22.229ZM24.2051 24.2701L32.5928 37.0806C31.0977 38.0951 29.444 38.8931 27.6781 39.43L23.711 24.4844C23.884 24.4302 24.0495 24.358 24.2051 24.2701ZM21.7971 24.3445L15.9175 39.0224C14.1516 38.3478 12.5167 37.4062 11.0622 36.2466L21.3466 24.0662C21.4865 24.1738 21.6369 24.267 21.7971 24.3445ZM20.3546 21.6175L4.27563 20.1488C4.47117 18.2182 4.96978 16.3757 5.72259 14.67L20.4825 21.1092C20.423 21.2716 20.3802 21.4423 20.3546 21.6175ZM21.7444 19.6817L13.8756 5.90556C15.4993 5.04295 17.2682 4.41874 19.1355 4.08031L22.2393 19.4892C22.0663 19.5366 21.9008 19.6013 21.7444 19.6817ZM23.8607 19.5674L28.7182 4.92036C30.4412 5.56036 32.0423 6.45456 33.475 7.55632L24.3413 19.8119C24.1909 19.7148 24.0299 19.6329 23.8607 19.5674ZM4.18163 21.9996C4.18163 21.4762 4.20419 20.958 4.24781 20.4458L20.3283 21.9154C20.3275 21.9432 20.326 21.9718 20.326 21.9996C20.326 22.1492 20.3396 22.2951 20.3636 22.4373L4.6479 26.1021C4.34332 24.7837 4.18163 23.4104 4.18163 21.9996ZM40.606 21.9996C40.606 22.1297 40.6037 22.259 40.6015 22.3884L25.5325 21.9304C25.5273 21.7454 25.5032 21.5649 25.4618 21.3904L39.9291 17.0759C40.3699 18.6424 40.606 20.2939 40.606 21.9996ZM39.8464 16.7886L25.3761 21.1046C25.3129 20.9324 25.2317 20.7692 25.1362 20.6166L37.5617 11.9303C38.5491 13.4118 39.3245 15.0461 39.8464 16.7886ZM22.3934 0.300467C10.429 0.300467 0.694336 10.0351 0.694336 21.9996C0.694336 33.9648 10.429 43.6995 22.3934 43.6995C34.3587 43.6995 44.0933 33.9648 44.0933 21.9996C44.0933 10.0351 34.3587 0.300467 22.3934 0.300467Z" fill="#5567EA"/>
</g>
</svg>
