<svg width="108" height="63" viewBox="0 0 108 63" fill="none" xmlns="http://www.w3.org/2000/svg">
<g id="g14">
<g id="g56">
<path id="path58" d="M41.8746 54.2817L26.7872 50.2424C26.5777 50.6632 25.8652 50.2424 25.7814 50.4528L25.6138 50.579L25.7814 50.7053C25.8233 50.7894 25.8652 50.8315 25.949 50.8736C30.14 52.3883 42.6289 55.3336 42.7546 55.3336L44.5567 55.7544L42.3356 54.4079L41.8746 54.2817Z" fill="white"/>
</g>
<g id="g60">
<path id="path62" d="M42.7546 47.0875L42.2936 46.1619L26.9967 46.9192L27.5415 46.8772L26.3262 47.8449L42.6708 47.0875H42.7546Z" fill="white"/>
</g>
<g id="g64">
<path id="path66" d="M51.8907 29.6265C51.8907 29.6265 51.9326 29.6265 51.9326 29.5844C52.4355 29.4161 53.3575 29.1636 53.2318 28.827C53.1061 28.4904 51.9326 28.827 51.6392 28.9112C51.3459 28.9953 50.2562 29.1216 50.0048 29.1636C50.7172 29.2478 51.7231 28.9953 51.7231 28.9953C51.7231 28.9953 51.0525 29.374 50.2562 29.4161C50.1305 29.4161 50.0048 29.4161 49.8371 29.4161C49.5019 29.4161 49.1247 29.374 48.7475 29.2899C48.7056 29.2899 48.6637 29.2899 48.5799 29.2899C48.2027 29.2057 47.8674 29.1636 47.7417 29.0795C47.4902 28.9533 46.652 28.6587 46.4425 28.6166H46.4006C46.4006 28.6166 46.4006 28.6166 46.4425 28.6166C46.6101 28.6587 47.4064 28.6587 48.1189 28.9112C48.9151 29.1636 49.7533 29.2057 51.1782 28.7429C51.1782 28.7429 51.2202 28.7429 51.2202 28.7008C51.9745 28.4904 52.6451 28.3642 53.0642 28.4063C53.0642 28.4063 53.0642 28.4063 53.1061 28.4063C53.4413 28.4483 53.6509 28.5746 53.609 28.9112C53.5252 29.2899 53.0222 29.4582 52.6032 29.5423C52.5193 29.5423 52.4774 29.5844 52.4355 29.5844C52.1422 29.6265 51.8907 29.6265 51.8907 29.6265ZM48.8313 30.4259C48.7475 30.4259 48.6637 30.4259 48.538 30.4259C48.4122 30.4259 48.2446 30.4259 48.1189 30.3838C48.0351 30.3838 47.9512 30.3418 47.8674 30.3418C47.8255 30.2997 47.7836 30.2997 47.6998 30.2576C47.6998 30.2576 47.4064 29.9631 47.9093 29.8368C48.4122 29.7106 49.6695 29.9631 49.921 29.9631C49.7533 30.0472 49.3761 30.3418 48.8313 30.4259ZM49.8791 28.8691C49.8371 28.8691 49.8371 28.8691 49.7952 28.8691C49.2923 28.9112 48.6218 28.8691 48.3284 28.7849C47.8674 28.7008 46.4844 28.4483 46.3168 28.4904C46.3168 28.4904 46.3587 28.4483 46.4425 28.4483C46.4425 28.4063 46.4844 28.4063 46.4844 28.4063C46.694 28.3642 47.0711 28.3221 47.6579 28.4904C48.5799 28.7429 49.9629 28.8691 50.2981 28.7849C50.2143 28.827 50.0886 28.8691 49.8791 28.8691ZM54.0281 27.9855C53.609 27.691 52.8127 27.8172 51.3459 28.1117C51.1782 28.1538 51.0106 28.1959 50.8849 28.238C49.46 28.4904 47.7417 28.0697 47.5321 27.9855C47.3645 27.9014 46.6101 27.7331 46.1072 27.9434C45.8139 28.0276 45.6881 28.1959 45.6043 28.3221C45.5205 28.5325 45.5205 28.7429 45.6462 28.9533C45.8139 29.2478 46.191 29.4582 46.6101 29.5844C46.4844 29.7527 46.4006 29.9631 46.4006 30.2155C46.4006 30.3838 46.4425 30.5942 46.694 30.7625C46.9454 30.9308 47.3226 31.057 47.6998 31.0991C47.8255 31.3936 48.035 31.8565 48.077 31.9827L48.2027 32.2352H48.4541C48.538 32.2772 48.6218 32.2772 48.7475 32.2772C48.9151 32.2772 49.0409 32.2772 49.0409 32.2772L49.5019 32.2352L49.46 31.9827H49.6695L49.4181 31.8144V31.7723C49.4181 31.7303 49.3761 31.3936 49.2504 31.015C49.2923 31.015 49.3342 31.015 49.3342 31.015H49.3761C49.8791 30.8467 50.6753 30.5521 51.1363 30.1734C52.0164 30.2155 53.4832 30.1734 53.9023 29.5423C54.1119 29.2478 54.6567 28.4904 54.0281 27.9855Z" fill="white"/>
</g>
<g id="g68">
<path id="path70" d="M40.1558 29.6265C40.1977 29.6265 40.1977 29.6265 40.1977 29.5844C40.7426 29.4161 41.6646 29.1636 41.4969 28.827C41.3712 28.4904 40.1977 28.827 39.9044 28.9112C39.611 28.9953 38.5633 29.1216 38.2699 29.1636C38.9824 29.2478 39.9882 28.9953 39.9882 28.9953C39.9882 28.9953 39.3177 29.374 38.5633 29.4161C38.4376 29.4161 38.2699 29.4161 38.1442 29.4161H38.1023C37.767 29.4161 37.3898 29.374 37.0126 29.2899C36.9707 29.2899 36.9288 29.2899 36.845 29.2899C36.4678 29.2057 36.1745 29.1636 36.0487 29.0795C35.7554 28.9533 34.9172 28.6587 34.7076 28.6166C34.8753 28.6587 35.7135 28.6587 36.384 28.9112C37.1803 29.1636 38.0185 29.2057 39.4434 28.7429C39.4853 28.7429 39.4853 28.7429 39.5272 28.7008C40.2397 28.4904 40.9102 28.3642 41.3293 28.4063H41.3712C41.7484 28.4483 41.916 28.5746 41.8741 28.9112C41.7903 29.2899 41.2874 29.4582 40.8683 29.5423C40.8264 29.5423 40.7426 29.5844 40.7007 29.5844C40.4073 29.6265 40.1977 29.6265 40.1558 29.6265ZM37.0965 30.4259C37.0126 30.4259 36.9288 30.4259 36.8031 30.4259C36.6774 30.4259 36.5516 30.4259 36.384 30.3838C36.3002 30.3838 36.2164 30.3418 36.1745 30.3418C36.0906 30.2997 36.0487 30.2997 35.9649 30.2576C35.9649 30.2576 35.6715 29.9631 36.1745 29.8368C36.6774 29.7106 37.9346 29.9631 38.1861 29.9631C38.0604 30.0472 37.6832 30.3418 37.0965 30.4259ZM38.1442 28.8691C38.1442 28.8691 38.1023 28.8691 38.0604 28.8691C37.5575 28.9112 36.8869 28.8691 36.5936 28.7849C36.1325 28.7008 34.7915 28.4483 34.5819 28.4904C34.5819 28.4904 34.6238 28.4483 34.7076 28.4483C34.7495 28.4063 34.7495 28.4063 34.7495 28.4063C34.9591 28.3642 35.3782 28.3221 35.923 28.4904C36.845 28.7429 38.228 28.8691 38.6052 28.7849C38.5214 28.827 38.3537 28.8691 38.1442 28.8691ZM42.2932 27.9855C41.916 27.691 41.0778 27.8172 39.611 28.1117C39.4434 28.1538 39.3177 28.1959 39.15 28.238C37.7251 28.4904 36.0068 28.0697 35.7973 27.9855C35.6296 27.9014 34.8753 27.7331 34.3724 27.9434C34.079 28.0276 33.9533 28.1959 33.8695 28.3221C33.7856 28.5325 33.7856 28.7429 33.9114 28.9533C34.079 29.2478 34.4562 29.4582 34.8753 29.5844C34.7495 29.7527 34.6657 29.9631 34.6657 30.2155C34.6657 30.3838 34.7076 30.5942 35.001 30.7625C35.2105 30.9308 35.5877 31.057 36.0068 31.0991C36.0906 31.3936 36.3002 31.8565 36.384 31.9827L36.4678 32.2352H36.7193C36.8031 32.2772 36.8869 32.2772 37.0126 32.2772C37.1803 32.2772 37.306 32.2772 37.306 32.2772L37.767 32.2352L37.7251 31.9827H37.9346L37.7251 31.8144L37.6832 31.7723C37.6832 31.7303 37.6413 31.3936 37.5156 31.015C37.5575 31.015 37.5994 31.015 37.6413 31.015C38.1442 30.8467 38.9405 30.5521 39.4015 30.1734C40.3235 30.2155 41.7484 30.1734 42.1675 29.5423C42.377 29.2478 42.9218 28.4904 42.2932 27.9855Z" fill="white"/>
</g>
<g id="g72">
<path id="path74" d="M66.0558 29.0798C66.0139 29.4585 65.511 29.6268 65.05 29.7109C65.008 29.7109 64.9661 29.753 64.8823 29.753C64.589 29.7951 64.3794 29.7951 64.3375 29.7951H64.3794C64.9242 29.5847 65.8462 29.3323 65.7205 29.0377C65.5948 28.7011 64.3794 28.9957 64.086 29.0798C63.7927 29.164 62.7449 29.2902 62.4935 29.3743C63.164 29.4164 64.2118 29.164 64.2118 29.164C64.2118 29.164 63.4993 29.5426 62.7449 29.5847C62.6192 29.5847 62.4516 29.5847 62.3259 29.5847C61.9487 29.5847 61.5715 29.5426 61.2362 29.4585C61.1524 29.4585 61.1105 29.4585 61.0686 29.4585C60.6495 29.3743 60.3561 29.3323 60.2304 29.2481C59.9789 29.1219 59.1408 28.8274 58.8893 28.7853C59.0569 28.8274 59.8951 28.8694 60.6076 29.0798C61.3619 29.3323 62.2001 29.3743 63.625 28.9115C63.6669 28.9115 63.6669 28.9115 63.7089 28.9115C64.4213 28.6591 65.0919 28.5328 65.511 28.5749C65.5529 28.5749 65.5529 28.5749 65.5529 28.5749C65.93 28.617 66.1396 28.7853 66.0558 29.0798ZM61.32 30.5945C61.1943 30.5945 61.1105 30.5945 61.0267 30.5945C60.859 30.5945 60.7333 30.5945 60.5657 30.5525C60.5238 30.5525 60.4399 30.5104 60.3561 30.5104C60.2723 30.5104 60.2304 30.4683 60.1885 30.4683C60.1885 30.4683 59.8532 30.1317 60.3561 30.0055C60.9009 29.8793 62.1163 30.1317 62.3678 30.1317C62.242 30.2579 61.8649 30.5104 61.32 30.5945ZM58.7636 28.6591C58.7636 28.6591 58.8055 28.617 58.9312 28.617C58.9312 28.617 58.9312 28.5749 58.9731 28.5749C59.1827 28.5328 59.5598 28.4908 60.1466 28.6591C61.0267 28.9115 62.4097 29.0377 62.7869 28.9536C62.703 28.9957 62.5354 29.0377 62.3678 29.0377C62.3259 29.0377 62.2839 29.0377 62.2839 29.0377C61.781 29.0798 61.1105 29.0377 60.7752 28.9536C60.3142 28.8694 58.9731 28.617 58.7636 28.6591ZM66.4749 28.1541C66.0977 27.8596 65.2595 28.0279 63.7927 28.3224C63.6669 28.3224 63.4993 28.3645 63.3317 28.4066C61.9068 28.6591 60.1885 28.2383 60.0208 28.1541C59.8113 28.07 59.0569 27.9438 58.554 28.1121C58.2607 28.1962 58.1349 28.3645 58.093 28.4908C57.9673 28.7011 58.0092 28.9536 58.093 29.1219C58.2607 29.4164 58.6798 29.6268 59.0988 29.753C58.9312 29.9213 58.8474 30.1317 58.8474 30.3842C58.8474 30.5525 58.9312 30.7628 59.1827 30.9311C59.4341 31.1415 59.8113 31.2257 60.1885 31.2678C60.3142 31.5623 60.5238 32.0251 60.5657 32.1513L60.6495 32.4038L60.9009 32.4459C60.9848 32.4459 61.1105 32.4459 61.1943 32.4459C61.3619 32.4459 61.5296 32.4459 61.5296 32.4459L61.9487 32.4038C61.9487 32.3617 61.9068 32.3617 61.9068 32.3196C61.9068 32.2776 61.9068 32.2355 61.9068 32.1934C61.8649 32.1934 61.8229 32.1934 61.781 32.1093C61.781 32.1513 61.7391 32.1934 61.6972 32.1934C61.5715 32.1093 61.4877 32.0251 61.4458 31.8989C61.4039 31.941 61.32 31.941 61.2781 31.8568C61.2781 31.8568 61.2362 31.8568 61.2362 31.8147C61.1943 31.8568 61.1105 31.8147 61.1105 31.7727C61.1524 31.6885 61.1524 31.6464 61.1943 31.5623L61.2362 31.5202C61.2781 31.5202 61.32 31.4781 61.3619 31.4781C61.4039 31.4361 61.4458 31.4781 61.4458 31.5623C61.4458 31.6044 61.4458 31.6044 61.4458 31.6044C61.4458 31.5623 61.4458 31.5623 61.4458 31.5202C61.4877 31.4781 61.5296 31.4781 61.5715 31.4781C61.6134 31.4781 61.6553 31.4781 61.6972 31.4781H61.7391C61.7391 31.4361 61.781 31.4361 61.781 31.4361C61.781 31.3519 61.7391 31.2678 61.7391 31.1836C61.7391 31.1836 61.781 31.1836 61.8229 31.1836C62.3259 31.0153 63.164 30.7628 63.5831 30.3421C64.5051 30.3842 65.972 30.3421 66.391 29.753C66.5587 29.4164 67.1035 28.6591 66.4749 28.1541Z" fill="white"/>
</g>
<g id="g76">
<path id="path78" d="M87.974 36.9478C85.7947 36.9478 84.1183 37.4947 83.0706 37.9996C83.0287 37.9996 83.0287 37.9996 82.9868 37.9996C82.9868 38.0838 83.0287 38.168 83.0287 38.21C83.0287 38.2521 83.0287 38.2942 83.0706 38.3363C83.0706 38.3783 83.0706 38.4204 83.1125 38.4625L83.1544 38.5046C83.1963 38.6308 83.1963 38.757 83.2382 38.8832C83.2801 38.9674 83.2801 39.0936 83.3221 39.2198C83.364 39.304 83.1963 39.3461 83.1544 39.2619C83.1544 39.2198 83.1544 39.1778 83.1544 39.1357C83.1544 39.2198 83.1544 39.2619 83.1544 39.3461C83.1544 39.3881 83.1125 39.4302 83.0706 39.4302V39.4723C83.0706 39.5565 82.9868 39.5985 82.9449 39.5144C82.9449 39.5565 82.9449 39.5565 82.9449 39.5985C82.9449 39.6406 82.8611 39.6827 82.8191 39.6406V39.7248C82.8191 39.7668 82.7772 39.7668 82.7353 39.7668C82.7353 39.8931 82.7353 39.9772 82.7353 40.0614C82.7353 40.1034 82.7353 40.1455 82.7772 40.1876C83.5316 39.6827 85.3756 38.757 88.0159 38.757C93.1288 38.757 98.8285 43.3853 98.8285 49.6126C98.8285 55.7556 94.0508 60.5943 87.8902 60.5943C82.1067 60.5943 77.3709 55.6294 77.3709 49.5705C77.3709 46.499 78.712 44.2269 79.8436 42.8384C80.7656 41.6602 81.7295 40.945 82.1067 40.6504C82.0648 40.4821 82.0229 40.3138 82.0229 40.1034C81.9391 40.1876 81.8552 40.3138 81.8552 40.3138C81.8971 40.3559 81.981 40.398 81.981 40.398C81.8552 41.1133 81.8552 40.6083 81.8552 40.3559V40.3138C81.8552 40.2297 81.8552 40.1876 81.8552 40.1876C81.8133 40.1876 81.7295 40.0193 81.7295 39.9772C81.6876 39.8931 81.6457 39.7668 81.6457 39.6827C81.52 39.4723 81.3104 39.2619 81.3104 39.0095C81.1428 39.1357 79.8017 40.0193 78.4606 41.6602C77.1614 43.3012 75.5688 45.952 75.5688 49.5705C75.5688 50.6224 75.7365 51.7164 75.9879 52.7262C76.4909 54.7458 77.4548 56.6813 78.8378 58.2381C80.2208 59.7949 81.9391 60.973 83.825 61.6883C85.1242 62.1511 86.4652 62.4036 87.8483 62.4036C88.6864 62.4036 89.5665 62.3195 90.3628 62.1511C93.8413 61.4779 96.8587 59.3741 98.7446 56.4288V56.3868C98.7446 56.3868 98.7866 56.3447 98.7866 56.3026L98.8285 56.2605C100.002 54.283 100.631 51.9688 100.631 49.6126C100.631 42.3755 93.967 36.9478 87.974 36.9478Z" fill="white"/>
</g>
<g id="g80">
<path id="path82" d="M80.9756 37.6601C81.0594 37.6601 81.1013 37.7443 81.1851 37.7863C81.269 37.8284 81.3109 37.8284 81.3528 37.7443C81.3947 37.618 81.5623 37.3235 81.6881 37.1131C81.73 37.0711 81.7719 37.029 81.7719 36.9869C81.8138 36.9448 81.8557 36.9028 81.8557 36.9028C81.8557 36.9028 81.8557 36.9448 81.8557 36.9869C81.8557 37.029 81.8138 37.0711 81.8138 37.1552C81.8138 37.576 81.8976 38.5437 82.6939 39.9743C82.4424 39.7639 82.0233 39.0907 82.0233 39.0907C82.1491 39.3852 82.2748 39.7639 82.3586 39.8901C82.1071 39.8481 81.8557 39.0907 81.8138 38.9224C81.8976 38.9645 81.9814 39.0065 81.9814 39.0065C81.9814 39.0065 81.5623 37.9126 81.6042 37.7443C81.4366 38.123 81.4366 38.2913 81.3528 38.165C81.3109 38.165 81.269 38.123 81.269 38.0809C81.1852 38.0388 81.1432 37.9546 81.0594 37.8705C81.0175 37.7863 80.9756 37.7443 80.9756 37.6601ZM80.7241 36.9448L80.808 36.7765L80.8499 36.6924L79.5507 33.2842L78.9639 31.7695L78.922 31.6433V31.6012C78.9639 31.5591 79.0059 31.5171 79.0059 31.5171C79.0478 31.475 79.0897 31.475 79.0897 31.475L79.886 33.6208L81.0594 36.6082L81.1432 36.6503H81.269L81.3528 36.6924H81.3109L81.1851 36.7765L80.8499 36.9448L80.7241 36.9869L80.6403 37.029L80.7241 36.9448ZM82.1071 37.1973H82.2748H82.4843H82.5262L82.652 37.6601L83.0711 38.9224C83.0711 38.9224 82.6939 37.8705 82.4843 37.5339C82.4843 37.618 82.8615 38.6279 82.9453 39.1328C82.9453 39.1748 82.9453 39.2169 82.9453 39.2169C82.8196 38.7541 82.3167 37.618 82.1491 37.3235C82.1071 37.2394 82.1071 37.1973 82.1071 37.1973ZM78.3772 30.7176C78.3353 30.6755 78.3353 30.6755 78.2934 30.6335C78.3353 30.6755 78.3353 30.6755 78.3353 30.7176C78.3353 30.8018 78.3353 30.8438 78.3772 30.928C78.3772 30.9701 78.3772 31.0542 78.3353 31.0963C78.3353 31.0963 78.3353 31.1384 78.2934 31.1384V31.0963C78.2934 31.0542 78.2515 31.0121 78.2515 30.9701C78.2096 30.928 78.1677 30.8859 78.1677 30.8438C78.1258 30.8018 78.0839 30.8018 78.042 30.7597C78 30.7176 77.9581 30.7176 77.9581 30.7176L78.1677 30.5072H78.2096L78.461 30.4231C78.461 30.4231 78.5029 30.4231 78.5449 30.4652C78.5868 30.5072 78.6287 30.5493 78.7125 30.6335C78.7544 30.6755 78.7544 30.7176 78.7544 30.7597C78.7544 30.8438 78.7544 30.8859 78.7544 30.928C78.7125 30.9701 78.7125 31.0121 78.6706 31.0542C78.6287 31.0542 78.6287 31.0963 78.5868 31.0963C78.5449 31.0963 78.5029 30.8859 78.3772 30.7176ZM78.1677 32.1061C78.2515 32.1061 78.2934 32.1061 78.3353 32.1061H78.3772V32.1482V32.2323V32.2744V32.4006C78.3772 32.4006 78.3353 32.4006 78.2934 32.4006C78.2515 32.4006 78.2096 32.4006 78.1258 32.4006C78.042 32.4006 77.9162 32.4006 77.7486 32.4006C76.9104 32.3586 75.2759 32.3165 73.3062 32.2744C68.0256 32.1061 63.3318 31.8537 62.6613 31.8537C61.6135 31.8116 61.2783 31.8116 61.2363 31.7274C61.2363 31.6854 61.1944 31.6433 61.1525 31.6433C61.1106 31.6012 61.0268 31.6012 61.0268 31.6012C61.5716 31.6012 62.6613 31.6433 64.0862 31.6854C66.8941 31.7274 68.0256 31.8537 71.4622 31.9378C73.7253 31.9799 75.695 32.064 76.9523 32.064C77.4133 32.1061 77.7905 32.1061 78 32.1061C78.0839 32.1061 78.1258 32.1061 78.1677 32.1061ZM74.312 27.7302L74.2282 27.6461C74.8568 27.3515 75.3179 27.3515 75.6531 27.4357C75.695 27.4357 75.7369 27.4357 75.7789 27.4778C75.8208 27.4778 75.8627 27.4778 75.8627 27.5199C75.9046 27.5199 75.9046 27.5199 75.9046 27.5199C75.9465 27.5199 75.9884 27.5619 75.9884 27.5619L76.0303 27.604C76.0722 27.604 76.0722 27.6461 76.1141 27.6882C76.156 27.6882 76.156 27.7302 76.1979 27.7302C76.156 27.7302 76.1141 27.7302 76.1141 27.6882H76.0722C76.0303 27.6882 75.9884 27.6882 75.9884 27.6882C75.9465 27.6461 75.9046 27.6461 75.8208 27.6461C75.7789 27.604 75.7369 27.604 75.695 27.604C75.6531 27.604 75.6112 27.5619 75.5693 27.5619C74.7311 27.4357 74.312 27.7723 74.312 27.7723V27.7302ZM72.6776 28.8663C73.1386 28.6559 73.8929 28.2772 74.0606 28.0668C74.0606 28.3614 73.3481 28.7821 72.3423 29.0346C72.3423 29.0346 72.5099 28.9504 72.6776 28.8663ZM75.3179 25.6685C75.2759 25.6685 75.234 25.6685 75.1921 25.7106C75.1502 25.7106 75.1502 25.7106 75.1502 25.7106C75.1083 25.7106 75.0664 25.7527 75.0245 25.7527C74.8988 25.7947 74.7311 25.8789 74.6054 25.921C74.1444 26.1314 73.6834 26.3417 73.3481 26.51C73.1805 26.5942 73.0548 26.6363 73.0128 26.6783L72.929 26.5942C72.929 26.5942 73.8929 25.7947 74.9407 25.6685C75.0245 25.6685 75.0664 25.6685 75.1502 25.6685C75.1921 25.6685 75.234 25.6685 75.3179 25.6685ZM77.9581 28.6559C77.9162 28.4455 78.0839 28.2772 78.0839 28.2772H78.042L78 28.151C78 28.151 78 28.1089 78.042 28.0668C78.0839 28.0248 78.1258 27.9406 78.1677 27.8985C78.2515 27.7723 78.2934 27.604 78.3353 27.4778C78.461 27.6882 78.2515 28.151 78.2096 28.151C78.2515 28.151 78.2934 28.2351 78.2515 28.2772C78.2515 28.3193 78.2515 28.3614 78.2515 28.4034C78.2096 28.5297 78.1258 28.6559 78 28.7821C77.9581 28.74 77.9581 28.698 77.9581 28.6559ZM76.0303 26.3838C76.1979 26.3417 76.4494 26.2997 76.9523 26.2997C77.4133 26.2997 77.581 26.6783 77.6229 26.8466L77.6648 26.9729L77.7067 27.2674C77.7067 27.4357 77.7067 27.604 77.6229 27.6882C77.581 27.604 77.4552 27.5619 77.3714 27.4778V27.4357L76.8266 27.1412L76.7428 27.0991C76.7428 27.0991 76.7008 27.057 76.6589 27.057C76.3237 26.8887 75.9884 26.8046 75.6531 26.7625C75.8627 26.6363 75.9884 26.468 76.0303 26.3838ZM73.2224 26.7204C73.5577 26.5521 74.6892 26.0472 75.1083 25.8789C75.1502 25.8789 75.1502 25.8368 75.1921 25.8368C75.1921 25.8368 75.234 25.8368 75.2759 25.8368C75.2759 25.7948 75.3179 25.7947 75.3179 25.7947C75.3179 25.7947 75.3598 25.7948 75.3598 25.8368C75.4017 25.8368 75.4017 25.8789 75.4017 25.8789C75.4017 25.921 75.3598 25.921 75.3598 25.963C75.3178 25.963 75.3179 25.963 75.2759 26.0051C75.2759 26.0051 75.2759 26.0051 75.234 26.0051C74.9407 26.1314 73.6834 26.7625 73.3062 26.9308L73.2224 26.9729L73.0967 26.7625C73.0967 26.7625 73.1386 26.7625 73.2224 26.7204ZM74.9826 26.468C75.1502 26.3838 75.234 26.2997 75.3179 26.1734C75.3598 26.1314 75.4017 26.0893 75.4017 26.0893C75.4436 26.0472 75.4436 26.0051 75.4436 26.0051C75.4855 26.0472 75.5274 26.1314 75.5274 26.1734C75.5274 26.1734 75.5274 26.2155 75.4855 26.2155C75.4855 26.2576 75.4436 26.2997 75.4017 26.2997C75.3598 26.3417 75.3179 26.3838 75.2759 26.3838C75.1921 26.4259 75.1083 26.4259 74.9826 26.468ZM78.5868 26.5942C78.5868 26.6363 78.6287 26.6783 78.6287 26.7204C78.6287 26.7625 78.6287 26.8046 78.6287 26.8466C78.6287 26.8046 78.5868 26.7625 78.5449 26.7204C78.5449 26.7204 78.5449 26.7204 78.5449 26.6783C78.5449 26.6783 78.5029 26.6363 78.5029 26.5942C78.461 26.5521 78.4191 26.51 78.4191 26.4259C78.1677 26.0472 77.7067 25.5844 77.0361 25.5844C76.5332 25.5844 76.1979 25.6264 76.0303 25.6264C75.9884 25.6264 75.9046 25.6264 75.9046 25.6264C75.8627 25.6264 75.8208 25.6264 75.8208 25.6264C75.7789 25.6685 75.7789 25.6685 75.7789 25.6685L75.7369 25.5423C75.7369 25.5423 75.7789 25.5002 75.8208 25.5002C75.8627 25.5002 75.9046 25.4581 75.9884 25.4581C76.2399 25.374 76.7008 25.2898 77.078 25.3319C77.581 25.374 78.2934 25.6264 78.5449 26.4259C78.5868 26.468 78.5868 26.51 78.5868 26.5942ZM78.461 30.2548C78.4191 30.2969 78.3772 30.2969 78.3353 30.2969C78.2515 30.3389 78.2096 30.2548 78.2096 30.2548L77.4971 28.6559V28.6138L77.4552 28.5297L77.539 28.4876L77.6229 28.4034V28.4876L77.6648 28.5297L77.7486 28.74L77.8324 28.8663L78.461 30.2548ZM71.8813 28.5297C71.9651 28.4876 73.39 27.7723 73.9768 27.7723C73.9348 27.7723 73.8929 27.7723 73.851 27.8144C73.6834 27.8985 73.4319 28.0248 73.0967 28.1931C72.7614 28.3614 72.4261 28.5297 72.1747 28.6138C72.1328 28.6559 72.0908 28.698 72.0489 28.698L72.007 28.74C71.9651 28.6559 71.8813 28.5297 71.8813 28.5297ZM88.4354 49.9042C88.4773 49.7779 88.4773 49.6517 88.4773 49.5676C88.4354 49.4413 88.184 49.1889 87.8906 49.1468C87.8487 49.1468 87.8068 49.1468 87.723 49.1468C87.6811 49.1468 87.9325 49.0206 88.1002 49.0206C88.3516 49.0206 88.6031 49.1468 88.645 49.4834C88.7288 49.8621 88.4773 50.0725 88.3516 50.0725C88.3935 50.0304 88.4354 49.9463 88.4354 49.9042ZM87.7649 49.5255C87.7649 49.4834 87.7649 49.4834 87.7649 49.4834C87.7649 49.4413 87.8068 49.4413 87.8487 49.3993C87.9325 49.3572 88.0163 49.3151 88.1002 49.3572C88.1002 49.3572 88.1002 49.3572 88.1421 49.3993L88.184 49.4413C88.2259 49.5255 88.2678 49.6096 88.2259 49.6938C88.2259 49.7359 88.184 49.82 88.1421 49.82C88.1002 49.8621 88.0583 49.9042 88.0583 49.9042C88.0583 49.9042 88.1002 49.8621 88.1002 49.82C88.1002 49.82 88.1002 49.7779 88.1002 49.6938C88.1002 49.6938 88.1002 49.6517 88.0583 49.6517C88.0583 49.6096 88.0583 49.6096 88.0583 49.5676C87.9325 49.4413 87.723 49.5676 87.723 49.5676C87.723 49.5255 87.723 49.5255 87.7649 49.5255ZM82.9034 40.942V40.7737C82.9034 40.7737 85.1665 46.0753 85.5018 46.6223C85.2923 46.3698 84.957 45.6124 84.5379 44.813C83.7835 43.172 82.9034 41.1524 82.9034 41.1524V40.942ZM78.922 31.2646L78.8382 31.3488H78.6287H78.5449H78.5868L78.8801 31.1804L79.0059 31.0963L78.922 31.2646ZM82.191 40.353C82.4424 40.2688 82.7777 40.1847 82.7777 40.1847V40.353L82.652 40.395L82.2329 40.4792H82.191L82.1071 40.4371L81.9814 40.395C82.0233 40.395 82.0233 40.395 82.0652 40.395C82.1071 40.353 82.1491 40.353 82.191 40.353ZM89.0222 48.8944C88.8545 48.726 88.6031 48.4736 88.1421 48.4315C87.9744 48.4315 87.8487 48.4315 87.723 48.4736C87.2201 47.9687 86.2981 46.8747 86.0047 46.3277C85.7952 45.9911 84.8731 43.8453 83.5321 40.6475C83.6159 40.6054 83.6578 40.5213 83.6997 40.4371C83.9512 40.3109 84.035 40.1847 84.0769 40.0584C84.1607 39.8901 84.1188 39.6798 83.9931 39.5115C83.9512 39.3852 83.574 38.4596 83.4063 37.9967C82.9872 36.9448 82.9872 36.9448 82.9453 36.8607C82.8615 36.8186 82.8196 36.7765 82.7777 36.7344C82.7777 36.4399 82.5681 36.3558 82.4424 36.3137C82.2329 36.2295 82.0233 36.2295 81.8976 36.2716C81.73 35.9771 81.4785 35.3039 81.2271 34.6307C79.844 31.2646 79.5926 30.7176 79.5088 30.5914C79.425 30.5072 79.2992 30.4231 79.2154 30.381C79.1735 30.2127 79.0897 29.9182 78.8382 29.7919C78.8382 29.7919 78.8382 29.7919 78.7963 29.7919C78.7544 29.6236 78.5868 29.3291 78.5029 29.1187C78.7125 28.9504 78.9639 28.698 79.0478 28.4876C79.0897 28.3614 79.0478 28.1931 78.9639 28.1089C78.9639 28.0668 78.9639 28.0668 78.922 28.0248C79.0897 27.6882 79.2992 27.1833 79.2573 26.7625C79.2154 26.2997 79.0059 25.4581 78.0839 24.9532C76.9942 24.3221 75.5274 24.8691 75.1921 25.0374C74.0187 24.9532 72.468 26.0893 72.3842 26.1314L72.1328 26.2997L72.2585 26.5942C72.3423 26.9308 72.5518 27.2674 72.6776 27.4778C72.3842 27.5619 72.1328 27.7302 71.8813 27.8565C71.7975 27.8565 71.7975 27.8985 71.7556 27.8985C71.4203 28.0668 71.2946 28.4034 71.3365 28.6559V28.698V28.7821C71.6718 29.5816 71.7556 29.7078 71.9651 29.7919C72.007 29.7919 72.0489 29.7919 72.1328 29.7919C72.2585 29.7919 72.3423 29.7499 72.5937 29.6657C72.7614 29.5816 73.0128 29.4974 73.39 29.3291C74.2701 28.9925 74.5635 28.6138 74.6892 28.3193C74.8149 28.2772 75.0245 28.1931 75.2759 28.1931C75.5274 28.1931 75.6531 28.2351 75.695 28.2772L75.9884 28.4876L76.0303 28.4455C76.3656 28.6138 76.617 28.7821 76.7428 28.8663L77.4133 30.4231C77.2038 30.7176 77.1619 31.0121 77.2876 31.3067C77.3295 31.3908 77.3714 31.475 77.4133 31.5591C74.8149 31.3908 69.241 31.1384 67.9418 31.0542C66.2235 31.0121 60.9011 30.928 60.8173 30.928C60.4401 30.928 60.1467 31.0542 59.9791 31.2225C59.8114 31.3908 59.7695 31.5591 59.7695 31.7695C59.7695 32.2323 60.1467 32.5689 60.4401 32.611C60.482 32.611 60.6077 32.6531 61.5297 32.5269C61.7812 32.4848 64.17 32.6531 65.5949 32.7373H65.6368C66.7265 32.7793 67.6485 32.8214 67.858 32.8214C68.3609 32.8214 75.9884 33.2001 78.5029 33.2842C78.8801 34.2941 79.425 35.5984 79.8021 36.5661L79.9279 36.482L80.0117 36.3558L80.1374 36.2295L80.2212 36.1033L80.2631 36.0612L80.3889 36.3558H80.347L80.2212 36.4399L80.0955 36.5241L79.9698 36.6082L79.844 36.6924C80.1374 37.3656 80.347 37.9126 80.3889 37.9546C80.4308 38.0388 80.4308 38.165 80.4308 38.2492C80.4727 38.4175 80.5146 38.6279 80.5984 38.8382C80.7241 39.0907 82.8615 43.8453 83.4063 44.9813C83.4482 44.9813 84.8312 47.8004 86.4238 49.231C83.9092 49.8621 76.9942 51.5451 75.5693 51.8817L75.3598 51.9238L75.234 52.0921C75.1502 52.2183 75.0245 52.5129 75.0664 52.7653C75.1083 52.9336 75.1921 53.0178 75.3179 53.1019C75.3598 53.1019 75.4436 53.144 75.5274 53.144C75.7369 53.144 76.3237 53.0598 81.6461 51.7134C84.0769 51.1244 86.4657 50.4932 87.262 50.2828C87.3877 50.4932 87.6392 50.6195 88.0163 50.6615C88.645 50.7457 89.1479 50.367 89.2736 49.6938C89.3155 49.4413 89.1898 49.1468 89.0222 48.8944Z" fill="white"/>
</g>
<g id="g84">
<path id="path86" d="M68.2771 45.9944C68.0676 46.0785 71.127 35.3071 71.127 35.3071L71.3365 34.676C71.3365 34.676 68.6962 45.7419 68.2771 45.9944ZM70.7498 32.2356L66.475 49.697C66.475 49.697 66.3074 50.244 66.7684 50.5806C67.6066 51.1276 67.9838 50.4544 67.9838 50.4544L72.3423 32.6564C72.1328 32.2777 70.7498 32.2356 70.7498 32.2356Z" fill="white"/>
</g>
<g id="g88">
<path id="path90" d="M37.893 32.528L37.8092 32.2335C37.8092 32.2335 50.0048 44.0568 50.0048 44.5617C50.0048 44.7721 37.893 32.528 37.893 32.528ZM56.5426 49.8212L37.7254 31.6865C37.3063 31.7286 36.6357 32.9488 36.6357 32.9488L54.6986 50.4102C54.6986 50.4102 55.453 51.0414 55.9978 51.0414C57.1294 51.0414 56.5426 49.8212 56.5426 49.8212Z" fill="white"/>
</g>
<g id="g92">
<path id="path94" d="M58.0936 40.1012L58.5546 40.6061C59.267 37.9553 60.0214 35.3046 60.0214 35.3046L60.2309 34.6734C60.2309 34.6734 59.4766 37.8291 58.7222 40.8165L59.0575 41.2373L61.1949 32.4434C60.9434 32.0647 59.8538 31.4336 59.8538 31.4336L57.7583 39.8908C57.884 39.9329 58.0098 39.975 58.0936 40.1012Z" fill="white"/>
</g>
<g id="g96">
<path id="path98" d="M58.4282 42.4995L58.3024 42.3312C57.7995 44.3088 57.2966 45.8656 57.1709 45.9918C57.0871 46.0339 57.5481 44.2246 58.1348 42.1208L57.4223 41.2793L55.3688 49.6945C55.3688 49.6945 54.9497 50.4518 55.4526 50.7463C56.2908 51.2933 56.8356 50.4518 56.8356 50.4518L58.7215 42.6678C58.5958 42.6678 58.512 42.5836 58.4282 42.4995Z" fill="white"/>
</g>
<g id="g100">
<path id="path102" d="M46.694 42.584C46.1911 44.4354 45.772 45.908 45.6043 45.9922C45.5205 46.0343 45.9396 44.3512 46.5263 42.3316C46.4425 42.2474 46.3587 42.1212 46.2749 42.0371C46.1492 41.8688 46.0234 41.6163 45.8139 41.448L43.8022 49.6949C43.8022 49.6949 44.1794 49.3582 44.6823 49.6528C45.5205 50.2418 45.311 50.4522 45.311 50.4522L47.2807 42.542C47.155 42.3316 46.8197 42.7944 46.694 42.584Z" fill="white"/>
</g>
<g id="g104">
<path id="path106" d="M80.7244 37.7474L80.5568 37.5791L80.3473 37.7053C80.3473 37.7053 78.7547 38.5889 77.1622 40.4823C76.9526 40.7348 76.7431 40.9872 76.5754 41.2397C75.2762 42.8807 74.2285 44.7741 74.019 48.056C73.9771 48.5188 73.9771 48.9816 73.9771 49.4445C73.9771 51.7166 74.3961 53.2734 74.7733 54.199C75.1505 55.2509 75.5696 55.7558 75.6115 55.7558L75.6534 55.7979C75.6953 55.7979 75.8211 55.9241 76.0306 55.9241C76.1563 55.9241 76.2821 55.8821 76.4078 55.7979L76.4497 55.7558C76.785 55.5034 76.7431 55.293 76.5335 54.8302V54.7881C75.4858 52.5581 75.2762 50.5805 75.2762 49.3603C75.2762 46.3309 76.7431 41.8288 80.934 38.8835L81.0597 38.7993V38.631C81.0597 38.1682 80.7244 37.7895 80.7244 37.7474Z" fill="white"/>
</g>
<g id="g108">
<path id="path110" d="M72.3425 44.4364C72.0072 44.8151 68.6964 48.7703 68.403 49.1069C68.4449 49.0227 68.5287 48.8965 68.6544 48.7703C69.7441 47.508 71.9234 44.5627 73.013 43.5108C73.2226 43.3004 73.3483 43.2162 73.3483 43.2162L79.006 37.5781C79.006 37.5781 72.7196 44.0998 72.3425 44.4364ZM79.9699 35.1377L67.7324 48.5599L66.8104 48.4336L67.3553 49.6959C67.4391 49.7801 65.6789 49.5697 65.8884 49.8221C67.3972 51.5473 68.403 50.4112 68.403 50.4112L80.85 37.1994L80.9758 37.0732L80.6824 37.1573L79.9699 35.1377Z" fill="white"/>
</g>
<g id="g112">
<path id="path114" d="M33.1572 38.2517C32.9476 38.5883 32.7381 38.8828 32.4866 39.1353C32.3609 39.3036 32.2771 39.4719 32.1514 39.5981C35.1688 41.5757 37.1805 45.068 37.1805 49.0231C37.1805 49.2335 37.1805 49.4859 37.1386 49.6963C37.6834 49.6963 38.2282 49.7384 38.773 49.8646C38.8149 49.8646 38.8149 49.9067 38.8149 49.9488C38.8568 49.9067 38.9407 49.9067 38.9407 49.9488C38.9826 49.9488 38.9826 49.9909 38.9826 49.9909C38.9826 49.9909 38.9826 49.9909 38.9826 50.0329H39.0245C39.0245 49.6963 39.0664 49.3597 39.0664 49.0231C39.0664 44.521 36.6776 40.5238 33.1572 38.2517Z" fill="white"/>
</g>
<g id="g116">
<path id="path118" d="M38.8568 50.3265C38.8149 50.3686 38.773 50.3686 38.7311 50.3265C38.2701 50.4527 37.8091 50.3686 37.3481 50.2424C37.3481 50.2424 37.3481 50.2424 37.3062 50.2424C37.3062 50.2424 37.3062 50.2844 37.2642 50.2844H37.0966C36.5099 55.8384 31.8999 60.2143 26.3259 60.2143C20.9196 60.2143 16.4354 56.0488 15.6391 50.7052C15.5972 50.6631 15.5972 50.621 15.6391 50.621C15.5553 50.074 15.5134 49.5691 15.5134 49.0222C15.5134 42.8791 20.3748 37.8721 26.3259 37.8721C28.2538 37.8721 30.0559 38.377 31.6065 39.3026C31.816 39.0081 32.0675 38.7136 32.319 38.5032C32.4447 38.3349 32.5704 38.1666 32.738 38.0404C30.8521 36.9043 28.6729 36.2732 26.3259 36.2732C19.3271 36.2732 13.6274 41.9955 13.6274 49.0222C13.6274 56.0909 19.3271 61.8132 26.3259 61.8132C32.9476 61.8132 38.3539 56.722 38.9825 50.2844C38.9825 50.3265 38.9825 50.3265 38.9825 50.3265C38.9406 50.3265 38.8987 50.3265 38.8568 50.3265Z" fill="white"/>
</g>
<g id="g120">
<path id="path122" d="M39.8628 44.31C39.5694 43.3423 39.1922 42.4166 38.7312 41.533C38.2702 40.6494 37.6835 39.8079 37.0129 39.0505C35.7976 37.62 34.2469 36.526 32.5286 35.7686C30.6427 34.9271 28.5054 34.5063 26.2423 34.5063C23.9792 34.5063 21.8837 34.9692 19.9978 35.8528C18.489 36.5681 17.148 37.5779 15.9326 38.7981C13.879 40.9439 12.9989 43.0898 12.9989 43.1319L12.957 43.2581L13.0408 43.3843C13.1247 43.5106 13.2504 43.5526 13.3761 43.5947C13.4599 43.6368 13.5857 43.6789 13.6695 43.763C13.8371 43.8892 14.0048 43.8892 14.0886 43.8892C14.3819 43.8051 14.5496 43.5526 14.7172 43.216C14.7591 43.174 14.801 43.0898 14.8429 43.0057C15.0944 42.5428 15.8488 41.1964 16.3098 40.6494C17.2318 41.4489 21.5065 45.4461 25.3622 49.0646L25.6136 49.317L26.1165 48.6438L16.9384 39.9762C17.2737 39.6396 18.07 38.8402 19.2015 38.0407C20.6683 37.073 23.0152 35.8948 26.0327 35.8948C32.4448 35.8948 39.3179 40.3549 39.3179 50.2006V50.4951L40.2818 50.5793L40.3238 50.2848C40.5752 48.3072 40.4076 46.2455 39.8628 44.31Z" fill="white"/>
</g>
<g id="g124">
<path id="path126" d="M25.7816 50.2011C25.6978 50.1169 25.5721 50.0749 25.4882 49.9907C25.9912 50.0749 26.2845 50.2432 26.4941 50.1169C26.5779 50.0328 26.6198 49.9486 26.6617 49.8224C26.6617 49.6962 26.6198 49.612 26.6198 49.612L27.0389 49.57V49.6962V49.7383L27.0808 49.9066H26.9551L26.997 50.0328L27.0389 50.1169C27.0389 50.1169 26.9132 50.2011 26.7036 50.2852C26.7036 50.2852 26.6617 50.3273 26.6198 50.3273C26.4102 50.3694 26.1169 50.3694 25.8654 50.2432C25.8235 50.2432 25.7816 50.2011 25.7816 50.2011ZM27.919 49.023C28.0028 49.065 28.0866 49.065 28.2123 49.065C30.5593 49.3175 35.5465 49.9066 38.3963 50.0749C41.0785 50.2432 41.8328 50.3273 42.0005 50.3273C42.0424 50.3694 42.0843 50.3694 42.0843 50.3694C42.0843 50.3694 41.1204 50.4956 40.0727 50.3694C39.0668 50.2011 32.4033 49.8224 30.8945 49.6541C30.0983 49.612 29.0086 49.4858 28.1704 49.3596C28.0866 49.3596 28.0028 49.3596 27.919 49.3175H27.8771C27.7933 49.3175 27.7094 49.3175 27.6256 49.3175C27.1227 49.2333 26.8293 49.1913 26.8293 49.1913C26.8293 49.1913 26.7036 49.4437 26.2845 49.4437C25.8654 49.4437 26.1169 48.8967 26.1169 48.8967C26.1169 48.8967 26.075 49.1913 26.3264 49.2754C26.2845 49.065 26.2845 48.8126 26.4522 48.7705C26.5779 48.7284 26.8293 48.8126 26.9132 48.9388H26.9551C27.0808 48.9388 27.2903 48.9809 27.6256 49.023C27.7094 49.023 27.8352 49.023 27.919 49.023ZM27.6256 48.5601C27.6675 48.6443 27.6675 48.7284 27.7094 48.8126C27.7094 48.8547 27.7094 48.8547 27.7094 48.8547C27.7094 48.8547 27.7094 48.8967 27.7094 48.9388C27.7094 48.9388 27.6675 48.9388 27.6256 48.9388C27.2903 48.8967 27.0808 48.8967 27.0808 48.8967L27.0389 48.6864L27.1227 48.6443H27.1646L27.3742 48.476L27.4161 48.4339H27.3742L27.0389 48.476H26.9551L26.8293 48.3498C26.8293 48.3498 26.8712 48.3498 26.9132 48.3077C26.997 48.2656 27.0808 48.2235 27.1227 48.1394C27.1646 48.1394 27.1646 48.1394 27.1646 48.1394C27.1646 48.1394 27.2065 48.0973 27.2484 48.0973C27.2903 48.0552 27.2903 48.0552 27.3322 48.0552C27.3742 48.0973 27.4999 48.3077 27.6256 48.5181V48.5601ZM43.1739 49.8645C43.132 49.8645 37.6838 49.4858 36.2589 49.4016C35.1693 49.4016 30.224 48.8126 28.1704 48.6022C27.9609 47.7607 27.2065 47.1716 26.3264 47.1716C25.3206 47.1716 24.4824 48.0131 24.4824 49.023C24.4824 50.0749 25.3206 50.9164 26.3264 50.9164C27.0389 50.9164 27.6256 50.5377 27.9609 49.9907C30.8945 50.2852 41.2461 51.2951 42.8806 51.2951C42.9225 51.2951 42.9644 51.2951 43.0063 51.2951L43.2158 51.253L43.1739 49.9066V49.8645Z" fill="white"/>
</g>
<g id="g128">
<path id="path130" d="M37.139 32.2356H37.0552C37.0552 32.2777 37.139 32.3618 37.2647 32.5722L37.139 32.2356Z" fill="white"/>
</g>
<g id="g132">
<path id="path134" d="M42.9224 46.9619C43.4253 48.3925 43.7605 49.3602 43.7605 49.3602C43.7605 49.3602 43.5929 49.1078 43.1319 48.2663L43.6767 49.6127L43.9282 49.5285L42.9224 46.9619Z" fill="white"/>
</g>
<g id="g140">
<path id="path142" d="M39.9465 40.9455C39.4435 39.5149 39.0245 38.4209 39.0245 38.4209C39.0245 38.4209 39.0664 38.463 39.1083 38.5892C39.3597 39.1362 40.0722 40.8192 40.7846 42.5023C41.1618 43.5121 41.5809 44.4798 41.8743 45.2793C42.1676 45.9946 42.4191 46.7099 42.6287 47.341L43.5926 49.9076L43.3411 49.9497L42.8382 48.6453C42.7963 48.6033 42.7963 48.5612 42.7544 48.5191C42.5867 48.1825 42 46.6678 41.3714 44.9006C40.8685 43.5962 40.3656 42.1657 39.9465 40.9455ZM38.5215 36.6958C38.5215 36.78 38.4377 36.7379 38.3958 36.6537C38.312 36.6117 38.2282 36.5275 38.2282 36.5275L36.7194 32.6145H36.8033L36.929 32.909C37.0547 33.1194 37.2643 33.4981 37.5157 34.0871C37.6834 34.3816 37.851 34.7603 38.0605 35.2232C38.4796 36.1909 38.5635 36.6117 38.5215 36.6958ZM37.39 31.7729L36.4261 32.1096L35.8394 32.8248L42.922 50.7491L43.9278 49.2765L37.39 31.7729Z" fill="white"/>
</g>
<g id="g144">
<path id="path146" d="M46.8617 48.0108L46.1911 47.3376V47.2535C47.2389 47.9267 47.9932 48.8523 48.119 50.2829C47.9932 49.3152 46.8617 48.0108 46.8617 48.0108ZM45.8978 53.9014C46.0654 53.3124 45.7301 52.513 45.7301 52.513C45.7301 52.513 45.8978 52.3026 46.1073 52.0501C46.8617 52.1763 47.4903 51.7977 47.6161 51.7556C46.9874 53.6069 46.1492 53.9014 45.8978 53.9014ZM45.353 52.1343C45.1853 51.966 44.9758 51.8397 44.8081 51.7556C44.9339 51.6294 45.1015 51.4611 45.1853 51.2928C45.1853 51.2928 45.1853 51.2928 45.1853 51.3348C45.3111 51.5031 45.4787 51.6714 45.6882 51.7977C45.5625 51.8818 45.4368 52.008 45.353 52.1343ZM43.928 51.3769C43.5509 51.3769 43.2575 51.0403 43.2575 50.6616C43.2575 50.2829 43.5509 49.9463 43.928 49.9463C44.3052 49.9463 44.6405 50.2829 44.6405 50.6616C44.6405 51.0403 44.3052 51.3769 43.928 51.3769ZM42.5869 50.3671L42.3774 50.4933C42.1679 50.5775 41.623 50.7878 41.3716 50.6616C41.3297 50.6195 41.2459 50.5775 41.2039 50.4092C41.0782 49.736 41.1201 49.231 41.3297 48.8944C41.5811 48.5578 42.0002 48.3474 42.6289 48.2633L43.0899 48.2212L42.8384 47.4639H43.2156C43.4251 47.4639 43.6347 47.5059 43.8023 47.5059C43.7604 47.6322 43.7604 47.7163 43.7604 47.8005L43.006 47.4639L43.048 47.548H43.006L43.2575 47.9267L43.4671 48.2633C43.509 48.3474 43.6766 48.5999 43.928 48.7682L44.2214 48.8944L44.5567 49.189L44.6824 48.9365C44.7662 48.7682 45.3949 48.3474 45.7721 48.1371L45.0596 49.778C45.0596 49.778 45.0177 49.778 45.0177 49.8201C44.7662 49.4835 44.389 49.2731 43.928 49.2731C43.2575 49.2731 42.7127 49.736 42.5869 50.3671ZM42.084 51.9239C42.084 51.8397 42.084 51.7977 42.084 51.7556C42.2936 51.6294 42.5031 51.4611 42.7127 51.2507C42.7546 51.3769 42.7965 51.4611 42.8384 51.5452C42.5869 51.5873 42.2936 51.6714 42.084 51.9239ZM42.7965 54.9113C42.4612 54.8271 42.1259 54.6588 41.8326 54.4905V54.4484C41.9164 54.5326 42.084 54.6167 42.2936 54.7009C42.4193 54.785 42.6289 54.8271 42.7965 54.9113ZM41.0782 52.2605C40.9944 52.0922 40.9106 51.8818 40.8687 51.6294C40.9525 51.6714 41.0363 51.7556 41.1201 51.7977C41.1201 51.966 41.1201 52.1343 41.0782 52.2605ZM40.24 48.9786C40.0724 49.3152 39.9886 49.6518 39.9886 49.9463C39.9886 50.1146 39.9886 50.2409 40.0305 50.3671L39.9048 50.4092L39.8628 50.6616C39.8628 50.7458 39.8209 51.6294 40.1562 52.555C40.24 52.8075 40.3658 53.0599 40.4915 53.2703C39.9886 52.5971 39.7371 51.7556 39.7371 50.8299C39.7371 49.3993 40.4077 48.1371 41.4973 47.3797H41.623H41.7488C41.623 47.4218 41.4973 47.5059 41.3297 47.5901C41.0782 47.7584 40.7849 48.0108 40.5334 48.3474C40.4077 48.5578 40.3239 48.7682 40.24 48.9786ZM43.928 46.5803V46.6223C43.509 46.6223 43.1737 46.7065 43.1737 46.7065L42.4612 46.8748C42.9222 46.7065 43.4251 46.5803 43.928 46.5803ZM44.2214 48.2633V48.2212L44.3052 47.5901V47.4639L44.3471 47.2956V47.2114L44.389 47.001V46.9169V46.7906V46.7065V46.6644L44.431 46.6223V46.4961V46.412L44.4729 46.2857V46.1174V46.0333L44.5567 45.4863H44.7243L44.6824 46.0753L44.6405 46.1595V46.3278V46.454L44.5986 46.5382V46.6644V46.7065V46.7486L44.5567 46.8327V46.9169V47.0431V47.1272L44.5148 47.2114V47.3376L44.4729 47.5059V47.5901L44.431 48.0108L44.389 48.1791V48.2633H44.2214ZM44.7243 44.7289C44.7662 44.7289 44.7662 44.7289 44.8081 44.7289C44.892 44.7289 44.9758 44.771 45.0596 44.771C45.1853 44.8131 45.5206 44.8552 45.5206 44.8552C45.5206 44.8552 45.5206 44.8552 45.5206 45.0235C45.5206 45.0235 45.5206 45.0655 45.4787 45.0655C45.4787 45.1076 45.4787 45.1497 45.4787 45.1918C45.4368 44.8972 45.1434 44.9393 45.1434 44.9393L45.0596 45.1918C45.0177 45.0655 44.9758 44.9814 44.9339 44.8972C44.892 44.8552 44.85 44.8131 44.8081 44.771C44.8081 44.771 44.8081 44.771 44.7662 44.771L44.7243 44.7289ZM46.4845 47.9267L46.9455 49.231C46.9874 49.4414 47.1551 49.9463 47.2808 50.6616C47.1132 50.8299 46.8198 50.9561 46.5264 50.9982C46.275 51.0403 46.1073 50.9982 46.0235 50.9141C45.6882 50.5775 45.7721 49.9884 45.7721 49.9884L46.0654 48.0108L46.4845 47.9267ZM46.1911 47.2535L46.1492 47.2956C46.0654 47.2535 46.0235 47.2114 45.9397 47.1693C45.6882 47.0431 45.3949 46.8748 45.0596 46.7486C45.4368 46.8327 45.814 47.001 46.1911 47.2535ZM45.1015 46.1595C45.1434 46.0333 45.1434 45.9491 45.1434 45.9071C45.3949 45.9491 45.7301 45.9912 45.814 45.9491C46.0654 45.865 46.0654 45.6546 46.0654 45.1497C46.0654 45.0655 46.0654 44.9814 46.0654 44.8972C46.0654 44.771 46.0235 44.6448 45.9397 44.5606C45.7721 44.3923 45.5206 44.3503 45.3111 44.3503C45.2272 44.1819 45.1015 44.0557 44.9758 44.0136C44.8081 43.9295 44.6405 43.9716 44.5567 44.0557C44.4729 44.1399 44.431 44.1819 44.389 44.224V44.2661C44.1795 44.3082 43.6766 44.3923 43.5928 44.6448C43.5509 44.7289 43.4671 45.4021 43.509 45.5704C43.5928 45.8229 43.8861 45.7808 44.0538 45.7808C44.0538 45.8229 44.0538 45.9071 44.0119 45.9912C44.0119 45.9912 43.97 45.9912 43.928 45.9912C42.7127 45.9912 41.5811 46.454 40.7429 47.2535L40.4077 47.2956L40.6591 47.3376C39.6952 48.1791 39.1504 49.4414 39.1504 50.8299C39.1504 53.2282 40.8687 55.2058 43.1318 55.5845C43.0479 55.5003 42.9641 55.3741 43.006 55.1637C43.1318 54.785 43.0899 54.3643 43.0899 53.9856V53.9435C42.8384 53.8594 42.6289 53.8173 42.5031 53.7752C42.5031 53.3965 42.6289 52.8075 42.7546 52.6812C43.006 52.4288 43.3832 52.3867 43.6766 52.4288L43.97 52.4709C44.6405 52.6392 44.8081 53.0179 44.892 53.3545C44.9339 53.5648 44.6405 54.0277 44.4729 54.196C44.3471 54.196 44.1795 54.1539 43.928 54.1118C43.928 54.4064 43.928 54.7009 43.928 54.9954L44.389 55.0375C44.2633 55.0375 44.0957 55.0796 43.928 55.0796C43.928 55.0796 43.928 55.0796 43.8861 55.0796C43.8861 55.1637 43.8442 55.29 43.8442 55.4162C43.8023 55.5424 43.7185 55.5845 43.6347 55.6686C43.7604 55.6686 43.8442 55.6686 43.928 55.6686C46.6102 55.6686 48.7476 53.4807 48.7476 50.8299C48.7476 48.5578 47.197 46.6644 45.1015 46.1595Z" fill="white"/>
</g>
<g id="g148">
<path id="path150" d="M43.7603 55.9668C43.7603 55.9247 43.5927 55.7144 43.5927 55.7144C43.5927 55.7144 43.9699 55.7564 44.1794 55.7564C44.0956 55.8406 43.9699 55.9247 43.7603 55.9668ZM43.1736 55.9247C43.0479 55.9668 42.7545 56.1351 42.7126 56.4296C42.7126 56.7242 42.6288 56.7662 42.6288 56.7662C42.6288 56.7662 42.3354 56.6821 42.3354 56.4717C42.3773 56.3034 42.503 55.8406 42.5449 55.8406C42.5869 55.8406 42.6288 56.0089 42.6288 56.0089L43.1317 55.8406C43.1317 55.8406 43.3831 55.6302 43.5089 55.9247C43.425 55.8827 43.2993 55.9247 43.1736 55.9247ZM43.2993 56.5559C43.3831 56.4296 43.3412 56.2613 43.1736 56.2613C42.964 56.2613 43.0059 56.4296 43.0479 56.64C43.0059 56.5979 42.7545 56.5559 42.8802 56.2613C42.964 55.9668 43.3412 55.9668 43.425 56.093C43.5089 56.2193 43.5089 56.4717 43.2993 56.5559ZM43.7603 51.5488L43.8441 51.4647L44.0118 51.5488C44.0118 51.5488 43.5927 54.7466 43.5089 55.4619C43.3831 55.4198 43.1736 55.4619 43.1736 55.4619L43.7603 51.5488ZM44.808 55.546C44.7242 55.3777 44.5566 55.2515 44.5147 55.2094L44.389 55.1253L44.2632 55.1674C44.2213 55.1674 44.1375 55.2094 44.0537 55.2936C44.0118 55.2936 44.0118 55.2936 43.9699 55.2936C44.0118 54.8308 44.2213 53.1477 44.389 51.5488L44.4309 51.3385L44.0956 51.5068L43.928 51.3805L43.6765 51.4226L43.425 51.1702L43.3831 51.3805L43.2155 51.4226L43.3831 51.5488C43.2574 52.0958 42.8802 54.41 42.7545 55.2094H42.5869C42.503 55.1674 42.4192 55.1253 42.3354 55.1253C42.2097 55.1253 42.1259 55.1674 42.0839 55.2515C41.9582 55.4198 41.7906 56.3455 41.8325 56.6821C41.8325 56.8504 41.8744 56.9766 42.0001 57.1029C42.2097 57.2712 42.503 57.3132 42.7126 57.2712C42.8383 57.3553 43.0479 57.3974 43.2574 57.3974C43.5089 57.3974 43.8022 57.3132 44.0118 57.187C44.347 57.187 44.808 57.1449 44.808 56.7662C44.808 56.7662 44.808 56.6821 44.808 56.64C44.85 55.7985 44.808 55.6302 44.808 55.546Z" fill="white"/>
</g>
<g id="g152">
<path id="path154" d="M49.6698 32.3593C49.7117 32.3172 49.7117 32.2751 49.7117 32.191C49.7117 31.7702 49.3764 31.4336 48.9154 31.4336C48.5382 31.4336 48.2449 31.686 48.1611 32.0647L46.1494 40.1012C46.4847 40.2695 46.7361 40.4799 46.9457 40.7323C47.7001 38.0395 48.4544 35.3046 48.4544 35.3046L48.664 34.6734C48.664 34.6734 47.9096 37.9553 47.1133 40.9427C47.2391 41.1531 47.4067 41.3214 47.5324 41.5318L49.7955 32.4434C49.7536 32.4013 49.7117 32.3593 49.6698 32.3593Z" fill="white"/>
</g>
<g id="g156">
<path id="path158" d="M33.0318 38.1678L32.0679 39.5563L31.8164 39.935L26.452 47.719H26.2425L33.409 37.2001C33.409 37.2001 33.409 37.2001 33.409 37.2422C33.4509 37.4526 33.0318 38.1678 33.0318 38.1678ZM37.9352 32.151C37.9352 31.7302 37.558 31.3516 37.1389 31.3516C36.9712 31.3516 36.8455 31.3936 36.7617 31.4778C36.5941 31.4778 36.3845 31.4778 36.175 31.6882C35.9654 31.8565 35.8397 32.151 35.8397 32.5718C35.0015 33.8761 25.7815 47.5507 25.6977 47.6349L25.53 47.8873L25.6558 47.9715L25.7815 48.0556C25.8234 48.0556 25.8653 48.0977 26.3682 48.224L26.5359 48.266L26.6616 48.0977C29.8886 43.5956 37.3903 33.0767 37.3903 33.0346C37.4322 32.9925 37.4742 32.9504 37.5161 32.8663C37.7675 32.7401 37.9352 32.4455 37.9352 32.151Z" fill="white"/>
</g>
<g id="g160">
<path id="path162" d="M49.5854 32.528L49.5016 32.2335C49.5016 32.2335 61.7391 44.0568 61.7391 44.5617C61.7391 44.7721 49.5854 32.528 49.5854 32.528ZM67.8159 49.4425L49.4597 31.6865C49.0406 31.7286 48.3281 32.9488 48.3281 32.9488L66.4329 50.4102C66.4329 50.4102 66.852 50.831 67.3968 50.831C68.5703 50.831 67.8159 49.4425 67.8159 49.4425Z" fill="white"/>
</g>
<g id="g164">
<path id="path166" d="M84.3701 19.1064C84.3282 19.2747 84.2025 19.443 84.1606 19.6534C84.0768 19.9479 84.2025 20.0741 84.5378 19.99C84.873 19.8217 85.2502 19.6534 85.5436 19.443C87.2199 18.3069 89.3573 16.4135 91.0756 15.3616C91.4947 15.1092 91.6204 14.478 91.3689 14.0152C91.2013 13.7207 90.7403 13.5524 90.2374 13.7628C89.5669 14.0152 88.8963 14.3097 88.2677 14.7305C86.9266 15.6141 85.1664 17.6758 84.3701 19.1064ZM61.2781 13.931C61.2781 14.0573 61.2362 14.2256 61.2362 14.3097C61.2781 14.478 61.32 14.6884 61.3619 14.8567C61.5296 14.7726 61.7391 14.7305 61.8229 14.6043C62.2421 14.1414 62.6192 13.6786 62.9545 13.1737C64.0022 11.701 65.4271 9.76555 66.5168 8.33497C66.894 7.87214 66.8521 7.241 66.4749 6.86232C66.2234 6.60986 65.8043 6.65194 65.3014 6.98855C65.1757 7.0727 65.05 7.11478 65.0081 7.24101C64.4213 7.87214 63.8346 8.54535 63.3736 9.26064C62.5773 10.565 61.6553 12.4163 61.2781 13.931ZM67.7321 6.94647C68.2351 6.44156 68.738 6.65194 69.199 6.86232C69.6181 7.0727 69.9533 7.36723 70.2886 7.66176C70.3305 7.70383 70.3305 7.95629 70.2467 8.04044C69.4504 8.58743 66.5168 13.1737 66.2234 14.5622C66.1396 14.7726 66.2234 15.025 66.2234 15.2775C66.4749 15.1513 66.7263 15.1092 66.894 14.9409C67.7321 13.9311 68.6123 12.9633 69.4504 11.9535C70.4982 10.565 71.965 8.67158 72.6355 7.0727C72.7194 6.82025 72.887 6.73609 73.1384 6.77817C73.8509 6.94647 74.5215 7.241 74.9824 7.74591C75.2758 8.08252 75.2339 8.37705 74.9824 8.71365C74.1443 9.8497 72.6774 11.4486 71.8812 12.6267C71.5459 13.0895 71.2525 13.5944 71.0011 14.1414C71.4621 13.5944 71.9231 13.0895 72.3841 12.5846C73.6833 11.2382 75.653 9.59725 77.2036 8.58743C78.2933 7.91422 79.4667 8.25082 80.263 9.13441C80.5983 9.51309 80.5145 9.59725 80.1373 9.89178C79.5505 10.3546 78.3352 11.3224 77.8742 11.9114C77.0779 12.9633 76.3655 14.0152 75.6111 15.1092C75.5692 15.1933 75.5273 15.3196 75.5273 15.4879C75.6111 15.4037 75.7368 15.3196 75.8206 15.2354C77.2875 13.8469 79.4248 12.1218 81.0174 10.8595C81.4784 10.5229 81.9813 10.2705 82.4423 10.018C83.1128 9.63932 83.7415 9.6814 84.3701 10.1022C84.873 10.4388 85.334 10.8174 85.4178 11.4065C83.6996 11.8693 80.8497 15.6982 80.0954 16.7501C79.8439 17.0867 79.6763 17.5496 79.5505 17.9283C79.4248 18.2228 79.5925 18.3911 79.8858 18.2649C80.3049 18.0545 80.7659 17.802 81.1431 17.5075C82.6518 16.2452 84.6216 14.1835 86.2141 13.0054C87.0523 12.3742 88.0581 11.9535 89.1478 11.9535C90.5727 11.9535 92.3748 12.8792 92.5424 14.478C92.5424 14.5201 92.5424 14.5201 92.5843 14.5622C92.9615 14.478 93.2968 14.478 93.6321 14.7305C94.1769 15.1092 94.6379 15.5299 94.8474 16.1611C94.8474 16.2452 94.7636 16.4135 94.7217 16.4556C93.632 16.7501 89.6088 20.4107 89.022 21.5047C88.9382 21.673 88.9382 21.8834 88.8963 22.0938C89.1478 22.0938 89.3992 22.1358 89.6088 22.0517C90.6565 21.4626 91.7461 20.8736 92.7939 20.2845C93.632 19.6954 94.4283 19.1064 95.2246 18.5594C96.5238 17.6337 98.5354 16.8343 98.0744 17.0867C98.4516 16.9184 98.8707 16.9605 99.1641 17.3392C99.5413 17.7179 99.9184 18.1386 100.17 18.5594C100.421 18.9381 100.296 18.9801 99.9184 19.1485C99.2898 19.4009 98.6612 19.6954 98.0744 20.032C96.8172 20.9156 94.7636 22.2621 93.7159 23.4402C93.5482 23.6506 93.3806 23.903 93.2968 24.1134C93.1291 24.4079 93.2968 24.6183 93.6321 24.5762C93.8835 24.5341 94.1769 24.45 94.4283 24.3238C95.7275 23.6926 97.9906 22.6828 99.2898 22.0517C100.002 21.673 100.589 21.1681 101.301 20.7894C101.762 20.537 102.307 20.3686 102.81 20.2003C103.104 20.0741 103.439 20.2003 103.69 20.4949C104.151 20.9156 104.528 21.3785 104.738 21.9255C104.864 22.22 104.864 22.3883 104.445 22.4304C103.9 22.5145 103.355 22.767 102.852 23.0615C101.427 23.8189 99.2479 25.1232 98.1163 26.3013C97.9906 26.4696 97.823 26.6379 97.7392 26.8483C97.6973 26.9745 97.6973 27.1429 97.6973 27.2691C97.823 27.3112 98.0325 27.3953 98.1583 27.3953C98.6612 27.2691 99.1641 27.1429 99.667 26.9325C100.84 26.4696 102.056 26.0068 103.229 25.544C103.481 25.4598 103.732 25.4177 103.984 25.3757C104.026 25.3757 104.067 25.4177 104.109 25.4598C104.026 25.544 103.984 25.6702 103.9 25.7544C103.104 26.2593 102.307 26.7642 101.469 27.2691C100.379 27.8161 99.2898 28.2789 98.0744 28.4893C97.823 28.5314 97.5296 28.5734 97.2782 28.5314C96.1885 28.4893 95.3923 27.4374 95.4761 26.3855C95.518 26.0068 95.6856 25.6281 95.8113 25.2494C95.8533 25.0811 95.979 24.9549 95.979 24.7445C95.8533 24.8287 95.7275 24.9128 95.5599 24.9549C94.8055 25.2074 94.0512 25.544 93.2549 25.7123C92.2071 26.0068 91.2013 25.0811 91.0756 24.1134C90.9918 23.5243 91.1594 23.0194 91.3689 22.5566C91.4109 22.4724 91.4528 22.3883 91.4947 22.2621C90.9918 22.5145 90.5308 22.767 90.0698 22.9774C89.7345 23.1036 89.3992 23.2298 89.022 23.356C87.7648 23.7347 86.5494 22.7249 86.6751 21.4205C86.7589 20.7894 87.0104 20.2003 87.178 19.6113C86.9685 19.6954 86.7589 19.8637 86.5494 19.99C85.8789 20.3687 85.2083 20.7894 84.5378 21.126C83.2386 21.7572 81.6879 20.7473 81.9394 19.2326C82.0232 18.8118 82.1489 18.349 82.2747 17.8862C81.7298 18.2649 81.185 18.6856 80.6402 19.0222C80.3049 19.2326 79.9277 19.443 79.5505 19.5692C78.6286 19.99 77.5808 19.2747 77.3713 18.3069C77.3294 17.1709 77.497 16.5398 77.9999 15.572C78.3771 14.8146 78.88 14.0994 79.341 13.3841L79.4667 13.1737C79.4667 13.1316 79.4248 13.1316 79.4248 13.0895C78.6286 13.8048 77.8323 14.5201 77.0779 15.2354C76.1978 16.119 75.4015 17.0026 74.5634 17.9283C74.0604 18.4752 73.809 18.4752 73.348 18.0124C72.8451 17.5496 72.6355 16.5818 72.887 15.9507C73.348 14.5622 74.0185 13.2578 74.7729 12.0376C74.8986 11.8273 74.9824 11.659 75.1082 11.4907L75.0244 11.4065C74.731 11.659 74.3957 11.8693 74.1443 12.1639C72.8451 13.5524 71.5459 15.025 70.3305 16.4977C70.1629 16.7081 69.9533 16.9605 69.7857 17.1709C69.5762 17.4654 69.3247 17.5075 69.0313 17.3392C68.1932 16.9605 67.9417 15.9928 68.1093 15.1092C68.0255 15.2354 67.9417 15.3196 67.8579 15.3616C67.4388 15.7403 67.0616 16.119 66.6844 16.4556C65.6786 17.4233 64.2118 16.5818 64.0441 15.4458C63.9184 14.8146 64.0022 14.0994 63.9603 13.4261C63.7927 13.6786 63.5412 14.0573 63.2898 14.3518C62.7869 14.9409 62.284 15.5299 61.781 16.0348C60.9429 16.9605 59.6018 16.3294 59.2246 15.3616C58.9731 14.6043 58.9731 13.5944 59.1408 12.8371C59.476 11.1961 60.4819 8.92404 61.4877 7.53553C62.0325 6.69402 62.7869 5.97873 63.7089 5.55797C65.2176 4.92683 66.894 5.55797 67.7321 6.94647Z" fill="white"/>
</g>
<g id="g168">
<path id="path170" d="M18.95 29.6677C18.6985 30.2567 18.1537 30.3409 18.1537 29.5835C18.1537 29.5415 18.5728 27.7322 19.1176 27.3114C19.1176 27.3114 19.1595 27.3114 19.2014 27.3114C19.2852 27.9005 19.1595 29.1628 18.95 29.6677ZM44.6403 8.9664C44.4308 9.17678 44.347 9.34508 44.2631 9.55546C44.0117 10.1445 43.7602 10.7336 43.5507 11.3226C43.0478 12.5849 42.5449 13.8472 42.042 15.1095C41.9581 15.3619 41.6648 15.6985 41.539 15.6565C41.2038 15.6144 41.2457 15.1936 41.2457 14.8991C41.2038 13.3423 41.3714 11.8275 41.7067 10.3128C42 9.05055 42.3353 7.95658 42.9639 6.82054C42.7963 6.69431 42.6706 6.48393 42.5029 6.44185C42.042 6.27355 41.5809 6.14732 41.1199 6.06317C40.7009 6.02109 40.3656 6.23147 40.2398 6.61015C39.9046 7.53582 39.6531 8.41941 39.4017 9.34508C39.234 9.89207 39.234 10.4811 39.0664 10.986C38.6892 12.2904 38.312 13.5527 37.9348 14.8149C37.7672 15.3619 37.5157 15.8668 37.3062 16.3717C37.2643 16.4559 37.0967 16.5821 37.0128 16.54C36.929 16.54 36.8452 16.3717 36.8033 16.2455C36.7195 15.951 36.6776 15.6144 36.6776 15.2778C36.5518 13.5106 36.7614 11.7434 37.0967 10.0183C37.2224 9.30301 37.4319 8.54564 37.7253 7.91451C37.8929 7.53583 37.8091 7.32544 37.5577 7.2413C37.0547 7.07299 36.5518 6.98884 36.0908 6.90469C35.6298 6.82054 35.2946 7.11507 35.1688 7.5779C34.9593 8.25111 34.7078 8.9664 34.624 9.68169C34.4983 10.5232 34.4564 11.4909 34.2887 12.3325C34.0373 13.5947 33.702 14.9412 33.3667 16.2455C33.241 16.6663 33.0734 17.087 32.9057 17.5078C32.78 17.7602 32.5705 17.7182 32.4447 17.4236C32.3609 17.1712 32.319 16.8766 32.2771 16.6242C32.0676 14.9412 32.1514 13.2581 32.319 11.533C32.4028 10.5232 32.5285 9.47131 33.0315 8.54564C32.8638 8.41941 32.6962 8.25111 32.5285 8.20904C32.0676 8.12488 31.5646 8.04073 31.0617 8.04073C30.6845 7.99865 30.3912 8.20904 30.2235 8.58772C29.9721 9.05055 29.6787 9.55546 29.553 10.1024C29.0501 11.9538 28.6729 13.8472 28.2957 15.7406C28.17 16.3297 28.0862 16.8766 28.0024 17.4236C27.9185 17.2974 27.8766 17.1712 27.8766 17.045C27.6671 15.2778 27.6671 13.4685 27.8766 11.6592C27.9185 11.1964 27.9604 10.6494 28.17 10.2287C28.3376 9.80791 28.17 9.68169 27.9185 9.55546C26.8708 9.00848 25.6973 9.72376 25.2363 10.7336C25.2363 10.8177 25.1944 10.9019 25.1525 10.986C24.482 12.8374 24.1467 14.7729 23.9372 16.7925C23.8533 17.4236 23.7695 18.0968 23.7276 18.7701C23.6438 18.2651 23.56 17.7602 23.56 17.2553C23.5181 15.6144 23.5181 13.9734 23.5181 12.3325C23.5181 11.7855 23.3923 11.533 22.9732 11.4068C22.3446 11.1964 21.6741 11.3226 21.0454 11.533C20.794 11.6172 20.7101 11.8276 20.8359 12.1221C20.8778 12.2904 20.9616 12.5008 20.9616 12.7111C21.2131 14.7308 21.5064 16.7504 21.255 18.7701C21.0873 19.9061 20.9616 21.0842 20.794 22.2203C20.7521 22.599 20.5844 22.9356 20.4587 23.2722C20.2911 22.7673 20.2072 22.2203 20.1234 21.7154C19.872 19.6116 19.6205 17.5499 19.4529 15.4461C19.411 14.8149 19.4948 14.1838 19.6205 13.5947C19.7043 13.2161 19.6205 13.0898 19.3691 13.0057C18.7823 12.7532 18.2375 12.8374 17.6927 13.0057C17.3993 13.1319 17.1898 13.3423 17.1479 13.6789C17.106 14.2259 17.064 14.7729 17.064 15.3198C17.106 15.9931 17.2736 16.6663 17.2317 17.3395C17.1479 19.1908 17.064 21.0421 16.9802 22.8935C16.9802 23.2722 16.8964 23.6509 16.7707 24.0295C16.6869 24.3241 16.4773 24.3241 16.3097 24.0295C16.184 23.7771 16.0582 23.4405 15.9744 23.1459C15.4296 21.3367 15.1362 19.4853 15.0524 17.5919C15.0524 16.9187 15.1362 16.2034 15.1781 15.5302C15.1781 15.404 15.0524 15.2357 14.9267 15.1936C14.298 14.9412 13.6275 15.0253 13.0408 15.4461C12.5798 15.7406 12.7055 16.3717 12.6636 16.8766C12.6636 16.9187 12.6636 16.9608 12.6636 17.0029C12.7055 19.1067 13.0408 21.2525 13.6275 23.188C13.9628 24.1978 14.3399 24.9552 15.0524 25.6705C15.723 26.3858 17.3993 26.2595 17.6089 24.9552C17.6927 24.3661 17.8184 23.6088 17.9022 22.9356C17.986 22.599 17.9441 22.2203 17.986 21.8837C18.2794 22.9776 18.5309 24.0716 18.8242 25.1656C18.908 25.5443 18.8242 25.7546 18.6147 25.965C18.1118 26.4699 17.2736 27.3114 17.106 28.6158C17.0221 29.3732 16.9802 30.4671 18.028 30.8879C18.5728 31.0983 19.2852 31.0562 19.8301 30.7196C20.4168 30.383 20.7521 29.7518 20.794 28.5316C20.8359 27.9005 20.9197 26.4279 20.8359 25.6705C20.794 25.3339 20.794 25.0394 20.9616 24.7448C21.1292 24.4082 21.2969 24.0295 21.4226 23.6509C21.6322 22.8935 21.7998 22.094 22.0093 21.3367C22.0093 21.3367 22.0512 21.3788 22.0512 21.4208C22.3027 22.1782 22.9732 22.641 23.7276 22.7252C24.2305 22.7673 24.3982 22.641 24.4401 22.052C24.4401 21.8837 24.4401 21.7154 24.482 21.5471C24.6077 19.4853 24.7753 17.4236 25.0268 15.404C25.0687 14.9412 25.2363 14.5204 25.3202 14.0996C25.3621 14.0996 25.3621 14.0996 25.404 14.1417C25.4459 14.3521 25.4459 14.5625 25.4459 14.8149C25.5716 16.3717 25.7812 17.7602 26.2003 19.275C26.4098 20.1165 27.1642 20.8738 28.0862 20.958C28.3795 20.958 28.5472 20.7897 28.5891 20.4531C28.631 20.1165 28.631 19.7799 28.6729 19.4433C28.9244 17.3816 29.2177 15.3619 29.553 13.3423C29.5949 13.2161 29.6368 13.0898 29.6787 12.9636C29.7625 13.5106 29.7625 14.0155 29.8044 14.5625C29.8044 15.0674 29.8464 15.6144 29.9302 16.1193C30.0978 17.087 30.3074 17.9285 30.8103 18.6859C31.3132 19.5695 32.9896 19.9482 33.4925 18.6859C33.5763 18.5597 33.6601 18.4755 33.702 18.3072C33.9535 17.5499 34.2049 16.7504 34.4983 15.951C34.624 16.3717 34.7497 16.7925 34.9174 17.1712C35.2527 17.8865 35.7136 18.3493 36.4261 18.4335C37.0967 18.5176 37.5996 18.1389 37.8929 17.4657C38.2282 16.7504 38.5216 15.951 38.8149 15.1936C38.8568 15.0674 38.8988 14.9412 38.9826 14.7308C39.1083 15.2357 39.1921 15.6565 39.3178 16.0351C39.5693 16.7504 40.0722 17.4236 40.8685 17.5499C41.6229 17.634 42.0839 17.1291 42.461 16.4559C43.6345 14.268 44.347 11.7855 44.7241 9.30301C44.7241 9.21885 44.6822 9.09262 44.6403 8.9664Z" fill="white"/>
</g>
<g id="g172">
<path id="path174" d="M15.7648 28.8257C15.9325 28.6153 16.142 28.447 16.2677 28.2366C16.4773 27.9 16.5192 27.6055 16.1839 27.311C15.9325 27.1006 14.5076 26.8061 13.376 25.9645C11.7835 24.7864 10.61 23.3979 9.35272 21.9253C9.2689 21.8411 9.22699 21.6307 9.22699 21.4624C9.35271 20.663 9.47844 19.8215 9.60417 19.022C9.98135 17.1707 10.4424 15.3615 11.1548 13.6784C11.3644 13.2577 11.6577 12.879 11.9511 12.5424C12.2025 12.332 12.2025 12.1637 11.993 12.0375C11.6577 11.785 11.2805 11.5746 10.9034 11.4484C10.3166 11.2801 9.89753 11.5326 9.56226 12.1216C9.31081 12.5424 9.10126 13.0052 8.93362 13.468C8.13735 15.7401 7.76017 18.0964 7.55062 20.4947C7.4668 21.21 7.42489 21.8832 7.38298 22.5985C7.21534 21.9253 7.13153 21.2521 7.04771 20.6209C6.83816 19.3166 6.62862 18.0122 6.20952 16.75C5.6647 15.0669 3.86261 15.1931 2.81488 16.4133C2.10242 17.2549 1.51569 18.3068 1.13851 19.4007C0.635596 20.8734 0.426049 22.6406 0.928961 24.1553C1.30614 25.2493 2.77297 26.1329 3.86261 25.7121C3.98833 25.67 4.03024 25.5438 4.19788 25.3755C3.52733 25.2072 3.23397 24.7023 3.02442 24.1132C2.56342 22.8089 2.4796 21.3362 2.68915 20.0319C2.85679 19.1062 3.10824 18.1805 3.56924 17.3811C3.77879 17.0866 3.90452 17.0866 4.03024 17.3811C4.11406 17.6756 4.19788 17.9281 4.23979 18.2226C4.7427 21.0417 5.2037 23.9028 5.83234 26.6798C6.12571 27.9842 6.46098 29.3306 6.83816 30.635C7.0058 31.2661 7.4668 31.5186 8.05353 31.5606C8.34689 31.6027 8.64026 31.5606 8.93362 31.5186C9.39462 31.4344 9.43653 31.3082 9.2689 30.8033C8.93362 29.7934 8.8498 28.6995 8.8498 27.6055C8.8498 26.6378 8.8498 25.7121 8.89171 24.7444C9.01744 24.8706 9.05935 24.9127 9.14317 24.9968C9.68799 25.5859 12.2864 28.3629 13.5855 28.9519C14.2142 29.2044 15.22 29.3727 15.7229 28.8257C15.7648 28.8257 15.7648 28.8257 15.7648 28.8257Z" fill="white"/>
</g>
<g id="g176">
<path id="path178" d="M32.151 5.76969C32.151 5.34893 32.151 4.92817 31.9834 4.54949C31.8158 3.96043 31.3548 3.75005 30.7261 3.8342C30.2232 3.87628 29.7203 3.91835 29.2174 4.08666C26.9543 4.71779 24.775 5.76969 22.6796 6.98988C22.0928 7.32649 19.4106 9.2199 19.4106 9.3882C19.4106 9.76689 20.5422 10.1456 21.087 9.97727C21.548 9.68273 22.7634 8.96745 22.8891 8.92537C23.6016 8.54669 24.3559 8.16801 25.1103 7.8314C26.8286 7.07404 28.5469 6.40082 30.349 6.02214C30.81 5.93799 31.271 5.93799 31.732 6.02214C32.0253 6.06422 32.193 5.98007 32.151 5.76969Z" fill="white"/>
</g>
<g id="g180">
<path id="path182" d="M86.298 9.00789C86.5494 8.67128 86.759 8.2926 86.8847 7.91392C87.0523 7.32486 86.8428 6.9041 86.2561 6.5675C85.837 6.31504 85.376 6.06259 84.915 5.89428C82.6938 5.05277 80.3469 4.63201 77.958 4.33748C77.2456 4.25333 73.9767 4.21125 73.8928 4.33748C73.6833 4.63201 74.3538 5.59975 74.8987 5.81013C75.4435 5.85221 76.8265 5.97843 76.9522 6.02051C77.7485 6.14674 78.5867 6.27296 79.3829 6.44127C81.2269 6.86203 83.029 7.32486 84.6635 8.1243C85.0826 8.33468 85.4598 8.62921 85.7951 8.92374C86.0046 9.17619 86.1722 9.17619 86.298 9.00789Z" fill="white"/>
</g>
<g id="g184">
<path id="path186" d="M103.439 18.3054C104.109 18.7682 105.869 19.5256 107.21 19.1469C107.378 19.1048 107.42 18.8945 107.252 18.8103C106.205 18.1792 105.618 18.0109 104.486 17.001C104.109 16.6644 103.816 16.1595 103.648 15.865C103.522 15.6125 103.397 15.5705 103.229 15.6546C102.936 15.865 102.642 16.0333 102.433 16.2858C102.139 16.6644 102.181 17.0431 102.558 17.4639C102.81 17.7584 103.103 18.0529 103.439 18.3054Z" fill="white"/>
</g>
<g id="g188">
<path id="path190" d="M58.4701 18.1398C58.7215 18.0556 58.973 17.9715 59.1825 17.8452C59.5178 17.6769 59.6855 17.3824 59.5178 17.0037C59.3921 16.6671 58.2605 15.7835 57.6319 14.5212C56.7518 12.7541 56.3327 10.9869 55.8298 9.09347C55.7879 8.96724 55.8717 8.75686 55.9555 8.63064C56.4165 7.95742 56.8775 7.24214 57.3804 6.611C58.5539 5.13835 59.7693 3.70777 61.1942 2.52965C61.5295 2.27719 61.9905 2.02474 62.4096 1.89851C62.7029 1.77228 62.7867 1.64606 62.661 1.43568C62.4515 1.09907 62.2419 0.720389 61.9486 0.425858C61.4876 0.0471751 61.0266 0.0471751 60.4817 0.425858C60.0626 0.678312 59.6435 1.01492 59.2664 1.35153C57.5481 2.99248 56.1651 4.97004 54.8659 6.98968C54.4887 7.57874 54.1534 8.1678 53.7763 8.79894C53.9439 8.12573 54.1534 7.49459 54.363 6.86345C54.7821 5.60118 55.2012 4.33891 55.3688 3.03456C55.6203 1.30945 53.9858 0.552086 52.519 1.18322C51.4712 1.64606 50.5073 2.31927 49.6692 3.11871C48.5376 4.21268 47.5737 5.68533 47.3222 7.24214C47.1546 8.42026 48.0766 9.85083 49.2501 9.97706C49.3758 9.97706 49.5015 9.89291 49.7111 9.85083C49.1662 9.388 49.1243 8.79894 49.2081 8.1678C49.3758 6.82138 49.9625 5.47495 50.7588 4.38098C51.3036 3.62362 51.9742 2.90833 52.7285 2.4455C53.0219 2.23512 53.1476 2.31927 53.1057 2.6138C53.1057 2.90833 53.0219 3.20286 52.9381 3.49739C52.1418 6.23232 51.2617 8.96724 50.5492 11.7442C50.214 13.0486 49.9625 14.395 49.7111 15.6994C49.5434 16.3726 49.8368 16.7933 50.3397 17.0879C50.5912 17.2562 50.8845 17.3824 51.1779 17.4666C51.6389 17.5928 51.7227 17.5086 51.8065 17.0037C51.9322 15.9097 52.3932 14.8999 52.8543 13.9322C53.2733 13.0907 53.7343 12.2492 54.1534 11.4076C54.2373 11.5759 54.2373 11.618 54.2792 11.7022C54.4887 12.5016 55.5784 16.1622 56.5004 17.2562C56.9194 17.8032 57.7576 18.3922 58.4701 18.1398Z" fill="white"/>
</g>
</g>
</svg>
