<svg width="145" height="105" viewBox="0 0 145 105" fill="none" xmlns="http://www.w3.org/2000/svg">
<g id="Group 3">
<g id="Group">
<path id="Vector" d="M47.8382 91.5437L22.9044 84.8257L23.8645 84.9849L22.9044 84.8257C22.5481 85.5622 21.3306 84.8754 21.192 85.184L20.9347 85.4228L21.2217 85.6617C21.2811 85.7513 21.3702 85.8309 21.4989 85.8807C28.4277 88.4385 49.1151 93.2654 49.3229 93.3152L52.2924 94.0119L48.5707 91.8024L47.8382 91.5437Z" fill="white"/>
<path id="Vector_2" d="M49.2733 79.6007L48.5408 78.0581L23.221 79.332L24.1316 79.2823L22.1223 80.8647L49.1644 79.6007H49.2733Z" fill="white"/>
<path id="Vector_3" d="M67.9121 47.9817C67.2687 47.4741 65.9126 47.7329 63.4579 48.2206C63.2203 48.2704 62.963 48.3201 62.7155 48.3699C60.3498 48.8277 57.5189 48.141 57.1824 47.9917C56.9052 47.8523 55.6382 47.5936 54.7969 47.8922C54.3218 48.0613 54.104 48.35 54.0149 48.559C53.8565 48.9073 53.8664 49.2656 54.0545 49.594C54.3317 50.0917 54.9651 50.4301 55.6679 50.6391C55.4403 50.9078 55.2918 51.2561 55.2918 51.6841C55.2918 51.9329 55.3809 52.2912 55.8263 52.6097C56.2222 52.8883 56.8458 53.0675 57.4793 53.157C57.6773 53.6149 58.0138 54.4111 58.1029 54.63L58.2613 55.0182L58.677 55.058C58.8255 55.0779 58.9838 55.0779 59.162 55.0779C59.459 55.0779 59.6965 55.058 59.6965 55.058L60.4191 54.9983L60.3597 54.6002H60.716L60.3201 54.3414L60.3102 54.2717C60.3003 54.1822 60.2112 53.6049 60.0331 53.0277C60.0826 53.0078 60.132 52.9978 60.1914 52.9779H60.2013C61.0229 52.7092 62.3691 52.2713 63.1015 51.6045C64.6061 51.6741 67.0212 51.6244 67.7042 50.5992C68.0606 50.1016 68.9415 48.7978 67.9121 47.9817Z" fill="white"/>
<path id="Vector_4" d="M48.5308 47.9817C47.8775 47.4741 46.5313 47.7329 44.0766 48.2206C43.839 48.2704 43.5817 48.3201 43.3243 48.3699C40.9586 48.8277 38.1277 48.141 37.7912 47.9917C37.514 47.8523 36.2569 47.5936 35.4057 47.8922C34.9306 48.0613 34.7128 48.35 34.6237 48.559C34.4653 48.9073 34.4752 49.2656 34.6633 49.594C34.9405 50.0917 35.574 50.4301 36.2767 50.6391C36.0491 50.9078 35.9105 51.2561 35.9105 51.6841C35.9105 51.9329 35.9996 52.2912 36.4351 52.6097C36.8409 52.8883 37.4546 53.0675 38.0881 53.157C38.2861 53.6149 38.6226 54.4111 38.7117 54.63L38.8701 55.0182L39.2858 55.058C39.4244 55.0779 39.5927 55.0779 39.7708 55.0779C40.0678 55.0779 40.2954 55.058 40.2954 55.058L41.018 54.9983L40.9586 54.6002H41.315L40.9289 54.3414L40.919 54.2717C40.8992 54.1822 40.82 53.6049 40.6419 53.0277C40.6914 53.0078 40.7409 52.9978 40.8002 52.9779H40.8101C41.6416 52.7092 42.9779 52.2713 43.7103 51.6045C45.2248 51.6741 47.6301 51.6244 48.313 50.5992C48.6694 50.1016 49.5503 48.7978 48.5308 47.9817Z" fill="white"/>
<path id="Vector_5" d="M88.5407 48.2703C87.8874 47.7627 86.5412 48.0215 84.0864 48.5092C83.8489 48.5589 83.5915 48.6087 83.3342 48.6585C80.9685 49.1163 78.1376 48.4295 77.8109 48.2803C77.5239 48.1409 76.2668 47.8822 75.4254 48.1807C74.9503 48.3499 74.7326 48.6385 74.6435 48.8475C74.4851 49.1959 74.5049 49.5641 74.6831 49.8826C74.9602 50.3703 75.5937 50.7186 76.3064 50.9276C76.0787 51.1963 75.9302 51.5347 75.9302 51.9726C75.9302 52.2215 76.0193 52.5798 76.4549 52.8982C76.8508 53.1769 77.4744 53.3561 78.1079 53.4456C78.3058 53.9034 78.6424 54.6996 78.7315 54.9186L78.8898 55.3067L79.2957 55.3466C79.4441 55.3565 79.6025 55.3665 79.7807 55.3665C80.0776 55.3665 80.3152 55.3466 80.3152 55.3466L81.0378 55.2868V55.2769C81.0081 55.257 80.9784 55.2371 80.9784 55.1973C80.9586 55.1077 80.9487 55.0181 80.9388 54.9385C80.8695 54.9584 80.7903 54.9385 80.7705 54.8589C80.7507 54.9286 80.6715 54.9883 80.5923 54.9385C80.3944 54.8191 80.2657 54.6598 80.1667 54.4508C80.0974 54.5205 79.9687 54.5105 79.949 54.4011H79.9292C79.8995 54.4011 79.8599 54.3812 79.8401 54.3613H79.8302C79.7609 54.3712 79.6619 54.3314 79.6718 54.2418C79.6817 54.1124 79.7114 54.0428 79.7906 53.9333C79.8104 53.9034 79.8401 53.8835 79.8698 53.8736C79.9094 53.8338 79.9489 53.794 80.038 53.7641C80.1172 53.7342 80.1964 53.8139 80.1964 53.8835C80.1964 53.9034 80.1964 53.9233 80.1964 53.9433C80.1964 53.9433 80.2063 53.9433 80.2063 53.9532C80.2162 53.9233 80.2261 53.8835 80.2261 53.8537C80.2459 53.7442 80.3647 53.7342 80.434 53.794C80.4835 53.7442 80.5725 53.7442 80.6121 53.794C80.6418 53.784 80.6715 53.794 80.7012 53.8039V53.784C80.7012 53.7243 80.721 53.6944 80.7606 53.6745C80.7309 53.5551 80.7012 53.4456 80.6616 53.3162C80.7111 53.2963 80.7606 53.2864 80.82 53.2665H80.8299C81.6614 52.9978 82.9976 52.5598 83.74 51.893C85.2445 51.9627 87.6597 51.9129 88.3427 50.8878C88.6792 50.3902 89.5701 49.0864 88.5407 48.2703Z" fill="white"/>
<path id="Vector_6" d="M124.085 62.8311C120.472 62.8311 117.671 63.7566 115.959 64.5329C115.919 64.5528 115.869 64.5727 115.82 64.5927C115.85 64.7121 115.869 64.8315 115.889 64.9509C115.909 65.0206 115.919 65.0903 115.929 65.1599C115.959 65.2197 115.988 65.2794 116.008 65.349C116.048 65.359 116.077 65.3789 116.097 65.4386C116.147 65.6377 116.196 65.8367 116.246 66.0358C116.295 66.2149 116.335 66.3941 116.374 66.5832C116.404 66.7424 116.166 66.8121 116.127 66.6528C116.107 66.5832 116.097 66.5234 116.077 66.4538C116.087 66.5732 116.097 66.7026 116.097 66.822C116.107 66.9016 116.028 66.9514 115.959 66.9415C115.959 66.9713 115.959 67.0012 115.959 67.031C115.959 67.1505 115.78 67.2002 115.721 67.1007C115.721 67.1306 115.721 67.1704 115.711 67.2002C115.701 67.2997 115.612 67.3396 115.543 67.3196V67.4192C115.543 67.5087 115.474 67.5486 115.414 67.5386C115.414 67.6879 115.404 67.8471 115.384 68.0064C115.404 68.0661 115.414 68.1159 115.434 68.1756C115.444 68.1955 115.444 68.2054 115.444 68.2154C116.75 67.3893 119.759 65.8367 124.105 65.8367C132.568 65.8367 142.04 73.53 142.04 83.8309C142.04 94.0024 134.072 101.984 123.917 101.984C114.335 101.984 106.535 93.7934 106.535 83.7314C106.535 78.6556 108.743 74.8637 110.594 72.5845C112.148 70.6538 113.722 69.4395 114.375 68.9817C114.286 68.6831 114.226 68.3945 114.236 68.076C114.117 68.2452 113.979 68.4144 113.949 68.4542C113.999 68.4642 114.157 68.5936 114.187 68.5836C113.929 69.768 113.929 68.9419 113.939 68.4642C113.939 68.3149 113.949 68.1955 113.939 68.1855C113.88 68.1955 113.731 67.9068 113.712 67.8372C113.682 67.7277 113.593 67.4988 113.573 67.3893C113.415 67.031 113.048 66.6727 113.068 66.2746C112.801 66.4438 110.544 67.9566 108.337 70.6737C106.169 73.3509 103.586 77.7798 103.586 83.7214C103.586 85.5029 103.803 87.2745 104.219 88.9963C105.051 92.3602 106.694 95.4953 108.96 98.0929C111.237 100.691 114.098 102.671 117.225 103.826C119.364 104.602 121.601 105 123.867 105C125.273 105 126.659 104.871 128.025 104.602C133.756 103.467 138.784 100.014 141.843 95.1071L141.862 95.0773C141.892 95.0176 141.932 94.9579 141.971 94.8981L142.011 94.8384C143.961 91.564 145 87.7522 145 83.8409C145 71.8082 133.963 62.8311 124.085 62.8311Z" fill="white"/>
<path id="Vector_7" d="M125.797 82.6264C125.55 82.3079 125.104 81.9098 124.372 81.8501C124.105 81.8302 123.877 81.86 123.679 81.9098C122.798 81.0439 121.303 79.2525 120.818 78.3866C120.482 77.7795 118.957 74.2662 116.73 68.9516C116.839 68.862 116.948 68.7525 117.027 68.6231C117.413 68.4241 117.582 68.1554 117.651 67.9563C117.75 67.6677 117.7 67.3492 117.522 67.0805C117.403 66.8615 116.809 65.3388 116.522 64.5924C115.839 62.8507 115.83 62.8308 115.731 62.7113C115.651 62.6118 115.562 62.5421 115.493 62.4924C115.453 61.9948 115.156 61.8156 114.958 61.7459C114.572 61.6166 114.256 61.6166 113.998 61.736C113.771 61.1985 113.345 60.1336 112.89 59.009C110.603 53.3759 110.237 52.5199 110.059 52.3109C109.91 52.1417 109.752 52.0323 109.613 51.9526C109.544 51.6342 109.376 51.1365 109 50.9773C108.97 50.9673 108.95 50.9574 108.93 50.9474C108.812 50.6986 108.574 50.201 108.416 49.8228C108.762 49.5541 109.188 49.146 109.297 48.7977C109.366 48.5688 109.336 48.3399 109.217 48.1408C109.198 48.1209 109.168 48.0811 109.148 48.0413C109.435 47.4839 109.782 46.6479 109.673 45.9612L109.663 45.9413C109.633 45.1551 109.287 43.8015 107.743 42.9257C105.941 41.9006 103.526 42.8162 102.962 43.0551C101.032 42.9356 98.4581 44.8067 98.3294 44.8963L97.9236 45.1949L98.0819 45.6726C98.27 46.22 98.5571 46.7475 98.7649 47.1057C98.3294 47.2948 97.884 47.5138 97.4682 47.7228L97.4484 47.7328C97.3792 47.7626 97.3198 47.8024 97.2802 47.8124C96.7457 48.0711 96.5279 48.6185 96.5378 49.0465L96.5477 49.1659L96.5972 49.2854C97.1614 50.629 97.3 50.8081 97.587 50.9176C97.686 50.9574 97.7751 50.9773 97.8741 50.9773C98.072 50.9773 98.2304 50.9076 98.6362 50.7484C98.9134 50.6289 99.3291 50.4598 99.9923 50.201C101.388 49.6536 101.932 49.0266 102.111 48.529C102.338 48.4294 102.695 48.31 103.071 48.31C103.477 48.31 103.694 48.3896 103.773 48.4294L103.783 48.4394C103.793 48.4394 103.803 48.4493 103.813 48.4493L104.258 48.8275L104.357 48.738C104.872 49.0166 105.318 49.2953 105.476 49.4446L106.624 52.0223C106.307 52.4801 106.218 53.0076 106.426 53.4853C106.486 53.6346 106.565 53.754 106.654 53.8635C102.338 53.6346 93.1031 53.1569 90.9552 53.0773C88.1045 52.9777 79.3346 52.8683 79.196 52.8683H79.1762C78.5823 52.8683 78.0874 53.0375 77.7806 53.346C77.5529 53.5749 77.4242 53.8834 77.4242 54.2119C77.4242 55.028 78.0973 55.5455 78.5427 55.6351C78.6417 55.655 78.8595 55.7047 80.3739 55.4858C80.7797 55.436 84.7391 55.6649 87.1146 55.7943H87.1344C88.926 55.8938 90.4801 55.9834 90.8562 55.9834C91.6481 55.9834 104.258 56.5607 108.396 56.7C109.079 58.4019 109.95 60.5616 110.603 62.1839L110.772 61.9948L110.94 61.8057L111.108 61.6066L111.276 61.4175L111.346 61.3379L111.534 61.7957L111.455 61.8455L111.257 61.9748L111.059 62.1042L110.861 62.2336L110.663 62.363C111.128 63.5274 111.464 64.3734 111.514 64.4928C111.573 64.6322 111.593 64.8014 111.623 64.9905C111.672 65.2592 111.712 65.5777 111.86 65.9161C112.058 66.3739 115.641 74.2662 116.542 76.0876C116.572 76.1473 118.888 80.815 121.501 83.1937C117.344 84.1989 105.941 86.9557 103.526 87.5429L103.17 87.6325L103.021 87.8714C102.863 88.1202 102.635 88.5979 102.754 89.0358C102.823 89.2647 102.962 89.4538 103.17 89.5633C103.239 89.6031 103.328 89.633 103.476 89.633C103.823 89.633 104.793 89.4638 113.632 87.2543C117.591 86.269 121.541 85.2638 122.857 84.9254C123.115 85.2339 123.53 85.433 124.105 85.5226C125.174 85.6918 125.985 85.0548 126.203 83.8903C126.272 83.552 126.104 83.0245 125.797 82.6264ZM104.338 45.3143C104.575 45.2745 105.04 45.2148 105.832 45.2148C106.604 45.2148 106.882 45.792 106.971 46.1304L107.01 46.3095C107.01 46.3195 107.01 46.3195 107.01 46.3295C107.01 46.3394 107.01 46.3494 107.01 46.3494L107.06 46.7873C107.07 47.0659 107.04 47.3347 106.971 47.474C106.842 47.3844 106.664 47.265 106.486 47.1456L106.535 47.1157L105.595 46.5683L105.516 46.5185C105.476 46.4986 105.426 46.4787 105.387 46.4489C105.387 46.4489 105.377 46.4389 105.367 46.4389C104.813 46.1702 104.249 46.0309 103.724 45.9911C104.051 45.7323 104.229 45.5034 104.338 45.3143ZM107.842 54.819C107.96 54.819 108.04 54.8289 108.089 54.8289C108.139 54.8289 108.158 54.8289 108.158 54.8289V54.8886V55.0081V55.1175V55.3266C108.158 55.3266 108.119 55.3266 108.04 55.3266C107.98 55.3266 107.891 55.3265 107.792 55.3166C107.624 55.3066 107.406 55.2967 107.129 55.2967C105.733 55.2569 103.031 55.1773 99.8042 55.0777C91.0641 54.809 83.2939 54.4209 82.1853 54.3811C80.4729 54.3213 79.8988 54.3612 79.8394 54.182C79.8196 54.1223 79.7701 54.0825 79.7206 54.0526C79.6117 53.9929 79.4732 53.983 79.4732 53.983C80.4036 54.0029 82.2249 54.0427 84.5609 54.1024C89.2131 54.2218 91.0641 54.391 96.7853 54.5403C100.487 54.6398 103.773 54.7194 105.852 54.7792C106.594 54.7991 107.188 54.809 107.584 54.8289C107.693 54.819 107.772 54.819 107.842 54.819Z" fill="white"/>
<path id="Vector_8" d="M95.548 55.0381L88.5004 83.9104C88.5004 83.9104 88.2134 84.8559 88.9954 85.3734C90.4108 86.2891 90.975 85.1744 90.975 85.1744L98.2304 55.685C97.8345 55.0779 95.548 55.0381 95.548 55.0381Z" fill="white"/>
<path id="Vector_9" d="M72.0797 84.1395L40.9991 54.1426C40.2666 54.2023 39.1481 56.1928 39.1481 56.1928L69.0706 85.1149C69.0706 85.1149 70.2782 86.14 71.2086 86.14C73.0794 86.14 72.0797 84.1395 72.0797 84.1395Z" fill="white"/>
<path id="Vector_10" d="M74.6823 68.0264L75.682 69.2207C76.8995 64.8217 77.9422 60.1031 77.9422 60.1031L78.1863 59.089C78.1863 59.089 76.9391 64.3041 75.682 69.2207L76.2759 69.9373L79.7997 55.3568C79.3939 54.7497 77.5528 53.6748 77.5528 53.6748L74.0983 67.7178C74.3161 67.7477 74.5338 67.8472 74.6823 68.0264Z" fill="white"/>
<path id="Vector_11" d="M75.2166 72.0372L74.692 71.4101C73.8309 74.6447 73.7502 74.9303 73.0984 77.7798C73.6052 75.6002 73.7418 74.9134 74.692 71.4101L73.524 70.0068L70.1091 83.9105C70.1091 83.9105 69.4657 85.1745 70.2477 85.6821C71.6632 86.5977 72.5837 85.1745 72.5837 85.1745L75.6918 72.3258C75.5136 72.276 75.3453 72.1864 75.2166 72.0372Z" fill="white"/>
<path id="Vector_12" d="M55.4898 71.7582C54.6683 74.8037 54.2007 76.6939 53.9952 77.7795C53.8764 77.8492 54.5891 75.1023 55.4898 71.7582C55.371 71.5891 55.2622 71.4199 55.1335 71.2507C54.9256 70.9521 54.6782 70.5739 54.3713 70.3052L50.996 83.9203C50.996 83.9203 51.6691 83.4027 52.451 83.9103C53.8665 84.8259 53.4706 85.1743 53.4706 85.1743L56.7766 72.0867C56.5489 71.7682 55.7175 72.0767 55.4898 71.7582Z" fill="white"/>
<path id="Vector_13" d="M112.059 64.1744L111.811 63.8857L111.475 64.0748C111.445 64.0947 108.782 65.5677 106.169 68.7028C105.833 69.1009 105.526 69.5089 105.219 69.917C103.061 72.6738 101.349 75.7691 100.982 81.2629C100.913 82.0093 100.883 82.7558 100.883 83.5122C100.883 87.2643 101.606 89.8917 102.21 91.4244C102.883 93.1462 103.576 93.9623 103.586 93.9723L103.665 94.0419L103.695 94.0619C103.724 94.0818 103.982 94.231 104.308 94.231C104.526 94.231 104.734 94.1614 104.902 94.032L104.962 93.9822C105.506 93.5742 105.456 93.2059 105.13 92.4595L105.1 92.3998C103.417 88.6477 103.061 85.4131 103.061 83.3529C103.061 78.3966 105.506 70.8824 112.395 66.0255L112.593 65.8763V65.6374C112.613 64.8213 112.078 64.1943 112.059 64.1744Z" fill="white"/>
<path id="Vector_14" d="M110.861 59.8047L90.5695 82.0188L89.0551 81.8794L89.9855 83.9695C90.1142 84.0988 87.1645 83.7007 87.5505 84.1387C90.0647 86.995 91.7078 85.1638 91.7078 85.1638L112.286 63.2483L112.494 63.0492L111.989 63.1487L110.861 59.8047Z" fill="white"/>
<path id="Vector_15" d="M33.4068 65.0103C33.0405 65.5079 32.6941 66.0254 32.2784 66.4733C32.12 66.752 31.9517 67.0207 31.7241 67.2396C36.7326 70.514 40.0584 76.2865 40.0584 82.8452C40.0584 83.2035 40.0485 83.5618 40.0287 83.9201C40.9196 83.94 41.8203 84.0296 42.7012 84.1888C42.7606 84.1988 42.7903 84.2585 42.7903 84.3182H42.8002C42.8596 84.2585 42.9586 84.2585 43.0081 84.3281C43.0279 84.348 43.0279 84.3779 43.0378 84.3978C43.0477 84.4177 43.0576 84.4277 43.0675 84.4476C43.0873 84.4476 43.0972 84.4575 43.1071 84.4675C43.1467 83.93 43.1665 83.3826 43.1665 82.8253C43.1665 75.3609 39.2665 68.7624 33.4068 65.0103Z" fill="white"/>
<path id="Vector_16" d="M42.8596 85.0048C42.8002 85.0744 42.6913 85.0545 42.6517 84.9749C41.8895 85.174 41.1076 85.0545 40.3652 84.8256C40.3454 84.8256 40.3355 84.8256 40.3157 84.8256C40.2959 84.8654 40.2563 84.9052 40.1969 84.9052H39.9495C38.9497 94.1213 31.3479 101.327 22.1523 101.327C13.1845 101.327 5.741 94.4895 4.45423 85.6019C4.41463 85.5621 4.40474 85.4924 4.43443 85.4427C4.31565 84.5868 4.25626 83.7209 4.25626 82.8351C4.25626 72.6437 12.2937 64.3532 22.1622 64.3532C25.3198 64.3532 28.2794 65.1992 30.8529 66.6821C31.1994 66.1945 31.5953 65.7665 32.0308 65.3883C32.2486 65.1096 32.4862 64.8409 32.7534 64.6021C29.6355 62.7608 26.0226 61.7158 22.1622 61.7158C10.5714 61.7158 1.1482 71.1906 1.1482 82.8451C1.1482 94.4995 10.5714 103.974 22.1622 103.974C33.0504 103.974 42.0281 95.6142 43.0773 84.9351C43.0575 84.9451 43.0575 84.955 43.0377 84.9749C42.9684 85.0048 42.9189 85.0048 42.8596 85.0048Z" fill="white"/>
<path id="Vector_17" d="M44.5125 75.0328C44.0572 73.4205 43.4237 71.8679 42.6517 70.4248C41.8598 68.9319 40.8997 67.5584 39.8109 66.3044C37.752 63.9556 35.2477 62.1243 32.3673 60.8504C29.2593 59.477 25.7553 58.7803 21.9643 58.7803C18.2623 58.7803 14.8078 59.5267 11.6898 61.0096C9.19548 62.194 6.92877 63.8461 4.92932 65.9162C1.54411 69.4295 0.09896 73.0224 0.0890618 73.0622L-2.28882e-05 73.2911L0.138554 73.4901C0.27713 73.7091 0.494892 73.7887 0.702756 73.8683C0.871027 73.928 1.0294 73.9977 1.19767 74.1271C1.47482 74.346 1.73218 74.3461 1.90045 74.3162C2.37556 74.2167 2.64282 73.7589 2.93977 73.2115C2.97936 73.1418 3.04865 73.0323 3.11793 72.893C3.55346 72.1067 4.78085 69.8973 5.5925 68.9916C7.10694 70.3153 14.1347 76.8939 20.529 82.9152L20.9348 83.3033L21.7564 82.1887L6.62193 67.867C7.16633 67.2698 8.43331 65.9461 10.3635 64.6324C12.7589 63.0002 16.6588 61.0594 21.6574 61.0594C32.2288 61.0594 43.6019 68.494 43.6019 84.7962V85.2341L45.2054 85.3735L45.2648 84.9256C45.6805 81.6214 45.4232 78.1977 44.5125 75.0328Z" fill="white"/>
<path id="Vector_18" d="M50.006 84.2087C49.9169 84.1988 40.8797 83.5618 38.5338 83.4822C36.7126 83.4225 28.5663 82.5069 25.1514 82.1187C24.8247 80.7552 23.6072 79.75 22.1621 79.75C20.4695 79.75 19.0837 81.1434 19.0837 82.8452C19.0837 84.5571 20.4695 85.9405 22.1621 85.9405C23.3004 85.9405 24.2902 85.3234 24.8247 84.3978C29.6947 84.8855 46.8088 86.5774 49.4813 86.5774C49.5605 86.5774 49.6397 86.5774 49.6991 86.5675L50.0455 86.5476L50.0158 84.2585V84.2087H50.006Z" fill="white"/>
<path id="Vector_19" d="M39.9889 55.0576H39.8407C39.8704 55.0974 39.9791 55.2268 40.1767 55.5552L39.9889 55.0576Z" fill="white"/>
<path id="Vector_20" d="M49.5907 79.4316C50.4221 81.8003 50.917 83.4127 50.917 83.4127C50.917 83.4127 50.6993 82.9449 49.9371 81.5913L50.7983 83.761L51.214 83.6615L49.5907 79.4316Z" fill="white"/>
<path id="Vector_21" d="M39.8307 55.0381L39.8419 55.0605H39.8531L39.8307 55.0381Z" fill="white"/>
<path id="Vector_22" d="M40.4145 54.2715L38.8506 54.8189L37.8212 56.0132L49.5803 85.7016L51.2432 83.2334L40.4145 54.2715Z" fill="white"/>
<path id="Vector_23" d="M53.1933 78.0681C53.2131 77.8989 53.2329 77.7596 53.2428 77.68C53.6387 77.7297 54.1831 77.7894 54.3514 77.7496C54.7671 77.6302 54.7671 77.2221 54.777 76.406C54.777 76.2766 54.777 76.1473 54.7869 76.0278C54.7968 75.8089 54.7077 75.5899 54.5494 75.4307C54.2821 75.1719 53.8466 75.0823 53.5298 75.0525C53.4111 74.8136 53.2032 74.6146 52.9953 74.515C52.7281 74.3956 52.4509 74.4354 52.253 74.6146C52.1738 74.7041 52.1045 74.7937 52.0352 74.8733C52.0253 74.8932 52.0055 74.9131 51.9956 74.9331C51.6294 74.9729 50.7979 75.1222 50.6791 75.58C50.6395 75.7193 50.4911 76.7942 50.5802 77.0828C50.7187 77.5307 51.1938 77.461 51.4215 77.4311C51.4314 77.4311 51.4413 77.4311 51.4512 77.4311C51.4413 77.5406 51.4215 77.66 51.4116 77.7994C51.3621 77.7994 51.3126 77.7994 51.273 77.7994C49.234 77.7994 47.3632 78.5757 45.9577 79.8496L45.4528 79.9591L45.8191 79.979C44.2848 81.4321 43.3247 83.5022 43.3247 85.7913C43.3247 89.7524 46.2051 93.0467 49.9566 93.6836C49.7685 93.5244 49.6596 93.2855 49.7388 92.977C49.9071 92.34 49.8576 91.6732 49.8477 91.0263C49.8477 91.0064 49.8477 90.9765 49.8477 90.9566C49.4319 90.8372 49.0855 90.7277 48.8777 90.6481C48.9172 90.051 49.0954 89.0458 49.2835 88.8666C49.7388 88.4187 50.3624 88.3988 50.8177 88.4486L51.3324 88.5183C52.4014 88.8268 52.6687 89.4439 52.8271 90.0012C52.926 90.3495 52.4212 91.0761 52.1342 91.3647C51.9659 91.3547 51.6393 91.3249 51.2532 91.2552C51.2631 91.7429 51.2631 92.2306 51.2136 92.7083L52.0352 92.778C51.7778 92.7979 51.5304 92.8178 51.2631 92.8178C51.2433 92.8178 51.2136 92.8178 51.1938 92.8178C51.174 93.0069 51.1345 93.186 51.085 93.3652C51.0256 93.5742 50.9167 93.7035 50.7682 93.7832C50.9266 93.7931 51.0949 93.8031 51.2631 93.8031C55.6481 93.8031 59.2213 90.2102 59.2213 85.8012C59.2115 82.0889 56.6379 78.934 53.1933 78.0681ZM55.4699 81.0041L56.1925 83.1738C56.3113 83.542 56.5884 84.378 56.7864 85.5026C56.4993 85.8012 55.9846 86.05 55.4897 86.1098C55.1235 86.1595 54.8265 86.0898 54.6681 85.9406C54.1237 85.4131 54.2623 84.3979 54.2623 84.388L54.777 81.1434L55.4699 81.0041ZM51.7185 81.5415V81.5216L51.7284 81.4619L51.8471 80.4269L51.8669 80.2577L51.9065 79.979L51.9263 79.8098L51.9659 79.4913L51.9857 79.3221L52.0055 79.143L52.0154 79.0434L52.0253 78.9738L52.0352 78.8743V78.8643L52.055 78.6852L52.0748 78.516L52.0946 78.3468L52.1243 78.0581L52.1441 77.889L52.253 76.9534H52.5697L52.4509 77.9288L52.4311 78.098L52.3915 78.3766L52.3717 78.5458L52.3519 78.715L52.3321 78.8942L52.3124 79.0036L52.3025 79.0733L52.2827 79.1828L52.2629 79.3619V79.5112L52.2431 79.6804L52.2233 79.8496L52.2035 80.0188L52.1639 80.3074L52.1441 80.4766L52.0649 81.1534L52.0253 81.442L52.0055 81.5614H51.7284L51.7185 81.5415ZM46.5318 88.1998C46.3932 87.9012 46.2546 87.5429 46.1556 87.1349C46.2942 87.2344 46.4427 87.3339 46.601 87.4235C46.5713 87.7121 46.5516 87.9709 46.5318 88.1998ZM49.3429 92.569C48.7787 92.4097 48.2343 92.1808 47.7393 91.8822L47.7492 91.8225C47.9274 91.9419 48.1749 92.0813 48.5312 92.2405C48.7589 92.35 49.0459 92.4694 49.3429 92.569ZM48.165 87.6126C48.1749 87.5031 48.1848 87.4036 48.1848 87.324C48.5015 87.1448 48.8974 86.8761 49.1944 86.5377C49.2736 86.697 49.3627 86.8462 49.4616 86.9756C48.9865 87.0652 48.5015 87.2443 48.165 87.6126ZM49.0063 85.0647L48.6302 85.2538C48.2838 85.433 47.4325 85.7216 47.0168 85.5325C46.9277 85.4927 46.8188 85.4131 46.7594 85.1344C46.5021 83.9799 46.5614 83.1439 46.9475 82.5866C47.3137 82.0491 48.0363 81.7107 49.0756 81.5813L49.8081 81.5017L49.4419 80.2079L50.0654 80.2378C50.4218 80.2577 50.7286 80.2776 51.0157 80.3074C50.9761 80.5065 50.9464 80.6757 50.9266 80.815L49.6893 80.2577L49.7586 80.3671L49.7091 80.3472L50.105 80.9543L50.4614 81.5415C50.5307 81.661 50.8177 82.1188 51.2433 82.3676L51.7185 82.5965L52.2827 83.0543L52.4806 82.6562C52.6192 82.4074 53.6189 81.6908 54.2722 81.3425L53.0844 84.0197C53.0745 84.0396 53.0646 84.0695 53.0547 84.0993C52.639 83.5619 51.9857 83.2136 51.2532 83.2136C50.1545 83.2335 49.2241 84.0197 49.0063 85.0647ZM51.2532 86.697C50.6197 86.697 50.105 86.1794 50.105 85.5425C50.105 84.9055 50.6197 84.388 51.2532 84.388C51.8867 84.388 52.4014 84.9055 52.4014 85.5425C52.4014 86.1794 51.8867 86.697 51.2532 86.697ZM53.5892 87.9609C53.3121 87.7022 52.9953 87.5031 52.6687 87.3538C52.926 87.1448 53.1438 86.896 53.2923 86.6074C53.3022 86.6173 53.3022 86.6273 53.3121 86.6372C53.5298 86.9657 53.807 87.2244 54.1237 87.4036C53.9258 87.5927 53.7377 87.8017 53.5892 87.9609ZM54.4702 90.9069C54.777 89.9514 54.1732 88.6278 54.1732 88.6278C54.1732 88.6278 54.4702 88.2695 54.8562 87.8415C56.1034 88.0605 57.113 87.4534 57.3407 87.3837C56.2519 90.3993 54.876 90.9069 54.4702 90.9069Z" fill="white"/>
<path id="Vector_24" d="M52.6688 93.6341C52.5599 93.3255 52.2629 93.1165 52.1738 93.0568L51.9957 92.9473L51.7977 93.007C51.7284 93.0269 51.5701 93.0867 51.4414 93.216C51.4018 93.216 51.3523 93.2061 51.3028 93.2061C51.3919 92.4397 51.7185 89.6928 52.0353 87.0256L52.0749 86.6872L51.5404 86.9161L51.2731 86.7668H51.2632L50.798 86.8265L50.4021 86.4185L50.3526 86.7568C50.3526 86.7568 50.3526 86.7568 50.3526 86.7668L50.0457 86.8166L50.313 86.9858C50.1546 87.9611 49.5112 91.7729 49.2836 93.0867H48.9965C48.8678 92.9871 48.7293 92.9374 48.5907 92.9374H48.5808C48.4224 92.9374 48.2838 93.007 48.1848 93.1265C47.9572 93.3952 47.7295 94.9677 47.7493 95.4952C47.7592 95.7838 47.8681 96.0227 48.0661 96.2018C48.3927 96.4904 48.8777 96.5302 49.2143 96.5103C49.4716 96.6397 49.7983 96.7094 50.1249 96.7094C50.5703 96.7094 51.0059 96.59 51.4018 96.361C51.9363 96.361 52.7084 96.3113 52.7084 95.6743C52.7084 95.6445 52.7084 95.5549 52.7183 95.4355C52.7282 94.062 52.7183 93.7833 52.6688 93.6341ZM50.9465 86.9858L51.085 86.8862L51.3424 86.9858C51.3424 86.9858 50.6594 92.3303 50.501 93.4748C50.3328 93.3852 49.9764 93.4748 49.9764 93.4748L50.9465 86.9858Z" fill="white"/>
<path id="Vector_25" d="M60.7456 55.2168C60.7654 55.1471 60.7951 55.0675 60.7951 54.9879C60.7951 54.2613 60.2111 53.6841 59.4984 53.6841C58.8748 53.6841 58.37 54.1319 58.2413 54.7291H58.2314L54.9155 68.0954C55.4203 68.3442 56.1231 69.0608 56.4992 69.4788C57.7365 65.0001 58.8556 59.9926 58.8556 59.9926L59.0727 59.0883C59.0727 59.0883 57.786 64.4826 56.4992 69.4788C56.7269 69.7773 56.9545 70.0958 57.1624 70.4143L60.9138 55.3661C60.8841 55.3063 60.8148 55.2665 60.7456 55.2168Z" fill="white"/>
<path id="Vector_26" d="M41.2858 54.8987C41.2858 54.1722 40.7018 53.585 39.9891 53.585C39.7615 53.585 39.5437 53.6447 39.3557 53.7542C39.1181 53.7542 38.7321 53.8039 38.3955 54.0925C38.0392 54.411 37.8511 54.8987 37.8412 55.5456C36.4357 57.7252 21.1824 80.3672 21.0735 80.5265L20.7865 80.9345L20.8162 80.9544L20.8063 80.9744L20.9844 81.0639L21.2022 81.2033C21.2517 81.2431 21.3705 81.3127 22.1623 81.5317L22.4791 81.6014L22.687 81.3127C28.0023 73.8384 40.3752 56.4513 40.4445 56.3518C40.4841 56.2921 40.5336 56.1826 40.5929 56.0532C41.0087 55.8243 41.2858 55.3963 41.2858 54.8987ZM33.189 64.8413L31.6251 67.1204L31.1698 67.7872L22.3405 80.6658L22.004 80.636L33.8027 63.2489V63.2588C33.8027 63.2688 33.8027 63.2787 33.8027 63.2787C33.8918 63.6669 33.189 64.8413 33.189 64.8413Z" fill="white"/>
<path id="Vector_27" d="M90.7377 83.5324L60.3796 54.1426C59.6472 54.2023 58.5287 56.1928 58.5287 56.1928L88.4511 85.1149C88.4511 85.1149 89.1341 85.8414 90.0646 85.8414C91.9452 85.8414 90.7377 83.5324 90.7377 83.5324Z" fill="white"/>
</g>
<g id="Group 2">
<path id="Vector_28" d="M88.7616 8.06336C89.3278 7.47274 89.9435 7.70045 90.4814 7.96374C90.9556 8.19145 91.3519 8.56148 91.7482 8.90305C91.8261 8.96709 91.7978 9.27308 91.7128 9.33001C90.7786 10.0131 87.3037 15.4426 86.9357 17.058C86.872 17.3284 86.964 17.6344 86.9782 17.919C87.233 17.7838 87.5727 17.7055 87.7496 17.4991C88.7475 16.325 89.7666 15.158 90.7574 13.9696C92.0242 12.3329 93.7581 10.0914 94.5295 8.1701C94.6499 7.87835 94.848 7.77161 95.1382 7.84277C95.9804 8.04913 96.7589 8.3907 97.325 9.00979C97.6435 9.36559 97.6081 9.73562 97.318 10.1128C96.2988 11.4719 94.5932 13.3576 93.652 14.7595C93.2698 15.3288 92.923 15.9265 92.6329 16.5598C93.1636 15.9336 93.7015 15.3003 94.2677 14.7097C95.7822 13.1086 98.0964 11.1802 99.9577 9.97044C101.232 9.20192 102.598 9.58618 103.553 10.6393C103.935 11.0592 103.85 11.1588 103.411 11.5146C102.711 12.0625 101.288 13.2082 100.743 13.9056C99.802 15.1438 98.9316 16.4175 98.0752 17.7055C97.9903 17.8265 97.9407 17.9617 97.9407 18.1609C98.0611 18.0542 98.1955 17.9617 98.3158 17.8478C100.071 16.2183 102.583 14.1546 104.459 12.6745C104.983 12.276 105.584 11.9771 106.164 11.6569C106.915 11.2371 107.665 11.2727 108.401 11.7779C108.995 12.1835 109.54 12.6176 109.661 13.3078C107.629 13.8771 104.239 18.3958 103.348 19.6268C103.05 20.0538 102.874 20.559 102.704 21.0429C102.576 21.3987 102.782 21.598 103.128 21.4201C103.631 21.1639 104.147 20.8792 104.586 20.5163C106.363 19.022 108.719 16.5954 110.588 15.2149C111.6 14.4677 112.789 13.9625 114.063 13.9412C115.754 13.9412 117.905 15.0655 118.075 16.9512C118.075 16.9797 118.104 17.001 118.132 17.0508C118.557 16.9156 118.96 16.937 119.392 17.2501C120.014 17.7126 120.566 18.2107 120.786 18.9081C120.821 19.022 120.736 19.2426 120.637 19.271C119.378 19.6268 114.615 23.9818 113.928 25.2342C113.815 25.4477 113.822 25.7181 113.772 25.96C114.055 25.9387 114.381 26.0027 114.6 25.8818C115.867 25.1986 117.141 24.5297 118.387 23.8039C119.356 23.135 120.29 22.3949 121.246 21.7474C122.81 20.68 125.202 19.7478 124.636 20.0182C125.075 19.8047 125.556 19.8972 125.945 20.3242C126.363 20.7867 126.794 21.2635 127.12 21.7759C127.389 22.2099 127.24 22.274 126.83 22.4448C126.073 22.7436 125.337 23.1065 124.657 23.5335C123.136 24.5511 120.708 26.1522 119.505 27.5398C119.3 27.796 119.116 28.0806 118.967 28.3724C118.797 28.7139 118.974 28.9416 119.37 28.8847C119.71 28.8349 120.057 28.7424 120.354 28.593C121.876 27.8529 124.551 26.6574 126.073 25.9102C126.901 25.4762 127.63 24.8855 128.436 24.4159C128.995 24.1099 129.632 23.9106 130.248 23.7114C130.609 23.5904 130.963 23.7327 131.303 24.053C131.833 24.5582 132.293 25.099 132.527 25.7537C132.647 26.1024 132.654 26.2874 132.201 26.3585C131.522 26.4724 130.892 26.7713 130.291 27.0844C128.613 28.0237 126.051 29.5607 124.707 30.9483C124.537 31.1405 124.367 31.3397 124.254 31.5674C124.176 31.724 124.204 31.9304 124.183 32.1154C124.367 32.1581 124.572 32.2577 124.721 32.2221C125.329 32.0656 125.945 31.9232 126.518 31.6955C127.92 31.1334 129.328 30.5783 130.743 30.0589C131.034 29.9592 131.345 29.8952 131.649 29.824C131.685 29.8738 131.72 29.9094 131.763 29.9592C131.678 30.0731 131.621 30.2154 131.508 30.2866C130.567 30.8914 129.632 31.4963 128.67 32.0656C127.346 32.7416 126.058 33.2753 124.636 33.5457C124.346 33.6026 124.02 33.6311 123.702 33.6026C122.407 33.5314 121.487 32.2648 121.579 31.0266C121.635 30.5712 121.826 30.1442 121.982 29.7031C122.046 29.518 122.166 29.3544 122.194 29.1053C122.024 29.1836 121.855 29.2761 121.678 29.333C120.786 29.6604 119.894 30.0304 118.967 30.2581C117.7 30.6068 116.533 29.518 116.363 28.3297C116.306 27.6679 116.504 27.0773 116.752 26.4866C116.787 26.4012 116.816 26.3158 116.879 26.1593C116.264 26.4582 115.733 26.7499 115.181 26.999C114.792 27.1769 114.381 27.305 113.971 27.4331C112.449 27.9312 111.019 26.7001 111.175 25.1417C111.281 24.423 111.557 23.7256 111.762 22.9998C111.543 23.1421 111.295 23.3271 111.026 23.4766C110.241 23.932 109.441 24.4016 108.634 24.793C107.113 25.5544 105.266 24.3376 105.591 22.5871C105.676 22.0534 105.832 21.5268 105.952 20.9931C105.322 21.4272 104.699 21.9039 104.048 22.3238C103.652 22.58 103.192 22.7934 102.774 22.9713C101.642 23.441 100.425 22.5942 100.177 21.4699C100.149 20.1392 100.347 19.3635 100.92 18.2107C101.345 17.3355 101.954 16.4816 102.506 15.649L102.682 15.3715C102.654 15.3501 102.626 15.3217 102.598 15.2932C101.649 16.1258 100.729 16.9583 99.8233 17.8336C98.8112 18.8725 97.8346 19.9399 96.865 21.0216C96.2705 21.6833 95.9945 21.6691 95.4213 21.1212C94.8409 20.5661 94.5791 19.4418 94.8834 18.6733C95.4142 17.0295 96.1998 15.464 97.1198 14.0194C97.2543 13.806 97.3817 13.5925 97.509 13.379L97.4241 13.3007C97.0703 13.5854 96.6881 13.8487 96.3767 14.176C94.8126 15.8411 93.3123 17.5632 91.8544 19.3208C91.635 19.5841 91.4368 19.8545 91.2316 20.1249C90.9697 20.4523 90.6866 20.5092 90.3469 20.3384C89.3278 19.8545 89.0447 18.7231 89.257 17.6842C89.1155 17.8194 89.0235 17.9119 88.9315 18.0044C88.4573 18.4313 88.0185 18.901 87.5302 19.2924C86.3412 20.4309 84.6498 19.4489 84.4233 18.0755C84.303 17.3212 84.3738 16.4744 84.3596 15.6846C84.119 16.0119 83.8501 16.4389 83.5387 16.8018C82.9725 17.4778 82.3426 18.1823 81.7623 18.8014C80.7644 19.8617 79.1862 19.1287 78.7545 17.983C78.429 17.1149 78.4573 15.8909 78.6413 15.0014C79.0518 13.0445 80.2266 10.3832 81.3872 8.7038C82.0596 7.72891 82.9584 6.86788 84.0412 6.40534C85.768 5.66528 87.7567 6.42669 88.7616 8.06336ZM81.1254 16.3392C81.1041 16.4887 81.0617 16.6452 81.0758 16.7876C81.0971 16.9939 81.1678 17.1932 81.2244 17.3995C81.4085 17.2999 81.6349 17.2501 81.7623 17.1007C82.2223 16.567 82.6894 16.0261 83.0928 15.4426C84.3101 13.6992 86.0015 11.3865 87.3108 9.70004C87.7284 9.17345 87.7142 8.41916 87.233 7.94239C86.9287 7.64352 86.4545 7.69333 85.8529 8.09894C85.7255 8.18433 85.584 8.26973 85.492 8.38358C84.8338 9.14499 84.1119 9.94198 83.5882 10.7959C82.6328 12.3401 81.5429 14.5318 81.1254 16.3392ZM108.415 22.459C108.337 22.6653 108.231 22.8717 108.174 23.0852C108.068 23.4552 108.231 23.6189 108.599 23.4766C109.017 23.3129 109.441 23.1208 109.809 22.8717C111.77 21.5126 114.31 19.2497 116.348 18.0115C116.83 17.7269 116.978 16.9868 116.667 16.4389C116.462 16.0831 115.938 15.8981 115.336 16.1258C114.537 16.4246 113.737 16.7804 113.036 17.2501C111.409 18.3317 109.37 20.7369 108.415 22.459Z" fill="white"/>
<path id="Vector_29" d="M61.4437 10.4543C61.2101 10.6749 61.0686 10.8955 60.9624 11.1374C60.6652 11.8348 60.4033 12.5464 60.1273 13.2438C59.5258 14.7239 58.9525 16.2254 58.3722 17.7055C58.2589 17.9972 57.9334 18.41 57.7494 18.3815C57.3885 18.3317 57.4168 17.8122 57.4026 17.4564C57.3601 15.6347 57.5866 13.8202 57.9829 12.034C58.3085 10.5539 58.6977 9.23035 59.4408 7.89254C59.271 7.74311 59.1224 7.5154 58.9242 7.44424C58.3863 7.25922 57.8272 7.13113 57.2681 7.02439C56.7798 6.939 56.3977 7.18806 56.2278 7.66483C55.8598 8.72511 55.5201 9.79962 55.2228 10.8741C55.053 11.5146 55.053 12.2262 54.8619 12.8524C54.416 14.361 53.956 15.8767 53.496 17.3853C53.3049 18.0186 53.0218 18.6163 52.76 19.1998C52.7104 19.3208 52.5194 19.456 52.4132 19.4275C52.307 19.3991 52.1938 19.1998 52.1584 19.0575C52.0806 18.6946 52.031 18.3174 52.0027 17.9403C51.8541 15.8482 52.123 13.749 52.4981 11.6854C52.6467 10.8457 52.9015 9.95618 53.2412 9.18053C53.4252 8.74646 53.3686 8.51163 53.0431 8.40489C52.484 8.21988 51.8895 8.09891 51.3021 8.0064C50.7501 7.92101 50.382 8.24834 50.2193 8.78916C49.9716 9.60038 49.7097 10.4472 49.5823 11.2797C49.4266 12.3116 49.3771 13.4288 49.1931 14.4392C48.9171 15.9407 48.4712 17.5205 48.1032 19.0575C47.9758 19.577 47.7706 20.0751 47.5441 20.5448C47.3884 20.8721 47.1478 20.8294 47.0204 20.4594C46.9142 20.1534 46.8364 19.8189 46.801 19.4987C46.5533 17.5062 46.6453 15.5138 46.8505 13.4857C46.9708 12.2831 47.1195 11.0449 47.6927 9.95618C47.5087 9.81386 47.3318 9.60038 47.1265 9.55768C46.5462 9.43671 45.9517 9.36555 45.3643 9.33709C44.9397 9.32285 44.5929 9.57191 44.3877 9.97041C44.0904 10.5539 43.7578 11.1445 43.595 11.785C43.0147 13.9909 42.5476 16.2396 42.1159 18.4811C41.9885 19.1358 41.8753 19.7905 41.762 20.4451C41.6488 20.2957 41.6063 20.1534 41.5993 20.0182C41.3869 17.8905 41.3869 15.7557 41.6063 13.6351C41.663 13.0659 41.7267 12.4468 41.9531 11.9487C42.1867 11.4292 41.9744 11.2869 41.6559 11.1232C40.4315 10.4899 39.0586 11.3224 38.5136 12.5464C38.4782 12.6318 38.4358 12.7243 38.4075 12.8097C37.6148 15.0156 37.2326 17.3426 36.9425 19.698C36.8434 20.4807 36.7868 21.2706 36.7231 22.0462C36.6028 21.4485 36.5462 20.8579 36.532 20.2672C36.4895 18.3317 36.4825 16.3819 36.4895 14.4392C36.4966 13.7988 36.3268 13.4999 35.8314 13.3505C35.067 13.1086 34.2956 13.2295 33.5525 13.4928C33.2623 13.5996 33.1633 13.8344 33.2836 14.176C33.3614 14.3965 33.4393 14.6314 33.4605 14.8662C33.7294 17.2358 34.0904 19.6481 33.779 22.0391C33.6021 23.4054 33.4322 24.7645 33.2482 26.1237C33.1916 26.5649 32.9934 26.9634 32.8731 27.3761C32.682 26.7499 32.5617 26.145 32.4839 25.5331C32.1654 23.0567 31.8894 20.5732 31.6841 18.0897C31.6275 17.3639 31.6912 16.5954 31.854 15.8909C31.9531 15.4426 31.854 15.3074 31.5497 15.1935C30.8915 14.9302 30.2404 15.0228 29.5893 15.2291C29.2213 15.3501 28.9736 15.592 28.9311 16.0119C28.8674 16.6594 28.825 17.3141 28.8462 17.9688C28.8745 18.7586 29.0727 19.5485 29.0373 20.3242C28.9453 22.5088 28.8391 24.7076 28.7471 26.8922C28.733 27.3547 28.6339 27.8244 28.5065 28.2514C28.4003 28.6214 28.1526 28.6285 27.9615 28.2798C27.7846 27.9525 27.636 27.5825 27.5228 27.2267C26.8858 25.0847 26.5744 22.8646 26.4683 20.623C26.4329 19.8189 26.5603 19.0077 26.5886 18.2036C26.5956 18.0755 26.4399 17.862 26.3267 17.8122C25.5482 17.4849 24.7556 17.6201 24.0762 18.0826C23.5525 18.4384 23.6869 19.1856 23.6374 19.7905C23.6303 19.8332 23.6303 19.883 23.6374 19.9328C23.694 22.4305 24.062 24.9638 24.798 27.2765C25.1731 28.4506 25.619 29.3828 26.4399 30.2154C27.2751 31.055 29.2142 30.8843 29.4831 29.3757C29.6105 28.6427 29.745 27.7959 29.8582 26.9776C29.9148 26.572 29.9078 26.1521 29.929 25.7323C30.2687 27.0274 30.5589 28.3367 30.9127 29.6319C31.033 30.073 30.941 30.3363 30.6721 30.5854C30.0635 31.1476 29.1151 32.1723 28.9028 33.7164H28.8957C28.8179 34.613 28.7542 35.8939 29.9856 36.3849C30.6438 36.6269 31.5001 36.5699 32.1229 36.1999C32.8236 35.7872 33.227 35.04 33.2694 33.5883C33.2907 32.8269 33.4039 31.0835 33.3048 30.2154C33.2623 29.824 33.2553 29.4824 33.4534 29.1337C33.6799 28.7352 33.871 28.2869 33.9984 27.8173C34.2532 26.9064 34.4655 25.9742 34.699 25.0492C34.7132 25.0705 34.7556 25.1132 34.7698 25.163C35.0529 26.0525 35.8243 26.6431 36.7443 26.7214C37.3459 26.7712 37.5228 26.6005 37.5794 25.9031C37.5936 25.711 37.5936 25.5117 37.6077 25.3125C37.7847 22.8859 37.997 20.4594 38.2801 18.047C38.3367 17.5276 38.4995 17.0223 38.6198 16.51C38.6552 16.5171 38.6905 16.5242 38.7259 16.5385C38.7472 16.8089 38.7684 17.0864 38.7896 17.3497C38.9241 19.2141 39.1647 20.8223 39.653 22.6226C39.922 23.6402 40.7854 24.551 41.8682 24.6009C42.2291 24.6151 42.4202 24.4301 42.4627 24.0316C42.5122 23.626 42.5476 23.2204 42.5971 22.8147C42.8944 20.4024 43.2412 17.9972 43.6446 15.6063C43.6729 15.4568 43.7295 15.3074 43.772 15.1651C43.8498 15.8126 43.8569 16.4246 43.8923 17.0437C43.9277 17.677 43.963 18.3175 44.0692 18.9152C44.2674 20.0537 44.5221 21.0286 45.0883 21.9608C45.7111 22.9784 47.6644 23.4196 48.2943 21.9466C48.3509 21.8114 48.4571 21.6691 48.5066 21.5196C48.818 20.5874 49.1294 19.6553 49.4549 18.7231C49.6177 19.1856 49.7593 19.6766 49.9645 20.132C50.3467 20.9859 50.9128 21.5268 51.7338 21.6477C52.5547 21.7616 53.1138 21.299 53.4748 20.5163C53.8711 19.6268 54.2037 18.6946 54.5647 17.7909C54.6213 17.6485 54.6637 17.4991 54.7487 17.2358C54.9044 17.8478 55.0034 18.3459 55.1521 18.7942C55.4422 19.6339 56.0367 20.438 56.9709 20.5732C57.8839 20.7084 58.4359 20.0964 58.8747 19.2923C60.283 16.695 61.104 13.7703 61.5286 10.8528C61.5286 10.7318 61.4649 10.5895 61.4437 10.4543ZM31.0684 34.9404C30.7712 35.6306 30.1201 35.7445 30.1201 34.8621C30.1201 34.7909 30.6084 32.6561 31.2595 32.1865C31.2737 32.1723 31.309 32.1794 31.3727 32.1723C31.4577 32.8483 31.3232 34.3497 31.0684 34.9404Z" fill="white"/>
<path id="Vector_30" d="M27.3034 33.937C27.5157 33.7236 27.7209 33.5101 27.8908 33.261C28.1526 32.8697 28.188 32.5139 27.7917 32.1652C27.5015 31.909 25.8172 31.5461 24.4654 30.5498C22.6112 29.1836 21.217 27.5113 19.6883 25.7964C19.5893 25.6825 19.5397 25.4263 19.5609 25.2556C19.6883 24.2807 19.837 23.2915 20.021 22.3309C20.4527 20.1534 20.9693 18.0115 21.861 16.0048C22.0804 15.5209 22.4201 15.0512 22.7881 14.6741C23.05 14.4037 23.0571 14.2116 22.8377 14.0621C22.4272 13.7846 22.0026 13.5071 21.5355 13.3861C20.8561 13.2011 20.3607 13.4786 19.9714 14.1546C19.6742 14.667 19.4052 15.2149 19.2071 15.7628C18.2729 18.4456 17.827 21.2564 17.5439 24.0957C17.4661 24.9211 17.4095 25.7537 17.3599 26.5791C17.1759 25.7964 17.0698 25.0136 16.9495 24.238C16.7088 22.6796 16.4894 21.1354 15.994 19.6624C15.3288 17.6842 13.1844 17.798 11.9884 19.2426C11.1179 20.2815 10.4455 21.5126 10.0067 22.8005C9.40519 24.5653 9.13625 26.6503 9.74489 28.4293C10.1837 29.7244 11.9176 30.7847 13.2198 30.2652C13.3401 30.2154 13.4392 30.0588 13.6161 29.8809C12.8022 29.6888 12.4625 29.0982 12.2078 28.3937C11.6557 26.8709 11.5637 25.1275 11.8397 23.5335C12.0237 22.4661 12.3139 21.3631 12.8872 20.4238C13.0995 20.0751 13.2623 20.0751 13.3826 20.4309C13.4958 20.7511 13.602 21.0785 13.6586 21.4272C14.246 24.7646 14.8122 28.1518 15.5199 31.4322C15.8525 32.9906 16.2842 34.5561 16.7159 36.1003C16.9353 36.8688 17.4661 37.1819 18.1455 37.2246C18.4923 37.246 18.8461 37.2175 19.1859 37.1535C19.7662 37.0467 19.8157 36.9186 19.6105 36.3351C19.1859 35.1183 19.1009 33.8018 19.0938 32.521C19.0868 31.4038 19.1151 30.2794 19.1434 29.1622C19.292 29.2974 19.3628 29.3615 19.4336 29.4326C20.0917 30.1442 23.142 33.4389 24.7202 34.1149C25.4704 34.4423 26.631 34.6131 27.2468 33.9797C27.2751 33.9513 27.2892 33.9442 27.3034 33.937Z" fill="white"/>
<path id="Vector_31" d="M46.6877 6.64711C46.6736 6.14899 46.6523 5.64376 46.4896 5.18834C46.2489 4.52655 45.7394 4.27749 44.9609 4.34865C44.3735 4.40558 43.7719 4.49097 43.2128 4.65464C40.4952 5.43028 37.9474 6.68269 35.4775 8.08454C34.7627 8.49015 31.6063 10.7673 31.6133 10.938C31.6204 11.3792 32.9368 11.8347 33.602 11.6639C34.154 11.2867 35.5766 10.4613 35.6969 10.3972C36.5674 9.94181 37.452 9.4935 38.3437 9.09501C40.3607 8.19128 42.406 7.38717 44.5433 6.96733C45.067 6.86059 45.6403 6.87482 46.164 6.96021C46.532 7.02426 46.6948 6.91752 46.6877 6.64711Z" fill="white"/>
<path id="Vector_32" d="M110.68 10.4754C110.963 10.0698 111.246 9.64997 111.38 9.18032C111.578 8.5043 111.316 7.99906 110.644 7.59345C110.142 7.28747 109.604 7.00283 109.059 6.79646C106.412 5.80734 103.624 5.29499 100.807 4.95343C99.993 4.8538 96.1147 4.80399 96.0085 4.94631C95.7538 5.30211 96.5464 6.4549 97.1834 6.71107C97.8486 6.73242 99.4764 6.91743 99.6108 6.93878C100.58 7.08822 101.557 7.259 102.52 7.46537C104.671 7.94214 106.794 8.51141 108.762 9.44361C109.243 9.67132 109.696 10.0271 110.071 10.4043C110.34 10.6889 110.531 10.696 110.68 10.4754Z" fill="white"/>
<path id="Vector_33" d="M130.97 21.484C131.748 22.0675 133.843 22.9214 135.414 22.5016C135.62 22.4518 135.669 22.1956 135.485 22.0889C134.211 21.3346 133.518 21.1424 132.201 19.9683C131.748 19.5627 131.38 18.9578 131.203 18.5949C131.069 18.3103 130.913 18.2462 130.715 18.3672C130.361 18.5878 130.007 18.8226 129.76 19.1286C129.399 19.5769 129.47 20.011 129.901 20.4807C130.22 20.8436 130.574 21.1923 130.97 21.484Z" fill="white"/>
<path id="Vector_34" d="M77.8061 21.3061C78.0892 21.2136 78.3652 21.114 78.6342 20.9717C79.0447 20.744 79.2357 20.438 79.0376 19.947C78.889 19.5841 77.5514 18.4953 76.7941 17.001C75.7538 14.9444 75.2584 12.8168 74.6639 10.5895C74.6285 10.4472 74.6993 10.191 74.7913 10.0487C75.3433 9.23743 75.9165 8.4191 76.5181 7.64345C77.8769 5.89292 79.3065 4.22067 80.9909 2.83305C81.4014 2.4986 81.918 2.23531 82.4205 2.06453C82.7743 1.94356 82.8663 1.77277 82.7389 1.54506C82.4983 1.11099 82.2435 0.669797 81.8826 0.349578C81.3589 -0.120077 80.7927 -0.105845 80.1416 0.32823C79.6462 0.655565 79.1579 1.01848 78.7403 1.42409C76.7092 3.39522 75.046 5.70079 73.5245 8.11311C73.0786 8.81048 72.661 9.52919 72.2435 10.2408C72.4275 9.45803 72.6893 8.71085 72.93 7.96367C73.4183 6.46932 73.9066 4.9892 74.1331 3.44503C74.4303 1.38139 72.4629 0.506129 70.7431 1.25331C69.5046 1.78701 68.351 2.57688 67.3815 3.53042C66.058 4.83264 64.8832 6.56894 64.6214 8.43333C64.4374 9.79248 65.506 11.5217 66.9002 11.6498C67.0276 11.664 67.1833 11.5644 67.431 11.4861C66.787 10.9453 66.7516 10.2693 66.8365 9.52207C67.0276 7.90675 67.7282 6.31277 68.6907 5.01054C69.3348 4.14239 70.092 3.29559 71.0191 2.71208C71.3659 2.4986 71.5075 2.56976 71.4579 2.93979C71.4155 3.27424 71.3659 3.61581 71.2668 3.95026C70.2831 7.19515 69.2781 10.4685 68.443 13.7276C68.0467 15.2718 67.7282 16.8586 67.4168 18.4384C67.2611 19.2283 67.6009 19.7406 68.1883 20.0893C68.4855 20.2601 68.8181 20.4024 69.1508 20.502C69.7169 20.6657 69.8231 20.5803 69.9009 19.9683C70.0637 18.6875 70.5874 17.4777 71.1536 16.3249C71.649 15.3216 72.1727 14.3325 72.7035 13.3434C72.7743 13.5355 72.8167 13.6209 72.845 13.7134C73.1069 14.6456 74.3596 18.9721 75.4565 20.2885C75.9802 20.9148 76.9357 21.605 77.7778 21.3132C77.7778 21.299 77.792 21.299 77.8061 21.3061Z" fill="white"/>
</g>
</g>
</svg>
