<svg width="61" height="62" viewBox="0 0 61 62" fill="none" xmlns="http://www.w3.org/2000/svg">
<g id="Group 14">
<g id="g244">
<path id="path246" d="M28.1516 34.8974L29.7275 32.166L29.9902 32.0124L29.8387 32.8873L28.1516 34.8974ZM30.0675 32.9964L30.4699 32.5198L30.6246 33.3903L29.4087 36.7191L30.0675 32.9964ZM30.6786 32.2719L30.8417 32.0749L31.0027 32.3556L30.7919 32.9275L30.6786 32.2719ZM30.8777 33.4158L31.1605 32.632L31.5343 33.2738V37.1385L30.8777 33.4158ZM31.5343 32.7845L31.2717 32.3302L31.3988 31.9807L31.5343 32.0961V32.7845ZM31.5343 31.7763L31.4888 31.736L31.5343 31.6089V31.7763ZM31.5343 30.2099L31.4888 30.0828L31.5343 30.0415V30.2099ZM31.3045 31.5253L31.2886 31.5687L31.2759 31.5581L31.3045 31.5253ZM31.2759 30.2607L31.2886 30.2533L31.3045 30.2978L31.2759 30.2607ZM31.5343 29.7216L31.3988 29.8381L31.2717 29.4886L31.5343 29.0364V29.7216ZM31.0101 29.944L31.1107 29.7693L31.1997 30.0065L31.116 30.0743L31.0101 29.944ZM31.116 31.7477L31.1997 31.8123L31.1107 32.0538L31.0101 31.8748L31.116 31.7477ZM31.116 31.3685L31.0885 31.3971L31.0747 31.3897L31.116 31.3685ZM31.0747 30.4323L31.0885 30.4206L31.116 30.4535L31.0747 30.4323ZM31.5343 28.545L31.1605 29.1889L30.8777 28.4062L31.5343 24.6803V28.545ZM30.8459 31.521L30.9275 31.5909L30.8777 31.6449L30.8184 31.539L30.8459 31.521ZM30.8184 30.2829L30.8777 30.1738L30.9275 30.2321L30.8459 30.3009L30.8184 30.2829ZM30.7919 28.8913L31.0027 29.4664L30.8417 29.7439L30.6786 29.55L30.7919 28.8913ZM30.6044 31.6629L30.7104 31.8451L30.6214 31.9553L30.5727 31.6778L30.6044 31.6629ZM30.5727 30.141L30.6214 29.8678L30.7104 29.9726L30.6013 30.159L30.5727 30.141ZM30.346 30.0097L30.2698 29.9663L30.1543 29.3096L30.4159 29.6199L30.346 30.0097ZM30.4159 32.2031L30.1543 32.5081L30.2698 31.8568L30.346 31.8091L30.4159 32.2031ZM30.6246 28.4284L30.4699 29.3033L30.0675 28.8256L29.4087 25.0986L30.6246 28.4284ZM30.0675 31.5761L30.0474 31.7L29.9743 31.7403L30.0675 31.5761ZM29.9743 30.0785L30.0474 30.122L30.0675 30.2427L29.9743 30.0785ZM29.8387 28.9315L29.9902 29.8053L29.7275 29.6528L28.1516 26.9245L29.8387 28.9315ZM29.5475 29.8349L29.8557 30.3666L28.4958 29.227L29.5475 29.8349ZM29.8557 31.4522L29.5475 31.9881L28.5 32.5928L29.8557 31.4522ZM31.7843 28.6106L33.3613 25.8781L32.1486 29.2079L31.7843 29.5172V28.6106ZM31.7843 29.8381L31.976 29.674L31.7843 30.2099V29.8381ZM31.7843 31.6089L31.976 32.1438L31.7843 31.9807V31.6089ZM31.7843 32.3048L32.1486 32.6108L33.3613 35.9396L31.7843 33.2082V32.3048ZM32.3562 32.4647L32.0713 31.6809L32.1783 31.7212L33.8644 33.7292L32.3562 32.4647ZM32.3234 31.5104L32.2016 31.3643L32.6771 31.6375L32.3234 31.5104ZM32.2016 30.4535L32.3234 30.3084L32.6771 30.1813L32.2016 30.4535ZM32.1783 30.1008L32.0713 30.1368L32.3562 29.3573L33.8644 28.0895L32.1783 30.1008ZM27.2386 35.983L12.7438 53.2421C12.8094 53.294 12.8751 53.3406 12.9408 53.3915L26.5258 37.2158L15.9836 55.4609C16.0524 55.5044 16.1234 55.5446 16.1964 55.5891L27.4388 36.126L29.7519 33.3723L28.9268 38.0567L21.6519 58.0187C21.7302 58.0473 21.8065 58.0695 21.888 58.0949L28.6801 39.4548L25.239 58.9295C25.3206 58.9475 25.4032 58.9613 25.4848 58.9761L29.1641 38.1224L30.7104 33.8786L31.5343 38.5588V59.3955C31.6169 59.3913 31.6985 59.3881 31.7843 59.3839V39.9578L35.1469 59.0386C35.2327 59.0238 35.309 59.0121 35.3905 59.0015L31.7843 38.5365V33.7028L33.8474 37.2772L41.1626 57.362C41.2399 57.3334 41.313 57.3006 41.3914 57.2678L34.556 38.5047L44.521 55.749C44.5909 55.7088 44.664 55.6728 44.735 55.6283L34.0698 37.1713L32.5257 32.9275L34.7773 34.8148L49.4279 52.2582C49.4882 52.2084 49.5507 52.1534 49.6121 52.0994L35.8671 35.7278L52.2122 49.4357C52.2662 49.3743 52.3224 49.3086 52.3753 49.2461L34.9531 34.6433L32.639 31.8896L33.9057 32.3524L55.4976 44.7375L55.5865 44.5734L35.2401 32.8322L57.2917 40.8538C57.3182 40.7776 57.3521 40.7045 57.3806 40.624L34.0105 32.1258L32.3234 31.1535L58.6844 35.7331C58.6908 35.6706 58.7003 35.6123 58.7109 35.5509L33.0658 31.0328H59.0975C59.0975 30.9671 59.1006 30.9057 59.1006 30.84V30.786H33.069L58.7363 26.2636C58.7204 26.181 58.7077 26.1048 58.695 26.0243L32.3234 30.6684L34.0105 29.692L57.4262 21.1831C57.3976 21.1026 57.3679 21.0264 57.3404 20.9501L35.2401 28.9855L55.649 17.2126C55.6067 17.1427 55.5675 17.0696 55.5251 16.9976L33.9057 29.4706L32.639 29.9334L34.9531 27.1755L52.4463 12.5133C52.3912 12.4477 52.3383 12.3852 52.2864 12.3238L35.8671 26.09L49.682 9.63894C49.6196 9.58492 49.5592 9.52985 49.4935 9.47477L34.7773 27.004L32.5257 28.8913L34.0698 24.6506L44.8006 6.08354C44.7254 6.04012 44.6524 6.00304 44.5835 5.95962L34.556 23.314L41.4369 4.42604C41.3586 4.39321 41.2855 4.36461 41.2071 4.33178L33.8474 24.5458L31.7843 28.115V23.2812L35.417 2.68488C35.3344 2.67111 35.2571 2.65629 35.1745 2.64146L31.7843 21.861V2.29195C31.6985 2.28772 31.6169 2.28348 31.5343 2.2803V23.259L30.7104 27.9444L29.1641 23.6996L25.4604 2.70395C25.3799 2.72089 25.3005 2.73571 25.2147 2.75054L28.6801 22.3672L21.8393 3.59571C21.7631 3.62218 21.6847 3.64548 21.6063 3.67196L28.9268 23.7621L29.7519 28.4465L27.4388 25.6928L16.135 6.12378C16.0619 6.16826 15.992 6.20745 15.9232 6.25087L26.5258 24.6072L12.8656 8.33942C12.7999 8.3892 12.7406 8.44004 12.6749 8.49193L27.2386 25.8347L29.2986 29.4081L27.4102 28.3151L8.55925 12.5091C8.50418 12.5748 8.45546 12.6373 8.39827 12.6987L26.1816 27.6055L6.0566 15.9988C6.00682 16.0751 5.96551 16.1524 5.91574 16.2287L27.2672 28.5195L29.5189 30.4058L29.0783 30.3306L3.61537 21.0698C3.59101 21.1503 3.56136 21.2234 3.53382 21.3028L27.676 30.0828L2.38151 25.6165C2.36245 25.7076 2.34551 25.7945 2.3328 25.8781L29.0116 30.571L29.6131 30.786H1.9028V30.84V31.0328H29.6131L29.0116 31.252L2.35927 35.9364C2.37516 36.0233 2.39105 36.108 2.40693 36.1906L27.6803 31.736L3.5783 40.5011C3.6069 40.5763 3.63655 40.6568 3.66303 40.7299L29.0783 31.4924L29.5189 31.4119L27.2672 33.3024L5.99093 45.5711C6.04389 45.6547 6.09261 45.732 6.14238 45.8147L26.1774 34.2133L8.46817 49.0608C8.52642 49.1275 8.57938 49.1847 8.6281 49.2504L27.4102 33.5026L29.2986 32.4138L27.2386 35.983Z" fill="#FFC93A"/>
</g>
<g id="g248">
<path id="path250" d="M8.6285 49.2504C8.57978 49.1847 8.52577 49.1275 8.46857 49.0608C7.62129 48.0366 6.84285 46.9511 6.14279 45.8147C6.09301 45.732 6.04429 45.6547 5.99134 45.5711C5.07204 44.0449 4.29042 42.4277 3.66343 40.7299C3.6359 40.6568 3.6073 40.5763 3.57764 40.5011C3.08093 39.1084 2.69012 37.6744 2.40734 36.1906C2.39145 36.108 2.37451 36.0233 2.35862 35.9364C2.06631 34.3446 1.91486 32.7051 1.90321 31.0328V30.84V30.785C1.90321 29.1137 2.05466 27.4742 2.3332 25.8781C2.34591 25.7945 2.3618 25.7076 2.38192 25.6165C2.65411 24.137 3.04174 22.6945 3.53422 21.3028C3.5607 21.2223 3.59035 21.1503 3.61577 21.0698C4.23429 19.3753 5.00637 17.7548 5.91614 16.2287C5.96592 16.1514 6.00722 16.0751 6.057 15.9988C6.76024 14.8455 7.54716 13.7398 8.39867 12.6987C8.45587 12.6373 8.50458 12.5748 8.55966 12.5091C9.79563 11.037 11.1714 9.68978 12.6753 8.49193C12.741 8.44004 12.8003 8.3892 12.866 8.33942C13.8382 7.57687 14.856 6.8821 15.9225 6.25088C15.9914 6.20745 16.0613 6.16827 16.1343 6.12378C17.8512 5.12505 19.6845 4.29895 21.6067 3.67196C21.684 3.64548 21.7635 3.62218 21.8397 3.59571C22.9433 3.24938 24.0691 2.96555 25.2151 2.75055C25.3009 2.73572 25.3803 2.72089 25.4608 2.70394C27.095 2.41163 28.7821 2.26229 30.5032 2.26229C30.8463 2.26229 31.1905 2.26971 31.5347 2.28031C31.6163 2.28349 31.6978 2.28772 31.7836 2.29195C32.9296 2.33961 34.0639 2.45929 35.1749 2.64146C35.2564 2.65628 35.3348 2.67111 35.4174 2.68488C37.4265 3.0312 39.3657 3.58829 41.2075 4.33178C41.2859 4.36461 41.3579 4.39321 41.4373 4.42604C42.5219 4.87404 43.5714 5.38771 44.5829 5.95962C44.6528 6.00305 44.7258 6.04011 44.8 6.08248C46.4787 7.05261 48.0514 8.19221 49.4939 9.47478C49.5596 9.52985 49.6189 9.58493 49.6824 9.63894C50.607 10.4767 51.4755 11.3769 52.2868 12.3227C52.3387 12.3852 52.3916 12.4477 52.4467 12.5133C53.6096 13.9008 54.6412 15.4015 55.5244 16.9976C55.5679 17.0696 55.6071 17.1427 55.6484 17.2115C56.2965 18.4072 56.8653 19.6559 57.3397 20.9491C57.3673 21.0264 57.3969 21.1026 57.4266 21.1831C57.9826 22.7379 58.4084 24.352 58.6943 26.0243C58.707 26.1048 58.7198 26.181 58.7367 26.2636C58.9697 27.7358 59.0979 29.2482 59.101 30.785V30.84C59.101 30.9057 59.0979 30.9671 59.0979 31.0328C59.0883 32.5695 58.957 34.0819 58.7113 35.5498C58.6996 35.6123 58.6912 35.6706 58.6837 35.7331C58.3925 37.4192 57.9498 39.0544 57.3811 40.624C57.3514 40.7045 57.3186 40.7776 57.291 40.8538C56.8113 42.1385 56.2383 43.3819 55.5869 44.5734L55.498 44.7375C54.5988 46.3431 53.5503 47.8513 52.3757 49.2461C52.3228 49.3086 52.2667 49.3743 52.2126 49.4357C51.4056 50.3794 50.5382 51.269 49.6125 52.0994C49.5511 52.1534 49.4886 52.2084 49.4283 52.2582C47.9868 53.5344 46.4172 54.6666 44.7343 55.6283C44.6634 55.6728 44.5903 55.7088 44.5214 55.749C43.5132 56.3199 42.47 56.823 41.3918 57.2678C41.3134 57.3006 41.2403 57.3334 41.163 57.362C39.3287 58.0981 37.3947 58.6563 35.3909 59.0015C35.3094 59.0121 35.2331 59.0238 35.1473 59.0386C34.0438 59.2208 32.9232 59.3362 31.7836 59.3839C31.6978 59.3881 31.6163 59.3913 31.5347 59.3955C31.1905 59.4103 30.8463 59.4177 30.5032 59.4177C28.7896 59.4177 27.1141 59.2684 25.4852 58.9761C25.4036 58.9613 25.321 58.9475 25.2394 58.9295C24.0956 58.7219 22.9783 58.4402 21.8884 58.0949C21.8069 58.0695 21.7296 58.0473 21.6523 58.0187C19.7395 57.3959 17.9083 56.5825 16.1958 55.5891C16.1227 55.5446 16.0517 55.5044 15.984 55.4609C14.9227 54.8382 13.9071 54.1455 12.9412 53.3915C12.8755 53.3406 12.8098 53.294 12.7442 53.2421C11.2402 52.0528 9.86447 50.7109 8.6285 49.2504ZM0 31.0042C0 47.8365 13.6571 61.4788 30.5032 61.4788C47.3471 61.4788 61 47.8365 61 31.0042C61 14.1708 47.3471 0.521137 30.5032 0.521137C13.6571 0.521137 0 14.1708 0 31.0042Z" fill="#FFC93A"/>
</g>
</g>
</svg>
