<svg width="44" height="44" viewBox="0 0 44 44" fill="none" xmlns="http://www.w3.org/2000/svg">
<g id="Group 14">
<g id="g244">
<path id="path246" d="M20.5792 24.7728L21.7004 22.8295L21.8873 22.7202L21.7795 23.3426L20.5792 24.7728ZM21.9423 23.4202L22.2286 23.0812L22.3386 23.7006L21.4736 26.0688L21.9423 23.4202ZM22.3771 22.9049L22.4931 22.7647L22.6076 22.9644L22.4577 23.3713L22.3771 22.9049ZM22.5187 23.7186L22.7199 23.161L22.9859 23.6177V26.3672L22.5187 23.7186ZM22.9859 23.2695L22.799 22.9463L22.8895 22.6976L22.9859 22.7798V23.2695ZM22.9859 22.5522L22.9535 22.5236L22.9859 22.4332V22.5522ZM22.9859 21.4378L22.9535 21.3474L22.9859 21.318V21.4378ZM22.8224 22.3736L22.8111 22.4045L22.802 22.397L22.8224 22.3736ZM22.802 21.4739L22.8111 21.4687L22.8224 21.5003L22.802 21.4739ZM22.9859 21.0904L22.8895 21.1733L22.799 20.9246L22.9859 20.6029V21.0904ZM22.6129 21.2486L22.6845 21.1243L22.7478 21.2931L22.6883 21.3413L22.6129 21.2486ZM22.6883 22.5319L22.7478 22.5778L22.6845 22.7496L22.6129 22.6223L22.6883 22.5319ZM22.6883 22.2621L22.6687 22.2825L22.6589 22.2772L22.6883 22.2621ZM22.6589 21.596L22.6687 21.5877L22.6883 21.6111L22.6589 21.596ZM22.9859 20.2533L22.7199 20.7114L22.5187 20.1546L22.9859 17.5037V20.2533ZM22.4961 22.3706L22.5541 22.4203L22.5187 22.4588L22.4765 22.3834L22.4961 22.3706ZM22.4765 21.4898L22.5187 21.4122L22.5541 21.4536L22.4961 21.5026L22.4765 21.4898ZM22.4577 20.4997L22.6076 20.9088L22.4931 21.1062L22.3771 20.9683L22.4577 20.4997ZM22.3243 22.4716L22.3997 22.6012L22.3364 22.6796L22.3017 22.4821L22.3243 22.4716ZM22.3017 21.3888L22.3364 21.1944L22.3997 21.269L22.3221 21.4016L22.3017 21.3888ZM22.1405 21.2954L22.0862 21.2645L22.0041 20.7973L22.1902 21.0181L22.1405 21.2954ZM22.1902 22.8559L22.0041 23.0729L22.0862 22.6095L22.1405 22.5756L22.1902 22.8559ZM22.3386 20.1704L22.2286 20.7928L21.9423 20.4529L21.4736 17.8014L22.3386 20.1704ZM21.9423 22.4098L21.928 22.498L21.876 22.5266L21.9423 22.4098ZM21.876 21.3443L21.928 21.3752L21.9423 21.4611L21.876 21.3443ZM21.7795 20.5283L21.8873 21.1499L21.7004 21.0414L20.5792 19.1004L21.7795 20.5283ZM21.5723 21.171L21.7916 21.5493L20.8241 20.7385L21.5723 21.171ZM21.7916 22.3216L21.5723 22.7029L20.8271 23.1332L21.7916 22.3216ZM23.1637 20.3L24.2857 18.3559L23.4229 20.725L23.1637 20.945V20.3ZM23.1637 21.1733L23.3001 21.0565L23.1637 21.4378V21.1733ZM23.1637 22.4332L23.3001 22.8137L23.1637 22.6976V22.4332ZM23.1637 22.9282L23.4229 23.146L24.2857 25.5142L23.1637 23.571V22.9282ZM23.5706 23.042L23.3679 22.4844L23.444 22.513L24.6436 23.9417L23.5706 23.042ZM23.5473 22.3631L23.4606 22.2591L23.7989 22.4535L23.5473 22.3631ZM23.4606 21.6111L23.5473 21.5079L23.7989 21.4174L23.4606 21.6111ZM23.444 21.3602L23.3679 21.3858L23.5706 20.8312L24.6436 19.9293L23.444 21.3602ZM19.9297 25.5451L9.61719 37.8243C9.66391 37.8612 9.71062 37.8944 9.75734 37.9305L19.4226 26.4222L11.9222 39.4029C11.9711 39.4338 12.0216 39.4624 12.0736 39.494L20.0721 25.6469L21.7177 23.6877L21.1308 27.0205L15.9549 41.2226C16.0107 41.2429 16.0649 41.2588 16.123 41.2768L20.9552 28.0151L18.5071 41.8706C18.5651 41.8834 18.6239 41.8932 18.6819 41.9038L21.2996 27.0672L22.3997 24.0479L22.9859 27.3777V42.2021C23.0447 42.1991 23.1027 42.1969 23.1637 42.1939V28.373L25.5561 41.9482C25.6171 41.9377 25.6714 41.9294 25.7294 41.9218L23.1637 27.3618V23.9228L24.6316 26.4659L29.836 40.7554C29.891 40.7351 29.943 40.7117 29.9988 40.6884L25.1357 27.3392L32.2254 39.6078C32.2751 39.5792 32.3271 39.5536 32.3776 39.5219L24.7898 26.3906L23.6912 23.3713L25.2931 24.714L35.7164 37.1243C35.7593 37.0889 35.8038 37.0497 35.8475 37.0112L26.0685 25.3635L37.6974 35.1162C37.7358 35.0725 37.7757 35.0258 37.8134 34.9813L25.4182 24.592L23.7718 22.6328L24.673 22.9621L40.0347 31.7736L40.098 31.6568L25.6224 23.3035L41.3112 29.0105C41.33 28.9563 41.3541 28.9043 41.3745 28.847L24.7476 22.8009L23.5473 22.1091L42.302 25.3673C42.3066 25.3229 42.3133 25.2814 42.3209 25.2377L24.0755 22.0232H42.5959C42.5959 21.9765 42.5982 21.9328 42.5982 21.8861V21.8477H24.0777L42.339 18.6302C42.3277 18.5714 42.3186 18.5172 42.3096 18.4599L23.5473 21.764L24.7476 21.0693L41.4069 15.0156C41.3865 14.9584 41.3654 14.9041 41.3458 14.8499L25.6224 20.5667L40.1425 12.1907C40.1124 12.141 40.0845 12.089 40.0543 12.0378L24.673 20.9118L23.7718 21.2411L25.4182 19.279L37.8639 8.84744C37.8247 8.80072 37.787 8.75626 37.7501 8.71256L26.0685 18.5066L35.8972 6.80242C35.8528 6.76399 35.8098 6.72481 35.7631 6.68563L25.2931 19.1569L23.6912 20.4997L24.7898 17.4826L32.4243 4.2729C32.3708 4.24201 32.3188 4.21563 32.2699 4.18474L25.1357 16.5317L30.0312 3.09366C29.9754 3.07031 29.9234 3.04996 29.8677 3.0266L24.6316 17.408L23.1637 19.9473V16.5083L25.7483 1.8549C25.6895 1.8451 25.6345 1.83456 25.5757 1.82401L23.1637 15.4979V1.57535C23.1027 1.57234 23.0447 1.56932 22.9859 1.56706V16.4925L22.3997 19.826L21.2996 16.806L18.6645 1.86846C18.6073 1.88052 18.5508 1.89107 18.4897 1.90162L20.9552 15.8581L16.0883 2.50291C16.0341 2.52175 15.9783 2.53833 15.9225 2.55717L21.1308 16.8504L21.7177 20.1832L20.0721 18.2241L12.0299 4.30154C11.9779 4.33318 11.9282 4.36106 11.8792 4.39196L19.4226 17.4517L9.70384 5.87787C9.65713 5.91328 9.61493 5.94945 9.56821 5.98638L19.9297 18.325L21.3952 20.8674L20.0517 20.0898L6.64008 8.84442C6.6009 8.89114 6.56624 8.9356 6.52555 8.9793L19.1777 19.5849L4.85955 11.3272C4.82414 11.3815 4.79475 11.4365 4.75933 11.4907L19.95 20.2352L21.552 21.5772L21.2385 21.5237L3.12272 14.935C3.10539 14.9923 3.08429 15.0443 3.0647 15.1008L20.2409 21.3474L2.24488 18.1698C2.23132 18.2346 2.21926 18.2964 2.21022 18.3559L21.191 21.6947L21.619 21.8477H1.9043V21.8861V22.0232H21.619L21.191 22.1792L2.22906 25.512C2.24036 25.5738 2.25166 25.6341 2.26297 25.6928L20.2439 22.5236L3.09634 28.7596C3.11669 28.8131 3.13779 28.8704 3.15663 28.9224L21.2385 22.3503L21.552 22.293L19.95 23.638L4.81283 32.3666C4.85051 32.4262 4.88517 32.4812 4.92058 32.5399L19.1747 24.286L6.57528 34.8494C6.61673 34.8969 6.6544 34.9376 6.68906 34.9843L20.0517 23.7804L21.3952 23.0058L19.9297 25.5451Z" fill="#5567EA"/>
</g>
<g id="g248">
<path id="path250" d="M6.6896 34.9843C6.65494 34.9376 6.61651 34.8969 6.57582 34.8495C5.97301 34.1208 5.41919 33.3485 4.92112 32.54C4.8857 32.4812 4.85104 32.4262 4.81337 32.3667C4.15932 31.2809 3.60324 30.1303 3.15716 28.9224C3.13757 28.8704 3.11722 28.8131 3.09613 28.7596C2.74273 27.7688 2.46469 26.7485 2.2635 25.6929C2.2522 25.6341 2.24014 25.5738 2.22884 25.512C2.02087 24.3795 1.91312 23.2131 1.90483 22.0233V21.8861V21.847C1.90483 20.6579 2.01258 19.4915 2.21076 18.356C2.2198 18.2964 2.2311 18.2346 2.24542 18.1698C2.43907 17.1172 2.71485 16.0909 3.06523 15.1008C3.08407 15.0436 3.10517 14.9923 3.12325 14.935C3.5633 13.7294 4.11261 12.5766 4.75987 11.4908C4.79528 11.4358 4.82467 11.3815 4.86008 11.3273C5.36041 10.5067 5.92027 9.72003 6.52609 8.97933C6.56678 8.93563 6.60144 8.89117 6.64062 8.84445C7.51996 7.79708 8.49877 6.83862 9.56875 5.9864C9.61546 5.94948 9.65766 5.91332 9.70438 5.8779C10.3961 5.33538 11.1202 4.84108 11.879 4.39199C11.928 4.36109 11.9777 4.33321 12.0297 4.30156C13.2511 3.59101 14.5555 3.00327 15.9231 2.55719C15.9781 2.53836 16.0346 2.52178 16.0888 2.50294C16.874 2.25655 17.675 2.05461 18.4903 1.90165C18.5513 1.8911 18.6078 1.88054 18.6651 1.86849C19.8277 1.66052 21.0281 1.55428 22.2525 1.55428C22.4967 1.55428 22.7415 1.55956 22.9864 1.56709C23.0445 1.56935 23.1025 1.57236 23.1635 1.57537C23.9788 1.60928 24.7858 1.69443 25.5762 1.82403C25.6343 1.83458 25.69 1.84513 25.7488 1.85493C27.1782 2.10132 28.5579 2.49767 29.8682 3.02663C29.924 3.04999 29.9752 3.07033 30.0317 3.09369C30.8033 3.41242 31.55 3.77788 32.2696 4.18477C32.3194 4.21566 32.3714 4.24204 32.4241 4.27218C33.6184 4.96239 34.7374 5.77316 35.7636 6.68566C35.8104 6.72484 35.8526 6.76402 35.8978 6.80245C36.5556 7.39847 37.1735 8.03895 37.7506 8.71183C37.7876 8.75629 37.8252 8.80075 37.8644 8.84747C38.6918 9.83456 39.4257 10.9023 40.0541 12.0378C40.085 12.0891 40.1129 12.141 40.1423 12.19C40.6034 13.0407 41.008 13.9291 41.3456 14.8491C41.3652 14.9042 41.3863 14.9584 41.4074 15.0157C41.803 16.1218 42.1059 17.2702 42.3094 18.4599C42.3184 18.5172 42.3274 18.5715 42.3395 18.6302C42.5053 19.6776 42.5964 20.7536 42.5987 21.847V21.8861C42.5987 21.9329 42.5964 21.9766 42.5964 22.0233C42.5897 23.1166 42.4962 24.1926 42.3214 25.237C42.3131 25.2814 42.3071 25.3229 42.3018 25.3673C42.0946 26.5669 41.7796 27.7303 41.375 28.847C41.3539 28.9043 41.3305 28.9563 41.311 29.0105C40.9696 29.9245 40.562 30.8092 40.0986 31.6569L40.0353 31.7737C39.3955 32.916 38.6496 33.989 37.8139 34.9813C37.7763 35.0258 37.7363 35.0725 37.6979 35.1162C37.1237 35.7876 36.5066 36.4205 35.848 37.0113C35.8043 37.0497 35.7599 37.0889 35.7169 37.1243C34.6914 38.0323 33.5747 38.8378 32.3774 39.522C32.3269 39.5536 32.2749 39.5792 32.2259 39.6079C31.5086 40.014 30.7664 40.3719 29.9993 40.6884C29.9436 40.7117 29.8916 40.7351 29.8366 40.7554C28.5315 41.2791 27.1556 41.6762 25.73 41.9219C25.6719 41.9294 25.6177 41.9377 25.5566 41.9482C24.7715 42.0779 23.9743 42.16 23.1635 42.1939C23.1025 42.1969 23.0445 42.1992 22.9864 42.2022C22.7415 42.2127 22.4967 42.218 22.2525 42.218C21.0333 42.218 19.8413 42.1118 18.6824 41.9038C18.6244 41.8932 18.5656 41.8834 18.5076 41.8706C17.6938 41.7229 16.8989 41.5225 16.1235 41.2769C16.0655 41.2588 16.0105 41.243 15.9555 41.2226C14.5946 40.7796 13.2918 40.2009 12.0734 39.4941C12.0214 39.4624 11.9709 39.4338 11.9227 39.4029C11.1677 38.9598 10.4451 38.467 9.75788 37.9306C9.71116 37.8944 9.66444 37.8612 9.61772 37.8243C8.54774 36.9781 7.56894 36.0234 6.6896 34.9843ZM0.550781 22.0029C0.550781 33.9784 10.2672 43.6843 22.2525 43.6843C34.2363 43.6843 43.9497 33.9784 43.9497 22.0029C43.9497 10.0267 34.2363 0.315514 22.2525 0.315514C10.2672 0.315514 0.550781 10.0267 0.550781 22.0029Z" fill="#5567EA"/>
</g>
</g>
</svg>
