<svg width="56" height="56" viewBox="0 0 56 56" fill="none" xmlns="http://www.w3.org/2000/svg">
<g id="Frame" clip-path="url(#clip0_2154_63742)">
<g id="Group">
<path id="Vector" d="M11.8473 50.4555C10.6294 51.6303 8.72577 51.6306 7.51324 50.4601C5.36212 48.3838 3.48669 46.2019 1.77155 43.7785C-0.938293 39.9471 -0.484571 34.746 2.85038 31.4111C6.62307 27.6384 12.7293 27.6379 16.5025 31.4111C19.8375 34.7459 20.2913 39.9471 17.5816 43.7781C17.013 44.5818 16.4193 45.3675 15.8013 46.134C15.6459 46.3267 15.4204 46.4498 15.1742 46.4762C14.9281 46.5025 14.6815 46.4301 14.4888 46.2747C14.2961 46.1193 14.173 45.8937 14.1466 45.6476C14.1202 45.4014 14.1927 45.1549 14.3481 44.9622C14.9414 44.2263 15.5115 43.4719 16.0574 42.7002C19.7148 37.5294 15.9159 30.4503 9.67638 30.4503C3.43314 30.4503 -0.35892 37.5337 3.29535 42.7003C4.88133 44.9414 6.66904 47.0509 8.80966 49.1171C9.2964 49.5869 10.0614 49.5847 10.5514 49.1122C10.7302 48.9439 10.9681 48.8529 11.2135 48.8589C11.459 48.8648 11.6922 48.9672 11.8627 49.1439C12.0331 49.3206 12.1271 49.5573 12.1242 49.8028C12.1214 50.0483 12.0219 50.2828 11.8473 50.4555ZM9.66775 41.1405C8.075 41.1405 6.77917 39.8446 6.77917 38.2519C6.77917 38.0044 6.68084 37.767 6.5058 37.5919C6.33077 37.4169 6.09337 37.3186 5.84583 37.3186C5.59829 37.3186 5.36089 37.4169 5.18585 37.5919C5.01082 37.767 4.91249 38.0044 4.91249 38.2519C4.91249 40.874 7.04564 43.0072 9.66775 43.0072C12.2899 43.0072 14.423 40.874 14.423 38.2519C14.423 35.6298 12.2899 33.4966 9.66775 33.4966C9.42021 33.4966 9.18281 33.595 9.00778 33.77C8.83274 33.945 8.73441 34.1824 8.73441 34.43C8.73441 34.6775 8.83274 34.9149 9.00778 35.0899C9.18281 35.265 9.42021 35.3633 9.66775 35.3633C11.2605 35.3633 12.5563 36.6591 12.5563 38.2519C12.5563 39.8446 11.2605 41.1405 9.66775 41.1405ZM19.9121 27.0829H35.8535C37.9253 27.0829 39.6109 28.7685 39.6109 30.8403C39.6109 32.9121 37.9253 34.5977 35.8535 34.5977H34.9706C34.723 34.5977 34.4856 34.6961 34.3106 34.8711C34.1356 35.0462 34.0372 35.2836 34.0372 35.5311C34.0372 35.7786 34.1356 36.016 34.3106 36.1911C34.4856 36.3661 34.723 36.4644 34.9706 36.4644H35.8535C38.9547 36.4644 41.4776 33.9415 41.4776 30.8403C41.4776 27.7392 38.9547 25.2162 35.8535 25.2162H19.9121C17.8403 25.2162 16.1547 23.5306 16.1547 21.4588V20.907C16.1547 18.8352 17.8403 17.1496 19.9121 17.1496H33.8747C34.1222 17.1496 34.3596 17.0513 34.5347 16.8762C34.7097 16.7012 34.808 16.4638 34.808 16.2163C34.808 15.9687 34.7097 15.7313 34.5347 15.5563C34.3596 15.3812 34.1222 15.2829 33.8747 15.2829H19.9121C16.811 15.2829 14.288 17.8059 14.288 20.907V21.4588C14.288 24.56 16.811 27.0829 19.9121 27.0829ZM45.3454 44.2H34.9706C32.8988 44.2 31.2132 42.5144 31.2132 40.4426V40.2218C31.2132 39.9743 31.1148 39.7369 30.9398 39.5619C30.7648 39.3868 30.5274 39.2885 30.2798 39.2885C30.0323 39.2885 29.7949 39.3868 29.6198 39.5619C29.4448 39.7369 29.3465 39.9743 29.3465 40.2218C29.3465 43.8294 32.0805 46.0667 34.9706 46.0667H45.3454C47.4172 46.0667 49.1028 47.7523 49.1028 49.8241V50.3759C49.1028 52.4477 47.4172 54.1333 45.3454 54.1333H10.6339C10.3863 54.1333 10.1489 54.2316 9.9739 54.4067C9.79887 54.5817 9.70053 54.8191 9.70053 55.0667C9.70053 55.3142 9.79887 55.5516 9.9739 55.7266C10.1489 55.9017 10.3863 56 10.6339 56H45.3454C48.4465 56 50.9695 53.4771 50.9695 50.3759V49.8241C50.9695 46.7229 48.4465 44.2 45.3454 44.2ZM46.3101 0C41.2856 0 37.2986 3.78832 36.7216 8.48957C36.7067 8.61123 36.7159 8.73464 36.7486 8.85275C36.7814 8.97086 36.8371 9.08136 36.9126 9.17794C36.988 9.27452 37.0818 9.35529 37.1885 9.41564C37.2952 9.47599 37.4127 9.51474 37.5343 9.52967C38.0452 9.59185 38.5117 9.22866 38.5744 8.71696C39.3594 2.32216 47.2058 -0.463055 51.8162 4.14743C54.5063 6.83755 54.8742 11.0301 52.6911 14.1167C51.0601 16.4213 49.2167 18.568 47.185 20.5285C46.6951 21.0012 45.93 21.0033 45.4433 20.5334C43.447 18.6065 41.6292 16.5194 39.9288 14.1166C39.7849 13.9171 39.5679 13.7825 39.3252 13.7421C39.0825 13.7017 38.8337 13.7587 38.6328 13.9009C38.432 14.043 38.2954 14.2587 38.2528 14.501C38.2101 14.7433 38.2649 14.9927 38.4052 15.1948C40.1182 17.6153 41.9932 19.7976 44.1468 21.8765C45.3609 23.0483 47.2646 23.0453 48.4809 21.8718C50.5967 19.8301 52.5164 17.5946 54.215 15.1946C58.743 8.79303 54.0648 0 46.3101 0ZM46.3015 6.77969C46.549 6.77969 46.7864 6.68135 46.9614 6.50632C47.1365 6.33128 47.2348 6.09388 47.2348 5.84634C47.2348 5.59881 47.1365 5.36141 46.9614 5.18637C46.7864 5.01134 46.549 4.913 46.3015 4.913C43.6794 4.913 41.5462 7.04616 41.5462 9.66827C41.5462 12.2904 43.6794 14.4235 46.3015 14.4235C48.9236 14.4235 51.0567 12.2904 51.0567 9.66827C51.0567 9.42073 50.9584 9.18333 50.7834 9.00829C50.6083 8.83326 50.3709 8.73492 50.1234 8.73492C49.8759 8.73492 49.6385 8.83326 49.4634 9.00829C49.2884 9.18333 49.19 9.42073 49.19 9.66827C49.19 11.261 47.8942 12.5568 46.3015 12.5568C44.7087 12.5568 43.4129 11.261 43.4129 9.66827C43.4129 8.07552 44.7088 6.77969 46.3015 6.77969Z" fill="#333333"/>
</g>
</g>
<defs>
<clipPath id="clip0_2154_63742">
<rect width="56" height="56" fill="white"/>
</clipPath>
</defs>
</svg>
