<svg width="56" height="56" viewBox="0 0 56 56" fill="none" xmlns="http://www.w3.org/2000/svg">
<g id="Frame" clip-path="url(#clip0_2154_63736)">
<g id="Group">
<path id="Vector" d="M18.4037 18.225C16.9288 16.7504 14.4327 17.1851 13.5436 19.0718L4.25218 38.7856C4.19823 38.8967 4.16685 39.0174 4.15987 39.1407C4.15289 39.264 4.17045 39.3874 4.21153 39.5039C4.25261 39.6203 4.31638 39.7275 4.39917 39.8191C4.48196 39.9107 4.5821 39.985 4.69381 40.0377C4.80551 40.0903 4.92655 40.1203 5.04992 40.1258C5.17329 40.1314 5.29653 40.1124 5.41249 40.0699C5.52846 40.0275 5.63486 39.9625 5.72551 39.8786C5.81617 39.7947 5.88928 39.6937 5.94062 39.5814L10.7392 29.3999H18.7363C18.9839 29.3999 19.2213 29.3016 19.3963 29.1265C19.5714 28.9515 19.6697 28.7141 19.6697 28.4666C19.6697 28.219 19.5714 27.9816 19.3963 27.8066C19.2213 27.6315 18.9839 27.5332 18.7363 27.5332H11.6192L15.2322 19.8674C15.5705 19.1497 16.5186 18.9795 17.0837 19.5449L34.2891 36.7501H12.0157C11.7682 36.7501 11.5308 36.8484 11.3557 37.0235C11.1807 37.1985 11.0824 37.4359 11.0824 37.6834C11.0824 37.931 11.1807 38.1684 11.3557 38.3434C11.5308 38.5185 11.7682 38.6168 12.0157 38.6168H36.1558L36.4544 38.9155C37.0167 39.4775 36.8536 40.4269 36.1318 40.7671L8.00368 54.0242C7.78961 54.1246 7.5498 54.1568 7.31683 54.1162C7.08386 54.0756 6.86903 53.9643 6.70154 53.7973L2.20195 49.2978C2.03498 49.1303 1.92363 48.9154 1.88305 48.6824C1.84247 48.4494 1.87463 48.2096 1.97514 47.9955L3.25151 45.2872L8.06832 50.1041C8.1549 50.1909 8.25778 50.2597 8.37104 50.3066C8.48431 50.3535 8.60572 50.3776 8.72832 50.3774C9.55375 50.3774 9.9768 49.3724 9.38832 48.7841L7.50481 46.9006H18.12C18.3675 46.9006 18.6049 46.8022 18.7799 46.6272C18.955 46.4521 19.0533 46.2147 19.0533 45.9672C19.0533 45.7197 18.955 45.4823 18.7799 45.3072C18.6049 45.1322 18.3675 45.0338 18.12 45.0338H5.6381L3.63302 43.0286C3.28417 42.6798 2.73046 42.6693 2.3689 42.9781C2.14782 43.1658 2.2625 43.0076 0.286589 47.1996C-0.25429 48.347 -0.0151176 49.7207 0.881953 50.6178L5.38166 55.1173C6.27709 56.0127 7.65029 56.2544 8.79972 55.7127L36.9278 42.4557C38.8142 41.5665 39.249 39.0701 37.7744 37.5955L18.4037 18.225ZM24.442 5.95381C24.4673 6.07377 24.5158 6.18759 24.585 6.28877C24.6542 6.38994 24.7427 6.4765 24.8453 6.5435C24.948 6.61049 25.0628 6.65662 25.1833 6.67923C25.3038 6.70184 25.4275 6.70051 25.5475 6.6753C25.6674 6.65008 25.7813 6.60149 25.8824 6.5323C25.9836 6.4631 26.0702 6.37465 26.1372 6.272C26.2042 6.16935 26.2503 6.05451 26.2729 5.93403C26.2955 5.81356 26.2942 5.68981 26.269 5.56985C26.1867 5.17881 26.0901 4.79093 25.9793 4.40701C25.9453 4.28923 25.8884 4.17931 25.812 4.08352C25.7355 3.98773 25.6409 3.90794 25.5335 3.84873C25.4262 3.78952 25.3083 3.75204 25.1864 3.73843C25.0646 3.72482 24.9413 3.73535 24.8236 3.76941C24.5857 3.83812 24.385 3.99849 24.2654 4.21523C24.1458 4.43197 24.1173 4.68733 24.186 4.92514C24.2839 5.26477 24.3693 5.6079 24.442 5.95381ZM22.579 18.158C22.7845 18.2959 23.0364 18.3466 23.2793 18.2988C23.5222 18.251 23.7362 18.1087 23.8742 17.9032C25.2937 15.7885 26.1514 13.4583 26.4741 11.0612C26.4904 10.9398 26.4827 10.8163 26.4514 10.6978C26.42 10.5793 26.3656 10.4681 26.2913 10.3706C26.217 10.2732 26.1242 10.1913 26.0182 10.1297C25.9123 10.0681 25.7952 10.0279 25.6737 10.0116C25.5522 9.99504 25.4287 10.0026 25.3101 10.0339C25.1916 10.0652 25.0803 10.1196 24.9828 10.194C24.8853 10.2683 24.8034 10.3612 24.7419 10.4672C24.6803 10.5732 24.6403 10.6904 24.6241 10.8119C24.3382 12.9326 23.5803 14.9917 22.3243 16.8626C22.1863 17.0682 22.1356 17.3201 22.1834 17.5631C22.2311 17.806 22.3734 18.02 22.579 18.158ZM32.9652 13.0928C33.4432 13.2802 33.986 13.0463 34.1747 12.5644C35.4454 9.32287 36.0123 5.76644 35.8146 2.27989C35.7991 2.03388 35.6869 1.804 35.5024 1.64043C35.318 1.47686 35.0764 1.39289 34.8303 1.40685C34.5842 1.42081 34.3536 1.53156 34.1888 1.71493C34.0241 1.89831 33.9386 2.1394 33.9509 2.3856C34.1335 5.60579 33.61 8.89003 32.4368 11.8833C32.3465 12.1138 32.3514 12.3707 32.4505 12.5975C32.5496 12.8243 32.7348 13.0025 32.9652 13.0928ZM27.9993 21.2332C28.2459 21.2335 28.4825 21.136 28.6572 20.9619C29.7593 19.866 30.7547 18.6677 31.6298 17.3832C31.7692 17.1786 31.8215 16.927 31.7754 16.6838C31.7293 16.4406 31.5884 16.2257 31.3838 16.0864C31.1792 15.947 30.9276 15.8947 30.6844 15.9408C30.4412 15.9869 30.2263 16.1278 30.087 16.3324C29.2788 17.5188 28.3595 18.6255 27.3416 19.6377C26.7491 20.2264 27.1736 21.2332 27.9993 21.2332ZM50.4294 29.7303C50.3095 29.7051 50.1857 29.7038 50.0653 29.7264C49.9448 29.749 49.8299 29.7951 49.7273 29.8621C49.6246 29.9291 49.5362 30.0157 49.467 30.1168C49.3978 30.218 49.3492 30.3318 49.324 30.4518C49.2731 30.6941 49.3206 30.9466 49.4559 31.1539C49.5912 31.3612 49.8032 31.5063 50.0455 31.5573C50.9728 31.752 51.0742 31.8504 51.3336 31.8504C51.5359 31.8503 51.7327 31.7844 51.8943 31.6628C52.056 31.5412 52.1737 31.3703 52.2299 31.176C52.2639 31.0582 52.2744 30.9349 52.2608 30.8131C52.2472 30.6913 52.2097 30.5734 52.1505 30.466C52.0913 30.3587 52.0115 30.2641 51.9157 30.1876C51.82 30.1111 51.71 30.0543 51.5923 30.0202C51.2084 29.9092 50.8205 29.8125 50.4294 29.7303ZM45.1871 31.3752C45.3086 31.3589 45.4257 31.3187 45.5316 31.2571C45.6376 31.1955 45.7304 31.1136 45.8047 31.0162C45.879 30.9187 45.9334 30.8075 45.9648 30.689C45.9962 30.5706 46.0039 30.447 45.9875 30.3256C45.9712 30.2041 45.9311 30.087 45.8695 29.981C45.8079 29.875 45.726 29.7822 45.6285 29.7079C45.531 29.6336 45.4198 29.5792 45.3013 29.5478C45.1828 29.5165 45.0593 29.5088 44.9378 29.5252C42.5457 29.8472 40.2149 30.7026 38.0959 32.1251C37.3314 32.6384 37.6985 33.8336 38.6169 33.8336C38.7958 33.8336 38.9767 33.7822 39.1363 33.6751C40.9391 32.4648 42.9847 31.6722 45.1871 31.3752ZM44.276 11.1261C47.5238 13.902 52.3933 13.6232 54.4158 11.6004C56.4535 9.56286 56.7556 4.72995 53.9516 1.44956C52.3167 -0.461019 49.6579 -0.3517 48.0464 1.33184C47.8752 1.51064 47.782 1.75013 47.7874 1.99761C47.7928 2.24509 47.8963 2.4803 48.0751 2.65149C48.1636 2.73626 48.2679 2.80277 48.3822 2.84721C48.4964 2.89165 48.6183 2.91316 48.7408 2.91049C48.8634 2.90783 48.9842 2.88105 49.0964 2.83168C49.2086 2.78232 49.3099 2.71133 49.3947 2.62279C49.8377 2.16007 50.4574 1.89512 51.0586 1.91052C51.6153 1.92615 52.1253 2.18633 52.5331 2.66292C54.7994 5.31446 54.3729 9.00378 53.0959 10.2805C51.8089 11.5678 48.0475 11.8941 45.4893 9.70753C44.4721 8.83718 44.6398 7.70444 45.0925 6.99894C45.5566 6.27535 46.542 5.63554 47.7914 6.2134C48.2589 6.42924 48.8139 6.22565 49.0303 5.75792C49.0818 5.64667 49.1108 5.52637 49.1158 5.4039C49.1207 5.28143 49.1015 5.15918 49.0592 5.04413C49.0169 4.92909 48.9524 4.8235 48.8693 4.7334C48.7862 4.6433 48.6861 4.57045 48.5749 4.51901C46.709 3.65659 44.631 4.26176 43.5215 5.99091C42.4265 7.69732 42.7366 9.80892 44.276 11.1261ZM15.0055 10.4128C17.4038 9.87507 19.8068 6.56691 19.2891 2.95483C18.9887 0.867612 17.1195 -0.271198 15.2445 0.0565266C15.1238 0.0775782 15.0084 0.122212 14.9049 0.187878C14.8014 0.253545 14.7118 0.338958 14.6413 0.439239C14.5708 0.539519 14.5208 0.652704 14.494 0.772327C14.4673 0.891951 14.4644 1.01567 14.4855 1.13642C14.574 1.6444 15.0583 1.98379 15.5654 1.89547C16.0199 1.81625 16.499 1.91915 16.8461 2.17093C17.1752 2.40975 17.3755 2.76291 17.4414 3.22013C17.8228 5.88066 16.0072 8.27518 14.5973 8.59112C13.191 8.90578 10.5352 7.51427 9.74451 4.94614C9.44642 3.97638 10.0172 3.31767 10.5965 3.04805C11.1728 2.78006 12.0413 2.76886 12.5908 3.62089C12.6572 3.72391 12.7433 3.81283 12.8441 3.88258C12.9448 3.95233 13.0584 4.00154 13.1782 4.0274C13.298 4.05326 13.4218 4.05527 13.5423 4.0333C13.6629 4.01134 13.778 3.96583 13.881 3.89938C14.089 3.76521 14.2353 3.5539 14.2875 3.31194C14.3397 3.06997 14.2937 2.81716 14.1595 2.60914C13.2019 1.12475 11.4129 0.609189 9.80891 1.35576C8.20132 2.10372 7.44099 3.80558 7.96017 5.49495C9.03772 8.99585 12.6351 10.944 15.0055 10.4128ZM54.6768 38.8857C53.2885 37.7663 51.4142 37.8357 50.1193 39.0541C50.03 39.138 49.9582 39.2388 49.9078 39.3505C49.8575 39.4623 49.8296 39.5829 49.8259 39.7054C49.8222 39.8279 49.8426 39.9499 49.886 40.0646C49.9295 40.1792 49.9951 40.2841 50.0791 40.3734C50.163 40.4627 50.2638 40.5346 50.3755 40.5849C50.4873 40.6353 50.6079 40.6631 50.7304 40.6669C50.8529 40.6706 50.975 40.6502 51.0896 40.6067C51.2042 40.5633 51.3091 40.4976 51.3984 40.4136C52.1475 39.7088 53.0015 39.9328 53.5052 40.3388C54.0098 40.7458 54.4108 41.5343 53.8801 42.4172C52.4779 44.7472 49.5221 45.4634 48.2135 44.8094C46.9095 44.1573 45.7152 41.3662 46.7374 38.8469C47.0132 38.1682 47.5058 37.9427 47.8704 37.873C47.9908 37.85 48.1055 37.8035 48.2079 37.7362C48.3103 37.6689 48.3985 37.5821 48.4674 37.4807C48.5362 37.3793 48.5844 37.2653 48.6092 37.1453C48.6341 37.0252 48.635 36.9015 48.612 36.7811C48.5154 36.2748 48.0261 35.942 47.5202 36.0396C46.3787 36.2575 45.4631 37.0246 45.0079 38.1446C43.6214 41.5615 45.1829 45.3813 47.3789 46.4791C49.5597 47.5693 53.5578 46.5733 55.4798 43.3795C56.3965 41.8539 56.0663 40.006 54.6768 38.8857ZM44.1159 23.5625C47.1091 22.3893 50.3939 21.8661 53.6136 22.0483C54.1308 22.0787 54.5692 21.684 54.5983 21.1694C54.6123 20.9222 54.5275 20.6796 54.3627 20.495C54.1979 20.3103 53.9664 20.1987 53.7193 20.1847C50.2325 19.9873 46.6763 20.5539 43.4348 21.8246C43.3206 21.8693 43.2164 21.936 43.1281 22.021C43.0398 22.106 42.9691 22.2075 42.92 22.3199C42.8709 22.4322 42.8445 22.5531 42.8421 22.6756C42.8398 22.7982 42.8616 22.92 42.9064 23.0341C43.0957 23.5171 43.6393 23.7495 44.1159 23.5625ZM38.6161 24.3696C37.3316 25.2447 36.1332 26.24 35.0374 27.3422C34.8629 27.5178 34.7654 27.7555 34.7661 28.003C34.7669 28.2506 34.866 28.4876 35.0416 28.6621C35.1285 28.7485 35.2316 28.8169 35.345 28.8635C35.4584 28.91 35.5798 28.9338 35.7024 28.9334C35.8249 28.933 35.9462 28.9085 36.0593 28.8612C36.1724 28.8139 36.2751 28.7448 36.3615 28.6579C37.3736 27.64 38.4804 26.7207 39.6668 25.9126C39.8714 25.7732 40.0123 25.5583 40.0585 25.3151C40.1046 25.0719 40.0523 24.8203 39.9129 24.6157C39.7736 24.4111 39.5587 24.2702 39.3155 24.2241C39.0723 24.1779 38.8207 24.2303 38.6161 24.3696ZM36.3041 20.2252C36.7367 20.5115 37.3149 20.3892 37.5976 19.9621C38.8802 18.0247 38.7599 16.7206 39.8551 15.1071C40.2435 14.5351 40.7152 14.0076 41.2574 13.5397C41.3502 13.4596 41.4263 13.362 41.4814 13.2525C41.5364 13.143 41.5694 13.0237 41.5784 12.9015C41.5874 12.7792 41.5722 12.6564 41.5336 12.54C41.4951 12.4237 41.4341 12.316 41.354 12.2233C41.1922 12.0359 40.9627 11.9205 40.7158 11.9024C40.4689 11.8842 40.225 11.9649 40.0376 12.1267C39.3718 12.7014 38.7907 13.3515 38.3106 14.0588C37.0017 15.987 37.1828 17.2072 36.0411 18.9318C35.9045 19.1382 35.8554 19.3904 35.9047 19.6329C35.954 19.8755 36.0977 20.0885 36.3041 20.2252ZM33.5963 23.5599C33.7981 23.4444 33.9977 23.3241 34.1895 23.2023C34.3961 23.0686 34.5415 22.8587 34.5941 22.6183C34.6467 22.3779 34.6022 22.1264 34.4703 21.9186C34.3385 21.7109 34.1299 21.5636 33.8899 21.5088C33.65 21.4541 33.3982 21.4963 33.1892 21.6264C33.0182 21.7348 32.8448 21.8393 32.6691 21.9398C32.4568 22.0641 32.3022 22.2671 32.2388 22.5048C32.1753 22.7424 32.2083 22.9955 32.3305 23.209C32.4527 23.4225 32.6542 23.5791 32.8912 23.6448C33.1282 23.7105 33.3816 23.68 33.5963 23.5599Z" fill="#333333"/>
</g>
</g>
<defs>
<clipPath id="clip0_2154_63736">
<rect width="56" height="56" fill="white"/>
</clipPath>
</defs>
</svg>
