<svg width="56" height="56" viewBox="0 0 56 56" fill="none" xmlns="http://www.w3.org/2000/svg">
<g id="Frame" clip-path="url(#clip0_2154_63748)">
<g id="Group">
<path id="Vector" d="M42.4878 50.7811C34.4734 57.7391 21.5369 57.7403 13.5211 50.7811C4.71887 43.1391 3.34137 28.259 11.9274 17.751C13.0508 16.3759 15.2274 16.6937 15.9136 18.3282C16.114 18.8055 16.3698 19.2449 16.6739 19.6345C16.9534 19.9927 17.5243 19.8022 17.5333 19.3538C17.6346 14.3221 19.0534 9.45371 21.6363 5.27478C21.7007 5.17048 21.785 5.0799 21.8844 5.00821C21.9838 4.93651 22.0964 4.88512 22.2157 4.85696C22.335 4.8288 22.4587 4.82443 22.5797 4.8441C22.7007 4.86377 22.8166 4.90709 22.9208 4.97158C23.1313 5.10172 23.2816 5.31016 23.3384 5.55105C23.3953 5.79195 23.3541 6.04556 23.224 6.2561C20.8164 10.1512 19.494 14.6932 19.3994 19.3913C19.3549 21.5982 16.5578 22.5194 15.2024 20.783C14.7966 20.2633 14.4568 19.6804 14.1924 19.0507C14.0507 18.7132 13.605 18.6474 13.3726 18.9319C5.79422 28.2067 6.42243 42.1465 14.7445 49.3716C22.0559 55.7192 33.9524 55.7192 41.2638 49.3716C49.5828 42.149 50.2135 28.2123 42.6408 18.9382C42.4054 18.6499 41.9611 18.7239 41.8204 19.0585C41.4727 19.8846 40.9905 20.6282 40.3871 21.2686C39.0313 22.7074 36.5991 21.8983 36.3626 19.9315C35.9798 16.7468 34.948 14.1296 33.2959 12.1524C31.6989 10.241 29.8497 9.60723 28.5029 7.03981C27.7712 5.64493 27.3775 4.06037 27.3325 2.33032C27.3213 1.90371 26.7991 1.70912 26.5021 2.0199C26.4177 2.1095 26.3164 2.18152 26.204 2.23179C26.0916 2.28207 25.9704 2.30962 25.8473 2.31286C25.7243 2.31609 25.6018 2.29494 25.4869 2.25063C25.3721 2.20632 25.2671 2.13973 25.1781 2.05468C25.0891 1.96963 25.0178 1.86782 24.9683 1.75509C24.9188 1.64237 24.8921 1.52097 24.8897 1.39789C24.8874 1.2748 24.9094 1.15246 24.9545 1.03792C24.9996 0.923373 25.0669 0.818886 25.1526 0.730474C26.585 -0.768466 29.1437 0.182298 29.1984 2.28179C29.236 3.72381 29.5581 5.03294 30.1559 6.17281C31.2936 8.34114 32.9713 8.85268 34.7284 10.9556C36.6159 13.2145 37.7892 16.1594 38.216 19.7087C38.2637 20.1058 38.7587 20.2751 39.0286 19.9885C39.4787 19.5109 39.8392 18.9545 40.1001 18.3343C40.7886 16.6982 42.965 16.3835 44.0868 17.7577C52.6605 28.2576 51.2952 43.1346 42.4878 50.7811ZM23.0593 26.3016C20.3954 29.2007 18.877 32.4135 18.5466 35.8508C18.5349 35.9728 18.5473 36.0959 18.5831 36.2131C18.619 36.3303 18.6776 36.4393 18.7555 36.5338C18.8335 36.6284 18.9293 36.7067 19.0376 36.7642C19.1458 36.8217 19.2643 36.8573 19.3863 36.8691C19.8988 36.9189 20.3553 36.5424 20.4046 36.0295C20.6953 33.0057 22.0509 30.1576 24.4337 27.5645C24.7698 27.1987 25.3678 27.5099 25.2582 27.9913C23.8613 34.1197 27.474 36.5238 29.9384 36.4483C31.5253 36.401 33.0425 35.4078 34.1012 33.7235C34.3013 33.4051 34.7524 33.4383 34.9308 33.7536C36.7153 36.9085 36.2459 40.8687 33.7893 43.384C30.3202 46.9359 24.5289 45.8138 21.9885 42.9613C21.907 42.8698 21.8082 42.7952 21.6979 42.7419C21.5875 42.6885 21.4678 42.6574 21.3454 42.6504C21.223 42.6433 21.1005 42.6604 20.9848 42.7007C20.869 42.741 20.7623 42.8037 20.6708 42.8853C20.5793 42.9668 20.5047 43.0655 20.4514 43.1758C20.398 43.2862 20.3669 43.4059 20.3598 43.5283C20.3528 43.6507 20.3699 43.7732 20.4101 43.889C20.4504 44.0047 20.5131 44.1114 20.5946 44.2029C22.3268 46.1477 25.2763 47.4755 28.3325 47.4755C36.0363 47.4755 40.1743 39.2329 36.5555 32.8348C35.6795 31.286 33.4711 31.219 32.521 32.7303C31.8095 33.8621 30.8232 34.5547 29.8827 34.5828C28.7805 34.614 27.9179 33.7414 27.7569 33.5655C26.7991 32.5204 26.558 30.6881 27.078 28.406C27.6117 26.0637 24.6864 24.5308 23.0593 26.3016Z" fill="#333333"/>
</g>
</g>
<defs>
<clipPath id="clip0_2154_63748">
<rect width="56" height="56" fill="white"/>
</clipPath>
</defs>
</svg>
