<svg width="56" height="56" viewBox="0 0 56 56" fill="none" xmlns="http://www.w3.org/2000/svg">
<g id="Frame">
<g id="Group">
<path id="Vector" d="M51.3266 27.0667H40.4766C40.229 27.0667 39.9916 27.165 39.8166 27.34C39.6416 27.5151 39.5432 27.7525 39.5432 28C39.5432 28.2475 39.6416 28.4849 39.8166 28.66C39.9916 28.835 40.229 28.9333 40.4766 28.9333H45.7266V37.3333H44.9099C44.6624 37.3333 44.425 37.4317 44.2499 37.6067C44.0749 37.7817 43.9766 38.0191 43.9766 38.2667C43.9766 38.5142 44.0749 38.7516 44.2499 38.9266C44.425 39.1017 44.6624 39.2 44.9099 39.2H45.7266V48.4167H38.2599V39.2H39.0766C39.3241 39.2 39.5615 39.1017 39.7365 38.9266C39.9116 38.7516 40.0099 38.5142 40.0099 38.2667C40.0099 38.0191 39.9116 37.7817 39.7365 37.6067C39.5615 37.4317 39.3241 37.3333 39.0766 37.3333H38.2599V32.6667C38.2599 32.4191 38.1616 32.1817 37.9865 32.0067C37.8115 31.8317 37.5741 31.7333 37.3266 31.7333C37.079 31.7333 36.8416 31.8317 36.6666 32.0067C36.4916 32.1817 36.3932 32.4191 36.3932 32.6667V37.3333H35.5766C35.329 37.3333 35.0916 37.4317 34.9166 37.6067C34.7416 37.7817 34.6432 38.0191 34.6432 38.2667C34.6432 38.5142 34.7416 38.7516 34.9166 38.9266C35.0916 39.1017 35.329 39.2 35.5766 39.2H36.3932V48.4167H28.9266V39.2H29.7432C29.9908 39.2 30.2282 39.1017 30.4032 38.9266C30.5782 38.7516 30.6766 38.5142 30.6766 38.2667C30.6766 38.0191 30.5782 37.7817 30.4032 37.6067C30.2282 37.4317 29.9908 37.3333 29.7432 37.3333H28.9266V28.9333H35.1287C35.6583 28.9333 36.0936 28.4891 36.0591 27.9417C36.0636 27.8689 36.062 28.2341 36.062 23.7285C36.062 23.0431 35.913 22.384 35.6191 21.7696C35.511 21.5487 35.3199 21.3794 35.0875 21.2985C34.8551 21.2177 34.6002 21.2319 34.3783 21.3381C34.1563 21.4442 33.9852 21.6337 33.9022 21.8653C33.8193 22.0969 33.8311 22.3519 33.9352 22.5749C34.2693 23.2736 34.1952 23.4506 34.1952 27.0667H13.2932V3.73333C13.2932 2.7041 14.1307 1.86667 15.1599 1.86667H40.8266C41.8558 1.86667 42.6932 2.7041 42.6932 3.73333V21.9333C42.6932 22.1809 42.7916 22.4183 42.9666 22.5933C43.1416 22.7683 43.379 22.8667 43.6266 22.8667C43.8741 22.8667 44.1115 22.7683 44.2865 22.5933C44.4616 22.4183 44.5599 22.1809 44.5599 21.9333V3.73333C44.5599 1.67475 42.8851 0 40.8266 0H15.1599C13.1013 0 11.4266 1.67475 11.4266 3.73333V27.0667H4.6599C4.41236 27.0667 4.17496 27.165 3.99993 27.34C3.8249 27.5151 3.72656 27.7525 3.72656 28C3.72656 28.2475 3.8249 28.4849 3.99993 28.66C4.17496 28.835 4.41236 28.9333 4.6599 28.9333H8.39323V37.3333H7.57656C7.32903 37.3333 7.09163 37.4317 6.9166 37.6067C6.74156 37.7817 6.64323 38.0191 6.64323 38.2667C6.64323 38.5142 6.74156 38.7516 6.9166 38.9266C7.09163 39.1017 7.32903 39.2 7.57656 39.2H8.39323V48.4167H6.17656C5.92903 48.4167 5.69163 48.515 5.5166 48.69C5.34156 48.8651 5.24323 49.1025 5.24323 49.35V51.3333C5.24323 53.9065 7.3367 56 9.9099 56H46.0766C48.6498 56 50.7432 53.9065 50.7432 51.3333V49.35C50.7432 49.1025 50.6449 48.8651 50.4699 48.69C50.2948 48.515 50.0574 48.4167 49.8099 48.4167H47.5932V39.2H48.4099C48.6574 39.2 48.8948 39.1017 49.0699 38.9266C49.2449 38.7516 49.3432 38.5142 49.3432 38.2667C49.3432 38.0191 49.2449 37.7817 49.0699 37.6067C48.8948 37.4317 48.6574 37.3333 48.4099 37.3333H47.5932V28.9333H51.3266C51.5741 28.9333 51.8115 28.835 51.9865 28.66C52.1616 28.4849 52.2599 28.2475 52.2599 28C52.2599 27.7525 52.1616 27.5151 51.9865 27.34C51.8115 27.165 51.5741 27.0667 51.3266 27.0667ZM48.8766 51.3333C48.8766 52.8772 47.6204 54.1333 46.0766 54.1333H9.9099C8.36605 54.1333 7.1099 52.8772 7.1099 51.3333V50.2833H9.32656C9.5741 50.2833 9.8115 50.185 9.98653 50.01C10.1616 49.8349 10.2599 49.5975 10.2599 49.35V39.2H11.0766C11.3241 39.2 11.5615 39.1017 11.7365 38.9266C11.9116 38.7516 12.0099 38.5142 12.0099 38.2667C12.0099 38.0191 11.9116 37.7817 11.7365 37.6067C11.5615 37.4317 11.3241 37.3333 11.0766 37.3333H10.2599V28.9333H17.7266V37.3333H16.9099C16.6624 37.3333 16.425 37.4317 16.2499 37.6067C16.0749 37.7817 15.9766 38.0191 15.9766 38.2667C15.9766 38.5142 16.0749 38.7516 16.2499 38.9266C16.425 39.1017 16.6624 39.2 16.9099 39.2H17.7266V44.6833C17.7266 44.9309 17.8249 45.1683 17.9999 45.3433C18.175 45.5183 18.4124 45.6167 18.6599 45.6167C18.9074 45.6167 19.1448 45.5183 19.3199 45.3433C19.4949 45.1683 19.5932 44.9309 19.5932 44.6833V39.2H20.4099C20.6574 39.2 20.8948 39.1017 21.0699 38.9266C21.2449 38.7516 21.3432 38.5142 21.3432 38.2667C21.3432 38.0191 21.2449 37.7817 21.0699 37.6067C20.8948 37.4317 20.6574 37.3333 20.4099 37.3333H19.5932V28.9333H27.0599V37.3333H26.2432C25.9957 37.3333 25.7583 37.4317 25.5833 37.6067C25.4082 37.7817 25.3099 38.0191 25.3099 38.2667C25.3099 38.5142 25.4082 38.7516 25.5833 38.9266C25.7583 39.1017 25.9957 39.2 26.2432 39.2H27.0599V48.4167H14.6349C14.3874 48.4167 14.15 48.515 13.9749 48.69C13.7999 48.8651 13.7016 49.1025 13.7016 49.35C13.7016 49.5975 13.7999 49.8349 13.9749 50.01C14.15 50.185 14.3874 50.2833 14.6349 50.2833H48.8766V51.3333ZM31.4858 17.4058V15.5091C31.4858 13.5834 29.919 12.0167 27.9932 12.0167C26.0674 12.0167 24.5007 13.5834 24.5007 15.5092V17.406C24.5007 19.2819 26.0269 20.8081 27.9028 20.8081C28.7281 20.8081 29.4374 20.6598 30.1619 20.0997C30.3579 19.9494 30.6054 19.8829 30.8503 19.9147C31.0951 19.9465 31.3174 20.0741 31.4685 20.2694C31.6195 20.4648 31.6869 20.7121 31.656 20.9571C31.6251 21.2021 31.4983 21.4248 31.3035 21.5766C29.2754 23.1447 26.1032 23.1118 24.1239 21.0722C22.8097 21.2429 21.791 22.3687 21.791 23.7287C21.791 23.9763 21.6927 24.2136 21.5176 24.3887C21.3426 24.5637 21.1052 24.6621 20.8577 24.6621C20.6101 24.6621 20.3727 24.5637 20.1977 24.3887C20.0227 24.2136 19.9243 23.9763 19.9243 23.7287C19.9243 21.724 21.229 20.0195 23.0335 19.4166C22.5441 18.2358 22.634 17.4735 22.634 15.5094C22.634 12.554 25.0382 10.15 27.9932 10.15C30.9483 10.15 33.3524 12.554 33.3524 15.5092V17.406C33.3524 17.5285 33.3283 17.6499 33.2814 17.7631C33.2345 17.8764 33.1657 17.9793 33.079 18.0659C32.9923 18.1526 32.8895 18.2213 32.7762 18.2682C32.663 18.3151 32.5416 18.3392 32.419 18.3392C32.2965 18.3392 32.1751 18.3151 32.0619 18.2682C31.9486 18.2213 31.8458 18.1525 31.7591 18.0658C31.6724 17.9792 31.6037 17.8763 31.5568 17.763C31.5099 17.6498 31.4858 17.5284 31.4858 17.4058Z" fill="#333333"/>
</g>
</g>
</svg>
