<svg width="735" height="735" viewBox="0 0 735 735" fill="none" xmlns="http://www.w3.org/2000/svg">
<g filter="url(#filter0_d_1300_11735)">
<path d="M106.835 581.16C106.254 580.377 105.61 579.695 104.929 578.899C94.8308 566.685 85.5534 553.738 77.2099 540.185C76.6167 539.2 76.0361 538.278 75.4049 537.28C64.4487 519.078 55.1334 499.79 47.6609 479.543C47.3327 478.671 46.9919 477.711 46.6385 476.814C40.7186 460.204 36.0609 443.102 32.6907 425.405C32.5014 424.42 32.2994 423.41 32.1101 422.374C28.6263 403.389 26.8213 383.836 26.6825 363.892V361.593V360.936C26.6825 341.004 28.4875 321.451 31.8072 302.416C31.9586 301.418 32.148 300.382 32.3878 299.296C35.6318 281.65 40.2515 264.446 46.121 247.849C46.4365 246.889 46.79 246.03 47.0929 245.07C54.4644 224.86 63.6661 205.535 74.5088 187.333C75.102 186.411 75.5943 185.501 76.1875 184.592C84.5688 170.837 93.9473 157.65 104.096 145.233C104.777 144.501 105.358 143.755 106.014 142.972C120.745 125.415 137.141 109.348 155.065 95.0622C155.848 94.4433 156.554 93.837 157.337 93.2434C168.924 84.1489 181.054 75.8629 193.765 68.3347C194.586 67.8168 195.419 67.3494 196.29 66.8189C216.751 54.9077 238.6 45.0554 261.51 37.5777C262.431 37.2619 263.378 36.9841 264.287 36.6683C277.439 32.5379 290.857 29.1528 304.514 26.5887C305.537 26.4118 306.483 26.2349 307.443 26.0328C326.919 22.5466 347.026 20.7656 367.538 20.7656C371.628 20.7656 375.73 20.8541 379.832 20.9804C380.804 21.0183 381.776 21.0687 382.798 21.1193C396.456 21.6877 409.974 23.115 423.215 25.2876C424.187 25.4644 425.121 25.6413 426.106 25.8055C450.051 29.9359 473.162 36.5799 495.113 45.447C496.047 45.8385 496.905 46.1795 497.852 46.5711C510.777 51.9141 523.286 58.0403 535.34 64.8611C536.173 65.379 537.044 65.821 537.928 66.3263C557.934 77.8964 576.678 91.4876 593.87 106.784C594.653 107.441 595.36 108.098 596.117 108.742C607.136 118.733 617.487 129.47 627.155 140.749C627.774 141.494 628.405 142.24 629.061 143.023C642.921 159.57 655.215 177.468 665.742 196.503C666.26 197.362 666.727 198.234 667.219 199.055C674.944 213.315 681.722 228.207 687.377 243.63C687.705 244.552 688.059 245.462 688.412 246.422C695.039 264.964 700.113 284.214 703.521 304.159C703.672 305.119 703.824 306.028 704.026 307.013C706.803 324.571 708.33 342.608 708.368 360.936V361.593C708.368 362.376 708.33 363.108 708.33 363.892C708.217 382.219 706.651 400.257 703.723 417.764C703.584 418.509 703.483 419.204 703.395 419.949C699.924 440.058 694.647 459.56 687.869 478.279C687.516 479.239 687.124 480.111 686.796 481.02C681.078 496.342 674.25 511.171 666.487 525.381L665.427 527.339C654.71 546.488 642.214 564.475 628.216 581.11C627.585 581.855 626.916 582.638 626.272 583.371C616.654 594.625 606.316 605.235 595.284 615.138C594.552 615.782 593.807 616.439 593.088 617.033C575.908 632.254 557.202 645.756 537.145 657.225C536.299 657.756 535.428 658.185 534.608 658.665C522.591 665.474 510.158 671.473 497.309 676.778C496.375 677.17 495.504 677.562 494.582 677.903C472.72 686.681 449.672 693.338 425.79 697.456C424.818 697.582 423.91 697.721 422.887 697.898C409.735 700.07 396.38 701.447 382.798 702.016C381.776 702.066 380.804 702.104 379.832 702.154C375.73 702.331 371.628 702.42 367.538 702.42C347.115 702.42 327.146 700.639 307.733 697.153C306.761 696.976 305.776 696.811 304.805 696.597C291.172 694.121 277.856 690.761 264.867 686.643C263.895 686.34 262.974 686.075 262.052 685.734C239.256 678.307 217.432 668.606 197.022 656.758C196.151 656.228 195.305 655.748 194.497 655.23C181.85 647.803 169.745 639.542 158.233 630.548C157.451 629.942 156.668 629.386 155.885 628.767C137.962 614.583 121.565 598.579 106.835 581.16ZM4 363.551C4 564.298 166.766 727 367.538 727C568.285 727 731 564.298 731 363.551C731 162.791 568.285 -1.73668e-05 367.538 -1.73668e-05C166.766 -1.73668e-05 4 162.791 4 363.551Z" fill="#5567EA"/>
<path d="M106.443 581.471L106.453 581.483C121.204 598.926 137.624 614.953 155.575 629.159L155.575 629.16C156.006 629.5 156.459 629.838 156.905 630.171C157.254 630.432 157.599 630.689 157.926 630.943L106.443 581.471ZM106.443 581.471L106.433 581.458C106.034 580.92 105.611 580.439 105.15 579.915C104.957 579.695 104.757 579.467 104.549 579.225L104.543 579.218C94.4308 566.986 85.1398 554.02 76.7841 540.447L76.7816 540.443C76.1915 539.463 75.6134 538.545 74.9824 537.547L74.9823 537.547L74.9766 537.538C64.0047 519.31 54.6758 499.994 47.1924 479.717C47.0726 479.399 46.9527 479.074 46.8319 478.746C46.6168 478.162 46.3987 477.57 46.1733 476.998L46.1703 476.99L46.1675 476.982C40.239 460.348 35.5747 443.221 32.1997 425.5C32.1424 425.201 32.0836 424.9 32.0243 424.595C31.8889 423.898 31.7504 423.186 31.6183 422.464C28.1291 403.45 26.3215 383.868 26.1825 363.895V363.892V361.593V360.936C26.1825 340.975 27.9899 321.396 31.3137 302.335C31.4662 301.331 31.6567 300.289 31.8976 299.197C35.146 281.53 39.7715 264.305 45.6478 247.687C45.7953 247.239 45.9508 246.813 46.1026 246.396L46.1419 246.288C46.3076 245.834 46.4682 245.388 46.6161 244.92L46.6194 244.909L46.6232 244.899C54.0054 224.659 63.2206 205.305 74.0792 187.077L74.0836 187.07L74.0883 187.062C74.3792 186.61 74.646 186.16 74.9184 185.702C75.1881 185.249 75.4631 184.788 75.7645 184.325C84.1571 170.552 93.5475 157.349 103.709 144.917L103.719 144.904L103.73 144.893C104.205 144.381 104.626 143.87 105.07 143.33C105.251 143.109 105.436 142.883 105.631 142.651L106.01 142.969L105.631 142.651C120.382 125.069 136.803 108.978 154.753 94.6712L154.755 94.67C155.053 94.4345 155.348 94.1938 155.644 93.9524C156.099 93.5809 156.557 93.2075 157.031 92.8482C168.633 83.7424 180.778 75.4459 193.504 67.9083C193.986 67.6043 194.485 67.3099 194.986 67.0142C195.335 66.8085 195.684 66.6024 196.03 66.3918L196.038 66.3868C216.528 54.4586 238.409 44.592 261.351 37.1035C261.817 36.944 262.288 36.7943 262.751 36.6466C263.217 36.498 263.675 36.3514 264.122 36.196L264.13 36.1935L264.137 36.1913C277.308 32.0551 290.744 28.6652 304.422 26.0972L304.429 26.0959C305.447 25.9199 306.388 25.7441 307.34 25.5435L307.347 25.542L307.355 25.5406C326.861 22.0491 346.997 20.2656 367.538 20.2656C371.634 20.2656 375.742 20.3542 379.848 20.4807L379.852 20.4808C380.666 20.5125 381.481 20.5531 382.322 20.595L382.819 20.6197C382.82 20.6197 382.82 20.6198 382.82 20.6198C396.498 21.1891 410.037 22.6185 423.296 24.7941L423.305 24.7957C423.54 24.8384 423.772 24.881 424.002 24.9233C424.73 25.0571 425.444 25.1882 426.188 25.3123L426.191 25.3127C450.171 29.4493 473.317 36.1031 495.3 44.9833L495.306 44.9858C495.842 45.2106 496.347 45.4162 496.861 45.6254C497.244 45.7815 497.633 45.9396 498.043 46.1091C510.987 51.46 523.515 57.5953 535.586 64.426L535.595 64.431L535.604 64.4365C536.121 64.7581 536.64 65.0423 537.18 65.3384C537.503 65.5153 537.833 65.6964 538.176 65.8922L538.178 65.8934C558.212 77.4795 576.982 91.0889 594.197 106.405C594.592 106.737 594.967 107.068 595.334 107.393L595.422 107.471C595.762 107.772 596.096 108.068 596.441 108.361L596.447 108.366L596.453 108.371C607.489 118.378 617.854 129.129 627.535 140.424L627.54 140.43C628.158 141.174 628.786 141.916 629.445 142.702L629.061 143.023L629.445 142.702C643.323 159.271 655.634 177.193 666.175 196.253C666.436 196.686 666.684 197.122 666.925 197.546L666.948 197.588C667.184 198.002 667.413 198.406 667.648 198.798L667.653 198.807L667.659 198.817C675.395 213.098 682.183 228.012 687.846 243.458L687.848 243.462C688.048 244.025 688.255 244.576 688.468 245.142C688.604 245.503 688.742 245.87 688.881 246.249L688.883 246.253C695.519 264.823 700.601 284.101 704.014 304.075L704.015 304.081C704.166 305.038 704.316 305.939 704.516 306.913L704.518 306.924L704.52 306.935C707.301 324.517 708.83 342.58 708.868 360.935V360.936V361.593C708.868 361.829 708.865 362.061 708.86 362.289C708.857 362.446 708.853 362.601 708.849 362.755C708.839 363.134 708.83 363.507 708.83 363.892V363.895C708.716 382.249 707.149 400.313 704.216 417.846L704.214 417.855C704.078 418.588 703.979 419.271 703.891 420.008L703.89 420.021L703.888 420.034C700.411 440.173 695.127 459.704 688.339 478.45L688.338 478.452C688.164 478.926 687.981 479.378 687.803 479.815L687.787 479.857C687.603 480.309 687.427 480.746 687.267 481.19L687.265 481.195C681.538 496.539 674.7 511.39 666.927 525.619L106.443 581.471ZM4.5 363.551C4.5 564.022 167.042 726.5 367.538 726.5C568.008 726.5 730.5 564.022 730.5 363.551C730.5 163.067 568.008 0.5 367.538 0.5C167.042 0.5 4.5 163.067 4.5 363.551Z" stroke="black"/>
</g>
<defs>
<filter id="filter0_d_1300_11735" x="0" y="0" width="735" height="735" filterUnits="userSpaceOnUse" color-interpolation-filters="sRGB">
<feFlood flood-opacity="0" result="BackgroundImageFix"/>
<feColorMatrix in="SourceAlpha" type="matrix" values="0 0 0 0 0 0 0 0 0 0 0 0 0 0 0 0 0 0 127 0" result="hardAlpha"/>
<feOffset dy="4"/>
<feGaussianBlur stdDeviation="2"/>
<feComposite in2="hardAlpha" operator="out"/>
<feColorMatrix type="matrix" values="0 0 0 0 0 0 0 0 0 0 0 0 0 0 0 0 0 0 0.25 0"/>
<feBlend mode="normal" in2="BackgroundImageFix" result="effect1_dropShadow_1300_11735"/>
<feBlend mode="normal" in="SourceGraphic" in2="effect1_dropShadow_1300_11735" result="shape"/>
</filter>
</defs>
</svg>
