<svg width="31" height="31" viewBox="0 0 31 31" fill="none" xmlns="http://www.w3.org/2000/svg">
<g id="mail2-svgrepo-com 1" clip-path="url(#clip0_1648_11249)">
<g id="Shopicon">
<path id="Vector" d="M15.4997 28.4167C18.9504 28.4167 22.1937 27.0734 24.6337 24.6334L22.8066 22.807C20.8549 24.7587 18.26 25.8334 15.4997 25.8334C9.80213 25.8334 5.16634 21.1976 5.16634 15.5C5.16634 9.8025 9.80213 5.16671 15.4997 5.16671C21.1972 5.16671 25.833 9.8025 25.833 15.5C25.833 16.9247 24.6744 18.0834 23.2497 18.0834C21.825 18.0834 20.6663 16.9247 20.6663 15.5V10.3334H18.083V11.0302C17.3222 10.5898 16.4419 10.3334 15.4997 10.3334C12.6464 10.3334 10.333 12.6467 10.333 15.5C10.333 18.3533 12.6464 20.6667 15.4997 20.6667C17.0458 20.6667 18.4292 19.9841 19.3766 18.9081C20.324 19.9834 21.7068 20.6667 23.2497 20.6667C26.0984 20.6667 28.4163 18.3488 28.4163 15.5C28.4163 8.37779 22.6219 2.58337 15.4997 2.58337C8.37742 2.58337 2.58301 8.37779 2.58301 15.5C2.58301 22.6223 8.37742 28.4167 15.4997 28.4167ZM15.4997 18.0834C14.075 18.0834 12.9163 16.9247 12.9163 15.5C12.9163 14.0753 14.075 12.9167 15.4997 12.9167C16.9244 12.9167 18.083 14.0753 18.083 15.5C18.083 16.9247 16.9244 18.0834 15.4997 18.0834Z" fill="white"/>
</g>
</g>
<defs>
<clipPath id="clip0_1648_11249">
<rect width="31" height="31" fill="white"/>
</clipPath>
</defs>
</svg>
