<svg width="66" height="39" viewBox="0 0 66 39" fill="none" xmlns="http://www.w3.org/2000/svg">
<g id="master card">
<path id="Vector" d="M65.5 19.5C65.5 30.2 56.8 39 46 39C35.3 39 26.5 30.2 26.5 19.5C26.5 8.8 35.2 0 45.9 0C56.8 0 65.5 8.8 65.5 19.5Z" fill="#F9B50B"/>
<path id="Vector_2" d="M39.4 19.6C39.4 18.2 39.2 16.8 39 15.5H27C27.1 14.8 27.3 14.2 27.5 13.4H38.2C38 12.7 37.7 12 37.4 11.3H28.3C28.6 10.6 29 10 29.4 9.2H36.3C35.9 8.5 35.4 7.8 34.8 7.1H31C31.6 6.4 32.2 5.8 33 5.1C29.6 1.9 25 0 19.9 0C9.3 0.3 0.5 8.8 0.5 19.5C0.5 30.2 9.2 39 20 39C25.1 39 29.6 37 33.1 33.9C33.8 33.3 34.4 32.6 35.1 31.8H31.1C30.6 31.2 30.1 30.5 29.7 29.8H36.5C36.9 29.2 37.3 28.5 37.6 27.7H28.5C28.2 27.1 27.9 26.4 27.7 25.6H38.4C39 23.8 39.4 21.8 39.4 19.6Z" fill="#C8191C"/>
<path id="Vector_3" d="M26.9 24.4999L27.2 22.6999C27.1 22.6999 26.9 22.7999 26.7 22.7999C26 22.7999 25.9 22.3999 26 22.1999L26.6 18.5999H27.7L28 16.5999H27L27.2 15.3999H25.1C25.1 15.3999 23.9 22.1999 23.9 22.9999C23.9 24.1999 24.6 24.7999 25.6 24.7999C26.2 24.7999 26.7 24.5999 26.9 24.4999Z" fill="white"/>
<path id="Vector_4" d="M27.6 21.2001C27.6 24.1001 29.6 24.8001 31.2 24.8001C32.7 24.8001 33.4 24.5001 33.4 24.5001L33.8 22.5001C33.8 22.5001 32.7 23.0001 31.6 23.0001C29.3 23.0001 29.7 21.3001 29.7 21.3001H33.9C33.9 21.3001 34.2 20.0001 34.2 19.4001C34.2 18.1001 33.5 16.4001 31.2 16.4001C29.2 16.3001 27.6 18.6001 27.6 21.2001ZM31.2 18.2001C32.3 18.2001 32.1 19.5001 32.1 19.6001H29.8C29.9 19.5001 30.1 18.2001 31.2 18.2001Z" fill="white"/>
<path id="Vector_5" d="M44.3 24.4999L44.7 22.1999C44.7 22.1999 43.7 22.6999 42.9 22.6999C41.5 22.6999 40.8 21.5999 40.8 20.2999C40.8 17.7999 42 16.4999 43.5 16.4999C44.5 16.4999 45.4 17.0999 45.4 17.0999L45.7 14.8999C45.7 14.8999 44.5 14.3999 43.3 14.3999C40.9 14.3999 38.6 16.4999 38.6 20.3999C38.6 22.9999 39.8 24.6999 42.3 24.6999C43.2 24.7999 44.3 24.4999 44.3 24.4999Z" fill="white"/>
<path id="Vector_6" d="M15.6 16.2998C14.2 16.2998 13.1 16.6998 13.1 16.6998L12.8 18.4998C12.8 18.4998 13.7 18.0998 15.1 18.0998C15.8 18.0998 16.4 18.1998 16.4 18.7998C16.4 19.1998 16.3 19.2998 16.3 19.2998H15.4C13.6 19.2998 11.7 19.9998 11.7 22.3998C11.7 24.2998 12.9 24.6998 13.7 24.6998C15.1 24.6998 15.8 23.7998 15.9 23.7998L15.8 24.5998H17.5L18.3 18.8998C18.3 16.3998 16.3 16.2998 15.6 16.2998ZM16 20.8998C16 21.1998 15.8 22.8998 14.6 22.8998C14 22.8998 13.8 22.3998 13.8 22.0998C13.8 21.5998 14.1 20.8998 15.7 20.8998C15.9 20.8998 16 20.8998 16 20.8998Z" fill="white"/>
<path id="Vector_7" d="M20.3 24.7002C20.8 24.7002 23.4 24.8002 23.4 22.0002C23.4 19.4002 20.9 19.9002 20.9 18.9002C20.9 18.4002 21.3 18.2002 22 18.2002C22.3 18.2002 23.4 18.3002 23.4 18.3002L23.7 16.4002C23.7 16.4002 23 16.2002 21.7 16.2002C20.2 16.2002 18.6 16.8002 18.6 18.9002C18.6 21.3002 21.2 21.1002 21.2 22.0002C21.2 22.6002 20.5 22.7002 20 22.7002C19.1 22.7002 18.1 22.4002 18.1 22.4002L17.8 24.3002C18 24.5002 18.6 24.7002 20.3 24.7002Z" fill="white"/>
<path id="Vector_8" d="M61.5 14.7002L61.1 17.5002C61.1 17.5002 60.3 16.5002 59.1 16.5002C57.2 16.5002 55.6 18.8002 55.6 21.5002C55.6 23.2002 56.4 24.9002 58.2 24.9002C59.4 24.9002 60.2 24.1002 60.2 24.1002L60.1 24.8002H62.2L63.7 14.9002L61.5 14.7002ZM60.5 20.1002C60.5 21.2002 60 22.7002 58.8 22.7002C58.1 22.7002 57.7 22.1002 57.7 21.0002C57.7 19.3002 58.4 18.3002 59.4 18.3002C60.1 18.4002 60.5 18.9002 60.5 20.1002Z" fill="white"/>
<path id="Vector_9" d="M4.3 24.6002L5.5 17.2002L5.7 24.6002H7.1L9.8 17.2002L8.7 24.6002H10.9L12.6 14.7002H9.2L7.1 20.8002L7 14.7002H4L2.3 24.6002H4.3Z" fill="white"/>
<path id="Vector_10" d="M36.3 24.6C36.9 21.2 37 18.4 38.5 18.9C38.7 17.6 39 17 39.2 16.5H38.8C37.9 16.5 37.1 17.7 37.1 17.7L37.3 16.6H35.3L34 24.6H36.3Z" fill="white"/>
<path id="Vector_11" d="M49.1 16.2998C47.7 16.2998 46.6 16.6998 46.6 16.6998L46.3 18.4998C46.3 18.4998 47.2 18.0998 48.6 18.0998C49.3 18.0998 49.9 18.1998 49.9 18.7998C49.9 19.1998 49.8 19.2998 49.8 19.2998H48.9C47.1 19.2998 45.2 19.9998 45.2 22.3998C45.2 24.2998 46.4 24.6998 47.2 24.6998C48.6 24.6998 49.3 23.7998 49.4 23.7998L49.3 24.5998H51.2L52 18.8998C52 16.3998 49.8 16.2998 49.1 16.2998ZM49.6 20.8998C49.6 21.1998 49.4 22.8998 48.2 22.8998C47.6 22.8998 47.4 22.3998 47.4 22.0998C47.4 21.5998 47.7 20.8998 49.3 20.8998C49.5 20.8998 49.5 20.8998 49.6 20.8998Z" fill="white"/>
<path id="Vector_12" d="M53.6 24.6C54.2 21.2 54.3 18.4 55.8 18.9C56 17.6 56.3 17 56.5 16.5H56.1C55.2 16.5 54.4 17.7 54.4 17.7L54.6 16.6H52.6L51.3 24.6H53.6Z" fill="white"/>
</g>
</svg>
