<svg width="54" height="17" viewBox="0 0 54 17" fill="none" xmlns="http://www.w3.org/2000/svg">
<g id="mir">
<path id="path10 2" d="M48 0.75H37.7C38.3 4.15 41.6 7.35001 45.2 7.35001H53.4C53.5 7.05001 53.5 6.55 53.5 6.25C53.5 3.25 51 0.75 48 0.75Z" fill="url(#paint0_linear_4_927)"/>
<path id="path12 3" d="M38.6 7.9502V16.2502H43.6V11.8502H48C50.4 11.8502 52.5 10.1502 53.2 7.9502H38.6Z" fill="#4FAD50"/>
<path id="path14 2" d="M21 0.75V16.15H25.4C25.4 16.15 26.5 16.15 27.1 15.05C30.1 9.15 31 7.35001 31 7.35001H31.6V16.15H36.6V0.75H32.2C32.2 0.75 31.1 0.850006 30.5 1.85001C28 6.95001 26.6 9.55 26.6 9.55H26V0.75H21Z" fill="#4FAD50"/>
<path id="path16 2" d="M0 16.2501V0.850098H5C5 0.850098 6.40001 0.850095 7.20001 3.05009C9.20001 8.85009 9.40002 9.6501 9.40002 9.6501C9.40002 9.6501 9.80001 8.25009 11.6 3.05009C12.4 0.850095 13.8 0.850098 13.8 0.850098H18.8V16.2501H13.8V7.9501H13.2L10.4 16.2501H8.20001L5.40002 7.9501H4.80002V16.2501H0Z" fill="#4FAD50"/>
</g>
<defs>
<linearGradient id="paint0_linear_4_927" x1="37.6822" y1="4.0973" x2="53.4646" y2="4.0973" gradientUnits="userSpaceOnUse">
<stop stop-color="#27B1E6"/>
<stop offset="1" stop-color="#148ACA"/>
</linearGradient>
</defs>
</svg>
