<svg width="682" height="683" viewBox="0 0 682 683" fill="none" xmlns="http://www.w3.org/2000/svg">
<path d="M312.834 389.848L331.616 357.272L334.746 355.44L332.941 365.874L312.834 389.848ZM335.668 367.175L340.464 361.491L342.307 371.874L327.816 411.573L335.668 367.175ZM342.951 358.535L344.895 356.186L346.813 359.533L344.301 366.354L342.951 358.535ZM345.324 372.177L348.694 362.83L353.15 370.484V416.575L345.324 372.177ZM353.15 364.649L350.019 359.23L351.534 355.062L353.15 356.438V364.649ZM353.15 352.624L352.607 352.144L353.15 350.628V352.624ZM353.15 333.942L352.607 332.426L353.15 331.934V333.942ZM350.411 349.63L350.221 350.148L350.07 350.022L350.411 349.63ZM350.07 334.548L350.221 334.46L350.411 334.991L350.07 334.548ZM353.15 328.119L351.534 329.509L350.019 325.34L353.15 319.947V328.119ZM346.902 330.772L348.101 328.688L349.161 331.517L348.164 332.325L346.902 330.772ZM348.164 352.283L349.161 353.053L348.101 355.933L346.902 353.798L348.164 352.283ZM348.164 347.761L347.836 348.102L347.672 348.013L348.164 347.761ZM347.672 336.595L347.836 336.456L348.164 336.847L347.672 336.595ZM353.15 314.086L348.694 321.766L345.324 312.431L353.15 267.995V314.086ZM344.945 349.58L345.917 350.413L345.324 351.057L344.617 349.794L344.945 349.58ZM344.617 334.814L345.324 333.513L345.917 334.207L344.945 335.028L344.617 334.814ZM344.301 318.216L346.813 325.075L344.895 328.384L342.951 326.073L344.301 318.216ZM342.067 351.272L343.329 353.445L342.269 354.758L341.688 351.449L342.067 351.272ZM341.688 333.121L342.269 329.862L343.329 331.113L342.029 333.336L341.688 333.121ZM338.987 331.555L338.078 331.037L336.703 323.206L339.82 326.907L338.987 331.555ZM339.82 357.714L336.703 361.352L338.078 353.584L338.987 353.015L339.82 357.714ZM342.307 312.697L340.464 323.13L335.668 317.433L327.816 272.984L342.307 312.697ZM335.668 350.236L335.428 351.714L334.557 352.194L335.668 350.236ZM334.557 332.376L335.428 332.894L335.668 334.334L334.557 332.376ZM332.941 318.696L334.746 329.117L331.616 327.298L312.834 294.76L332.941 318.696ZM329.47 329.471L333.143 335.812L316.936 322.22L329.47 329.471ZM333.143 348.759L329.47 355.15L316.986 362.362L333.143 348.759ZM356.129 314.869L374.923 282.281L360.471 321.993L356.129 325.681V314.869ZM356.129 329.509L358.413 327.551L356.129 333.942V329.509ZM356.129 350.628L358.413 357.007L356.129 355.062V350.628ZM356.129 358.927L360.471 362.577L374.923 402.277L356.129 369.701V358.927ZM362.945 360.834L359.549 351.487L360.824 351.967L380.919 375.916L362.945 360.834ZM362.553 349.453L361.102 347.71L366.769 350.969L362.553 349.453ZM361.102 336.847L362.553 335.117L366.769 333.601L361.102 336.847ZM360.824 332.641L359.549 333.071L362.945 323.774L380.919 308.655L360.824 332.641ZM301.953 402.795L129.203 608.632C129.986 609.251 130.768 609.807 131.551 610.413L293.458 417.497L167.815 635.095C168.635 635.613 169.481 636.093 170.352 636.623L304.339 404.5L331.906 371.659L322.073 427.527L235.37 665.599C236.304 665.94 237.213 666.205 238.185 666.508L319.132 444.2L278.122 676.462C279.094 676.677 280.079 676.841 281.05 677.018L324.901 428.31L343.329 377.697L353.15 433.514V682.02C354.134 681.969 355.106 681.931 356.129 681.881V450.2L396.205 677.763C397.227 677.586 398.136 677.447 399.108 677.321L356.129 433.249V375.6L380.717 418.23L467.9 657.768C468.821 657.427 469.692 657.035 470.626 656.643L389.161 432.87L507.926 638.53C508.759 638.05 509.63 637.621 510.475 637.09L383.368 416.967L364.964 366.354L391.799 388.863L566.405 596.898C567.125 596.304 567.869 595.648 568.601 595.003L404.788 399.751L599.589 563.236C600.233 562.503 600.902 561.72 601.533 560.975L393.895 386.816L366.315 353.975L381.411 359.495L638.744 507.204L639.804 505.246L397.315 365.217L660.126 460.886C660.442 459.976 660.846 459.105 661.187 458.145L382.661 356.792L362.553 345.197L676.725 399.814C676.801 399.069 676.914 398.374 677.041 397.641L371.402 343.757H681.648C681.648 342.973 681.686 342.241 681.686 341.458V340.814H371.439L677.344 286.878C677.154 285.893 677.003 284.984 676.851 284.024L362.553 339.411L382.661 327.766L661.73 226.287C661.389 225.327 661.035 224.417 660.707 223.508L397.315 319.341L640.549 178.932C640.044 178.099 639.577 177.227 639.072 176.368L381.411 325.126L366.315 330.645L393.895 297.754L602.379 122.888C601.723 122.105 601.091 121.359 600.473 120.627L404.788 284.807L569.435 88.6068C568.69 87.9626 567.97 87.3058 567.188 86.649L391.799 295.708L364.964 318.216L383.368 267.641L511.258 46.204C510.362 45.6861 509.491 45.244 508.67 44.7261L389.161 251.701L471.169 26.4362C470.235 26.0446 469.364 25.7036 468.43 25.312L380.717 266.391L356.129 308.958V251.309L399.423 5.67053C398.439 5.50629 397.517 5.32953 396.533 5.15265L356.129 234.371V0.984375C355.106 0.933838 354.134 0.883301 353.15 0.845398V251.044L343.329 306.924L324.901 256.298L280.76 5.89789C279.801 6.09998 278.854 6.27679 277.832 6.45367L319.132 240.408L237.604 16.5333C236.695 16.8491 235.761 17.127 234.827 17.4428L322.073 257.044L331.906 312.911L304.339 280.07L169.62 46.684C168.749 47.2145 167.916 47.6818 167.095 48.1997L293.458 267.123L130.655 73.1084C129.872 73.702 129.165 74.3083 128.382 74.9273L301.953 281.763L326.504 324.38L303.998 311.345L79.3318 122.837C78.6754 123.62 78.0948 124.366 77.4132 125.098L289.356 302.882L49.5051 164.457C48.9118 165.367 48.4195 166.289 47.8263 167.198L302.294 313.783L329.129 336.279L323.878 335.382L20.4104 224.935C20.1201 225.895 19.7667 226.767 19.4385 227.714L307.166 332.426L5.70532 279.161C5.47812 280.247 5.27617 281.283 5.1247 282.281L323.083 338.249L330.253 340.814H0V341.458V343.757H330.253L323.083 346.371L5.44025 402.239C5.62959 403.275 5.81893 404.285 6.00826 405.27L307.217 352.144L19.9687 456.679C20.3095 457.576 20.6629 458.536 20.9784 459.408L323.878 349.239L329.129 348.279L302.294 370.825L48.7225 517.145C49.3536 518.143 49.9342 519.065 50.5275 520.05L289.306 381.688L78.2463 558.765C78.9405 559.56 79.5716 560.242 80.1523 561.025L303.998 373.213L326.504 360.228L301.953 402.795Z" fill="#5567EA"/>
</svg>
