<svg width="60" height="60" viewBox="0 0 60 60" fill="none" xmlns="http://www.w3.org/2000/svg">
<g id="9" filter="url(#filter0_d_888_9651)">
<rect id="Rectangle 1" x="6" y="2" width="48" height="48" rx="24" fill="#333333"/>
<path id="Vector" d="M39.5998 17.1227L35.9933 35.9508C35.9933 35.9508 35.4887 37.2562 34.1025 36.6301L25.7813 30.0231L25.7427 30.0036C26.8667 28.9585 35.5827 20.8432 35.9636 20.4754C36.5533 19.9057 36.1872 19.5665 35.5025 19.9969L22.628 28.4636L17.661 26.7329C17.661 26.7329 16.8793 26.445 16.8041 25.819C16.7279 25.1919 17.6867 24.8527 17.6867 24.8527L37.9356 16.6268C37.9356 16.6268 39.5998 15.8695 39.5998 17.1227Z" fill="white"/>
</g>
<defs>
<filter id="filter0_d_888_9651" x="0" y="0" width="60" height="60" filterUnits="userSpaceOnUse" color-interpolation-filters="sRGB">
<feFlood flood-opacity="0" result="BackgroundImageFix"/>
<feColorMatrix in="SourceAlpha" type="matrix" values="0 0 0 0 0 0 0 0 0 0 0 0 0 0 0 0 0 0 127 0" result="hardAlpha"/>
<feOffset dy="4"/>
<feGaussianBlur stdDeviation="3"/>
<feColorMatrix type="matrix" values="0 0 0 0 0 0 0 0 0 0 0 0 0 0 0 0 0 0 0.06 0"/>
<feBlend mode="normal" in2="BackgroundImageFix" result="effect1_dropShadow_888_9651"/>
<feBlend mode="normal" in="SourceGraphic" in2="effect1_dropShadow_888_9651" result="shape"/>
</filter>
</defs>
</svg>
