<svg width="69" height="21" viewBox="0 0 69 21" fill="none" xmlns="http://www.w3.org/2000/svg">
<g id="visa">
<path id="Vector" d="M64.3 0.299805H60C58.7 0.299805 57.7 0.699805 57.1 1.9998L48.9 20.6998H54.7C54.7 20.6998 55.7 18.1998 55.9 17.5998C56.5 17.5998 62.2 17.5998 63 17.5998C63.2 18.2998 63.7 20.5998 63.7 20.5998H68.9L64.3 0.299805ZM57.5 13.3998C58 12.1998 59.7 7.6998 59.7 7.6998C59.7 7.7998 60.2 6.4998 60.4 5.7998L60.8 7.5998C60.8 7.5998 61.9 12.4998 62.1 13.4998H57.5V13.3998Z" fill="#3362AB"/>
<path id="Vector_2" d="M49.3 14C49.3 18.2 45.5 21 39.6 21C37.1 21 34.7 20.5 33.4 19.9L34.2 15.3L34.9 15.6C36.7 16.4 37.9 16.7 40.1 16.7C41.7 16.7 43.4 16.1 43.4 14.7C43.4 13.8 42.7 13.2 40.5 12.2C38.4 11.2 35.6 9.6 35.6 6.7C35.6 2.7 39.5 0 45 0C47.1 0 48.9 0.4 50 0.9L49.2 5.3L48.8 4.9C47.8 4.5 46.5 4.1 44.6 4.1C42.5 4.2 41.5 5.1 41.5 5.9C41.5 6.8 42.7 7.5 44.6 8.4C47.8 9.9 49.3 11.6 49.3 14Z" fill="#3362AB"/>
<path id="Vector_3" d="M0.5 0.500098L0.6 0.100098H9.2C10.4 0.100098 11.3 0.500098 11.6 1.8001L13.5 10.8001C11.6 6.0001 7.2 2.1001 0.5 0.500098Z" fill="#F9B50B"/>
<path id="Vector_4" d="M25.6 0.300195L16.9 20.6002H11L6 3.6002C9.6 5.9002 12.6 9.5002 13.7 12.0002L14.3 14.1002L19.7 0.200195H25.6V0.300195Z" fill="#3362AB"/>
<path id="Vector_5" d="M27.9 0.200195H33.4L29.9 20.6002H24.4L27.9 0.200195Z" fill="#3362AB"/>
</g>
</svg>
