<svg width="60" height="60" viewBox="0 0 60 60" fill="none" xmlns="http://www.w3.org/2000/svg">
<g id="2" filter="url(#filter0_d_888_9654)">
<rect id="Rectangle 1" x="6" y="2" width="48" height="48" rx="24" fill="#333333"/>
<path id="Vector" d="M39.5122 16.675C37.1415 14.3125 33.9805 13 30.6439 13C23.7073 13 18.0878 18.6 18.0878 25.5125C18.0878 27.7 18.7024 29.8875 19.7561 31.725L18 38.2L24.6732 36.45C26.5171 37.4125 28.5366 37.9375 30.6439 37.9375C37.5805 37.9375 43.2 32.3375 43.2 25.425C43.1122 22.1875 41.8829 19.0375 39.5122 16.675ZM36.7024 29.975C36.439 30.675 35.2098 31.375 34.5951 31.4625C34.0683 31.55 33.3659 31.55 32.6634 31.375C32.2244 31.2 31.6098 31.025 30.9073 30.675C27.7463 29.3625 25.7268 26.2125 25.5512 25.95C25.3756 25.775 24.2341 24.2875 24.2341 22.7125C24.2341 21.1375 25.0244 20.4375 25.2878 20.0875C25.5512 19.7375 25.9024 19.7375 26.1659 19.7375C26.3415 19.7375 26.6049 19.7375 26.7805 19.7375C26.9561 19.7375 27.2195 19.65 27.4829 20.2625C27.7463 20.875 28.361 22.45 28.4488 22.5375C28.5366 22.7125 28.5366 22.8875 28.4488 23.0625C28.361 23.2375 28.2732 23.4125 28.0976 23.5875C27.9219 23.7625 27.7463 24.025 27.6585 24.1125C27.4829 24.2875 27.3073 24.4625 27.4829 24.725C27.6585 25.075 28.2732 26.0375 29.239 26.9125C30.4683 27.9625 31.4341 28.3125 31.7854 28.4875C32.1366 28.6625 32.3122 28.575 32.4878 28.4C32.6634 28.225 33.2781 27.525 33.4537 27.175C33.6293 26.825 33.8927 26.9125 34.1561 27C34.4195 27.0875 36 27.875 36.2634 28.05C36.6146 28.225 36.7902 28.3125 36.878 28.4C36.9659 28.6625 36.9659 29.275 36.7024 29.975Z" fill="white"/>
</g>
<defs>
<filter id="filter0_d_888_9654" x="0" y="0" width="60" height="60" filterUnits="userSpaceOnUse" color-interpolation-filters="sRGB">
<feFlood flood-opacity="0" result="BackgroundImageFix"/>
<feColorMatrix in="SourceAlpha" type="matrix" values="0 0 0 0 0 0 0 0 0 0 0 0 0 0 0 0 0 0 127 0" result="hardAlpha"/>
<feOffset dy="4"/>
<feGaussianBlur stdDeviation="3"/>
<feColorMatrix type="matrix" values="0 0 0 0 0 0 0 0 0 0 0 0 0 0 0 0 0 0 0.06 0"/>
<feBlend mode="normal" in2="BackgroundImageFix" result="effect1_dropShadow_888_9654"/>
<feBlend mode="normal" in="SourceGraphic" in2="effect1_dropShadow_888_9654" result="shape"/>
</filter>
</defs>
</svg>
